<?xml version="1.0" encoding="UTF-8" standalone="no"?>
<svg
   xmlns:dc="http://purl.org/dc/elements/1.1/"
   xmlns:cc="http://creativecommons.org/ns#"
   xmlns:rdf="http://www.w3.org/1999/02/22-rdf-syntax-ns#"
   xmlns:svg="http://www.w3.org/2000/svg"
   xmlns="http://www.w3.org/2000/svg"
   xmlns:sodipodi="http://sodipodi.sourceforge.net/DTD/sodipodi-0.dtd"
   xmlns:inkscape="http://www.inkscape.org/namespaces/inkscape"
   version="1.1"
   width="7.2900643cm"
   height="13.101549cm"
   viewBox="0 0 28701.042 51580.901"
   id="svg952"
   sodipodi:docname="Daugter_board-brd.svg"
   inkscape:version="0.92.5 (2060ec1f9f, 2020-04-08)">
  <metadata
     id="metadata958">
    <rdf:RDF>
      <cc:Work
         rdf:about="">
        <dc:format>image/svg+xml</dc:format>
        <dc:type
           rdf:resource="http://purl.org/dc/dcmitype/StillImage" />
      </cc:Work>
    </rdf:RDF>
  </metadata>
  <defs
     id="defs956" />
  <sodipodi:namedview
     pagecolor="#ffffff"
     bordercolor="#666666"
     borderopacity="1"
     objecttolerance="10"
     gridtolerance="10"
     guidetolerance="10"
     inkscape:pageopacity="0"
     inkscape:pageshadow="2"
     inkscape:window-width="1600"
     inkscape:window-height="835"
     id="namedview954"
     showgrid="false"
     inkscape:zoom="2.3023896"
     inkscape:cx="-63.56593"
     inkscape:cy="1.4695009"
     inkscape:window-x="0"
     inkscape:window-y="0"
     inkscape:window-maximized="1"
     inkscape:current-layer="layer1" />
  <title
     id="title2">SVG Picture created as Daugter_board-brd.svg date 2021/11/14 16:42:45 </title>
  <desc
     id="desc4">Picture generated by PCBNEW </desc>
  <g
     inkscape:groupmode="layer"
     id="layer1"
     inkscape:label="F.Cu"
     style="display:inline"
     transform="translate(-6701.2309,40933.897)">
    <path
       style="color:#000000;font-style:normal;font-variant:normal;font-weight:normal;font-stretch:normal;font-size:medium;line-height:normal;font-family:sans-serif;font-variant-ligatures:normal;font-variant-position:normal;font-variant-caps:normal;font-variant-numeric:normal;font-variant-alternates:normal;font-feature-settings:normal;text-indent:0;text-align:start;text-decoration:none;text-decoration-line:none;text-decoration-style:solid;text-decoration-color:#000000;letter-spacing:normal;word-spacing:normal;text-transform:none;writing-mode:lr-tb;direction:ltr;text-orientation:mixed;dominant-baseline:auto;baseline-shift:baseline;text-anchor:start;white-space:normal;shape-padding:0;clip-rule:nonzero;display:inline;overflow:visible;visibility:visible;opacity:1;isolation:auto;mix-blend-mode:normal;color-interpolation:sRGB;color-interpolation-filters:linearRGB;solid-color:#000000;solid-opacity:1;vector-effect:none;fill:none;fill-opacity:1;fill-rule:nonzero;stroke:#ff0000;stroke-width:104.16603088;stroke-linecap:round;stroke-linejoin:miter;stroke-miterlimit:4;stroke-dasharray:none;stroke-dashoffset:0;stroke-opacity:1;color-rendering:auto;image-rendering:auto;shape-rendering:auto;text-rendering:auto;enable-background:accumulate"
       d="m 18604.252,-40881.814 a 500.04695,500.04695 0 0 0 -500.477,498.452 l -36.63,10103.29 -4.06,28.483 -14.25,18.311 -990.794,913.486 -12.21,10.173 -4.07,2.035 -22.38,2.034 H 7579.3391 a 500.04695,500.04695 0 0 0 -500.4869,494.383 l -325.518,38901.541 a 500.04695,500.04695 0 0 0 500.4869,504.547 l 27388.3459,-38.66 a 500.04695,500.04695 0 0 0 498.447,-492.337 l 209.559,-13224.2059 a 500.04695,500.04695 0 0 0 0,-8.138 l -38.66,-25638.6791 a 500.04695,500.04695 0 0 0 -500.487,-498.451 H 25405.56 l -20.34,-2.034 h -2.03 l -18.32,-16.276 -1019.274,-986.73 -16.279,-20.344 -2.03,-24.413 36.619,-10023.947 a 500.04695,500.04695 0 0 0 -500.487,-502.52 z m -8123.731,37711.3591 a 781.32336,831.21829 0 0 1 77.32,0 781.32336,831.21829 0 0 1 549.307,278.7253 c 1549.4,1810.4289 1596.84,4630.8927 -16.27,6402.5448 -481.177,528.4668 -744.936,1335.5508 -740.556,2130.116 4.38,794.5751 279.698,1529.8506 703.936,1938.8681 A 781.84875,831.77723 0 1 1 10004.454,8812.7117 C 9171.3694,8009.4766 8794.2817,6828.2439 8787.8317,5651.1011 8781.3218,4473.9683 9148.1295,3255.4868 9967.8345,2355.2283 10993.338,1228.9262 10972.458,-577.83274 9951.5546,-1770.7234 a 781.32336,831.21829 0 0 1 528.9664,-1399.7315 z m 3458.639,0 a 781.32336,831.21829 0 0 1 77.31,0 781.32336,831.21829 0 0 1 549.316,278.7253 c 1549.401,1810.4289 1596.841,4630.8927 -16.28,6402.5448 -481.167,528.4668 -742.895,1335.5508 -738.515,2130.116 4.39,794.5751 277.668,1529.8506 701.896,1938.8681 a 781.8454,831.77366 0 1 1 -1049.794,1232.9124 c -833.085,-803.2351 -1208.133,-1984.4678 -1214.592,-3161.6106 -6.5,-1177.1328 358.267,-2395.6143 1177.972,-3295.8728 1025.504,-1126.3021 1004.624,-2933.06104 -16.28,-4125.9517 a 781.32336,831.21829 0 0 1 528.967,-1399.7315 z m 3458.639,0 a 781.32336,831.21829 0 0 1 77.31,0 781.32336,831.21829 0 0 1 549.316,278.7253 c 1549.401,1810.4289 1596.84,4630.8927 -16.28,6402.5448 -481.167,528.4668 -742.895,1335.5508 -738.515,2130.116 4.39,794.5751 277.658,1529.8506 701.895,1938.8681 a 781.84526,831.77352 0 1 1 -1049.793,1232.9124 c -833.085,-803.2351 -1208.133,-1984.4678 -1214.593,-3161.6106 -6.5,-1177.1328 358.268,-2395.6143 1177.973,-3295.8728 1025.504,-1126.3021 1004.624,-2933.06104 -16.28,-4125.9517 a 781.32336,831.21829 0 0 1 528.967,-1399.7315 z m 3458.639,0 a 781.32336,831.21829 0 0 1 79.349,0 781.32336,831.21829 0 0 1 549.307,278.7253 c 1549.41,1810.4289 1594.81,4630.8927 -18.31,6402.5448 -481.167,528.4668 -742.895,1335.5508 -738.515,2130.116 4.39,794.5751 277.668,1529.8506 701.895,1938.8681 a 781.32336,831.21829 0 1 1 -1047.763,1232.9124 c -833.085,-803.2351 -1210.163,-1984.4678 -1216.623,-3161.6106 -6.5,-1177.1328 360.308,-2395.6143 1180.003,-3295.8728 1025.514,-1126.3021 1004.624,-2933.06104 -16.28,-4125.9517 a 781.32336,831.21829 0 0 1 526.937,-1399.7315 z m 3460.669,0 a 781.32336,831.21829 0 0 1 77.319,0 781.32336,831.21829 0 0 1 549.307,278.7253 c 1549.4,1810.4289 1596.84,4630.8927 -16.27,6402.5448 -481.177,528.4668 -744.936,1335.5508 -740.556,2130.116 4.39,794.5751 279.699,1529.8506 703.936,1938.8681 A 781.84862,831.77709 0 1 1 23841.04,8812.7117 c -833.085,-803.2351 -1210.163,-1984.4678 -1216.623,-3161.6106 -6.5,-1177.1328 360.298,-2395.6143 1180.003,-3295.8728 1025.503,-1126.3021 1004.624,-2933.06104 -16.28,-4125.9517 a 781.32336,831.21829 0 0 1 528.967,-1399.7315 z m 3458.638,0 a 781.32336,831.21829 0 0 1 77.32,0 781.32336,831.21829 0 0 1 549.307,278.7253 c 1549.4,1810.4289 1596.84,4630.8927 -16.28,6402.5448 -481.167,528.4668 -742.896,1335.5508 -738.516,2130.116 4.39,794.5751 277.668,1529.8506 701.896,1938.8681 a 781.8454,831.77366 0 1 1 -1049.794,1232.9124 c -833.085,-803.2351 -1208.132,-1984.4678 -1214.592,-3161.6106 -6.5,-1177.1328 358.268,-2395.6143 1177.973,-3295.8728 1025.503,-1126.3021 1004.623,-2933.06104 -16.28,-4125.9517 a 781.32336,831.21829 0 0 1 528.966,-1399.7315 z m 3458.639,0 a 781.32336,831.21829 0 0 1 79.35,0 781.32336,831.21829 0 0 1 547.276,278.7253 c 1549.401,1810.4289 1596.845,4630.8927 -16.28,6402.5448 -481.167,528.4668 -742.895,1335.5508 -738.515,2130.116 4.39,794.5751 277.668,1529.8506 701.896,1938.8681 a 781.84539,831.77366 0 1 1 -1049.794,1232.9124 c -833.085,-803.2351 -1208.132,-1984.4678 -1214.592,-3161.6106 -6.5,-1177.1328 360.307,-2395.6143 1180.002,-3295.8728 1025.514,-1126.3021 1002.594,-2933.06104 -18.31,-4125.9517 a 781.32336,831.21829 0 0 1 528.967,-1399.7315 z"
       id="path6397"
       inkscape:connector-curvature="0" />
  </g>
</svg>
