%TF.GenerationSoftware,KiCad,Pcbnew,5.1.5+dfsg1-2build2*%
%TF.CreationDate,2021-12-02T15:53:16+01:00*%
%TF.ProjectId,plotter_board,706c6f74-7465-4725-9f62-6f6172642e6b,rev?*%
%TF.SameCoordinates,Original*%
%TF.FileFunction,Soldermask,Top*%
%TF.FilePolarity,Negative*%
%FSLAX46Y46*%
G04 Gerber Fmt 4.6, Leading zero omitted, Abs format (unit mm)*
G04 Created by KiCad (PCBNEW 5.1.5+dfsg1-2build2) date 2021-12-02 15:53:16*
%MOMM*%
%LPD*%
G04 APERTURE LIST*
%ADD10C,0.100000*%
%ADD11C,0.600001*%
%ADD12C,0.543298*%
%ADD13C,0.588542*%
%ADD14C,0.590071*%
%ADD15C,0.589227*%
%ADD16C,0.587883*%
%ADD17C,0.597326*%
%ADD18C,0.100726*%
%ADD19C,0.800000*%
%ADD20C,7.400000*%
%ADD21O,1.700000X1.700000*%
%ADD22R,1.700000X1.700000*%
%ADD23C,2.100000*%
%ADD24C,1.750000*%
%ADD25C,1.600000*%
%ADD26R,1.800000X4.400000*%
%ADD27O,1.800000X4.000000*%
%ADD28O,4.000000X1.800000*%
%ADD29O,1.700000X1.850000*%
%ADD30O,1.350000X1.350000*%
%ADD31R,1.350000X1.350000*%
%ADD32C,0.254000*%
G04 APERTURE END LIST*
D10*
G36*
X126050000Y-127470000D02*
G01*
X125300000Y-127470000D01*
X125300000Y-126760000D01*
X126050000Y-126760000D01*
X126050000Y-127470000D01*
G37*
X126050000Y-127470000D02*
X125300000Y-127470000D01*
X125300000Y-126760000D01*
X126050000Y-126760000D01*
X126050000Y-127470000D01*
G36*
X133140000Y-125140000D02*
G01*
X132390000Y-125140000D01*
X132390000Y-124430000D01*
X133140000Y-124430000D01*
X133140000Y-125140000D01*
G37*
X133140000Y-125140000D02*
X132390000Y-125140000D01*
X132390000Y-124430000D01*
X133140000Y-124430000D01*
X133140000Y-125140000D01*
G36*
X156780000Y-99610000D02*
G01*
X151290000Y-99620000D01*
X151293750Y-99340000D01*
X151306250Y-94140000D01*
X156777500Y-94130000D01*
X156780000Y-99610000D01*
G37*
X156780000Y-99610000D02*
X151290000Y-99620000D01*
X151293750Y-99340000D01*
X151306250Y-94140000D01*
X156777500Y-94130000D01*
X156780000Y-99610000D01*
D11*
%TO.C,svg2mod*%
X188644716Y-143950680D02*
X188632995Y-145301180D01*
G36*
X98759101Y-58942524D02*
G01*
X99556754Y-59558294D01*
X100296238Y-59928790D01*
X101085861Y-60141700D01*
X101274376Y-60153527D01*
X101274376Y-62086387D01*
X98758810Y-62073285D01*
X98759101Y-58942524D01*
G37*
X98759101Y-58942524D02*
X99556754Y-59558294D01*
X100296238Y-59928790D01*
X101085861Y-60141700D01*
X101274376Y-60153527D01*
X101274376Y-62086387D01*
X98758810Y-62073285D01*
X98759101Y-58942524D01*
D12*
G36*
X98663378Y-138243332D02*
G01*
X98663378Y-143100159D01*
X101195755Y-143100159D01*
X101195755Y-138243332D01*
X98663378Y-138243332D01*
G37*
X98663378Y-138243332D02*
X98663378Y-143100159D01*
X101195755Y-143100159D01*
X101195755Y-138243332D01*
X98663378Y-138243332D01*
G36*
X98667479Y-132010992D02*
G01*
X98667479Y-136867819D01*
X101199855Y-136867819D01*
X101199855Y-132010992D01*
X98667479Y-132010992D01*
G37*
X98667479Y-132010992D02*
X98667479Y-136867819D01*
X101199855Y-136867819D01*
X101199855Y-132010992D01*
X98667479Y-132010992D01*
G36*
X98679806Y-125787939D02*
G01*
X98679806Y-130644767D01*
X101212182Y-130644767D01*
X101212182Y-125787939D01*
X98679806Y-125787939D01*
G37*
X98679806Y-125787939D02*
X98679806Y-130644767D01*
X101212182Y-130644767D01*
X101212182Y-125787939D01*
X98679806Y-125787939D01*
G36*
X98684016Y-119556314D02*
G01*
X98684016Y-124413141D01*
X101216392Y-124413141D01*
X101216392Y-119556314D01*
X98684016Y-119556314D01*
G37*
X98684016Y-119556314D02*
X98684016Y-124413141D01*
X101216392Y-124413141D01*
X101216392Y-119556314D01*
X98684016Y-119556314D01*
G36*
X98688088Y-113329821D02*
G01*
X98688088Y-118186649D01*
X101220464Y-118186649D01*
X101220464Y-113329821D01*
X98688088Y-113329821D01*
G37*
X98688088Y-113329821D02*
X98688088Y-118186649D01*
X101220464Y-118186649D01*
X101220464Y-113329821D01*
X98688088Y-113329821D01*
G36*
X98745134Y-63499839D02*
G01*
X98745134Y-68356666D01*
X101275134Y-68356666D01*
X101275134Y-63499839D01*
X98745134Y-63499839D01*
G37*
X98745134Y-63499839D02*
X98745134Y-68356666D01*
X101275134Y-68356666D01*
X101275134Y-63499839D01*
X98745134Y-63499839D01*
G36*
X98741031Y-69729611D02*
G01*
X98741031Y-74586438D01*
X101273407Y-74586438D01*
X101273407Y-69729611D01*
X98741031Y-69729611D01*
G37*
X98741031Y-69729611D02*
X98741031Y-74586438D01*
X101273407Y-74586438D01*
X101273407Y-69729611D01*
X98741031Y-69729611D01*
G36*
X98736827Y-75957189D02*
G01*
X98736827Y-80814016D01*
X101269203Y-80814016D01*
X101269203Y-75957189D01*
X98736827Y-75957189D01*
G37*
X98736827Y-75957189D02*
X98736827Y-80814016D01*
X101269203Y-80814016D01*
X101269203Y-75957189D01*
X98736827Y-75957189D01*
G36*
X98720131Y-82148652D02*
G01*
X98720131Y-87005479D01*
X101252508Y-87005479D01*
X101252508Y-82148652D01*
X98720131Y-82148652D01*
G37*
X98720131Y-82148652D02*
X98720131Y-87005479D01*
X101252508Y-87005479D01*
X101252508Y-82148652D01*
X98720131Y-82148652D01*
G36*
X98715842Y-88379507D02*
G01*
X98715842Y-93236334D01*
X101248219Y-93236334D01*
X101248219Y-88379507D01*
X98715842Y-88379507D01*
G37*
X98715842Y-88379507D02*
X98715842Y-93236334D01*
X101248219Y-93236334D01*
X101248219Y-88379507D01*
X98715842Y-88379507D01*
G36*
X98711583Y-94605418D02*
G01*
X98711583Y-99462245D01*
X101243959Y-99462245D01*
X101243959Y-94605418D01*
X98711583Y-94605418D01*
G37*
X98711583Y-94605418D02*
X98711583Y-99462245D01*
X101243959Y-99462245D01*
X101243959Y-94605418D01*
X98711583Y-94605418D01*
G36*
X98707508Y-100836382D02*
G01*
X98707508Y-105693209D01*
X101239884Y-105693209D01*
X101239884Y-100836382D01*
X98707508Y-100836382D01*
G37*
X98707508Y-100836382D02*
X98707508Y-105693209D01*
X101239884Y-105693209D01*
X101239884Y-100836382D01*
X98707508Y-100836382D01*
D11*
X161907945Y-147524807D02*
X161129565Y-147524807D01*
X188848477Y-150043447D02*
X188851757Y-149391374D01*
X187600890Y-150045019D02*
X187592423Y-149406341D01*
X183765958Y-150041331D02*
X183749898Y-149364140D01*
X182507459Y-150040553D02*
X182512275Y-149375877D01*
X178607514Y-150038910D02*
X178595185Y-149388969D01*
X177348238Y-150038798D02*
X177348338Y-149346455D01*
X173497524Y-150036219D02*
X173497524Y-149371890D01*
X172254598Y-150036221D02*
X172252482Y-149362846D01*
X141983426Y-57770327D02*
X141727299Y-57771703D01*
X141983426Y-56278195D02*
X141983426Y-57770327D01*
X140476616Y-56278195D02*
X141983426Y-56278195D01*
X102662866Y-88400994D02*
X105833501Y-88416075D01*
X102671148Y-91526252D02*
X102662866Y-88400994D01*
X102658818Y-94632942D02*
X102679482Y-97768255D01*
X102671412Y-90111208D02*
X102680805Y-93235143D01*
X102676360Y-99461504D02*
X106016275Y-99439490D01*
X102679482Y-96353443D02*
X102676360Y-99461504D01*
X137741565Y-59234858D02*
X137749291Y-58743522D01*
X136492997Y-59237398D02*
X137741565Y-59234858D01*
X136492997Y-58837027D02*
X136492997Y-59237398D01*
X137727595Y-56286186D02*
X140476616Y-56278195D01*
X150224316Y-59016924D02*
X147490085Y-59020602D01*
X147490085Y-59020602D02*
X150224316Y-59016924D01*
X147477888Y-56910179D02*
X147490085Y-59020602D01*
X132233655Y-56282535D02*
X132246963Y-58669578D01*
X134982940Y-56263590D02*
X132233655Y-56282535D01*
G36*
X186251218Y-150017039D02*
G01*
X186251218Y-152019421D01*
X190242274Y-152019421D01*
X190242274Y-150017039D01*
X186251218Y-150017039D01*
G37*
X186251218Y-150017039D02*
X186251218Y-152019421D01*
X190242274Y-152019421D01*
X190242274Y-150017039D01*
X186251218Y-150017039D01*
G36*
X181100596Y-150015102D02*
G01*
X181100596Y-152018339D01*
X185076407Y-152018339D01*
X185076407Y-150015102D01*
X181100596Y-150015102D01*
G37*
X181100596Y-150015102D02*
X181100596Y-152018339D01*
X185076407Y-152018339D01*
X185076407Y-150015102D01*
X181100596Y-150015102D01*
G36*
X175950312Y-150011872D02*
G01*
X175950312Y-152014383D01*
X179939055Y-152014383D01*
X179939055Y-150011872D01*
X175950312Y-150011872D01*
G37*
X175950312Y-150011872D02*
X175950312Y-152014383D01*
X179939055Y-152014383D01*
X179939055Y-150011872D01*
X175950312Y-150011872D01*
G36*
X170810712Y-149999574D02*
G01*
X170810712Y-152003011D01*
X174782944Y-152003011D01*
X174782944Y-149999574D01*
X170810712Y-149999574D01*
G37*
X170810712Y-149999574D02*
X170810712Y-152003011D01*
X174782944Y-152003011D01*
X174782944Y-149999574D01*
X170810712Y-149999574D01*
G36*
X165666992Y-150000738D02*
G01*
X165666992Y-152003769D01*
X169646459Y-152003769D01*
X169646459Y-150000738D01*
X165666992Y-150000738D01*
G37*
X165666992Y-150000738D02*
X165666992Y-152003769D01*
X169646459Y-152003769D01*
X169646459Y-150000738D01*
X165666992Y-150000738D01*
G36*
X160517264Y-149999550D02*
G01*
X160517264Y-151998003D01*
X164488735Y-151998003D01*
X164488735Y-149999550D01*
X160517264Y-149999550D01*
G37*
X160517264Y-149999550D02*
X160517264Y-151998003D01*
X164488735Y-151998003D01*
X164488735Y-149999550D01*
X160517264Y-149999550D01*
G36*
X155366199Y-149999688D02*
G01*
X155366199Y-151997864D01*
X159337545Y-151997864D01*
X159337545Y-149999688D01*
X155366199Y-149999688D01*
G37*
X155366199Y-149999688D02*
X155366199Y-151997864D01*
X159337545Y-151997864D01*
X159337545Y-149999688D01*
X155366199Y-149999688D01*
G36*
X150189632Y-149983159D02*
G01*
X150189632Y-151981336D01*
X154290443Y-151981336D01*
X154290443Y-149983159D01*
X150189632Y-149983159D01*
G37*
X150189632Y-149983159D02*
X150189632Y-151981336D01*
X154290443Y-151981336D01*
X154290443Y-149983159D01*
X150189632Y-149983159D01*
G36*
X145038985Y-149979688D02*
G01*
X145038985Y-151977864D01*
X149145591Y-151977864D01*
X149145591Y-149979688D01*
X145038985Y-149979688D01*
G37*
X145038985Y-149979688D02*
X145038985Y-151977864D01*
X149145591Y-151977864D01*
X149145591Y-149979688D01*
X145038985Y-149979688D01*
G36*
X139837071Y-149979688D02*
G01*
X139837071Y-151977864D01*
X143903640Y-151977864D01*
X143903640Y-149979688D01*
X139837071Y-149979688D01*
G37*
X139837071Y-149979688D02*
X139837071Y-151977864D01*
X143903640Y-151977864D01*
X143903640Y-149979688D01*
X139837071Y-149979688D01*
G36*
X134646409Y-149975142D02*
G01*
X134646409Y-151973319D01*
X138712978Y-151973319D01*
X138712978Y-149975142D01*
X134646409Y-149975142D01*
G37*
X134646409Y-149975142D02*
X134646409Y-151973319D01*
X138712978Y-151973319D01*
X138712978Y-149975142D01*
X134646409Y-149975142D01*
G36*
X129501562Y-149971668D02*
G01*
X129501562Y-151969845D01*
X133568131Y-151969845D01*
X133568131Y-149971668D01*
X129501562Y-149971668D01*
G37*
X129501562Y-149971668D02*
X129501562Y-151969845D01*
X133568131Y-151969845D01*
X133568131Y-149971668D01*
X129501562Y-149971668D01*
G36*
X124441778Y-149956561D02*
G01*
X124441778Y-151959297D01*
X128426505Y-151959297D01*
X128426505Y-149956561D01*
X124441778Y-149956561D01*
G37*
X124441778Y-149956561D02*
X124441778Y-151959297D01*
X128426505Y-151959297D01*
X128426505Y-149956561D01*
X124441778Y-149956561D01*
G36*
X119298203Y-149958394D02*
G01*
X119298203Y-151956571D01*
X123274466Y-151956571D01*
X123274466Y-149958394D01*
X119298203Y-149958394D01*
G37*
X119298203Y-149958394D02*
X119298203Y-151956571D01*
X123274466Y-151956571D01*
X123274466Y-149958394D01*
X119298203Y-149958394D01*
G36*
X114153353Y-149954687D02*
G01*
X114153353Y-151952864D01*
X118128586Y-151952864D01*
X118128586Y-149954687D01*
X114153353Y-149954687D01*
G37*
X114153353Y-149954687D02*
X114153353Y-151952864D01*
X118128586Y-151952864D01*
X118128586Y-149954687D01*
X114153353Y-149954687D01*
G36*
X108909837Y-149951669D02*
G01*
X108909837Y-151949845D01*
X112977968Y-151949845D01*
X112977968Y-149951669D01*
X108909837Y-149951669D01*
G37*
X108909837Y-149951669D02*
X108909837Y-151949845D01*
X112977968Y-151949845D01*
X112977968Y-149951669D01*
X108909837Y-149951669D01*
G36*
X137291297Y-145347360D02*
G01*
X137295875Y-146386315D01*
X141279177Y-146389490D01*
X141279970Y-145568052D01*
X137530055Y-145570169D01*
X137291297Y-145347360D01*
G37*
X137291297Y-145347360D02*
X137295875Y-146386315D01*
X141279177Y-146389490D01*
X141279970Y-145568052D01*
X137530055Y-145570169D01*
X137291297Y-145347360D01*
G36*
X197763842Y-141247049D02*
G01*
X197763842Y-150501909D01*
X197631021Y-151123415D01*
X197295794Y-151624272D01*
X196806844Y-151960557D01*
X196190365Y-152102109D01*
X191400613Y-152098670D01*
X191400613Y-150019045D01*
X193975803Y-150019045D01*
X193969717Y-148903826D01*
X193054143Y-148895174D01*
X193343173Y-148569205D01*
X193549622Y-147994514D01*
X193640388Y-147441416D01*
X193566849Y-146610293D01*
X192996223Y-145795054D01*
X193002361Y-143977006D01*
X195369120Y-143977006D01*
X195371236Y-141229838D01*
X197763842Y-141247049D01*
G37*
X197763842Y-141247049D02*
X197763842Y-150501909D01*
X197631021Y-151123415D01*
X197295794Y-151624272D01*
X196806844Y-151960557D01*
X196190365Y-152102109D01*
X191400613Y-152098670D01*
X191400613Y-150019045D01*
X193975803Y-150019045D01*
X193969717Y-148903826D01*
X193054143Y-148895174D01*
X193343173Y-148569205D01*
X193549622Y-147994514D01*
X193640388Y-147441416D01*
X193566849Y-146610293D01*
X192996223Y-145795054D01*
X193002361Y-143977006D01*
X195369120Y-143977006D01*
X195371236Y-141229838D01*
X197763842Y-141247049D01*
G36*
X154245070Y-52794353D02*
G01*
X154228666Y-55055562D01*
X156871324Y-55055879D01*
X157199407Y-54214425D01*
X157436323Y-53860197D01*
X157642849Y-53551405D01*
X158220172Y-53036796D01*
X158492161Y-52794353D01*
X154245070Y-52794353D01*
G37*
X154245070Y-52794353D02*
X154228666Y-55055562D01*
X156871324Y-55055879D01*
X157199407Y-54214425D01*
X157436323Y-53860197D01*
X157642849Y-53551405D01*
X158220172Y-53036796D01*
X158492161Y-52794353D01*
X154245070Y-52794353D01*
G36*
X143229143Y-52794353D02*
G01*
X143213003Y-55038734D01*
X145621854Y-55055149D01*
X145921855Y-54537129D01*
X146328564Y-54305666D01*
X146811731Y-54173973D01*
X147439111Y-54184428D01*
X147470146Y-52794353D01*
X143229143Y-52794353D01*
G37*
X143229143Y-52794353D02*
X143213003Y-55038734D01*
X145621854Y-55055149D01*
X145921855Y-54537129D01*
X146328564Y-54305666D01*
X146811731Y-54173973D01*
X147439111Y-54184428D01*
X147470146Y-52794353D01*
X143229143Y-52794353D01*
G36*
X192684107Y-52793427D02*
G01*
X196124749Y-52793321D01*
X196778005Y-52924052D01*
X197289974Y-53266687D01*
X197636842Y-53788102D01*
X197764371Y-54431463D01*
X197764371Y-57810985D01*
X195449796Y-57808075D01*
X195422015Y-55084772D01*
X192667438Y-55088132D01*
X192684107Y-52793427D01*
G37*
X192684107Y-52793427D02*
X196124749Y-52793321D01*
X196778005Y-52924052D01*
X197289974Y-53266687D01*
X197636842Y-53788102D01*
X197764371Y-54431463D01*
X197764371Y-57810985D01*
X195449796Y-57808075D01*
X195422015Y-55084772D01*
X192667438Y-55088132D01*
X192684107Y-52793427D01*
G36*
X190601138Y-138510731D02*
G01*
X191392525Y-138510728D01*
X191388741Y-141456895D01*
X189293924Y-141470336D01*
X189276911Y-142515342D01*
X188643697Y-142515342D01*
X188643771Y-138510739D01*
X190601138Y-138510731D01*
G37*
X190601138Y-138510731D02*
X191392525Y-138510728D01*
X191388741Y-141456895D01*
X189293924Y-141470336D01*
X189276911Y-142515342D01*
X188643697Y-142515342D01*
X188643771Y-138510739D01*
X190601138Y-138510731D01*
D13*
G36*
X183644345Y-143985341D02*
G01*
X183644345Y-145265646D01*
X187514536Y-145265646D01*
X187514536Y-143985341D01*
X183644345Y-143985341D01*
G37*
X183644345Y-143985341D02*
X183644345Y-145265646D01*
X187514536Y-145265646D01*
X187514536Y-143985341D01*
X183644345Y-143985341D01*
D14*
G36*
X178505139Y-143982145D02*
G01*
X178505139Y-145270429D01*
X182553896Y-145270429D01*
X182553896Y-143982145D01*
X178505139Y-143982145D01*
G37*
X178505139Y-143982145D02*
X178505139Y-145270429D01*
X182553896Y-145270429D01*
X182553896Y-143982145D01*
X178505139Y-143982145D01*
D15*
G36*
X173294750Y-143961555D02*
G01*
X173294750Y-145240927D01*
X177401748Y-145240927D01*
X177401748Y-143961555D01*
X173294750Y-143961555D01*
G37*
X173294750Y-143961555D02*
X173294750Y-145240927D01*
X177401748Y-145240927D01*
X177401748Y-143961555D01*
X173294750Y-143961555D01*
D16*
G36*
X168197636Y-143956081D02*
G01*
X168197636Y-145241369D01*
X172292811Y-145241369D01*
X172292811Y-143956081D01*
X168197636Y-143956081D01*
G37*
X168197636Y-143956081D02*
X168197636Y-145241369D01*
X172292811Y-145241369D01*
X172292811Y-143956081D01*
X168197636Y-143956081D01*
D11*
G36*
X157906818Y-143940907D02*
G01*
X161913891Y-143940907D01*
X161913891Y-146055877D01*
X161908520Y-146439820D01*
X161316200Y-146442862D01*
X161322073Y-145211431D01*
X157914486Y-145206192D01*
X157906818Y-143940907D01*
G37*
X157906818Y-143940907D02*
X161913891Y-143940907D01*
X161913891Y-146055877D01*
X161908520Y-146439820D01*
X161316200Y-146442862D01*
X161322073Y-145211431D01*
X157914486Y-145206192D01*
X157906818Y-143940907D01*
G36*
X146432715Y-143895070D02*
G01*
X146429540Y-146392927D01*
X142441475Y-146389488D01*
X142447032Y-145567340D01*
X143779632Y-145566546D01*
X145548866Y-143894115D01*
X146432715Y-143895070D01*
G37*
X146432715Y-143895070D02*
X146429540Y-146392927D01*
X142441475Y-146389488D01*
X142447032Y-145567340D01*
X143779632Y-145566546D01*
X145548866Y-143894115D01*
X146432715Y-143895070D01*
G36*
X108951319Y-141378875D02*
G01*
X105753322Y-141378811D01*
X105749036Y-146383405D01*
X110392579Y-146363561D01*
X110395754Y-143897200D01*
X108947848Y-143897327D01*
X108951316Y-141378875D01*
X108951319Y-141378875D01*
G37*
X108951319Y-141378875D02*
X105753322Y-141378811D01*
X105749036Y-146383405D01*
X110392579Y-146363561D01*
X110395754Y-143897200D01*
X108947848Y-143897327D01*
X108951316Y-141378875D01*
X108951319Y-141378875D01*
G36*
X106013379Y-98694738D02*
G01*
X106712323Y-97768276D01*
X108891307Y-97748856D01*
X108891307Y-102548979D01*
X106013379Y-102548979D01*
X106013379Y-98694738D01*
G37*
X106013379Y-98694738D02*
X106712323Y-97768276D01*
X108891307Y-97748856D01*
X108891307Y-102548979D01*
X106013379Y-102548979D01*
X106013379Y-98694738D01*
G36*
X105834999Y-60369083D02*
G01*
X108139756Y-60368183D01*
X107933183Y-61034089D01*
X107836873Y-61521190D01*
X108037239Y-62125771D01*
X108363515Y-62579028D01*
X109083686Y-63282927D01*
X109079320Y-65178748D01*
X105830898Y-65178816D01*
X105834999Y-60369083D01*
G37*
X105834999Y-60369083D02*
X108139756Y-60368183D01*
X107933183Y-61034089D01*
X107836873Y-61521190D01*
X108037239Y-62125771D01*
X108363515Y-62579028D01*
X109083686Y-63282927D01*
X109079320Y-65178748D01*
X105830898Y-65178816D01*
X105834999Y-60369083D01*
G36*
X105644674Y-54986045D02*
G01*
X109028626Y-55009921D01*
X109031404Y-52794353D01*
X104164737Y-52794353D01*
X104621567Y-53162283D01*
X105131604Y-53767941D01*
X105297286Y-54066863D01*
X105517129Y-54463504D01*
X105644674Y-54986045D01*
G37*
X105644674Y-54986045D02*
X109028626Y-55009921D01*
X109031404Y-52794353D01*
X104164737Y-52794353D01*
X104621567Y-53162283D01*
X105131604Y-53767941D01*
X105297286Y-54066863D01*
X105517129Y-54463504D01*
X105644674Y-54986045D01*
G36*
X129512878Y-61678215D02*
G01*
X129512878Y-58991530D01*
X131470242Y-58983658D01*
X131198094Y-59253272D01*
X131013425Y-59504653D01*
X130846225Y-59833770D01*
X130705763Y-60266353D01*
X130714309Y-60709167D01*
X130834877Y-61052949D01*
X130950055Y-61362407D01*
X131241795Y-61673469D01*
X130852741Y-61661385D01*
X129512878Y-61678215D01*
G37*
X129512878Y-61678215D02*
X129512878Y-58991530D01*
X131470242Y-58983658D01*
X131198094Y-59253272D01*
X131013425Y-59504653D01*
X130846225Y-59833770D01*
X130705763Y-60266353D01*
X130714309Y-60709167D01*
X130834877Y-61052949D01*
X130950055Y-61362407D01*
X131241795Y-61673469D01*
X130852741Y-61661385D01*
X129512878Y-61678215D01*
G36*
X144831901Y-61694385D02*
G01*
X144831901Y-59372765D01*
X144833224Y-59024155D01*
X140932104Y-59004227D01*
X141291385Y-59363299D01*
X141553261Y-59671604D01*
X141613719Y-60086034D01*
X141640124Y-60330918D01*
X141628059Y-60685911D01*
X141535188Y-60976258D01*
X141368791Y-61349210D01*
X141144991Y-61703053D01*
X141632713Y-61695300D01*
X144831909Y-61686754D01*
X144831901Y-61694385D01*
G37*
X144831901Y-61694385D02*
X144831901Y-59372765D01*
X144833224Y-59024155D01*
X140932104Y-59004227D01*
X141291385Y-59363299D01*
X141553261Y-59671604D01*
X141613719Y-60086034D01*
X141640124Y-60330918D01*
X141628059Y-60685911D01*
X141535188Y-60976258D01*
X141368791Y-61349210D01*
X141144991Y-61703053D01*
X141632713Y-61695300D01*
X144831909Y-61686754D01*
X144831901Y-61694385D01*
G36*
X150221024Y-61700387D02*
G01*
X150221024Y-59013146D01*
X146659526Y-59013146D01*
X145995150Y-59362807D01*
X145981074Y-61698453D01*
X150221024Y-61700387D01*
G37*
X150221024Y-61700387D02*
X150221024Y-59013146D01*
X146659526Y-59013146D01*
X145995150Y-59362807D01*
X145981074Y-61698453D01*
X150221024Y-61700387D01*
G36*
X155742876Y-61702927D02*
G01*
X155742876Y-59026402D01*
X153864443Y-59035332D01*
X151477727Y-59017163D01*
X151475081Y-61700961D01*
X155742876Y-61702927D01*
G37*
X155742876Y-61702927D02*
X155742876Y-59026402D01*
X153864443Y-59035332D01*
X151477727Y-59017163D01*
X151475081Y-61700961D01*
X155742876Y-61702927D01*
G36*
X157929128Y-59015686D02*
G01*
X157017580Y-59015686D01*
X157017580Y-61699942D01*
X161236949Y-61699942D01*
X161236949Y-60213297D01*
X160762231Y-60213297D01*
X160391359Y-60213297D01*
X159367379Y-59938922D01*
X158105647Y-59210461D01*
X157929128Y-59015686D01*
G37*
X157929128Y-59015686D02*
X157017580Y-59015686D01*
X157017580Y-61699942D01*
X161236949Y-61699942D01*
X161236949Y-60213297D01*
X160762231Y-60213297D01*
X160391359Y-60213297D01*
X159367379Y-59938922D01*
X158105647Y-59210461D01*
X157929128Y-59015686D01*
G36*
X178977809Y-59051477D02*
G01*
X178977809Y-61715468D01*
X183199066Y-61715468D01*
X183199066Y-59051477D01*
X178977809Y-59051477D01*
G37*
X178977809Y-59051477D02*
X178977809Y-61715468D01*
X183199066Y-61715468D01*
X183199066Y-59051477D01*
X178977809Y-59051477D01*
G36*
X166725463Y-61707954D02*
G01*
X166725463Y-59033652D01*
X163706451Y-59033652D01*
X163383106Y-59356997D01*
X162505391Y-59863747D01*
X162505391Y-61703164D01*
X166725463Y-61703164D01*
X166725463Y-61707954D01*
G37*
X166725463Y-61707954D02*
X166725463Y-59033652D01*
X163706451Y-59033652D01*
X163383106Y-59356997D01*
X162505391Y-59863747D01*
X162505391Y-61703164D01*
X166725463Y-61703164D01*
X166725463Y-61707954D01*
G36*
X167998392Y-59037250D02*
G01*
X167998392Y-61706389D01*
X172219649Y-61706389D01*
X172219649Y-59037250D01*
X167998392Y-59037250D01*
G37*
X167998392Y-59037250D02*
X167998392Y-61706389D01*
X172219649Y-61706389D01*
X172219649Y-59037250D01*
X167998392Y-59037250D01*
G36*
X147591857Y-143899793D02*
G01*
X147591857Y-146392660D01*
X151606397Y-146392660D01*
X151606397Y-143899793D01*
X147591857Y-143899793D01*
G37*
X147591857Y-143899793D02*
X147591857Y-146392660D01*
X151606397Y-146392660D01*
X151606397Y-143899793D01*
X147591857Y-143899793D01*
G36*
X152768697Y-143904653D02*
G01*
X152768697Y-146404849D01*
X156759619Y-146404849D01*
X156759619Y-143904653D01*
X152768697Y-143904653D01*
G37*
X152768697Y-143904653D02*
X152768697Y-146404849D01*
X156759619Y-146404849D01*
X156759619Y-143904653D01*
X152768697Y-143904653D01*
G36*
X173484265Y-59048098D02*
G01*
X173484265Y-61712089D01*
X177705522Y-61712089D01*
X177705522Y-59048098D01*
X173484265Y-59048098D01*
G37*
X173484265Y-59048098D02*
X173484265Y-61712089D01*
X177705522Y-61712089D01*
X177705522Y-59048098D01*
X173484265Y-59048098D01*
G36*
X111576258Y-143956742D02*
G01*
X111576258Y-146369741D01*
X115541013Y-146369741D01*
X115541013Y-143956742D01*
X111576258Y-143956742D01*
G37*
X111576258Y-143956742D02*
X111576258Y-146369741D01*
X115541013Y-146369741D01*
X115541013Y-143956742D01*
X111576258Y-143956742D01*
G36*
X116726291Y-143955927D02*
G01*
X116726291Y-146372946D01*
X120686788Y-146372946D01*
X120686788Y-143955927D01*
X116726291Y-143955927D01*
G37*
X116726291Y-143955927D02*
X116726291Y-146372946D01*
X120686788Y-146372946D01*
X120686788Y-143955927D01*
X116726291Y-143955927D01*
G36*
X121872228Y-143955451D02*
G01*
X121872228Y-146353756D01*
X125840724Y-146353756D01*
X125840724Y-143955451D01*
X121872228Y-143955451D01*
G37*
X121872228Y-143955451D02*
X121872228Y-146353756D01*
X125840724Y-146353756D01*
X125840724Y-143955451D01*
X121872228Y-143955451D01*
G36*
X127018320Y-143955604D02*
G01*
X127018320Y-146387042D01*
X130985062Y-146387042D01*
X130985062Y-143955604D01*
X127018320Y-143955604D01*
G37*
X127018320Y-143955604D02*
X127018320Y-146387042D01*
X130985062Y-146387042D01*
X130985062Y-143955604D01*
X127018320Y-143955604D01*
G36*
X132166234Y-143895271D02*
G01*
X135768123Y-143895007D01*
X136164485Y-144288895D01*
X136133547Y-146386376D01*
X132145218Y-146382937D01*
X132166234Y-143895271D01*
G37*
X132166234Y-143895271D02*
X135768123Y-143895007D01*
X136164485Y-144288895D01*
X136133547Y-146386376D01*
X132145218Y-146382937D01*
X132166234Y-143895271D01*
G36*
X188693341Y-93413983D02*
G01*
X188693341Y-89175729D01*
X191439512Y-89175729D01*
X191439512Y-93413983D01*
X188693341Y-93413983D01*
G37*
X188693341Y-93413983D02*
X188693341Y-89175729D01*
X191439512Y-89175729D01*
X191439512Y-93413983D01*
X188693341Y-93413983D01*
G36*
X188688414Y-87951665D02*
G01*
X188688414Y-83713411D01*
X191461473Y-83713411D01*
X191461473Y-87951665D01*
X188688414Y-87951665D01*
G37*
X188688414Y-87951665D02*
X188688414Y-83713411D01*
X191461473Y-83713411D01*
X191461473Y-87951665D01*
X188688414Y-87951665D01*
G36*
X188692179Y-82485895D02*
G01*
X188692179Y-78247640D01*
X191461477Y-78247640D01*
X191461477Y-82485895D01*
X188692179Y-82485895D01*
G37*
X188692179Y-82485895D02*
X188692179Y-78247640D01*
X191461477Y-78247640D01*
X191461477Y-82485895D01*
X188692179Y-82485895D01*
G36*
X188711388Y-76997510D02*
G01*
X188711388Y-72759255D01*
X191461471Y-72759255D01*
X191461471Y-76997510D01*
X188711388Y-76997510D01*
G37*
X188711388Y-76997510D02*
X188711388Y-72759255D01*
X191461471Y-72759255D01*
X191461471Y-76997510D01*
X188711388Y-76997510D01*
G36*
X188706446Y-71531750D02*
G01*
X188706446Y-67293495D01*
X191461468Y-67293495D01*
X191461468Y-71531750D01*
X188706446Y-71531750D01*
G37*
X188706446Y-71531750D02*
X188706446Y-67293495D01*
X191461468Y-67293495D01*
X191461468Y-71531750D01*
X188706446Y-71531750D01*
G36*
X188710121Y-66049722D02*
G01*
X188710121Y-61811468D01*
X191624614Y-61811468D01*
X191624614Y-66049722D01*
X188710121Y-66049722D01*
G37*
X188710121Y-66049722D02*
X188710121Y-61811468D01*
X191624614Y-61811468D01*
X191624614Y-66049722D01*
X188710121Y-66049722D01*
G36*
X188647568Y-137260307D02*
G01*
X188647568Y-133022053D01*
X191393738Y-133022053D01*
X191393738Y-137260307D01*
X188647568Y-137260307D01*
G37*
X188647568Y-137260307D02*
X188647568Y-133022053D01*
X191393738Y-133022053D01*
X191393738Y-137260307D01*
X188647568Y-137260307D01*
G36*
X188650973Y-131771923D02*
G01*
X188650973Y-127533668D01*
X191393738Y-127533668D01*
X191393738Y-131771923D01*
X188650973Y-131771923D01*
G37*
X188650973Y-131771923D02*
X188650973Y-127533668D01*
X191393738Y-127533668D01*
X191393738Y-131771923D01*
X188650973Y-131771923D01*
G36*
X188640615Y-126309983D02*
G01*
X188640615Y-122064088D01*
X191397555Y-122064088D01*
X191397555Y-126309983D01*
X188640615Y-126309983D01*
G37*
X188640615Y-126309983D02*
X188640615Y-122064088D01*
X191397555Y-122064088D01*
X191397555Y-126309983D01*
X188640615Y-126309983D01*
G36*
X188665356Y-120843755D02*
G01*
X188665356Y-116605501D01*
X191415436Y-116605501D01*
X191415436Y-120843755D01*
X188665356Y-120843755D01*
G37*
X188665356Y-120843755D02*
X188665356Y-116605501D01*
X191415436Y-116605501D01*
X191415436Y-120843755D01*
X188665356Y-120843755D01*
G36*
X188668997Y-115355085D02*
G01*
X188668997Y-111116831D01*
X191415430Y-111116831D01*
X191415430Y-115355085D01*
X188668997Y-115355085D01*
G37*
X188668997Y-115355085D02*
X188668997Y-111116831D01*
X191415430Y-111116831D01*
X191415430Y-115355085D01*
X188668997Y-115355085D01*
G36*
X188672727Y-109880589D02*
G01*
X188672727Y-105642334D01*
X191419142Y-105642334D01*
X191419142Y-109880589D01*
X188672727Y-109880589D01*
G37*
X188672727Y-109880589D02*
X188672727Y-105642334D01*
X191419142Y-105642334D01*
X191419142Y-109880589D01*
X188672727Y-109880589D01*
G36*
X188680228Y-104385436D02*
G01*
X188680228Y-100140664D01*
X191439060Y-100140664D01*
X191439060Y-104385436D01*
X188680228Y-104385436D01*
G37*
X188680228Y-104385436D02*
X188680228Y-100140664D01*
X191439060Y-100140664D01*
X191439060Y-104385436D01*
X188680228Y-104385436D01*
G36*
X188665533Y-98900574D02*
G01*
X188665533Y-94657412D01*
X191396446Y-94657412D01*
X191396446Y-98900574D01*
X188665533Y-98900574D01*
G37*
X188665533Y-98900574D02*
X188665533Y-94657412D01*
X191396446Y-94657412D01*
X191396446Y-98900574D01*
X188665533Y-98900574D01*
G36*
X195375782Y-139992837D02*
G01*
X195375782Y-135754582D01*
X197594948Y-135754582D01*
X197594948Y-139992837D01*
X195375782Y-139992837D01*
G37*
X195375782Y-139992837D02*
X195375782Y-135754582D01*
X197594948Y-135754582D01*
X197594948Y-139992837D01*
X195375782Y-139992837D01*
G36*
X195377737Y-134519002D02*
G01*
X195377737Y-130280747D01*
X197596903Y-130280747D01*
X197596903Y-134519002D01*
X195377737Y-134519002D01*
G37*
X195377737Y-134519002D02*
X195377737Y-130280747D01*
X197596903Y-130280747D01*
X197596903Y-134519002D01*
X195377737Y-134519002D01*
G36*
X195382023Y-129039671D02*
G01*
X195382023Y-124801417D01*
X197601190Y-124801417D01*
X197601190Y-129039671D01*
X195382023Y-129039671D01*
G37*
X195382023Y-129039671D02*
X195382023Y-124801417D01*
X197601190Y-124801417D01*
X197601190Y-129039671D01*
X195382023Y-129039671D01*
G36*
X195381799Y-123559288D02*
G01*
X195381799Y-119321033D01*
X197600965Y-119321033D01*
X197600965Y-123559288D01*
X195381799Y-123559288D01*
G37*
X195381799Y-123559288D02*
X195381799Y-119321033D01*
X197600965Y-119321033D01*
X197600965Y-123559288D01*
X195381799Y-123559288D01*
G36*
X195381799Y-118093515D02*
G01*
X195381799Y-113855260D01*
X197600965Y-113855260D01*
X197600965Y-118093515D01*
X195381799Y-118093515D01*
G37*
X195381799Y-118093515D02*
X195381799Y-113855260D01*
X197600965Y-113855260D01*
X197600965Y-118093515D01*
X195381799Y-118093515D01*
G36*
X195381799Y-112605130D02*
G01*
X195381799Y-108366876D01*
X197600965Y-108366876D01*
X197600965Y-112605130D01*
X195381799Y-112605130D01*
G37*
X195381799Y-112605130D02*
X195381799Y-108366876D01*
X197600965Y-108366876D01*
X197600965Y-112605130D01*
X195381799Y-112605130D01*
G36*
X195381799Y-107139371D02*
G01*
X195381799Y-102901116D01*
X197600965Y-102901116D01*
X197600965Y-107139371D01*
X195381799Y-107139371D01*
G37*
X195381799Y-107139371D02*
X195381799Y-102901116D01*
X197600965Y-102901116D01*
X197600965Y-107139371D01*
X195381799Y-107139371D01*
G36*
X195418115Y-101659567D02*
G01*
X195418115Y-97388803D01*
X197637281Y-97388803D01*
X197637281Y-101659567D01*
X195418115Y-101659567D01*
G37*
X195418115Y-101659567D02*
X195418115Y-97388803D01*
X197637281Y-97388803D01*
X197637281Y-101659567D01*
X195418115Y-101659567D01*
G36*
X195422904Y-96145954D02*
G01*
X195422904Y-91907700D01*
X197642070Y-91907700D01*
X197642070Y-96145954D01*
X195422904Y-96145954D01*
G37*
X195422904Y-96145954D02*
X195422904Y-91907700D01*
X197642070Y-91907700D01*
X197642070Y-96145954D01*
X195422904Y-96145954D01*
G36*
X195426264Y-90671828D02*
G01*
X195426264Y-86433574D01*
X197645431Y-86433574D01*
X197645431Y-90671828D01*
X195426264Y-90671828D01*
G37*
X195426264Y-90671828D02*
X195426264Y-86433574D01*
X197645431Y-86433574D01*
X197645431Y-90671828D01*
X195426264Y-90671828D01*
G36*
X195429381Y-85193313D02*
G01*
X195429381Y-80955058D01*
X197648547Y-80955058D01*
X197648547Y-85193313D01*
X195429381Y-85193313D01*
G37*
X195429381Y-85193313D02*
X195429381Y-80955058D01*
X197648547Y-80955058D01*
X197648547Y-85193313D01*
X195429381Y-85193313D01*
G36*
X195441023Y-79720433D02*
G01*
X195441023Y-75482178D01*
X197660189Y-75482178D01*
X197660189Y-79720433D01*
X195441023Y-79720433D01*
G37*
X195441023Y-79720433D02*
X195441023Y-75482178D01*
X197660189Y-75482178D01*
X197660189Y-79720433D01*
X195441023Y-79720433D01*
G36*
X195443592Y-74241309D02*
G01*
X195443592Y-70003054D01*
X197662758Y-70003054D01*
X197662758Y-74241309D01*
X195443592Y-74241309D01*
G37*
X195443592Y-74241309D02*
X195443592Y-70003054D01*
X197662758Y-70003054D01*
X197662758Y-74241309D01*
X195443592Y-74241309D01*
G36*
X195449680Y-68766603D02*
G01*
X195449680Y-64528348D01*
X197668846Y-64528348D01*
X197668846Y-68766603D01*
X195449680Y-68766603D01*
G37*
X195449680Y-68766603D02*
X195449680Y-64528348D01*
X197668846Y-64528348D01*
X197668846Y-68766603D01*
X195449680Y-68766603D01*
G36*
X195448540Y-63291659D02*
G01*
X195448540Y-59053405D01*
X197667706Y-59053405D01*
X197667706Y-63291659D01*
X195448540Y-63291659D01*
G37*
X195448540Y-63291659D02*
X195448540Y-59053405D01*
X197667706Y-59053405D01*
X197667706Y-63291659D01*
X195448540Y-63291659D01*
G36*
X187189613Y-52869151D02*
G01*
X187189613Y-55088317D01*
X191427868Y-55088317D01*
X191427868Y-52869151D01*
X187189613Y-52869151D01*
G37*
X187189613Y-52869151D02*
X187189613Y-55088317D01*
X191427868Y-55088317D01*
X191427868Y-52869151D01*
X187189613Y-52869151D01*
G36*
X181688569Y-52865573D02*
G01*
X181688569Y-55084740D01*
X185926823Y-55084740D01*
X185926823Y-52865573D01*
X181688569Y-52865573D01*
G37*
X181688569Y-52865573D02*
X181688569Y-55084740D01*
X185926823Y-55084740D01*
X185926823Y-52865573D01*
X181688569Y-52865573D01*
G36*
X176194702Y-52861948D02*
G01*
X176194702Y-55081115D01*
X180432957Y-55081115D01*
X180432957Y-52861948D01*
X176194702Y-52861948D01*
G37*
X176194702Y-52861948D02*
X176194702Y-55081115D01*
X180432957Y-55081115D01*
X180432957Y-52861948D01*
X176194702Y-52861948D01*
G36*
X170708699Y-52851127D02*
G01*
X170708699Y-55070293D01*
X174946953Y-55070293D01*
X174946953Y-52851127D01*
X170708699Y-52851127D01*
G37*
X170708699Y-52851127D02*
X170708699Y-55070293D01*
X174946953Y-55070293D01*
X174946953Y-52851127D01*
X170708699Y-52851127D01*
G36*
X165213120Y-52847767D02*
G01*
X165213120Y-55066933D01*
X169451375Y-55066933D01*
X169451375Y-52847767D01*
X165213120Y-52847767D01*
G37*
X165213120Y-52847767D02*
X165213120Y-55066933D01*
X169451375Y-55066933D01*
X169451375Y-52847767D01*
X165213120Y-52847767D01*
G36*
X137705204Y-52819383D02*
G01*
X137705204Y-55038549D01*
X141943458Y-55038549D01*
X141943458Y-52819383D01*
X137705204Y-52819383D01*
G37*
X137705204Y-52819383D02*
X137705204Y-55038549D01*
X141943458Y-55038549D01*
X141943458Y-52819383D01*
X137705204Y-52819383D01*
G36*
X137705204Y-52819383D02*
G01*
X137705204Y-55038549D01*
X141943458Y-55038549D01*
X141943458Y-52819383D01*
X137705204Y-52819383D01*
G37*
X137705204Y-52819383D02*
X137705204Y-55038549D01*
X141943458Y-55038549D01*
X141943458Y-52819383D01*
X137705204Y-52819383D01*
G36*
X132227376Y-52819568D02*
G01*
X132227376Y-55038734D01*
X136465631Y-55038734D01*
X136465631Y-52819568D01*
X132227376Y-52819568D01*
G37*
X132227376Y-52819568D02*
X132227376Y-55038734D01*
X136465631Y-55038734D01*
X136465631Y-52819568D01*
X132227376Y-52819568D01*
G36*
X126747720Y-52794168D02*
G01*
X126747720Y-55013334D01*
X130985975Y-55013334D01*
X130985975Y-52794168D01*
X126747720Y-52794168D01*
G37*
X126747720Y-52794168D02*
X126747720Y-55013334D01*
X130985975Y-55013334D01*
X130985975Y-52794168D01*
X126747720Y-52794168D01*
G36*
X121269891Y-52794353D02*
G01*
X121269891Y-55013519D01*
X125508145Y-55013519D01*
X125508145Y-52794353D01*
X121269891Y-52794353D01*
G37*
X121269891Y-52794353D02*
X121269891Y-55013519D01*
X125508145Y-55013519D01*
X125508145Y-52794353D01*
X121269891Y-52794353D01*
G36*
X115762087Y-52794168D02*
G01*
X115762087Y-55013334D01*
X120000342Y-55013334D01*
X120000342Y-52794168D01*
X115762087Y-52794168D01*
G37*
X115762087Y-52794168D02*
X115762087Y-55013334D01*
X120000342Y-55013334D01*
X120000342Y-52794168D01*
X115762087Y-52794168D01*
G36*
X124020764Y-58991424D02*
G01*
X124020764Y-61701147D01*
X128259019Y-61701147D01*
X128259019Y-58991424D01*
X124020764Y-58991424D01*
G37*
X124020764Y-58991424D02*
X124020764Y-61701147D01*
X128259019Y-61701147D01*
X128259019Y-58991424D01*
X124020764Y-58991424D01*
G36*
X110284259Y-52794353D02*
G01*
X110284259Y-55013519D01*
X114522514Y-55013519D01*
X114522514Y-52794353D01*
X110284259Y-52794353D01*
G37*
X110284259Y-52794353D02*
X110284259Y-55013519D01*
X114522514Y-55013519D01*
X114522514Y-52794353D01*
X110284259Y-52794353D01*
G36*
X105830898Y-66600946D02*
G01*
X105830898Y-71401070D01*
X108955944Y-71401070D01*
X108955944Y-66600946D01*
X105830898Y-66600946D01*
G37*
X105830898Y-66600946D02*
X105830898Y-71401070D01*
X108955944Y-71401070D01*
X108955944Y-66600946D01*
X105830898Y-66600946D01*
G36*
X106689307Y-91485221D02*
G01*
X106689307Y-96349153D01*
X108933822Y-96349153D01*
X108933822Y-91485221D01*
X106689307Y-91485221D01*
G37*
X106689307Y-91485221D02*
X106689307Y-96349153D01*
X108933822Y-96349153D01*
X108933822Y-91485221D01*
X106689307Y-91485221D01*
G36*
X105741072Y-135152904D02*
G01*
X105741072Y-139953027D01*
X108866118Y-139953027D01*
X108866118Y-135152904D01*
X105741072Y-135152904D01*
G37*
X105741072Y-135152904D02*
X105741072Y-139953027D01*
X108866118Y-139953027D01*
X108866118Y-135152904D01*
X105741072Y-135152904D01*
G36*
X105741178Y-128929851D02*
G01*
X105741178Y-133729974D01*
X108866224Y-133729974D01*
X108866224Y-128929851D01*
X105741178Y-128929851D01*
G37*
X105741178Y-128929851D02*
X105741178Y-133729974D01*
X108866224Y-133729974D01*
X108866224Y-128929851D01*
X105741178Y-128929851D01*
G36*
X105742104Y-122694839D02*
G01*
X105742104Y-127494962D01*
X108867150Y-127494962D01*
X108867150Y-122694839D01*
X105742104Y-122694839D01*
G37*
X105742104Y-122694839D02*
X105742104Y-127494962D01*
X108867150Y-127494962D01*
X108867150Y-122694839D01*
X105742104Y-122694839D01*
G36*
X105742606Y-116466600D02*
G01*
X105742606Y-121266724D01*
X108867653Y-121266724D01*
X108867653Y-116466600D01*
X105742606Y-116466600D01*
G37*
X105742606Y-116466600D02*
X105742606Y-121266724D01*
X108867653Y-121266724D01*
X108867653Y-116466600D01*
X105742606Y-116466600D01*
G36*
X105742712Y-110243547D02*
G01*
X105742712Y-115043671D01*
X108867759Y-115043671D01*
X108867759Y-110243547D01*
X105742712Y-110243547D01*
G37*
X105742712Y-110243547D02*
X105742712Y-115043671D01*
X108867759Y-115043671D01*
X108867759Y-110243547D01*
X105742712Y-110243547D01*
G36*
X105743638Y-104008535D02*
G01*
X105743638Y-108808659D01*
X108868685Y-108808659D01*
X108868685Y-104008535D01*
X105743638Y-104008535D01*
G37*
X105743638Y-104008535D02*
X105743638Y-108808659D01*
X108868685Y-108808659D01*
X108868685Y-104008535D01*
X105743638Y-104008535D01*
D12*
G36*
X98725196Y-107104062D02*
G01*
X98725196Y-111960889D01*
X101257573Y-111960889D01*
X101257573Y-107104062D01*
X98725196Y-107104062D01*
G37*
X98725196Y-107104062D02*
X98725196Y-111960889D01*
X101257573Y-111960889D01*
X101257573Y-107104062D01*
X98725196Y-107104062D01*
D11*
G36*
X105817261Y-85280953D02*
G01*
X108921470Y-85280953D01*
X108921470Y-90082665D01*
X106644550Y-90080283D01*
X105809212Y-89026091D01*
X105817261Y-85280953D01*
G37*
X105817261Y-85280953D02*
X108921470Y-85280953D01*
X108921470Y-90082665D01*
X106644550Y-90080283D01*
X105809212Y-89026091D01*
X105817261Y-85280953D01*
G36*
X105822537Y-79058744D02*
G01*
X105822537Y-83858868D01*
X108947584Y-83858868D01*
X108947584Y-79058744D01*
X105822537Y-79058744D01*
G37*
X105822537Y-79058744D02*
X105822537Y-83858868D01*
X108947584Y-83858868D01*
X108947584Y-79058744D01*
X105822537Y-79058744D01*
G36*
X105822537Y-72836725D02*
G01*
X105822537Y-77636849D01*
X108947584Y-77636849D01*
X108947584Y-72836725D01*
X105822537Y-72836725D01*
G37*
X105822537Y-72836725D02*
X105822537Y-77636849D01*
X108947584Y-77636849D01*
X108947584Y-72836725D01*
X105822537Y-72836725D01*
X172221560Y-61714616D02*
X172221560Y-59041424D01*
X173476296Y-59041583D02*
X173476296Y-61715277D01*
X176213675Y-59052378D02*
X173476296Y-59041583D01*
X177708307Y-61717129D02*
X177708307Y-59052272D01*
X178962670Y-59052378D02*
X178962670Y-61717711D01*
X183202618Y-59055871D02*
X178962670Y-59052378D01*
X180468413Y-59055871D02*
X183202618Y-59055871D01*
X180456004Y-56313332D02*
X180468413Y-59055871D01*
X177709365Y-56320529D02*
X180456004Y-56313332D01*
X176194572Y-56328572D02*
X178949149Y-56320449D01*
X176214363Y-59052166D02*
X176194572Y-56328572D01*
X177708994Y-59052140D02*
X176214363Y-59052166D01*
X174974526Y-59052166D02*
X177708994Y-59052140D01*
X174962117Y-56309601D02*
X174974526Y-59052166D01*
X172223679Y-56313279D02*
X174962117Y-56309601D01*
X170708622Y-56317751D02*
X173463570Y-56313332D01*
X170728413Y-59041345D02*
X170708622Y-56317751D01*
X165214920Y-56314020D02*
X167969497Y-56305924D01*
X165234710Y-59037641D02*
X165214920Y-56314020D01*
X166729077Y-59037614D02*
X165234710Y-59037641D01*
X163994873Y-59037641D02*
X166729077Y-59037614D01*
X166727355Y-61712049D02*
X166727355Y-59037747D01*
X167982938Y-59037800D02*
X167982938Y-61712552D01*
X172223359Y-59041319D02*
X167982938Y-59037800D01*
X169488784Y-59041319D02*
X172223359Y-59041319D01*
X169476376Y-56298780D02*
X169488784Y-59041319D01*
X166729736Y-56305977D02*
X169476376Y-56298780D01*
X165213120Y-55066933D02*
X165227620Y-53098248D01*
X167967698Y-55063546D02*
X165213120Y-55066933D01*
X167967698Y-57802619D02*
X167967698Y-55063546D01*
X170726773Y-57798809D02*
X167967698Y-57802619D01*
X172223256Y-57806217D02*
X169488681Y-57798835D01*
X172223785Y-55070822D02*
X172223256Y-57806217D01*
X173463623Y-57806164D02*
X173463623Y-55070822D01*
X176214495Y-57809657D02*
X173463623Y-57806164D01*
X177708809Y-57816986D02*
X174974605Y-57809577D01*
X177709338Y-55077913D02*
X177708809Y-57816986D01*
X180448834Y-55085110D02*
X177709338Y-55077913D01*
X180451480Y-53098248D02*
X180448834Y-55085110D01*
X181688566Y-55084739D02*
X181703065Y-53098036D01*
X184469866Y-55083152D02*
X181688566Y-55084739D01*
X184443169Y-57820531D02*
X184469866Y-55083152D01*
X187220765Y-57822119D02*
X184443169Y-57820531D01*
X192709943Y-60558730D02*
X195457641Y-60558995D01*
X192670229Y-56339341D02*
X192709943Y-60558730D01*
X195424807Y-56331244D02*
X192670229Y-56339341D01*
X194216243Y-57818361D02*
X194180048Y-55087914D01*
X189926024Y-57823362D02*
X194216243Y-57818361D01*
X189949625Y-55089449D02*
X189926024Y-57823362D01*
X187171235Y-55087597D02*
X189949625Y-55089449D01*
X187185920Y-53097983D02*
X187171235Y-55087597D01*
X185937536Y-55088682D02*
X185940182Y-53098036D01*
X183198040Y-55081459D02*
X185937536Y-55088682D01*
X183203041Y-57820452D02*
X183198040Y-55081459D01*
X180468837Y-57813043D02*
X183203041Y-57820452D01*
X178949282Y-57816774D02*
X181708357Y-57812990D01*
X178949282Y-55077701D02*
X178949282Y-57816774D01*
X176194705Y-55081115D02*
X178949282Y-55077701D01*
X176209230Y-53098036D02*
X176194705Y-55081115D01*
X174955105Y-55081353D02*
X174957751Y-53098036D01*
X170708702Y-55070293D02*
X174955105Y-55081353D01*
X170723174Y-53098036D02*
X170708702Y-55070293D01*
X169469473Y-55070346D02*
X169472118Y-53098036D01*
X166729712Y-55063255D02*
X169469473Y-55070346D01*
X166729448Y-57802328D02*
X166729712Y-55063255D01*
X164542931Y-57794919D02*
X166729448Y-57802328D01*
X165234816Y-57794919D02*
X164542931Y-57794919D01*
X165234816Y-59037429D02*
X165234816Y-57794919D01*
X163994979Y-59037429D02*
X165234816Y-59037429D01*
X163711187Y-59034863D02*
X165233070Y-59037561D01*
X162492516Y-59885736D02*
X162492516Y-61709853D01*
X161238947Y-61709324D02*
X161238947Y-60217180D01*
X101248592Y-91526305D02*
X102637051Y-91513896D01*
X101252587Y-88409249D02*
X101248592Y-91526305D01*
X98758810Y-88406577D02*
X101252587Y-88409249D01*
X101252508Y-87005476D02*
X98758810Y-86988278D01*
X101273463Y-83901120D02*
X101252508Y-87005476D01*
X104394408Y-83881514D02*
X101273463Y-83901120D01*
X104406870Y-79065568D02*
X104394408Y-83881514D01*
X101265208Y-79074564D02*
X104406870Y-79065568D01*
X101269203Y-75957189D02*
X101265208Y-79074564D01*
X98758810Y-75953618D02*
X101269203Y-75957189D01*
X101269123Y-74551220D02*
X98758810Y-74533652D01*
X101281850Y-71443160D02*
X101269123Y-74551220D01*
X104411051Y-71426967D02*
X101281850Y-71443160D01*
X104411051Y-68303190D02*
X104411051Y-71426967D01*
X101277643Y-62090933D02*
X101277643Y-60158072D01*
X98758810Y-62073285D02*
X101277643Y-62090933D01*
X101277511Y-63499839D02*
X98758810Y-63496717D01*
X101273595Y-66616895D02*
X101277511Y-63499839D01*
X104415257Y-66608005D02*
X101273595Y-66616895D01*
X104411077Y-69719029D02*
X104415257Y-66608005D01*
X105829667Y-72831031D02*
X108944871Y-72831190D01*
X102701472Y-74551035D02*
X105842102Y-74545029D01*
X102704673Y-71443133D02*
X102701472Y-74551035D01*
X102683983Y-69723659D02*
X102704700Y-72858998D01*
X105833900Y-69718658D02*
X102683983Y-69723659D01*
X105834006Y-66607661D02*
X105833900Y-69718658D01*
X105829799Y-71411463D02*
X105834006Y-66607661D01*
X108947411Y-71411463D02*
X105829799Y-71411463D01*
X118519481Y-55017588D02*
X118519586Y-57193749D01*
X117279484Y-57338423D02*
X117279749Y-55017562D01*
X115764798Y-56264569D02*
X115774958Y-57272514D01*
X118519322Y-56260151D02*
X115764798Y-56264569D01*
X120021096Y-56249303D02*
X117279484Y-56260151D01*
X120011984Y-57436417D02*
X120021096Y-56249303D01*
X121253764Y-56268141D02*
X121263845Y-57182130D01*
X124008500Y-56252716D02*
X121253764Y-56268141D01*
X125515381Y-56252769D02*
X122768636Y-56252716D01*
X125529139Y-58980835D02*
X125515381Y-56252769D01*
X128262047Y-58995307D02*
X125529139Y-58980835D01*
X126768977Y-58980835D02*
X128262047Y-58995307D01*
X126747784Y-56271687D02*
X126768977Y-58980835D01*
X129502361Y-56267295D02*
X126747784Y-56271687D01*
X131001252Y-56263617D02*
X128262814Y-56267321D01*
X131023239Y-58995387D02*
X131001252Y-56263617D01*
X134987967Y-57771054D02*
X135595953Y-57771054D01*
X134982967Y-55021134D02*
X134987967Y-57771054D01*
X132233681Y-55035368D02*
X134982967Y-55021134D01*
X132247889Y-53098062D02*
X132233681Y-55035368D01*
X130994214Y-55035474D02*
X130996860Y-53098062D01*
X128262920Y-55024732D02*
X130994214Y-55035474D01*
X128262391Y-57760127D02*
X128262920Y-55024732D01*
X125529510Y-57738299D02*
X128262391Y-57760127D01*
X124008632Y-57756555D02*
X126769030Y-57738325D01*
X124008553Y-55010206D02*
X124008632Y-57756555D01*
X122768292Y-57730573D02*
X122768557Y-55010233D01*
X122768027Y-61710303D02*
X122764162Y-60287124D01*
X124021544Y-58991921D02*
X124021544Y-61705144D01*
X126768501Y-58980967D02*
X124021544Y-58991921D01*
X128261809Y-61687364D02*
X128261809Y-58995334D01*
X136392354Y-56267242D02*
X133742944Y-56263643D01*
X143215742Y-56289916D02*
X143235532Y-59006208D01*
X145695324Y-56274518D02*
X143215742Y-56289916D01*
X144730481Y-56274518D02*
X145695324Y-56274518D01*
X144730481Y-55039310D02*
X144730481Y-56274518D01*
X148729341Y-57778251D02*
X147091292Y-57778356D01*
X150223736Y-61704323D02*
X150223736Y-59017083D01*
X155744553Y-61706837D02*
X155744553Y-59030312D01*
X156998417Y-59030391D02*
X156998417Y-61707393D01*
X157930835Y-59019596D02*
X156998417Y-59030391D01*
X155746567Y-57794999D02*
X154247165Y-57791295D01*
X155746832Y-55059630D02*
X155746567Y-57794999D01*
X156875015Y-55059630D02*
X155746832Y-55059630D01*
X154232357Y-55059366D02*
X156875015Y-55059630D01*
X154246591Y-53098062D02*
X154232357Y-55059366D01*
X155746911Y-56302114D02*
X155746911Y-55059604D01*
X156735130Y-56302114D02*
X155746911Y-56302114D01*
X154232436Y-56306506D02*
X156735130Y-56302114D01*
X154217011Y-57638840D02*
X154232436Y-56306506D01*
X150224554Y-57781796D02*
X150224025Y-57099620D01*
X147783638Y-57778092D02*
X150224554Y-57781796D01*
X148729976Y-59020575D02*
X148752227Y-57054171D01*
X148748444Y-57674617D02*
X148713664Y-55090169D01*
X141983392Y-58005181D02*
X141995801Y-59006050D01*
X139236829Y-55035527D02*
X139241829Y-56279618D01*
X140482196Y-56144070D02*
X140476190Y-55035527D01*
X142091712Y-57774520D02*
X143235662Y-57763540D01*
X144730979Y-55038993D02*
X144730714Y-57168331D01*
X144730714Y-55042300D02*
X144730979Y-55038993D01*
X143216321Y-55042380D02*
X144730714Y-55042300D01*
X143230264Y-53097904D02*
X143216321Y-55042380D01*
X144436344Y-57778039D02*
X141996327Y-57763381D01*
X141976166Y-55042697D02*
X141978812Y-53097904D01*
X137727222Y-55038808D02*
X141976166Y-55042697D01*
X137741166Y-53097904D02*
X137727222Y-55038808D01*
X136487729Y-55038940D02*
X136490374Y-53097891D01*
X133742941Y-55020922D02*
X136487729Y-55038940D01*
X133747942Y-57770842D02*
X133742941Y-55020922D01*
X131023263Y-57752718D02*
X133747942Y-57770842D01*
X129502967Y-57759968D02*
X132263074Y-57752665D01*
X129502702Y-55024572D02*
X129502967Y-57759968D01*
X126748125Y-55024308D02*
X129502702Y-55024572D01*
X126762069Y-53097903D02*
X126748125Y-55024308D01*
X125508155Y-55024494D02*
X125510801Y-53097877D01*
X121253682Y-55020710D02*
X125508155Y-55024494D01*
X121267626Y-53097877D02*
X121253682Y-55020710D01*
X120013950Y-55021001D02*
X120016332Y-53097877D01*
X115764848Y-55017085D02*
X120013950Y-55021001D01*
X115778791Y-53097877D02*
X115764848Y-55017085D01*
X114525407Y-55017218D02*
X114527788Y-53097877D01*
X111785700Y-55002798D02*
X114525407Y-55017218D01*
X111785435Y-57271793D02*
X111785700Y-55002798D01*
X109025910Y-55013646D02*
X106036410Y-55001290D01*
X109028292Y-53097877D02*
X109025910Y-55013646D01*
X110265457Y-55013487D02*
X110279374Y-53097877D01*
X113019955Y-55002824D02*
X110265457Y-55013487D01*
X113025521Y-57277924D02*
X113019955Y-55002824D01*
X114532339Y-56245387D02*
X114536335Y-57226508D01*
X111785462Y-56245361D02*
X114532339Y-56245387D01*
X106030748Y-58982025D02*
X108993158Y-58984407D01*
X106036463Y-56243879D02*
X106030748Y-58982025D01*
X108968876Y-56241762D02*
X106036463Y-56243879D01*
X110279691Y-56257426D02*
X113019955Y-56245440D01*
X110285274Y-57429040D02*
X110279691Y-56257426D01*
X105837840Y-60376036D02*
X108109985Y-60376036D01*
X105837734Y-63487033D02*
X105837840Y-60376036D01*
X102687817Y-63491637D02*
X105837734Y-63487033D01*
X102705491Y-68325019D02*
X102687817Y-63491637D01*
X105833633Y-68303111D02*
X102705491Y-68325019D01*
X108955505Y-66605571D02*
X105833951Y-66605386D01*
X105833924Y-65183250D02*
X108957912Y-65183250D01*
X105837946Y-62068734D02*
X105833924Y-65183250D01*
X102709830Y-62090641D02*
X105837946Y-62068734D01*
X102709645Y-60372861D02*
X102709830Y-62090641D01*
X104419171Y-60372861D02*
X102709645Y-60372861D01*
X104415070Y-65197802D02*
X104419171Y-60372861D01*
X101273407Y-65197882D02*
X104415070Y-65197802D01*
X101273169Y-68322055D02*
X101273407Y-65197882D01*
X98758595Y-68304460D02*
X101273169Y-68322055D01*
X101273407Y-69729612D02*
X98758595Y-69726040D01*
X101281794Y-72856828D02*
X101273407Y-69729612D01*
X104410995Y-72831746D02*
X101281794Y-72856828D01*
X104419303Y-75958883D02*
X104410995Y-72831746D01*
X104406656Y-77658963D02*
X104419065Y-74545108D01*
X101264993Y-77659069D02*
X104406656Y-77658963D01*
X101264782Y-80783084D02*
X101264993Y-77659069D01*
X98758595Y-80765410D02*
X101264782Y-80783084D01*
X101265099Y-82187122D02*
X98758595Y-82184450D01*
X101273486Y-85314497D02*
X101265099Y-82187122D01*
X104394458Y-85285896D02*
X101273486Y-85314497D01*
X104410942Y-88384947D02*
X104394458Y-85285896D01*
X104410704Y-87002962D02*
X104390066Y-88407619D01*
X102684642Y-87002671D02*
X105833501Y-87000819D01*
X102696045Y-83898315D02*
X102684642Y-87002671D01*
X102675408Y-82180719D02*
X102696098Y-85316032D01*
X105825325Y-82175719D02*
X102675408Y-82180719D01*
X105825431Y-79064483D02*
X105825325Y-82175719D01*
X108934153Y-79064721D02*
X105825431Y-79064483D01*
X105825405Y-77643776D02*
X108936561Y-77643776D01*
X105829506Y-72833810D02*
X105825405Y-77643776D01*
X105841888Y-75960920D02*
X105829506Y-72833810D01*
X102679482Y-75949411D02*
X105841888Y-75960920D01*
X102697156Y-80782820D02*
X102679482Y-75949411D01*
X105825272Y-80761124D02*
X102697156Y-80782820D01*
X105812916Y-83866274D02*
X105825272Y-80761124D01*
X108925924Y-83866274D02*
X105812916Y-83866274D01*
X105812890Y-85285525D02*
X108923490Y-85285790D01*
X105833501Y-88416075D02*
X105812890Y-85285525D01*
X104410118Y-88400994D02*
X105833501Y-88416075D01*
X101248404Y-90112134D02*
X102567245Y-90106922D01*
X101248219Y-93236334D02*
X101248404Y-90112134D01*
X98758595Y-93218871D02*
X101248219Y-93236334D01*
X101248457Y-94641166D02*
X98758595Y-94638493D01*
X101256871Y-97768276D02*
X101248457Y-94641166D01*
X102685821Y-97743379D02*
X101256871Y-97768276D01*
X102654558Y-100860065D02*
X106016248Y-100855064D01*
X102654558Y-103976327D02*
X102654558Y-100860065D01*
X104077382Y-103976327D02*
X102654558Y-103976327D01*
X102672206Y-105692838D02*
X102654558Y-102560171D01*
X105800348Y-105671142D02*
X102672206Y-105692838D01*
X128424181Y-151798021D02*
X128423387Y-149961998D01*
X129594645Y-149961969D02*
X129594645Y-151798018D01*
X132169834Y-149961969D02*
X129594645Y-149961969D01*
X132142821Y-147512721D02*
X132169834Y-149961969D01*
X136137764Y-147498910D02*
X132142821Y-147512721D01*
X136141759Y-149974880D02*
X136137764Y-147498910D01*
X138712980Y-149975145D02*
X136141759Y-149974880D01*
X134737880Y-149972155D02*
X138712980Y-149975145D01*
X134737880Y-151798018D02*
X134737880Y-149972155D01*
X133562389Y-149971705D02*
X133563183Y-151798018D01*
X130991169Y-149971705D02*
X133562389Y-149971705D01*
X130987173Y-147495735D02*
X130991169Y-149971705D01*
X126999903Y-147502746D02*
X130987173Y-147495735D01*
X127017894Y-149961757D02*
X126999903Y-147502746D01*
X119290712Y-148839368D02*
X121872490Y-148839368D01*
X119290606Y-146369747D02*
X119290712Y-148839368D01*
X116708537Y-146369747D02*
X119290606Y-146369747D01*
X116726291Y-143955927D02*
X116708537Y-146369747D01*
X104337494Y-141382166D02*
X102610267Y-141382166D01*
X104333287Y-144493137D02*
X104337494Y-141382166D01*
X104333287Y-143077352D02*
X104333287Y-144493137D01*
X105756110Y-143077352D02*
X104333287Y-143077352D01*
X102610294Y-143088967D02*
X105756110Y-143077352D01*
X102610294Y-139966354D02*
X102610294Y-143088967D01*
X102622756Y-132043671D02*
X102622729Y-135159404D01*
X105760291Y-132028272D02*
X102622756Y-132043671D01*
X105772752Y-128928149D02*
X105760291Y-132028272D01*
X108849301Y-128928149D02*
X105772752Y-128928149D01*
X105772805Y-127507019D02*
X108851788Y-127507019D01*
X105776906Y-122697318D02*
X105772805Y-127507019D01*
X102648685Y-124412823D02*
X105764471Y-124380332D01*
X102643499Y-121296296D02*
X102648685Y-124412823D01*
X102631063Y-119585500D02*
X102643420Y-122712081D01*
X105780981Y-119580500D02*
X102631063Y-119585500D01*
X105781060Y-116469264D02*
X105780981Y-119580500D01*
X108870468Y-116469529D02*
X105781060Y-116469264D01*
X105781246Y-115048981D02*
X108873061Y-115048981D01*
X105785347Y-110239385D02*
X105781246Y-115048981D01*
X102657019Y-111955658D02*
X105785161Y-111933671D01*
X102662840Y-108801295D02*
X102657019Y-111955658D01*
X102650484Y-107092140D02*
X102662840Y-110218456D01*
X105800401Y-107087139D02*
X102650484Y-107092140D01*
X105800507Y-103976168D02*
X105800401Y-107087139D01*
X108891793Y-103976168D02*
X105800507Y-103976168D01*
X106016248Y-102554192D02*
X108894174Y-102554192D01*
X105785373Y-108817250D02*
X105800587Y-103975904D01*
X108883644Y-108817250D02*
X105785373Y-108817250D01*
X105785267Y-110238459D02*
X108881130Y-110238724D01*
X105785161Y-113349430D02*
X105785267Y-110238459D01*
X102635244Y-113354430D02*
X105785161Y-113349430D01*
X102652892Y-118187865D02*
X102635244Y-113354430D01*
X105781034Y-118166143D02*
X102652892Y-118187865D01*
X105776933Y-121275156D02*
X105781140Y-116471116D01*
X108862398Y-121275156D02*
X105776933Y-121275156D01*
X105776933Y-122696048D02*
X108859964Y-122696048D01*
X105764471Y-125796144D02*
X105776933Y-122696048D01*
X102626910Y-125811464D02*
X105764471Y-125796144D01*
X102614527Y-128917249D02*
X102626910Y-125811464D01*
X102644557Y-130644978D02*
X102614527Y-127501463D01*
X105760343Y-130612487D02*
X102644557Y-130644978D01*
X105760343Y-133728220D02*
X105760343Y-130612487D01*
X108841205Y-133728220D02*
X105760343Y-133728220D01*
X105760343Y-135150144D02*
X108838797Y-135150382D01*
X105760238Y-138261115D02*
X105760343Y-135150144D01*
X102610320Y-138265110D02*
X105760238Y-138261115D01*
X102610294Y-141381637D02*
X102610320Y-138265110D01*
X101187470Y-141381637D02*
X102610294Y-141381637D01*
X104337520Y-139974847D02*
X101187470Y-139965852D01*
X104341621Y-135149906D02*
X104337520Y-139974847D01*
X101199959Y-135158902D02*
X104341621Y-135149906D01*
X101212262Y-132051370D02*
X101199959Y-135158902D01*
X98758595Y-132048698D02*
X101212262Y-132051370D01*
X101212182Y-130644766D02*
X98758595Y-130627886D01*
X101191704Y-127500987D02*
X101212182Y-130644766D01*
X104354110Y-127520275D02*
X101191704Y-127500987D01*
X104358211Y-122695254D02*
X104354110Y-127520275D01*
X101220676Y-122711658D02*
X104358211Y-122695254D01*
X101220623Y-119593252D02*
X101220676Y-122711658D01*
X98758595Y-119590607D02*
X101220623Y-119593252D01*
X101220464Y-118186648D02*
X98758595Y-118169503D01*
X101212368Y-115053717D02*
X101220464Y-118186648D01*
X104362417Y-115062713D02*
X101212368Y-115053717D01*
X104362312Y-111932956D02*
X104362417Y-115062713D01*
X104366518Y-110238962D02*
X104362338Y-113349932D01*
X101239964Y-110217557D02*
X104366518Y-110238962D01*
X101239911Y-107099469D02*
X101239964Y-110217557D01*
X98758595Y-107096796D02*
X101239911Y-107099469D01*
X101239884Y-105693208D02*
X98758595Y-105676143D01*
X101231762Y-102560277D02*
X101239884Y-105693208D01*
X104373345Y-102562394D02*
X101231762Y-102560277D01*
X104390966Y-99450179D02*
X104373345Y-102562394D01*
X106016275Y-99439490D02*
X104390966Y-99450179D01*
X104397444Y-99461504D02*
X106016275Y-99439490D01*
X101256659Y-96354184D02*
X102629976Y-96345188D01*
X101243959Y-99462244D02*
X101256659Y-96354184D01*
X98758595Y-99445046D02*
X101243959Y-99462244D01*
X101244200Y-100868320D02*
X98758757Y-100865647D01*
X101231923Y-103976380D02*
X101244200Y-100868320D01*
X104381785Y-103976380D02*
X101231923Y-103976380D01*
X104366571Y-108833072D02*
X104381785Y-103976380D01*
X101240017Y-108802671D02*
X104366571Y-108833072D01*
X101224644Y-111957034D02*
X101240017Y-108802671D01*
X98758595Y-111939862D02*
X101224644Y-111957034D01*
X101224832Y-113361442D02*
X98758757Y-113358770D01*
X101212529Y-116469767D02*
X101224832Y-113361442D01*
X104362579Y-116469502D02*
X101212529Y-116469767D01*
X104358372Y-119580738D02*
X104362579Y-116469502D01*
X104358346Y-121289337D02*
X104358372Y-118165640D01*
X101220811Y-121296322D02*
X104358346Y-121289337D01*
X101216392Y-124413141D02*
X101220811Y-121296322D01*
X98758757Y-124396154D02*
X101216392Y-124413141D01*
X101216551Y-125819216D02*
X98758757Y-125816570D01*
X101191865Y-128916799D02*
X101216551Y-125819216D01*
X104354271Y-128927409D02*
X101191865Y-128916799D01*
X104337682Y-132027796D02*
X104354271Y-128927409D01*
X104341730Y-133743619D02*
X104337629Y-130612540D01*
X101200094Y-133743619D02*
X104341730Y-133743619D01*
X101199856Y-136867819D02*
X101200094Y-133743619D01*
X98758757Y-136850674D02*
X101199856Y-136867819D01*
X101199935Y-138274661D02*
X98758757Y-138272016D01*
X101195754Y-143100159D02*
X101199935Y-138274661D01*
X98758757Y-143083014D02*
X101195754Y-143100159D01*
X105756245Y-144493134D02*
X102606354Y-144498135D01*
X104333422Y-144493134D02*
X105756245Y-144493134D01*
X104333342Y-145521570D02*
X104333422Y-143077346D01*
X110397037Y-147475253D02*
X105746852Y-147478243D01*
X110400847Y-149948314D02*
X110397037Y-147475253D01*
X112972200Y-148835820D02*
X110400873Y-148832804D01*
X112972464Y-146362760D02*
X112972200Y-148835820D01*
X115541013Y-146369745D02*
X112972464Y-146362760D01*
X115544214Y-143955951D02*
X115541013Y-146369745D01*
X118122844Y-148839762D02*
X115551543Y-148836746D01*
X118118240Y-146366967D02*
X118122844Y-148839762D01*
X120686788Y-146372946D02*
X118118240Y-146366967D01*
X120689990Y-143955713D02*
X120686788Y-146372946D01*
X121854448Y-146372946D02*
X121872228Y-143955448D01*
X125842724Y-146375936D02*
X121854448Y-146372946D01*
X125845925Y-143954734D02*
X125842724Y-146375936D01*
X127000329Y-146376809D02*
X127018320Y-143955607D01*
X129582397Y-146377074D02*
X127000329Y-146376809D01*
X129582662Y-148846694D02*
X129582397Y-146377074D01*
X132164202Y-148846694D02*
X129582662Y-148846694D01*
X133561466Y-148856643D02*
X130990245Y-148853653D01*
X133561731Y-146383847D02*
X133561466Y-148856643D01*
X136130570Y-146389853D02*
X133561731Y-146383847D01*
X136133560Y-144269218D02*
X136130570Y-146389853D01*
X137298520Y-146390144D02*
X137305532Y-145372292D01*
X139880589Y-146390144D02*
X137298520Y-146390144D01*
X139880589Y-148859765D02*
X139880589Y-146390144D01*
X142462129Y-148859765D02*
X139880589Y-148859765D01*
X143864394Y-148862437D02*
X141293173Y-148859421D01*
X143864659Y-146389350D02*
X143864394Y-148862437D01*
X146433234Y-146396362D02*
X143864659Y-146389350D01*
X146436223Y-143953728D02*
X146433234Y-146396362D01*
X147595363Y-146395806D02*
X147613672Y-143953437D01*
X150177723Y-146396071D02*
X147595363Y-146395806D01*
X150177723Y-148865692D02*
X150177723Y-146396071D01*
X152790748Y-148874687D02*
X150177723Y-148865692D01*
X154186663Y-148878471D02*
X151615204Y-148875481D01*
X154186928Y-146405675D02*
X154186663Y-148878471D01*
X156755476Y-146411681D02*
X154186928Y-146405675D01*
X156758492Y-143953173D02*
X156755476Y-146411681D01*
X159337545Y-149997314D02*
X159338339Y-151798095D01*
X156766059Y-149997050D02*
X159337545Y-149997314D01*
X156762038Y-147521079D02*
X156766059Y-149997050D01*
X152767359Y-147534864D02*
X156762038Y-147521079D01*
X152785562Y-149993928D02*
X152767359Y-147534864D01*
X150189629Y-149981704D02*
X154190658Y-149993584D01*
X150189629Y-151798095D02*
X150189629Y-149981704D01*
X149008423Y-149982180D02*
X149009217Y-151798095D01*
X146436964Y-149982180D02*
X149008423Y-149982180D01*
X146433948Y-147506209D02*
X146436964Y-149982180D01*
X142439004Y-147519994D02*
X146433948Y-147506209D01*
X142457022Y-149979058D02*
X142439004Y-147519994D01*
X143864315Y-151798098D02*
X143863521Y-149978505D01*
X145038985Y-149978505D02*
X145038985Y-151798098D01*
X149014085Y-149981521D02*
X145038985Y-149978505D01*
X147595945Y-147521955D02*
X147613937Y-149980992D01*
X150177749Y-147514970D02*
X147595945Y-147521955D01*
X151611182Y-147517960D02*
X149035966Y-147517960D01*
X151615178Y-149993930D02*
X151611182Y-147517960D01*
X154186398Y-149993930D02*
X151615178Y-149993930D01*
X154187192Y-151798098D02*
X154186398Y-149993930D01*
X155366202Y-149993772D02*
X155366202Y-151798098D01*
X157940333Y-149996788D02*
X155366202Y-149993772D01*
X157936047Y-149997052D02*
X157945969Y-149061287D01*
X159337307Y-149997317D02*
X157936047Y-149997052D01*
X190229104Y-151798024D02*
X190228310Y-150022082D01*
X191403695Y-150022085D02*
X191403695Y-151798021D01*
X193978885Y-150022085D02*
X191403695Y-150022085D01*
X193972879Y-148906866D02*
X193978885Y-150022085D01*
X194121919Y-141234002D02*
X191391154Y-141251200D01*
X194128877Y-143757886D02*
X194121919Y-141234002D01*
X195369535Y-143981780D02*
X195369535Y-142739296D01*
X195371387Y-141234584D02*
X195369535Y-143981780D01*
X197458844Y-141249613D02*
X195371387Y-141234584D01*
X195370117Y-139998451D02*
X197458870Y-140001097D01*
X195371969Y-137259749D02*
X195370117Y-139998451D01*
X192631415Y-137265755D02*
X195371969Y-137259749D01*
X192633532Y-134530201D02*
X192631415Y-137265755D01*
X191398642Y-133040782D02*
X191394647Y-137264591D01*
X188648827Y-133040782D02*
X191398642Y-133040782D01*
X188643827Y-131791420D02*
X188648827Y-133040782D01*
X191398668Y-131790362D02*
X188643827Y-131791420D01*
X194128983Y-130282078D02*
X191398219Y-130301392D01*
X194142980Y-133029511D02*
X194128983Y-130282078D01*
X194142318Y-134525651D02*
X194141260Y-131785890D01*
X191392530Y-134529646D02*
X194142318Y-134525651D01*
X191392768Y-137265173D02*
X191392530Y-134529646D01*
X188637662Y-137266231D02*
X191392768Y-137265173D01*
X188642663Y-138515594D02*
X188637662Y-137266231D01*
X191392742Y-138515594D02*
X188642663Y-138515594D01*
X191381841Y-141474305D02*
X191392742Y-138515594D01*
X191388747Y-140009431D02*
X191381841Y-141474305D01*
X194138561Y-140005436D02*
X191388747Y-140009431D01*
X194131550Y-137259564D02*
X194138561Y-140005436D01*
X194124327Y-135755646D02*
X194132317Y-138502285D01*
X191393297Y-135772341D02*
X194124327Y-135755646D01*
X192634617Y-133027924D02*
X192632500Y-135772182D01*
X195380727Y-133028453D02*
X192634617Y-133027924D01*
X195377737Y-130280755D02*
X195380727Y-133028453D01*
X197458844Y-130295492D02*
X195377737Y-130280755D01*
X195379563Y-129045442D02*
X197458844Y-129048088D01*
X195382553Y-126307242D02*
X195379563Y-129045442D01*
X192639882Y-126312243D02*
X195382553Y-126307242D01*
X192643877Y-123576875D02*
X192639882Y-126312243D01*
X192652000Y-122075788D02*
X192644988Y-124817136D01*
X195393083Y-122073936D02*
X192652000Y-122075788D01*
X195394935Y-119328883D02*
X195393083Y-122073936D01*
X197458844Y-119343409D02*
X195394935Y-119328883D01*
X195394062Y-118093385D02*
X197458844Y-118096031D01*
X195397052Y-115354921D02*
X195394062Y-118093385D01*
X192654381Y-115360927D02*
X195397052Y-115354921D01*
X192658376Y-112625400D02*
X192654381Y-115360927D01*
X191419465Y-112623839D02*
X191417348Y-115359366D01*
X194166898Y-112619844D02*
X191419465Y-112623839D01*
X194151790Y-108375398D02*
X194166898Y-112619844D01*
X191423142Y-108394395D02*
X194151790Y-108375398D01*
X188665602Y-109886910D02*
X191420708Y-109885851D01*
X188670603Y-111136272D02*
X188665602Y-109886910D01*
X191420682Y-111136272D02*
X188670603Y-111136272D01*
X191416687Y-115360345D02*
X191420682Y-111136272D01*
X188661580Y-115361403D02*
X191416687Y-115360345D01*
X188666581Y-116610766D02*
X188661580Y-115361403D01*
X191416660Y-116610766D02*
X188666581Y-116610766D01*
X191407664Y-119346822D02*
X191416660Y-116610766D01*
X194143456Y-119330127D02*
X191407664Y-119346822D01*
X194151446Y-123571662D02*
X194143456Y-119330127D01*
X191403748Y-123576663D02*
X194151446Y-123571662D01*
X191401632Y-126312031D02*
X191403748Y-123576663D01*
X188647055Y-126313090D02*
X191401632Y-126312031D01*
X188652055Y-127562452D02*
X188647055Y-126313090D01*
X191401605Y-127562452D02*
X188652055Y-127562452D01*
X191398615Y-131791817D02*
X191401605Y-127562452D01*
X191398351Y-129058406D02*
X191398615Y-131791817D01*
X194148165Y-129052400D02*
X191398351Y-129058406D01*
X194143165Y-126307084D02*
X194148165Y-129052400D01*
X194132502Y-124801710D02*
X194142794Y-127548985D01*
X191403828Y-124818908D02*
X194132502Y-124801710D01*
X191412850Y-122090789D02*
X191403828Y-124818908D01*
X188663035Y-122090789D02*
X191412850Y-122090789D01*
X188658035Y-120841427D02*
X188663035Y-122090789D01*
X191412877Y-120840369D02*
X188658035Y-120841427D01*
X191412903Y-120841083D02*
X191407902Y-119347775D01*
X191407902Y-118105027D02*
X191412903Y-120841083D01*
X194162744Y-118101032D02*
X191407902Y-118105027D01*
X194147345Y-113851029D02*
X194162744Y-118101032D01*
X191418697Y-113867936D02*
X194147345Y-113851029D01*
X192657556Y-111122514D02*
X192657556Y-113866772D01*
X195406048Y-111123043D02*
X192657556Y-111122514D01*
X192657556Y-109885560D02*
X195406048Y-109880560D01*
X192661578Y-105642967D02*
X192657556Y-109885560D01*
X195403984Y-105642967D02*
X192661578Y-105642967D01*
X195404248Y-102896062D02*
X195403984Y-105642967D01*
X197458844Y-102910588D02*
X195404248Y-102896062D01*
X195404751Y-101659551D02*
X197458844Y-101662197D01*
X195413773Y-98926934D02*
X195404751Y-101659551D01*
X192675045Y-98898915D02*
X195413773Y-98926934D01*
X192669039Y-96198577D02*
X192675045Y-98898915D01*
X191440817Y-94669550D02*
X191436821Y-98898915D01*
X188691002Y-94669550D02*
X191440817Y-94669550D01*
X188686001Y-93420188D02*
X188691002Y-94669550D01*
X191440843Y-93419129D02*
X188686001Y-93420188D01*
X191444838Y-89195321D02*
X191440843Y-93419129D01*
X188695024Y-89195321D02*
X191444838Y-89195321D01*
X188690023Y-87945958D02*
X188695024Y-89195321D01*
X191444865Y-87944900D02*
X188690023Y-87945958D01*
X191447881Y-83715800D02*
X191444865Y-87944900D01*
X188698304Y-83715800D02*
X191447881Y-83715800D01*
X188693304Y-82466438D02*
X188698304Y-83715800D01*
X191447907Y-82465379D02*
X188693304Y-82466438D01*
X191447907Y-79729826D02*
X191447907Y-82465379D01*
X194197987Y-79725831D02*
X191447907Y-79729826D01*
X194189970Y-75483924D02*
X194197987Y-79725831D01*
X191451797Y-75500143D02*
X194189970Y-75483924D01*
X191459417Y-78242867D02*
X191448622Y-82463739D01*
X188709867Y-78242867D02*
X191459417Y-78242867D01*
X188704866Y-76993504D02*
X188709867Y-78242867D01*
X191459443Y-76992446D02*
X188704866Y-76993504D01*
X192686951Y-82464374D02*
X192688009Y-79728847D01*
X195427241Y-82458368D02*
X192686951Y-82464374D01*
X195426182Y-85197070D02*
X195427241Y-82458368D01*
X197458844Y-85199716D02*
X195426182Y-85197070D01*
X195426262Y-86433574D02*
X197458950Y-86447808D01*
X195429278Y-89181245D02*
X195426262Y-86433574D01*
X192683168Y-89180451D02*
X195429278Y-89181245D01*
X192681051Y-91924974D02*
X192683168Y-89180451D01*
X192680257Y-93417780D02*
X192681315Y-90682517D01*
X195420282Y-93412779D02*
X192680257Y-93417780D01*
X192680257Y-94655263D02*
X195420282Y-94655263D01*
X192670256Y-97440002D02*
X192680257Y-94655263D01*
X194167586Y-97389414D02*
X191429413Y-97441510D01*
X194174597Y-100169920D02*
X194167586Y-97389414D01*
X194173354Y-101666827D02*
X194174148Y-98927066D01*
X191425682Y-101670822D02*
X194173354Y-101666827D01*
X191423566Y-104406111D02*
X191425682Y-101670822D01*
X194154780Y-102895578D02*
X191426159Y-102912485D01*
X194165099Y-105642482D02*
X194154780Y-102895578D01*
X194169253Y-107146189D02*
X194164252Y-104400608D01*
X191421819Y-107152195D02*
X194169253Y-107146189D01*
X191419703Y-109885341D02*
X191421819Y-107152195D01*
X191422719Y-105656241D02*
X191419703Y-109885341D01*
X188672904Y-105656241D02*
X191422719Y-105656241D01*
X188667904Y-104406878D02*
X188672904Y-105656241D01*
X191422745Y-104405820D02*
X188667904Y-104406878D01*
X191435948Y-100148939D02*
X191422745Y-104405820D01*
X188686107Y-100148939D02*
X191435948Y-100148939D01*
X188681107Y-98899841D02*
X188686107Y-100148939D01*
X191435948Y-98898782D02*
X188681107Y-98899841D01*
X191428963Y-96198445D02*
X191435948Y-98898782D01*
X194186451Y-96159048D02*
X191428963Y-96198445D01*
X194170840Y-91909046D02*
X194186451Y-96159048D01*
X191439811Y-91926244D02*
X194170840Y-91909046D01*
X191440790Y-90683814D02*
X191441055Y-93419076D01*
X194190869Y-90679819D02*
X191440790Y-90683814D01*
X194188753Y-87940587D02*
X194190869Y-90679819D01*
X194175841Y-86433891D02*
X194189652Y-89181563D01*
X191444812Y-86453179D02*
X194175841Y-86433891D01*
X191445156Y-85210326D02*
X191445420Y-87943207D01*
X194194970Y-85204319D02*
X191445156Y-85210326D01*
X194179572Y-80954317D02*
X194194970Y-85204319D01*
X191448807Y-80971013D02*
X194179572Y-80954317D01*
X192698037Y-78229902D02*
X192688036Y-80971092D01*
X195437030Y-78226912D02*
X192698037Y-78229902D01*
X195441025Y-75482178D02*
X195437030Y-78226912D01*
X197458844Y-75496412D02*
X195441025Y-75482178D01*
X195442375Y-74245700D02*
X197458738Y-74248346D01*
X195443433Y-71507263D02*
X195442375Y-74245700D01*
X192703144Y-71513242D02*
X195443433Y-71507263D01*
X192704202Y-68777715D02*
X192703144Y-71513242D01*
X188709020Y-71514010D02*
X191464126Y-71512951D01*
X188714021Y-72763346D02*
X188709020Y-71514010D01*
X191464100Y-72763346D02*
X188714021Y-72763346D01*
X191460105Y-76992710D02*
X191464100Y-72763346D01*
X191453120Y-74256390D02*
X191460105Y-76992710D01*
X194210343Y-74253373D02*
X191453120Y-74256390D01*
X194203331Y-71507792D02*
X194210343Y-74253373D01*
X194195420Y-70002895D02*
X194203410Y-72749773D01*
X191464655Y-70019802D02*
X194195420Y-70002895D01*
X192706292Y-67275438D02*
X192704175Y-70019722D01*
X195452667Y-67275967D02*
X192706292Y-67275438D01*
X195449677Y-64528348D02*
X195452667Y-67275967D01*
X197458764Y-64542503D02*
X195449677Y-64528348D01*
X195448540Y-63291659D02*
X197458764Y-63294041D01*
X195452535Y-59048669D02*
X195448540Y-63291659D01*
X197458764Y-59062797D02*
X195452535Y-59048669D01*
X195447640Y-57810974D02*
X197458844Y-57813620D01*
X195419832Y-55087671D02*
X195447640Y-57810974D01*
X192665255Y-55091058D02*
X195419832Y-55087671D01*
X192679754Y-53097872D02*
X192665255Y-55091058D01*
X191431635Y-55092328D02*
X191434281Y-53098110D01*
X188715688Y-55090211D02*
X191431635Y-55092328D01*
X188691584Y-57824098D02*
X188715688Y-55090211D01*
X185949178Y-57820393D02*
X188691584Y-57824098D01*
X185944944Y-56316766D02*
X185948940Y-59059305D01*
X183198305Y-56316740D02*
X185944944Y-56316766D01*
X181688619Y-56332112D02*
X184469919Y-56325603D01*
X181708410Y-59055680D02*
X181688619Y-56332112D01*
X183201901Y-61719505D02*
X183201901Y-59055733D01*
X184454943Y-59056077D02*
X184454943Y-61720352D01*
X188690129Y-59059675D02*
X184454943Y-59056077D01*
X188704152Y-61802399D02*
X188690129Y-59059675D01*
X191470900Y-61809516D02*
X188704152Y-61802399D01*
X191467883Y-66038696D02*
X191470900Y-61809516D01*
X188712777Y-66039754D02*
X191467883Y-66038696D01*
X188717778Y-67289117D02*
X188712777Y-66039754D01*
X191467857Y-67289117D02*
X188717778Y-67289117D01*
X191463862Y-71513031D02*
X191467857Y-67289117D01*
X191463597Y-68777530D02*
X191463862Y-71513031D01*
X194213412Y-68773535D02*
X191463597Y-68777530D01*
X194212353Y-66033748D02*
X194213412Y-68773535D01*
X194197960Y-64528401D02*
X194211771Y-67275861D01*
X191466931Y-64547636D02*
X194197960Y-64528401D01*
X191468545Y-63305312D02*
X191468809Y-66038431D01*
X194218386Y-63298909D02*
X191468545Y-63305312D01*
X194218386Y-60559148D02*
X194218386Y-63298909D01*
X189944227Y-59059517D02*
X194201902Y-59048960D01*
X189944227Y-61802082D02*
X189944227Y-59059517D01*
X191432905Y-56319650D02*
X191466508Y-60557984D01*
X188709814Y-56332086D02*
X191432905Y-56319650D01*
X187177003Y-56335869D02*
X189955419Y-56332879D01*
X187220712Y-59064623D02*
X187177003Y-56335869D01*
X188691531Y-59059437D02*
X187220712Y-59064623D01*
X191466402Y-60557984D02*
X188699654Y-60558778D01*
X191468518Y-57824865D02*
X191466402Y-60557984D01*
X194201479Y-59048827D02*
X191473096Y-59068063D01*
X194216878Y-61801526D02*
X194201479Y-59048827D01*
X192709388Y-61795811D02*
X195457086Y-61801526D01*
X192707271Y-64547716D02*
X192709388Y-61795811D01*
X192704361Y-66038590D02*
X192706213Y-63305444D01*
X195450736Y-66033695D02*
X192704361Y-66038590D01*
X195443724Y-68766312D02*
X195450736Y-66033695D01*
X197458844Y-68768958D02*
X195443724Y-68766312D01*
X195443592Y-70003054D02*
X197458712Y-70017288D01*
X195441740Y-72750090D02*
X195443592Y-70003054D01*
X192701450Y-72750170D02*
X195441740Y-72750090D01*
X192691449Y-75499085D02*
X192701450Y-72750170D01*
X192698117Y-76992737D02*
X192692110Y-74256390D01*
X195437083Y-76984746D02*
X192698117Y-76992737D01*
X195430072Y-79717443D02*
X195437083Y-76984746D01*
X197458844Y-79720089D02*
X195430072Y-79717443D01*
X195429384Y-80955058D02*
X197458950Y-80969319D01*
X195427267Y-83701989D02*
X195429384Y-80955058D01*
X192686978Y-83701989D02*
X195427267Y-83701989D01*
X192682982Y-87944583D02*
X192686978Y-83701989D01*
X195429093Y-87939582D02*
X192682982Y-87944583D01*
X195422081Y-90671669D02*
X195429093Y-87939582D01*
X197458844Y-90674315D02*
X195422081Y-90671669D01*
X195422902Y-91907697D02*
X197458844Y-91921932D01*
X195418906Y-96150555D02*
X195422902Y-91907697D01*
X197458844Y-96153201D02*
X195418906Y-96150555D01*
X195418113Y-97388805D02*
X197458844Y-97403331D01*
X195414117Y-100169576D02*
X195418113Y-97388805D01*
X192675389Y-100135974D02*
X195414117Y-100169576D01*
X192665388Y-102913305D02*
X192675389Y-100135974D01*
X192662054Y-104406058D02*
X192665044Y-101670769D01*
X195404460Y-104401057D02*
X192662054Y-104406058D01*
X195401470Y-107139495D02*
X195404460Y-104401057D01*
X197458844Y-107142141D02*
X195401470Y-107139495D01*
X195401179Y-108375946D02*
X197458844Y-108390657D01*
X195397184Y-112613512D02*
X195401179Y-108375946D01*
X197458844Y-112616158D02*
X195397184Y-112613512D01*
X195397369Y-113850757D02*
X197458844Y-113865468D01*
X195397369Y-116597926D02*
X195397369Y-113850757D01*
X192654698Y-116598190D02*
X195397369Y-116597926D01*
X192647687Y-119347476D02*
X192654698Y-116598190D01*
X192651735Y-120841075D02*
X192647740Y-118105019D01*
X195392818Y-120833085D02*
X192651735Y-120841075D01*
X195382817Y-123565172D02*
X195392818Y-120833085D01*
X197458844Y-123567818D02*
X195382817Y-123565172D01*
X195382023Y-124801411D02*
X197458844Y-124816122D01*
X195381759Y-127548951D02*
X195382023Y-124801411D01*
X192639353Y-127548951D02*
X195381759Y-127548951D01*
X192635357Y-131791280D02*
X192639353Y-127548951D01*
X195381468Y-131786279D02*
X192635357Y-131791280D01*
X195374483Y-134518896D02*
X195381468Y-131786279D01*
X197458844Y-134521542D02*
X195374483Y-134518896D01*
X195375779Y-135754579D02*
X197458817Y-135769317D01*
X195373663Y-138501483D02*
X195375779Y-135754579D01*
X192633108Y-138501483D02*
X195373663Y-138501483D01*
X192631256Y-141251298D02*
X192633108Y-138501483D01*
X195138318Y-142739661D02*
X193038437Y-142759875D01*
X194128883Y-142739661D02*
X195138318Y-142739661D01*
X194128883Y-143982145D02*
X194128883Y-142739661D01*
X195577463Y-143982145D02*
X194128883Y-143982145D01*
X193001226Y-143982409D02*
X195577463Y-143982145D01*
X193005909Y-145089410D02*
X193001226Y-143982409D01*
X192634892Y-141696597D02*
X192630553Y-140009339D01*
X189362657Y-144005518D02*
X188643430Y-143993797D01*
X188636365Y-142745374D02*
X189319864Y-142744315D01*
X188641366Y-143994736D02*
X188636365Y-142745374D01*
X188822862Y-150023982D02*
X187583025Y-150023982D01*
X187657460Y-150022156D02*
X188827448Y-150022156D01*
X190228681Y-150022156D02*
X187657460Y-150022156D01*
X186253316Y-150019140D02*
X190228681Y-150022156D01*
X186253316Y-151798119D02*
X186253316Y-150019140D01*
X185077537Y-150019008D02*
X185078331Y-151798122D01*
X185073460Y-150020648D02*
X182502504Y-150018796D01*
X181103122Y-150017632D02*
X185073460Y-150020648D01*
X181103122Y-151798119D02*
X181103122Y-150017632D01*
X179931598Y-150015835D02*
X179932391Y-151798122D01*
X179927579Y-150017023D02*
X177356358Y-150016759D01*
X175952479Y-150014033D02*
X179927579Y-150017023D01*
X175952479Y-151798119D02*
X175952479Y-150014033D01*
X174777318Y-150013769D02*
X174778112Y-151798119D01*
X172205833Y-150013769D02*
X174777318Y-150013769D01*
X172275630Y-150013769D02*
X172205833Y-150013769D01*
X170813344Y-150002207D02*
X173388904Y-150002207D01*
X170813344Y-151798119D02*
X170813344Y-150002207D01*
X169638065Y-150002204D02*
X169638859Y-151798122D01*
X167062902Y-150003979D02*
X167062902Y-149264839D01*
X166992999Y-150003979D02*
X167062902Y-150003979D01*
X164488242Y-151798122D02*
X164487448Y-149999775D01*
X163068461Y-147540999D02*
X166424571Y-147527188D01*
X163086770Y-150000037D02*
X163068461Y-147540999D01*
X160517401Y-149997021D02*
X163086770Y-150000037D01*
X160517401Y-151798119D02*
X160517401Y-149997021D01*
X165663547Y-150000169D02*
X165663547Y-151798119D01*
X169638647Y-150003159D02*
X165663547Y-150000169D01*
X167067400Y-150003159D02*
X169638647Y-150003159D01*
X167063405Y-149361952D02*
X167067400Y-150003159D01*
X164483426Y-150000778D02*
X161911941Y-150000778D01*
X161911941Y-150000778D02*
X164483426Y-150000778D01*
X161907945Y-147524807D02*
X161911941Y-150000778D01*
X161908924Y-143952456D02*
X161905935Y-146414906D01*
X168232545Y-150003979D02*
X168224555Y-149336687D01*
X165645979Y-148885567D02*
X165645979Y-146415946D01*
X167138575Y-148878476D02*
X165645979Y-148885567D01*
D17*
G36*
X163064500Y-143940208D02*
G01*
X167071054Y-143940208D01*
X167071054Y-145797411D01*
X166616669Y-146411641D01*
X163064500Y-146411641D01*
X163064500Y-143940208D01*
G37*
X163064500Y-143940208D02*
X167071054Y-143940208D01*
X167071054Y-145797411D01*
X166616669Y-146411641D01*
X163064500Y-146411641D01*
X163064500Y-143940208D01*
D11*
X164483691Y-146412393D02*
X167052028Y-145419459D01*
X164483162Y-148885189D02*
X164483691Y-146412393D01*
X161062469Y-148882199D02*
X164483162Y-148885189D01*
X167052028Y-145419459D02*
X167055017Y-143952482D01*
X155354190Y-148877701D02*
X157536883Y-148878230D01*
X155354190Y-146408080D02*
X155354190Y-148877701D01*
X152771830Y-146408080D02*
X155354190Y-146408080D01*
X152789848Y-143953011D02*
X152771830Y-146408080D01*
X161858979Y-148880347D02*
X163086585Y-148880876D01*
X151604092Y-146409218D02*
X151607108Y-143954414D01*
X149035517Y-146402233D02*
X151604092Y-146409218D01*
X149009005Y-148866562D02*
X149035517Y-146402233D01*
X145021470Y-148863572D02*
X149009005Y-148866562D01*
X145020941Y-146393951D02*
X145021470Y-148863572D01*
X142439163Y-146393687D02*
X145020941Y-146393951D01*
X142445143Y-145628776D02*
X142439163Y-146393687D01*
X141282378Y-146393025D02*
X141283172Y-145628909D01*
X138713803Y-146387019D02*
X141282378Y-146393025D01*
X138717798Y-148859815D02*
X138713803Y-146387019D01*
X136146339Y-148856825D02*
X138717798Y-148859815D01*
X138717954Y-151798069D02*
X138717161Y-149975272D01*
X139887733Y-149975034D02*
X139887733Y-151798092D01*
X143858070Y-149978024D02*
X139887733Y-149975034D01*
X141286585Y-149975034D02*
X143858070Y-149978024D01*
X141283595Y-147502238D02*
X141286585Y-149975034D01*
X137293917Y-147516234D02*
X141283595Y-147502238D01*
X137311935Y-149975007D02*
X137293917Y-147516234D01*
X134729258Y-148856640D02*
X137316089Y-148856640D01*
X134729258Y-146387019D02*
X134729258Y-148856640D01*
X132147189Y-146386755D02*
X134729258Y-146387019D01*
X132164889Y-143955498D02*
X132147189Y-146386755D01*
X130985059Y-146387046D02*
X130988076Y-143955525D01*
X128416749Y-146377044D02*
X130985059Y-146387046D01*
X128423760Y-148846665D02*
X128416749Y-146377044D01*
X124435855Y-148843676D02*
X128423760Y-148846665D01*
X124435855Y-146374055D02*
X124435855Y-148843676D01*
X121854580Y-147498640D02*
X124436807Y-147491655D01*
X121872704Y-149957677D02*
X121854580Y-147498640D01*
X123275260Y-151798095D02*
X123274466Y-149958392D01*
X124444057Y-149958841D02*
X124444057Y-151798092D01*
X128419315Y-149961831D02*
X124444057Y-149958841D01*
X125848095Y-149961831D02*
X128419315Y-149961831D01*
X125844629Y-147486019D02*
X125884052Y-150083698D01*
X123269333Y-147485754D02*
X125844629Y-147486019D01*
X123269042Y-148843596D02*
X123269307Y-146370536D01*
X120697531Y-148840606D02*
X123269042Y-148843596D01*
X118129299Y-151798095D02*
X118128506Y-149954949D01*
X119298202Y-149955137D02*
X119298202Y-151798119D01*
X123268725Y-149958101D02*
X119298202Y-149955137D01*
X120697266Y-149958101D02*
X123268725Y-149958101D01*
X120693456Y-147481865D02*
X120697266Y-149958101D01*
X116703592Y-147495650D02*
X120693456Y-147481865D01*
X116721716Y-149954714D02*
X116703592Y-147495650D01*
X114140732Y-148836452D02*
X116727405Y-148836452D01*
X114140626Y-146366832D02*
X114140732Y-148836452D01*
X111558531Y-146366567D02*
X114140626Y-146366832D01*
X111576258Y-143956742D02*
X111558531Y-146366567D01*
X110390316Y-146366805D02*
X110393518Y-143956716D01*
X107821768Y-146370800D02*
X110390316Y-146366805D01*
X107821768Y-148832748D02*
X107821768Y-146370800D01*
X105894807Y-148832748D02*
X107821768Y-148832748D01*
X107839865Y-149953312D02*
X105752197Y-149953312D01*
X107830499Y-151798119D02*
X107839865Y-149953312D01*
X108908332Y-149951671D02*
X108908332Y-151798119D01*
X112977968Y-149951671D02*
X108908332Y-149951671D01*
X112978762Y-151798119D02*
X112977968Y-149951671D01*
X114153353Y-149951671D02*
X114153353Y-151798119D01*
X118128585Y-149954687D02*
X114153353Y-149951671D01*
X115557311Y-149954687D02*
X118128585Y-149954687D01*
X115553501Y-147478717D02*
X115557311Y-149954687D01*
X112977783Y-147478717D02*
X115553501Y-147478717D01*
X111553028Y-147492634D02*
X114134991Y-147485649D01*
X111571125Y-149951671D02*
X111553028Y-147492634D01*
X108902564Y-148833013D02*
X111571072Y-148833013D01*
X108896955Y-146362969D02*
X108902564Y-148833013D01*
X105746905Y-146386675D02*
X108896955Y-146362969D01*
X105751218Y-141382082D02*
X105746905Y-146386675D01*
X108823189Y-141382082D02*
X105751218Y-141382082D01*
X105756616Y-139961322D02*
X108831021Y-139961322D01*
X105760717Y-135151726D02*
X105756616Y-139961322D01*
X102632310Y-136867946D02*
X105760452Y-136845959D01*
X102622996Y-133744011D02*
X102632310Y-136867946D01*
X108951446Y-142597432D02*
X108956579Y-140738205D01*
X184456253Y-61716049D02*
X141312977Y-61690040D01*
X130897509Y-61668080D02*
X121911933Y-61712583D01*
G36*
X148723216Y-52794353D02*
G01*
X148707076Y-54896841D01*
X149669239Y-54925503D01*
X150033623Y-54272295D01*
X150669573Y-53825284D01*
X151339365Y-53698659D01*
X152121683Y-53770017D01*
X152671778Y-54019284D01*
X152993143Y-54306644D01*
X152989095Y-53550157D01*
X152992006Y-52794354D01*
X148723216Y-52794353D01*
G37*
X148723216Y-52794353D02*
X148707076Y-54896841D01*
X149669239Y-54925503D01*
X150033623Y-54272295D01*
X150669573Y-53825284D01*
X151339365Y-53698659D01*
X152121683Y-53770017D01*
X152671778Y-54019284D01*
X152993143Y-54306644D01*
X152989095Y-53550157D01*
X152992006Y-52794354D01*
X148723216Y-52794353D01*
X188612392Y-143993805D02*
X188705435Y-61798096D01*
X145560963Y-143894152D02*
X188612392Y-143993805D01*
X143836697Y-145566583D02*
X145560963Y-143894152D01*
X137504782Y-145570288D02*
X143836697Y-145566583D01*
X135764268Y-143894946D02*
X137504782Y-145570288D01*
X108951340Y-143897327D02*
X135764268Y-143894946D01*
X109087177Y-63393056D02*
X108951340Y-143897327D01*
D18*
G36*
X121153299Y-120470581D02*
G01*
X121153299Y-110010363D01*
X128330036Y-110010363D01*
X128330036Y-120470581D01*
X121153299Y-120470581D01*
G37*
X121153299Y-120470581D02*
X121153299Y-110010363D01*
X128330036Y-110010363D01*
X128330036Y-120470581D01*
X121153299Y-120470581D01*
%TD*%
D19*
%TO.C,REF\002A\002A*%
X162732221Y-54297779D03*
X160770000Y-53485000D03*
X158807779Y-54297779D03*
X157995000Y-56260000D03*
X158807779Y-58222221D03*
X160770000Y-59035000D03*
X162732221Y-58222221D03*
X163545000Y-56260000D03*
D20*
X160770000Y-56260000D03*
%TD*%
D19*
%TO.C,REF\002A\002A*%
X103902221Y-146697779D03*
X101940000Y-145885000D03*
X99977779Y-146697779D03*
X99165000Y-148660000D03*
X99977779Y-150622221D03*
X101940000Y-151435000D03*
X103902221Y-150622221D03*
X104715000Y-148660000D03*
D20*
X101940000Y-148660000D03*
%TD*%
D19*
%TO.C,REF\002A\002A*%
X103882221Y-54302779D03*
X101920000Y-53490000D03*
X99957779Y-54302779D03*
X99145000Y-56265000D03*
X99957779Y-58227221D03*
X101920000Y-59040000D03*
X103882221Y-58227221D03*
X104695000Y-56265000D03*
D20*
X101920000Y-56265000D03*
%TD*%
D10*
%TO.C,JP2*%
G36*
X119069398Y-136020000D02*
G01*
X119069398Y-136044534D01*
X119064588Y-136093365D01*
X119055016Y-136141490D01*
X119040772Y-136188445D01*
X119021995Y-136233778D01*
X118998864Y-136277051D01*
X118971604Y-136317850D01*
X118940476Y-136355779D01*
X118905779Y-136390476D01*
X118867850Y-136421604D01*
X118827051Y-136448864D01*
X118783778Y-136471995D01*
X118738445Y-136490772D01*
X118691490Y-136505016D01*
X118643365Y-136514588D01*
X118594534Y-136519398D01*
X118570000Y-136519398D01*
X118570000Y-136520000D01*
X118070000Y-136520000D01*
X118070000Y-136519398D01*
X118045466Y-136519398D01*
X117996635Y-136514588D01*
X117948510Y-136505016D01*
X117901555Y-136490772D01*
X117856222Y-136471995D01*
X117812949Y-136448864D01*
X117772150Y-136421604D01*
X117734221Y-136390476D01*
X117699524Y-136355779D01*
X117668396Y-136317850D01*
X117641136Y-136277051D01*
X117618005Y-136233778D01*
X117599228Y-136188445D01*
X117584984Y-136141490D01*
X117575412Y-136093365D01*
X117570602Y-136044534D01*
X117570602Y-136020000D01*
X117570000Y-136020000D01*
X117570000Y-135520000D01*
X119070000Y-135520000D01*
X119070000Y-136020000D01*
X119069398Y-136020000D01*
G37*
G36*
X117570000Y-135220000D02*
G01*
X117570000Y-134720000D01*
X117570602Y-134720000D01*
X117570602Y-134695466D01*
X117575412Y-134646635D01*
X117584984Y-134598510D01*
X117599228Y-134551555D01*
X117618005Y-134506222D01*
X117641136Y-134462949D01*
X117668396Y-134422150D01*
X117699524Y-134384221D01*
X117734221Y-134349524D01*
X117772150Y-134318396D01*
X117812949Y-134291136D01*
X117856222Y-134268005D01*
X117901555Y-134249228D01*
X117948510Y-134234984D01*
X117996635Y-134225412D01*
X118045466Y-134220602D01*
X118070000Y-134220602D01*
X118070000Y-134220000D01*
X118570000Y-134220000D01*
X118570000Y-134220602D01*
X118594534Y-134220602D01*
X118643365Y-134225412D01*
X118691490Y-134234984D01*
X118738445Y-134249228D01*
X118783778Y-134268005D01*
X118827051Y-134291136D01*
X118867850Y-134318396D01*
X118905779Y-134349524D01*
X118940476Y-134384221D01*
X118971604Y-134422150D01*
X118998864Y-134462949D01*
X119021995Y-134506222D01*
X119040772Y-134551555D01*
X119055016Y-134598510D01*
X119064588Y-134646635D01*
X119069398Y-134695466D01*
X119069398Y-134720000D01*
X119070000Y-134720000D01*
X119070000Y-135220000D01*
X117570000Y-135220000D01*
G37*
%TD*%
%TO.C,JP3*%
G36*
X117574758Y-136020000D02*
G01*
X117574758Y-136044534D01*
X117569948Y-136093365D01*
X117560376Y-136141490D01*
X117546132Y-136188445D01*
X117527355Y-136233778D01*
X117504224Y-136277051D01*
X117476964Y-136317850D01*
X117445836Y-136355779D01*
X117411139Y-136390476D01*
X117373210Y-136421604D01*
X117332411Y-136448864D01*
X117289138Y-136471995D01*
X117243805Y-136490772D01*
X117196850Y-136505016D01*
X117148725Y-136514588D01*
X117099894Y-136519398D01*
X117075360Y-136519398D01*
X117075360Y-136520000D01*
X116575360Y-136520000D01*
X116575360Y-136519398D01*
X116550826Y-136519398D01*
X116501995Y-136514588D01*
X116453870Y-136505016D01*
X116406915Y-136490772D01*
X116361582Y-136471995D01*
X116318309Y-136448864D01*
X116277510Y-136421604D01*
X116239581Y-136390476D01*
X116204884Y-136355779D01*
X116173756Y-136317850D01*
X116146496Y-136277051D01*
X116123365Y-136233778D01*
X116104588Y-136188445D01*
X116090344Y-136141490D01*
X116080772Y-136093365D01*
X116075962Y-136044534D01*
X116075962Y-136020000D01*
X116075360Y-136020000D01*
X116075360Y-135520000D01*
X117575360Y-135520000D01*
X117575360Y-136020000D01*
X117574758Y-136020000D01*
G37*
G36*
X116075360Y-135220000D02*
G01*
X116075360Y-134720000D01*
X116075962Y-134720000D01*
X116075962Y-134695466D01*
X116080772Y-134646635D01*
X116090344Y-134598510D01*
X116104588Y-134551555D01*
X116123365Y-134506222D01*
X116146496Y-134462949D01*
X116173756Y-134422150D01*
X116204884Y-134384221D01*
X116239581Y-134349524D01*
X116277510Y-134318396D01*
X116318309Y-134291136D01*
X116361582Y-134268005D01*
X116406915Y-134249228D01*
X116453870Y-134234984D01*
X116501995Y-134225412D01*
X116550826Y-134220602D01*
X116575360Y-134220602D01*
X116575360Y-134220000D01*
X117075360Y-134220000D01*
X117075360Y-134220602D01*
X117099894Y-134220602D01*
X117148725Y-134225412D01*
X117196850Y-134234984D01*
X117243805Y-134249228D01*
X117289138Y-134268005D01*
X117332411Y-134291136D01*
X117373210Y-134318396D01*
X117411139Y-134349524D01*
X117445836Y-134384221D01*
X117476964Y-134422150D01*
X117504224Y-134462949D01*
X117527355Y-134506222D01*
X117546132Y-134551555D01*
X117560376Y-134598510D01*
X117569948Y-134646635D01*
X117574758Y-134695466D01*
X117574758Y-134720000D01*
X117575360Y-134720000D01*
X117575360Y-135220000D01*
X116075360Y-135220000D01*
G37*
%TD*%
D21*
%TO.C,J2*%
X175930000Y-68640000D03*
X173390000Y-68640000D03*
X170850000Y-68640000D03*
X168310000Y-68640000D03*
X165770000Y-68640000D03*
D22*
X163230000Y-68640000D03*
%TD*%
D21*
%TO.C,J3*%
X186160000Y-73750000D03*
X186160000Y-71210000D03*
X186160000Y-68670000D03*
X186160000Y-66130000D03*
X186160000Y-63590000D03*
D22*
X186160000Y-61050000D03*
%TD*%
D23*
%TO.C,Boot1*%
X145800000Y-58230000D03*
D24*
X147050000Y-55740000D03*
X151550000Y-55740000D03*
D23*
X152810000Y-58230000D03*
%TD*%
D22*
%TO.C,H4*%
X181820000Y-134780000D03*
%TD*%
D25*
%TO.C,J6*%
X111220000Y-59090000D03*
X109970000Y-61590000D03*
X113720000Y-59090000D03*
X112470000Y-61590000D03*
X116220000Y-59090000D03*
X114970000Y-61590000D03*
X118720000Y-59090000D03*
X117470000Y-61590000D03*
X121220000Y-59090000D03*
X119970000Y-61590000D03*
%TD*%
D26*
%TO.C,J1*%
X114850000Y-127690000D03*
D27*
X109050000Y-127690000D03*
D28*
X111850000Y-132490000D03*
%TD*%
D29*
%TO.C,J5*%
X139720000Y-140400000D03*
X142220000Y-140400000D03*
X144720000Y-140400000D03*
X147220000Y-140400000D03*
X149720000Y-140400000D03*
D10*
G36*
X152844504Y-139476204D02*
G01*
X152868773Y-139479804D01*
X152892571Y-139485765D01*
X152915671Y-139494030D01*
X152937849Y-139504520D01*
X152958893Y-139517133D01*
X152978598Y-139531747D01*
X152996777Y-139548223D01*
X153013253Y-139566402D01*
X153027867Y-139586107D01*
X153040480Y-139607151D01*
X153050970Y-139629329D01*
X153059235Y-139652429D01*
X153065196Y-139676227D01*
X153068796Y-139700496D01*
X153070000Y-139725000D01*
X153070000Y-141075000D01*
X153068796Y-141099504D01*
X153065196Y-141123773D01*
X153059235Y-141147571D01*
X153050970Y-141170671D01*
X153040480Y-141192849D01*
X153027867Y-141213893D01*
X153013253Y-141233598D01*
X152996777Y-141251777D01*
X152978598Y-141268253D01*
X152958893Y-141282867D01*
X152937849Y-141295480D01*
X152915671Y-141305970D01*
X152892571Y-141314235D01*
X152868773Y-141320196D01*
X152844504Y-141323796D01*
X152820000Y-141325000D01*
X151620000Y-141325000D01*
X151595496Y-141323796D01*
X151571227Y-141320196D01*
X151547429Y-141314235D01*
X151524329Y-141305970D01*
X151502151Y-141295480D01*
X151481107Y-141282867D01*
X151461402Y-141268253D01*
X151443223Y-141251777D01*
X151426747Y-141233598D01*
X151412133Y-141213893D01*
X151399520Y-141192849D01*
X151389030Y-141170671D01*
X151380765Y-141147571D01*
X151374804Y-141123773D01*
X151371204Y-141099504D01*
X151370000Y-141075000D01*
X151370000Y-139725000D01*
X151371204Y-139700496D01*
X151374804Y-139676227D01*
X151380765Y-139652429D01*
X151389030Y-139629329D01*
X151399520Y-139607151D01*
X151412133Y-139586107D01*
X151426747Y-139566402D01*
X151443223Y-139548223D01*
X151461402Y-139531747D01*
X151481107Y-139517133D01*
X151502151Y-139504520D01*
X151524329Y-139494030D01*
X151547429Y-139485765D01*
X151571227Y-139479804D01*
X151595496Y-139476204D01*
X151620000Y-139475000D01*
X152820000Y-139475000D01*
X152844504Y-139476204D01*
G37*
%TD*%
D22*
%TO.C,H3*%
X191170000Y-143500000D03*
%TD*%
D21*
%TO.C,J4*%
X177120000Y-99280000D03*
X177120000Y-101820000D03*
X177120000Y-104360000D03*
D22*
X177120000Y-106900000D03*
%TD*%
D29*
%TO.C,J10*%
X131332600Y-141689840D03*
X128832600Y-141689840D03*
X126332600Y-141689840D03*
X123832600Y-141689840D03*
X121332600Y-141689840D03*
X118832600Y-141689840D03*
X116332600Y-141689840D03*
X113832600Y-141689840D03*
D10*
G36*
X111957104Y-140766044D02*
G01*
X111981373Y-140769644D01*
X112005171Y-140775605D01*
X112028271Y-140783870D01*
X112050449Y-140794360D01*
X112071493Y-140806973D01*
X112091198Y-140821587D01*
X112109377Y-140838063D01*
X112125853Y-140856242D01*
X112140467Y-140875947D01*
X112153080Y-140896991D01*
X112163570Y-140919169D01*
X112171835Y-140942269D01*
X112177796Y-140966067D01*
X112181396Y-140990336D01*
X112182600Y-141014840D01*
X112182600Y-142364840D01*
X112181396Y-142389344D01*
X112177796Y-142413613D01*
X112171835Y-142437411D01*
X112163570Y-142460511D01*
X112153080Y-142482689D01*
X112140467Y-142503733D01*
X112125853Y-142523438D01*
X112109377Y-142541617D01*
X112091198Y-142558093D01*
X112071493Y-142572707D01*
X112050449Y-142585320D01*
X112028271Y-142595810D01*
X112005171Y-142604075D01*
X111981373Y-142610036D01*
X111957104Y-142613636D01*
X111932600Y-142614840D01*
X110732600Y-142614840D01*
X110708096Y-142613636D01*
X110683827Y-142610036D01*
X110660029Y-142604075D01*
X110636929Y-142595810D01*
X110614751Y-142585320D01*
X110593707Y-142572707D01*
X110574002Y-142558093D01*
X110555823Y-142541617D01*
X110539347Y-142523438D01*
X110524733Y-142503733D01*
X110512120Y-142482689D01*
X110501630Y-142460511D01*
X110493365Y-142437411D01*
X110487404Y-142413613D01*
X110483804Y-142389344D01*
X110482600Y-142364840D01*
X110482600Y-141014840D01*
X110483804Y-140990336D01*
X110487404Y-140966067D01*
X110493365Y-140942269D01*
X110501630Y-140919169D01*
X110512120Y-140896991D01*
X110524733Y-140875947D01*
X110539347Y-140856242D01*
X110555823Y-140838063D01*
X110574002Y-140821587D01*
X110593707Y-140806973D01*
X110614751Y-140794360D01*
X110636929Y-140783870D01*
X110660029Y-140775605D01*
X110683827Y-140769644D01*
X110708096Y-140766044D01*
X110732600Y-140764840D01*
X111932600Y-140764840D01*
X111957104Y-140766044D01*
G37*
%TD*%
D29*
%TO.C,J9*%
X159320000Y-140400000D03*
X161820000Y-140400000D03*
X164320000Y-140400000D03*
X166820000Y-140400000D03*
X169320000Y-140400000D03*
X171820000Y-140400000D03*
X174320000Y-140400000D03*
X176820000Y-140400000D03*
X179320000Y-140400000D03*
X181820000Y-140400000D03*
X184320000Y-140400000D03*
D10*
G36*
X187444504Y-139476204D02*
G01*
X187468773Y-139479804D01*
X187492571Y-139485765D01*
X187515671Y-139494030D01*
X187537849Y-139504520D01*
X187558893Y-139517133D01*
X187578598Y-139531747D01*
X187596777Y-139548223D01*
X187613253Y-139566402D01*
X187627867Y-139586107D01*
X187640480Y-139607151D01*
X187650970Y-139629329D01*
X187659235Y-139652429D01*
X187665196Y-139676227D01*
X187668796Y-139700496D01*
X187670000Y-139725000D01*
X187670000Y-141075000D01*
X187668796Y-141099504D01*
X187665196Y-141123773D01*
X187659235Y-141147571D01*
X187650970Y-141170671D01*
X187640480Y-141192849D01*
X187627867Y-141213893D01*
X187613253Y-141233598D01*
X187596777Y-141251777D01*
X187578598Y-141268253D01*
X187558893Y-141282867D01*
X187537849Y-141295480D01*
X187515671Y-141305970D01*
X187492571Y-141314235D01*
X187468773Y-141320196D01*
X187444504Y-141323796D01*
X187420000Y-141325000D01*
X186220000Y-141325000D01*
X186195496Y-141323796D01*
X186171227Y-141320196D01*
X186147429Y-141314235D01*
X186124329Y-141305970D01*
X186102151Y-141295480D01*
X186081107Y-141282867D01*
X186061402Y-141268253D01*
X186043223Y-141251777D01*
X186026747Y-141233598D01*
X186012133Y-141213893D01*
X185999520Y-141192849D01*
X185989030Y-141170671D01*
X185980765Y-141147571D01*
X185974804Y-141123773D01*
X185971204Y-141099504D01*
X185970000Y-141075000D01*
X185970000Y-139725000D01*
X185971204Y-139700496D01*
X185974804Y-139676227D01*
X185980765Y-139652429D01*
X185989030Y-139629329D01*
X185999520Y-139607151D01*
X186012133Y-139586107D01*
X186026747Y-139566402D01*
X186043223Y-139548223D01*
X186061402Y-139531747D01*
X186081107Y-139517133D01*
X186102151Y-139504520D01*
X186124329Y-139494030D01*
X186147429Y-139485765D01*
X186171227Y-139479804D01*
X186195496Y-139476204D01*
X186220000Y-139475000D01*
X187420000Y-139475000D01*
X187444504Y-139476204D01*
G37*
%TD*%
D30*
%TO.C,J8*%
X104640000Y-96910000D03*
X104640000Y-94910000D03*
X104640000Y-92910000D03*
D31*
X104640000Y-90910000D03*
%TD*%
D29*
%TO.C,J7*%
X168720000Y-147400000D03*
X171220000Y-147400000D03*
X173720000Y-147400000D03*
X176220000Y-147400000D03*
X178720000Y-147400000D03*
X181220000Y-147400000D03*
X183720000Y-147400000D03*
X186220000Y-147400000D03*
X188720000Y-147400000D03*
D10*
G36*
X191844504Y-146476204D02*
G01*
X191868773Y-146479804D01*
X191892571Y-146485765D01*
X191915671Y-146494030D01*
X191937849Y-146504520D01*
X191958893Y-146517133D01*
X191978598Y-146531747D01*
X191996777Y-146548223D01*
X192013253Y-146566402D01*
X192027867Y-146586107D01*
X192040480Y-146607151D01*
X192050970Y-146629329D01*
X192059235Y-146652429D01*
X192065196Y-146676227D01*
X192068796Y-146700496D01*
X192070000Y-146725000D01*
X192070000Y-148075000D01*
X192068796Y-148099504D01*
X192065196Y-148123773D01*
X192059235Y-148147571D01*
X192050970Y-148170671D01*
X192040480Y-148192849D01*
X192027867Y-148213893D01*
X192013253Y-148233598D01*
X191996777Y-148251777D01*
X191978598Y-148268253D01*
X191958893Y-148282867D01*
X191937849Y-148295480D01*
X191915671Y-148305970D01*
X191892571Y-148314235D01*
X191868773Y-148320196D01*
X191844504Y-148323796D01*
X191820000Y-148325000D01*
X190620000Y-148325000D01*
X190595496Y-148323796D01*
X190571227Y-148320196D01*
X190547429Y-148314235D01*
X190524329Y-148305970D01*
X190502151Y-148295480D01*
X190481107Y-148282867D01*
X190461402Y-148268253D01*
X190443223Y-148251777D01*
X190426747Y-148233598D01*
X190412133Y-148213893D01*
X190399520Y-148192849D01*
X190389030Y-148170671D01*
X190380765Y-148147571D01*
X190374804Y-148123773D01*
X190371204Y-148099504D01*
X190370000Y-148075000D01*
X190370000Y-146725000D01*
X190371204Y-146700496D01*
X190374804Y-146676227D01*
X190380765Y-146652429D01*
X190389030Y-146629329D01*
X190399520Y-146607151D01*
X190412133Y-146586107D01*
X190426747Y-146566402D01*
X190443223Y-146548223D01*
X190461402Y-146531747D01*
X190481107Y-146517133D01*
X190502151Y-146504520D01*
X190524329Y-146494030D01*
X190547429Y-146485765D01*
X190571227Y-146479804D01*
X190595496Y-146476204D01*
X190620000Y-146475000D01*
X191820000Y-146475000D01*
X191844504Y-146476204D01*
G37*
%TD*%
D22*
%TO.C,H2*%
X159320000Y-147300000D03*
%TD*%
%TO.C,H1*%
X184850000Y-134800000D03*
%TD*%
D32*
G36*
X133081880Y-77466478D02*
G01*
X127935291Y-77481003D01*
X127910989Y-71862403D01*
X133081880Y-71843036D01*
X133081880Y-77466478D01*
G37*
X133081880Y-77466478D02*
X127935291Y-77481003D01*
X127910989Y-71862403D01*
X133081880Y-71843036D01*
X133081880Y-77466478D01*
G36*
X124473002Y-95010623D02*
G01*
X124473002Y-95010690D01*
X124482310Y-96723313D01*
X119458525Y-96735671D01*
X119455475Y-91183725D01*
X124454183Y-91172251D01*
X124473002Y-95010623D01*
G37*
X124473002Y-95010623D02*
X124473002Y-95010690D01*
X124482310Y-96723313D01*
X119458525Y-96735671D01*
X119455475Y-91183725D01*
X124454183Y-91172251D01*
X124473002Y-95010623D01*
M02*
