M48
; DRILL file {KiCad 5.1.5+dfsg1-2build2} date Thu 02 Dec 2021 03:53:10 PM CET
; FORMAT={-:-/ absolute / inch / decimal}
; #@! TF.CreationDate,2021-12-02T15:53:10+01:00
; #@! TF.GenerationSoftware,Kicad,Pcbnew,5.1.5+dfsg1-2build2
; #@! TF.FileFunction,Plated,1,2,PTH
FMAT,2
INCH
T1C0.0118
T2C0.0157
T3C0.0197
T4C0.0315
T5C0.0335
T6C0.0390
T7C0.0394
T8C0.0512
T9C0.1457
%
G90
G05
T1
X4.7409Y-3.648
X4.7409Y-3.6953
X4.7409Y-3.7425
X4.7476Y-3.5606
X4.7646Y-3.6717
X4.7646Y-3.7189
X4.7882Y-3.648
X4.7882Y-3.7425
X4.7925Y-4.4815
X4.8071Y-3.8311
X4.8118Y-3.6717
X4.8118Y-3.7189
X4.8248Y-4.4819
X4.8354Y-3.648
X4.8354Y-3.6953
X4.8354Y-3.7425
X4.8598Y-4.4819
X4.8937Y-4.4819
X4.9254Y-3.7121
X4.9295Y-4.4819
X4.9437Y-3.6756
X4.9551Y-3.722
X4.9634Y-4.4819
X4.9693Y-3.5602
X4.9693Y-3.7898
X4.998Y-4.4819
X5.0323Y-4.4819
X5.0559Y-3.8583
X5.0748Y-2.8913
X5.0748Y-2.9386
X5.0748Y-2.9858
X5.0948Y-2.802
X5.0984Y-2.915
X5.0984Y-2.9622
X5.122Y-2.8913
X5.122Y-2.9858
X5.1413Y-3.8579
X5.1457Y-2.915
X5.1457Y-2.9622
X5.1693Y-2.8913
X5.1693Y-2.9386
X5.1693Y-2.9858
X5.215Y-2.3803
X5.2748Y-2.9476
X5.275Y-2.8024
X5.2843Y-3.5039
X5.3Y-2.9969
X5.3188Y-2.84
X5.3313Y-2.8988
X5.37Y-2.95
X5.3931Y-2.9969
X5.4571Y-4.1717
X5.4571Y-4.2635
X5.4571Y-4.3554
X5.4571Y-4.4473
X5.4571Y-4.5392
X5.4656Y-2.8458
X5.4685Y-4.6354
X5.4886Y-4.2176
X5.4886Y-4.3095
X5.4886Y-4.4014
X5.4886Y-4.4933
X5.4886Y-4.5852
X5.4941Y-2.3807
X5.502Y-4.1307
X5.5197Y-4.663
X5.5433Y-4.111
X5.5469Y-4.7142
X5.5924Y-4.1059
X5.5945Y-3.5606
X5.5971Y-4.689
X5.6415Y-4.1039
X5.6433Y-4.7165
X5.6772Y-5.0035
X5.68Y-3.87
X5.6896Y-4.689
X5.6925Y-2.5067
X5.7359Y-4.7165
X5.7821Y-4.689
X5.7854Y-3.2469
X5.8031Y-5.1024
X5.8284Y-4.7165
X5.861Y-2.5094
X5.8665Y-4.0594
X5.8674Y-4.1165
X5.8677Y-4.0098
X5.8736Y-3.8898
X5.8747Y-4.689
X5.8772Y-3.2492
X5.9133Y-4.098
X5.9209Y-4.7165
X5.9402Y-2.6551
X5.9599Y-4.1165
X5.9672Y-4.689
X6.0058Y-4.098
X6.0135Y-4.7165
X6.0256Y-3.7728
X6.0256Y-3.8122
X6.0256Y-3.8516
X6.0525Y-4.1165
X6.0597Y-4.689
X6.065Y-3.7728
X6.065Y-3.8516
X6.0983Y-4.098
X6.1043Y-3.7728
X6.1043Y-3.8122
X6.1043Y-3.8516
X6.106Y-4.7165
X6.145Y-4.1165
X6.1523Y-4.689
X6.163Y-3.4748
X6.1909Y-4.098
X6.1985Y-4.7165
X6.2383Y-4.1165
X6.2448Y-4.689
X6.2854Y-4.098
X6.2902Y-5.3709
X6.2911Y-4.7165
X6.332Y-4.1165
X6.3327Y-4.0106
X6.3335Y-3.9559
X6.3335Y-4.0594
X6.335Y-3.8874
X6.3373Y-4.689
X6.3836Y-4.7165
X6.4299Y-4.689
X6.4761Y-4.7165
X6.5157Y-3.1591
X6.5224Y-4.689
X6.5224Y-4.1051
X6.5445Y-4.0453
X6.5687Y-4.7165
X6.5699Y-4.1047
X6.5929Y-3.6677
X6.6149Y-4.689
X6.6175Y-4.1047
X6.665Y-4.1059
X6.665Y-4.7173
X6.6665Y-3.7642
X6.6898Y-2.9772
X6.6929Y-4.663
X6.7079Y-4.126
X6.7213Y-4.2146
X6.7213Y-4.3057
X6.7213Y-4.3967
X6.7213Y-4.4877
X6.7213Y-4.5787
X6.748Y-4.6315
X6.7535Y-4.1673
X6.7567Y-4.2602
X6.7567Y-4.3512
X6.7567Y-4.4422
X6.7567Y-4.5332
X6.9Y-3.9587
X7.2866Y-4.2252
T2
X4.3722Y-3.6266
X4.3722Y-3.7648
X4.3882Y-3.9327
X4.3882Y-3.9854
X4.3882Y-4.1122
X4.3882Y-4.165
X4.3882Y-4.2965
X4.3882Y-4.3492
X4.3882Y-4.4764
X4.3882Y-4.5291
X4.3882Y-4.6606
X4.3882Y-4.7134
X4.3882Y-4.8453
X4.4031Y-3.6441
X4.4031Y-3.7823
X4.4035Y-3.6087
X4.4035Y-3.7469
X4.4134Y-4.0277
X4.4134Y-4.0699
X4.4136Y-3.9017
X4.4136Y-4.2088
X4.4136Y-4.2526
X4.4136Y-4.3916
X4.4136Y-4.434
X4.4136Y-4.573
X4.4136Y-4.6168
X4.4136Y-4.7573
X4.4136Y-4.8013
X4.4382Y-3.9331
X4.4382Y-3.9858
X4.4382Y-4.1126
X4.4382Y-4.1654
X4.4382Y-4.2969
X4.4382Y-4.3496
X4.4382Y-4.4768
X4.4382Y-4.5295
X4.4382Y-4.661
X4.4382Y-4.7138
X4.4382Y-4.8457
X4.4681Y-2.7035
X4.6276Y-3.5934
X4.6276Y-3.7975
X4.6608Y-3.5934
X4.6608Y-3.7975
X4.6614Y-3.9543
X4.6614Y-3.4587
X4.6614Y-4.0291
X4.7077Y-2.8695
X4.7077Y-3.0077
X4.7094Y-3.3808
X4.7386Y-2.887
X4.7386Y-3.0252
X4.739Y-2.8516
X4.739Y-2.9898
X4.7823Y-2.5083
X4.7866Y-2.6642
X4.8031Y-4.5579
X4.8087Y-4.6949
X4.8412Y-4.1844
X4.9476Y-5.0043
X4.9581Y-3.1225
X4.9614Y-3.3035
X4.9626Y-2.8364
X4.9626Y-3.0404
X4.9832Y-5.0039
X4.9957Y-2.7441
X4.9958Y-2.8364
X4.9958Y-3.0404
X5.0098Y-4.6949
X5.0161Y-4.5579
X5.0178Y-5.0039
X5.0532Y-4.1844
X5.0618Y-2.6177
X5.0882Y-3.5004
X5.1331Y-3.0756
X5.1648Y-4.913
X5.1961Y-4.913
X5.2268Y-4.913
X5.2722Y-3.342
X5.2756Y-2.5602
X5.2882Y-2.7268
X5.2961Y-3.7654
X5.3551Y-2.3807
X5.361Y-3.0522
X5.3909Y-2.2661
X5.3976Y-3.1512
X5.4606Y-3.4055
X5.5236Y-2.2654
X5.5323Y-5.0039
X5.6232Y-4.0576
X5.7051Y-5.3724
X5.7051Y-5.4382
X5.8402Y-2.9673
X5.8457Y-5.3724
X5.8457Y-5.4382
X5.8622Y-3.3476
X5.9047Y-2.8488
X5.9047Y-3.0248
X5.9941Y-3.7413
X5.9941Y-3.7886
X5.9941Y-3.8358
X5.9941Y-3.8831
X6.022Y-4.913
X6.0413Y-3.7413
X6.0413Y-3.8831
X6.0512Y-3.0276
X6.0886Y-3.7413
X6.0886Y-3.8831
X6.098Y-2.9626
X6.1358Y-3.7413
X6.1358Y-3.7886
X6.1358Y-3.8358
X6.1358Y-3.8831
X6.5894Y-3.8575
X6.5902Y-3.9587
X7.0579Y-4.1091
X7.2236Y-5.1563
X7.2429Y-4.7209
X7.274Y-4.0559
X7.3024Y-2.9965
X7.3094Y-5.6378
X7.3839Y-4.3024
T3
X3.9033Y-2.2152
X3.9353Y-2.1379
X3.9353Y-2.2924
X4.0126Y-2.1059
X4.0126Y-2.3244
X4.0899Y-2.1379
X4.0899Y-2.2924
X4.1219Y-2.2152
X6.2203Y-2.215
X6.2523Y-2.1377
X6.2523Y-2.2922
X6.3295Y-2.1057
X6.3295Y-2.3242
X6.4068Y-2.1377
X6.4068Y-2.2922
X6.4388Y-2.215
X3.9041Y-5.8528
X3.9361Y-5.7755
X3.9361Y-5.93
X4.0134Y-5.7435
X4.0134Y-5.962
X4.0906Y-5.7755
X4.0906Y-5.93
X4.1226Y-5.8528
T4
X4.3295Y-2.4248
X4.3787Y-2.3264
X4.428Y-2.4248
X4.4772Y-2.3264
X4.5264Y-2.4248
X4.5756Y-2.3264
X4.6248Y-2.4248
X4.674Y-2.3264
X4.7232Y-2.4248
X4.7724Y-2.3264
X4.1197Y-3.5791
X4.1197Y-3.6579
X4.1197Y-3.7366
X4.1197Y-3.8154
T5
X5.5008Y-5.5276
X5.5992Y-5.5276
X5.6976Y-5.5276
X5.7961Y-5.5276
X5.8945Y-5.5276
X5.9929Y-5.5276
X4.3832Y-5.5783
X4.4816Y-5.5783
X4.58Y-5.5783
X4.6784Y-5.5783
X4.7769Y-5.5783
X4.8753Y-5.5783
X4.9737Y-5.5783
X5.0721Y-5.5783
X5.1706Y-5.5783
X6.2724Y-5.5276
X6.3709Y-5.5276
X6.4693Y-5.5276
X6.5677Y-5.5276
X6.6661Y-5.5276
X6.7646Y-5.5276
X6.863Y-5.5276
X6.9614Y-5.5276
X7.0598Y-5.5276
X7.1583Y-5.5276
X7.2567Y-5.5276
X7.3551Y-5.5276
X6.6425Y-5.8031
X6.7409Y-5.8031
X6.8394Y-5.8031
X6.9378Y-5.8031
X7.0362Y-5.8031
X7.1346Y-5.8031
X7.2331Y-5.8031
X7.3315Y-5.8031
X7.4299Y-5.8031
X7.5283Y-5.8031
T6
X5.7894Y-2.1945
X5.9665Y-2.1945
T7
X7.3291Y-2.4035
X7.3291Y-2.5035
X7.3291Y-2.6035
X7.3291Y-2.7035
X7.3291Y-2.8035
X7.3291Y-2.9035
X7.1583Y-5.3063
X7.2776Y-5.3071
X6.9732Y-3.9087
X6.9732Y-4.0087
X6.9732Y-4.1087
X6.9732Y-4.2087
X7.5264Y-5.6496
X6.2724Y-5.7992
X6.4264Y-2.7024
X6.5264Y-2.7024
X6.6264Y-2.7024
X6.7264Y-2.7024
X6.8264Y-2.7024
X6.9264Y-2.7024
T8
X5.7402Y-2.2925
X6.0161Y-2.2925
T9
X4.0126Y-2.2152
X6.3295Y-2.215
X4.0134Y-5.8528
T4
G00X4.2933Y-4.9839
M15
G01X4.2933Y-5.0705
M16
G05
G00X4.3602Y-5.2161
M15
G01X4.4469Y-5.2161
M16
G05
G00X4.5217Y-4.976
M15
G01X4.5217Y-5.0783
M16
G05
T0
M30
