G04 #@! TF.GenerationSoftware,KiCad,Pcbnew,5.1.5+dfsg1-2build2*
G04 #@! TF.CreationDate,2021-12-02T15:55:02+01:00*
G04 #@! TF.ProjectId,Daugter_board,44617567-7465-4725-9f62-6f6172642e6b,rev?*
G04 #@! TF.SameCoordinates,Original*
G04 #@! TF.FileFunction,Legend,Bot*
G04 #@! TF.FilePolarity,Positive*
%FSLAX46Y46*%
G04 Gerber Fmt 4.6, Leading zero omitted, Abs format (unit mm)*
G04 Created by KiCad (PCBNEW 5.1.5+dfsg1-2build2) date 2021-12-02 15:55:02*
%MOMM*%
%LPD*%
G04 APERTURE LIST*
%ADD10C,0.250000*%
%ADD11C,0.120000*%
%ADD12C,0.150000*%
%ADD13C,0.100726*%
%ADD14O,1.802000X1.802000*%
%ADD15R,1.802000X1.802000*%
%ADD16O,1.102000X1.702000*%
%ADD17C,0.752000*%
%ADD18O,1.102000X2.202000*%
G04 APERTURE END LIST*
D10*
X158150000Y-103134285D02*
X158078571Y-103062857D01*
X157864285Y-102991428D01*
X157721428Y-102991428D01*
X157507142Y-103062857D01*
X157364285Y-103205714D01*
X157292857Y-103348571D01*
X157221428Y-103634285D01*
X157221428Y-103848571D01*
X157292857Y-104134285D01*
X157364285Y-104277142D01*
X157507142Y-104420000D01*
X157721428Y-104491428D01*
X157864285Y-104491428D01*
X158078571Y-104420000D01*
X158150000Y-104348571D01*
X158721428Y-103062857D02*
X158935714Y-102991428D01*
X159292857Y-102991428D01*
X159435714Y-103062857D01*
X159507142Y-103134285D01*
X159578571Y-103277142D01*
X159578571Y-103420000D01*
X159507142Y-103562857D01*
X159435714Y-103634285D01*
X159292857Y-103705714D01*
X159007142Y-103777142D01*
X158864285Y-103848571D01*
X158792857Y-103920000D01*
X158721428Y-104062857D01*
X158721428Y-104205714D01*
X158792857Y-104348571D01*
X158864285Y-104420000D01*
X159007142Y-104491428D01*
X159364285Y-104491428D01*
X159578571Y-104420000D01*
X157272857Y-105651428D02*
X157272857Y-107151428D01*
X157772857Y-106080000D01*
X158272857Y-107151428D01*
X158272857Y-105651428D01*
X159272857Y-107151428D02*
X159558571Y-107151428D01*
X159701428Y-107080000D01*
X159844285Y-106937142D01*
X159915714Y-106651428D01*
X159915714Y-106151428D01*
X159844285Y-105865714D01*
X159701428Y-105722857D01*
X159558571Y-105651428D01*
X159272857Y-105651428D01*
X159130000Y-105722857D01*
X158987142Y-105865714D01*
X158915714Y-106151428D01*
X158915714Y-106651428D01*
X158987142Y-106937142D01*
X159130000Y-107080000D01*
X159272857Y-107151428D01*
X160487142Y-105722857D02*
X160701428Y-105651428D01*
X161058571Y-105651428D01*
X161201428Y-105722857D01*
X161272857Y-105794285D01*
X161344285Y-105937142D01*
X161344285Y-106080000D01*
X161272857Y-106222857D01*
X161201428Y-106294285D01*
X161058571Y-106365714D01*
X160772857Y-106437142D01*
X160630000Y-106508571D01*
X160558571Y-106580000D01*
X160487142Y-106722857D01*
X160487142Y-106865714D01*
X160558571Y-107008571D01*
X160630000Y-107080000D01*
X160772857Y-107151428D01*
X161130000Y-107151428D01*
X161344285Y-107080000D01*
X161987142Y-105651428D02*
X161987142Y-107151428D01*
X157192857Y-109701428D02*
X158121428Y-109701428D01*
X157621428Y-109130000D01*
X157835714Y-109130000D01*
X157978571Y-109058571D01*
X158050000Y-108987142D01*
X158121428Y-108844285D01*
X158121428Y-108487142D01*
X158050000Y-108344285D01*
X157978571Y-108272857D01*
X157835714Y-108201428D01*
X157407142Y-108201428D01*
X157264285Y-108272857D01*
X157192857Y-108344285D01*
X158550000Y-109701428D02*
X159050000Y-108201428D01*
X159550000Y-109701428D01*
X159907142Y-109701428D02*
X160835714Y-109701428D01*
X160335714Y-109130000D01*
X160550000Y-109130000D01*
X160692857Y-109058571D01*
X160764285Y-108987142D01*
X160835714Y-108844285D01*
X160835714Y-108487142D01*
X160764285Y-108344285D01*
X160692857Y-108272857D01*
X160550000Y-108201428D01*
X160121428Y-108201428D01*
X159978571Y-108272857D01*
X159907142Y-108344285D01*
X158047142Y-110964285D02*
X157975714Y-110892857D01*
X157761428Y-110821428D01*
X157618571Y-110821428D01*
X157404285Y-110892857D01*
X157261428Y-111035714D01*
X157190000Y-111178571D01*
X157118571Y-111464285D01*
X157118571Y-111678571D01*
X157190000Y-111964285D01*
X157261428Y-112107142D01*
X157404285Y-112250000D01*
X157618571Y-112321428D01*
X157761428Y-112321428D01*
X157975714Y-112250000D01*
X158047142Y-112178571D01*
X159404285Y-110821428D02*
X158690000Y-110821428D01*
X158690000Y-112321428D01*
X159904285Y-110821428D02*
X159904285Y-112321428D01*
X160761428Y-110821428D02*
X160118571Y-111678571D01*
X160761428Y-112321428D02*
X159904285Y-111464285D01*
X147052857Y-113801428D02*
X147052857Y-115301428D01*
X147552857Y-114230000D01*
X148052857Y-115301428D01*
X148052857Y-113801428D01*
X148767142Y-113801428D02*
X148767142Y-115301428D01*
X149410000Y-113872857D02*
X149624285Y-113801428D01*
X149981428Y-113801428D01*
X150124285Y-113872857D01*
X150195714Y-113944285D01*
X150267142Y-114087142D01*
X150267142Y-114230000D01*
X150195714Y-114372857D01*
X150124285Y-114444285D01*
X149981428Y-114515714D01*
X149695714Y-114587142D01*
X149552857Y-114658571D01*
X149481428Y-114730000D01*
X149410000Y-114872857D01*
X149410000Y-115015714D01*
X149481428Y-115158571D01*
X149552857Y-115230000D01*
X149695714Y-115301428D01*
X150052857Y-115301428D01*
X150267142Y-115230000D01*
X151195714Y-115301428D02*
X151481428Y-115301428D01*
X151624285Y-115230000D01*
X151767142Y-115087142D01*
X151838571Y-114801428D01*
X151838571Y-114301428D01*
X151767142Y-114015714D01*
X151624285Y-113872857D01*
X151481428Y-113801428D01*
X151195714Y-113801428D01*
X151052857Y-113872857D01*
X150910000Y-114015714D01*
X150838571Y-114301428D01*
X150838571Y-114801428D01*
X150910000Y-115087142D01*
X151052857Y-115230000D01*
X151195714Y-115301428D01*
X149830000Y-116710000D02*
X151770000Y-116710000D01*
X145387142Y-117560000D02*
X145244285Y-117631428D01*
X145030000Y-117631428D01*
X144815714Y-117560000D01*
X144672857Y-117417142D01*
X144601428Y-117274285D01*
X144530000Y-116988571D01*
X144530000Y-116774285D01*
X144601428Y-116488571D01*
X144672857Y-116345714D01*
X144815714Y-116202857D01*
X145030000Y-116131428D01*
X145172857Y-116131428D01*
X145387142Y-116202857D01*
X145458571Y-116274285D01*
X145458571Y-116774285D01*
X145172857Y-116774285D01*
X146101428Y-116131428D02*
X146101428Y-117631428D01*
X146958571Y-116131428D01*
X146958571Y-117631428D01*
X147672857Y-116131428D02*
X147672857Y-117631428D01*
X148030000Y-117631428D01*
X148244285Y-117560000D01*
X148387142Y-117417142D01*
X148458571Y-117274285D01*
X148530000Y-116988571D01*
X148530000Y-116774285D01*
X148458571Y-116488571D01*
X148387142Y-116345714D01*
X148244285Y-116202857D01*
X148030000Y-116131428D01*
X147672857Y-116131428D01*
X144820000Y-115110000D02*
X144400000Y-113520000D01*
X140972857Y-118045714D02*
X140901428Y-117831428D01*
X140901428Y-117474285D01*
X140972857Y-117331428D01*
X141044285Y-117260000D01*
X141187142Y-117188571D01*
X141330000Y-117188571D01*
X141472857Y-117260000D01*
X141544285Y-117331428D01*
X141615714Y-117474285D01*
X141687142Y-117760000D01*
X141758571Y-117902857D01*
X141830000Y-117974285D01*
X141972857Y-118045714D01*
X142115714Y-118045714D01*
X142258571Y-117974285D01*
X142330000Y-117902857D01*
X142401428Y-117760000D01*
X142401428Y-117402857D01*
X142330000Y-117188571D01*
X140758571Y-116902857D02*
X140758571Y-115760000D01*
X142401428Y-115617142D02*
X142401428Y-114760000D01*
X140901428Y-115188571D02*
X142401428Y-115188571D01*
X142401428Y-114402857D02*
X140901428Y-113402857D01*
X142401428Y-113402857D02*
X140901428Y-114402857D01*
X138352857Y-118304285D02*
X138281428Y-118090000D01*
X138281428Y-117732857D01*
X138352857Y-117590000D01*
X138424285Y-117518571D01*
X138567142Y-117447142D01*
X138710000Y-117447142D01*
X138852857Y-117518571D01*
X138924285Y-117590000D01*
X138995714Y-117732857D01*
X139067142Y-118018571D01*
X139138571Y-118161428D01*
X139210000Y-118232857D01*
X139352857Y-118304285D01*
X139495714Y-118304285D01*
X139638571Y-118232857D01*
X139710000Y-118161428D01*
X139781428Y-118018571D01*
X139781428Y-117661428D01*
X139710000Y-117447142D01*
X138138571Y-117161428D02*
X138138571Y-116018571D01*
X138281428Y-114804285D02*
X138995714Y-115304285D01*
X138281428Y-115661428D02*
X139781428Y-115661428D01*
X139781428Y-115090000D01*
X139710000Y-114947142D01*
X139638571Y-114875714D01*
X139495714Y-114804285D01*
X139281428Y-114804285D01*
X139138571Y-114875714D01*
X139067142Y-114947142D01*
X138995714Y-115090000D01*
X138995714Y-115661428D01*
X139781428Y-114304285D02*
X138281428Y-113304285D01*
X139781428Y-113304285D02*
X138281428Y-114304285D01*
X137191428Y-117297142D02*
X137191428Y-116368571D01*
X136620000Y-116868571D01*
X136620000Y-116654285D01*
X136548571Y-116511428D01*
X136477142Y-116440000D01*
X136334285Y-116368571D01*
X135977142Y-116368571D01*
X135834285Y-116440000D01*
X135762857Y-116511428D01*
X135691428Y-116654285D01*
X135691428Y-117082857D01*
X135762857Y-117225714D01*
X135834285Y-117297142D01*
X137191428Y-115940000D02*
X135691428Y-115440000D01*
X137191428Y-114940000D01*
X137191428Y-114582857D02*
X137191428Y-113654285D01*
X136620000Y-114154285D01*
X136620000Y-113940000D01*
X136548571Y-113797142D01*
X136477142Y-113725714D01*
X136334285Y-113654285D01*
X135977142Y-113654285D01*
X135834285Y-113725714D01*
X135762857Y-113797142D01*
X135691428Y-113940000D01*
X135691428Y-114368571D01*
X135762857Y-114511428D01*
X135834285Y-114582857D01*
X133927142Y-115817142D02*
X133927142Y-115317142D01*
X133141428Y-115102857D02*
X133141428Y-115817142D01*
X134641428Y-115817142D01*
X134641428Y-115102857D01*
X133141428Y-114460000D02*
X134641428Y-114460000D01*
X133141428Y-113602857D01*
X134641428Y-113602857D01*
X130631428Y-117941428D02*
X132131428Y-117941428D01*
X132131428Y-116941428D02*
X132131428Y-116655714D01*
X132060000Y-116512857D01*
X131917142Y-116370000D01*
X131631428Y-116298571D01*
X131131428Y-116298571D01*
X130845714Y-116370000D01*
X130702857Y-116512857D01*
X130631428Y-116655714D01*
X130631428Y-116941428D01*
X130702857Y-117084285D01*
X130845714Y-117227142D01*
X131131428Y-117298571D01*
X131631428Y-117298571D01*
X131917142Y-117227142D01*
X132060000Y-117084285D01*
X132131428Y-116941428D01*
X130488571Y-116012857D02*
X130488571Y-114870000D01*
X132131428Y-114227142D02*
X132131428Y-114084285D01*
X132060000Y-113941428D01*
X131988571Y-113870000D01*
X131845714Y-113798571D01*
X131560000Y-113727142D01*
X131202857Y-113727142D01*
X130917142Y-113798571D01*
X130774285Y-113870000D01*
X130702857Y-113941428D01*
X130631428Y-114084285D01*
X130631428Y-114227142D01*
X130702857Y-114370000D01*
X130774285Y-114441428D01*
X130917142Y-114512857D01*
X131202857Y-114584285D01*
X131560000Y-114584285D01*
X131845714Y-114512857D01*
X131988571Y-114441428D01*
X132060000Y-114370000D01*
X132131428Y-114227142D01*
D11*
X154310000Y-102580000D02*
X152980000Y-102580000D01*
X152980000Y-102580000D02*
X152980000Y-103910000D01*
X152980000Y-105180000D02*
X152980000Y-117940000D01*
X155640000Y-117940000D02*
X152980000Y-117940000D01*
X155640000Y-105180000D02*
X155640000Y-117940000D01*
X155640000Y-105180000D02*
X152980000Y-105180000D01*
X130050000Y-111500000D02*
X130050000Y-112830000D01*
X130050000Y-112830000D02*
X131380000Y-112830000D01*
X132650000Y-112830000D02*
X145410000Y-112830000D01*
X145410000Y-110170000D02*
X145410000Y-112830000D01*
X132650000Y-110170000D02*
X145410000Y-110170000D01*
X132650000Y-110170000D02*
X132650000Y-112830000D01*
D12*
X153976666Y-101687619D02*
X153976666Y-100973333D01*
X153929047Y-100830476D01*
X153833809Y-100735238D01*
X153690952Y-100687619D01*
X153595714Y-100687619D01*
X154881428Y-101354285D02*
X154881428Y-100687619D01*
X154643333Y-101735238D02*
X154405238Y-101020952D01*
X155024285Y-101020952D01*
X130586666Y-109037619D02*
X130586666Y-108323333D01*
X130539047Y-108180476D01*
X130443809Y-108085238D01*
X130300952Y-108037619D01*
X130205714Y-108037619D01*
X130967619Y-109037619D02*
X131586666Y-109037619D01*
X131253333Y-108656666D01*
X131396190Y-108656666D01*
X131491428Y-108609047D01*
X131539047Y-108561428D01*
X131586666Y-108466190D01*
X131586666Y-108228095D01*
X131539047Y-108132857D01*
X131491428Y-108085238D01*
X131396190Y-108037619D01*
X131110476Y-108037619D01*
X131015238Y-108085238D01*
X130967619Y-108132857D01*
%LPC*%
D13*
G36*
X144153299Y-97699419D02*
G01*
X144153299Y-108159637D01*
X151330036Y-108159637D01*
X151330036Y-97699419D01*
X144153299Y-97699419D01*
G37*
X144153299Y-97699419D02*
X144153299Y-108159637D01*
X151330036Y-108159637D01*
X151330036Y-97699419D01*
X144153299Y-97699419D01*
D14*
X154310000Y-116610000D03*
X154310000Y-114070000D03*
X154310000Y-111530000D03*
X154310000Y-108990000D03*
X154310000Y-106450000D03*
D15*
X154310000Y-103910000D03*
D14*
X144080000Y-111500000D03*
X141540000Y-111500000D03*
X139000000Y-111500000D03*
X136460000Y-111500000D03*
X133920000Y-111500000D03*
D15*
X131380000Y-111500000D03*
D16*
X137100000Y-86905000D03*
D17*
X138530000Y-90555000D03*
D16*
X145740000Y-86905000D03*
D17*
X144310000Y-90555000D03*
D18*
X145740000Y-91085000D03*
X137100000Y-91085000D03*
M02*
