G04 #@! TF.GenerationSoftware,KiCad,Pcbnew,5.1.5+dfsg1-2build2*
G04 #@! TF.CreationDate,2021-12-02T15:55:02+01:00*
G04 #@! TF.ProjectId,Daugter_board,44617567-7465-4725-9f62-6f6172642e6b,rev?*
G04 #@! TF.SameCoordinates,Original*
G04 #@! TF.FileFunction,Legend,Top*
G04 #@! TF.FilePolarity,Positive*
%FSLAX46Y46*%
G04 Gerber Fmt 4.6, Leading zero omitted, Abs format (unit mm)*
G04 Created by KiCad (PCBNEW 5.1.5+dfsg1-2build2) date 2021-12-02 15:55:02*
%MOMM*%
%LPD*%
G04 APERTURE LIST*
%ADD10C,0.250000*%
%ADD11C,0.150000*%
%ADD12C,0.120000*%
%ADD13C,0.100000*%
%ADD14R,1.302000X2.302000*%
%ADD15R,1.702000X1.502000*%
%ADD16R,1.302000X1.502000*%
%ADD17R,0.802000X1.702000*%
%ADD18O,1.802000X1.802000*%
%ADD19R,1.802000X1.802000*%
%ADD20R,1.602000X2.102000*%
%ADD21R,3.902000X2.102000*%
%ADD22O,1.102000X1.702000*%
%ADD23C,0.752000*%
%ADD24O,1.102000X2.202000*%
%ADD25R,0.402000X1.552000*%
%ADD26R,0.702000X1.552000*%
%ADD27R,1.002000X0.902000*%
G04 APERTURE END LIST*
D10*
X149850000Y-116740000D02*
X151790000Y-116740000D01*
X144820000Y-115110000D02*
X144400000Y-113520000D01*
X158180000Y-104235714D02*
X158108571Y-104307142D01*
X157894285Y-104378571D01*
X157751428Y-104378571D01*
X157537142Y-104307142D01*
X157394285Y-104164285D01*
X157322857Y-104021428D01*
X157251428Y-103735714D01*
X157251428Y-103521428D01*
X157322857Y-103235714D01*
X157394285Y-103092857D01*
X157537142Y-102950000D01*
X157751428Y-102878571D01*
X157894285Y-102878571D01*
X158108571Y-102950000D01*
X158180000Y-103021428D01*
X158751428Y-104307142D02*
X158965714Y-104378571D01*
X159322857Y-104378571D01*
X159465714Y-104307142D01*
X159537142Y-104235714D01*
X159608571Y-104092857D01*
X159608571Y-103950000D01*
X159537142Y-103807142D01*
X159465714Y-103735714D01*
X159322857Y-103664285D01*
X159037142Y-103592857D01*
X158894285Y-103521428D01*
X158822857Y-103450000D01*
X158751428Y-103307142D01*
X158751428Y-103164285D01*
X158822857Y-103021428D01*
X158894285Y-102950000D01*
X159037142Y-102878571D01*
X159394285Y-102878571D01*
X159608571Y-102950000D01*
X157302857Y-107038571D02*
X157302857Y-105538571D01*
X157802857Y-106610000D01*
X158302857Y-105538571D01*
X158302857Y-107038571D01*
X159302857Y-105538571D02*
X159588571Y-105538571D01*
X159731428Y-105610000D01*
X159874285Y-105752857D01*
X159945714Y-106038571D01*
X159945714Y-106538571D01*
X159874285Y-106824285D01*
X159731428Y-106967142D01*
X159588571Y-107038571D01*
X159302857Y-107038571D01*
X159160000Y-106967142D01*
X159017142Y-106824285D01*
X158945714Y-106538571D01*
X158945714Y-106038571D01*
X159017142Y-105752857D01*
X159160000Y-105610000D01*
X159302857Y-105538571D01*
X160517142Y-106967142D02*
X160731428Y-107038571D01*
X161088571Y-107038571D01*
X161231428Y-106967142D01*
X161302857Y-106895714D01*
X161374285Y-106752857D01*
X161374285Y-106610000D01*
X161302857Y-106467142D01*
X161231428Y-106395714D01*
X161088571Y-106324285D01*
X160802857Y-106252857D01*
X160660000Y-106181428D01*
X160588571Y-106110000D01*
X160517142Y-105967142D01*
X160517142Y-105824285D01*
X160588571Y-105681428D01*
X160660000Y-105610000D01*
X160802857Y-105538571D01*
X161160000Y-105538571D01*
X161374285Y-105610000D01*
X162017142Y-107038571D02*
X162017142Y-105538571D01*
X157212857Y-108058571D02*
X158141428Y-108058571D01*
X157641428Y-108630000D01*
X157855714Y-108630000D01*
X157998571Y-108701428D01*
X158070000Y-108772857D01*
X158141428Y-108915714D01*
X158141428Y-109272857D01*
X158070000Y-109415714D01*
X157998571Y-109487142D01*
X157855714Y-109558571D01*
X157427142Y-109558571D01*
X157284285Y-109487142D01*
X157212857Y-109415714D01*
X158570000Y-108058571D02*
X159070000Y-109558571D01*
X159570000Y-108058571D01*
X159927142Y-108058571D02*
X160855714Y-108058571D01*
X160355714Y-108630000D01*
X160570000Y-108630000D01*
X160712857Y-108701428D01*
X160784285Y-108772857D01*
X160855714Y-108915714D01*
X160855714Y-109272857D01*
X160784285Y-109415714D01*
X160712857Y-109487142D01*
X160570000Y-109558571D01*
X160141428Y-109558571D01*
X159998571Y-109487142D01*
X159927142Y-109415714D01*
X158057142Y-112035714D02*
X157985714Y-112107142D01*
X157771428Y-112178571D01*
X157628571Y-112178571D01*
X157414285Y-112107142D01*
X157271428Y-111964285D01*
X157200000Y-111821428D01*
X157128571Y-111535714D01*
X157128571Y-111321428D01*
X157200000Y-111035714D01*
X157271428Y-110892857D01*
X157414285Y-110750000D01*
X157628571Y-110678571D01*
X157771428Y-110678571D01*
X157985714Y-110750000D01*
X158057142Y-110821428D01*
X159414285Y-112178571D02*
X158700000Y-112178571D01*
X158700000Y-110678571D01*
X159914285Y-112178571D02*
X159914285Y-110678571D01*
X160771428Y-112178571D02*
X160128571Y-111321428D01*
X160771428Y-110678571D02*
X159914285Y-111535714D01*
X147082857Y-115178571D02*
X147082857Y-113678571D01*
X147582857Y-114750000D01*
X148082857Y-113678571D01*
X148082857Y-115178571D01*
X148797142Y-115178571D02*
X148797142Y-113678571D01*
X149440000Y-115107142D02*
X149654285Y-115178571D01*
X150011428Y-115178571D01*
X150154285Y-115107142D01*
X150225714Y-115035714D01*
X150297142Y-114892857D01*
X150297142Y-114750000D01*
X150225714Y-114607142D01*
X150154285Y-114535714D01*
X150011428Y-114464285D01*
X149725714Y-114392857D01*
X149582857Y-114321428D01*
X149511428Y-114250000D01*
X149440000Y-114107142D01*
X149440000Y-113964285D01*
X149511428Y-113821428D01*
X149582857Y-113750000D01*
X149725714Y-113678571D01*
X150082857Y-113678571D01*
X150297142Y-113750000D01*
X151225714Y-113678571D02*
X151511428Y-113678571D01*
X151654285Y-113750000D01*
X151797142Y-113892857D01*
X151868571Y-114178571D01*
X151868571Y-114678571D01*
X151797142Y-114964285D01*
X151654285Y-115107142D01*
X151511428Y-115178571D01*
X151225714Y-115178571D01*
X151082857Y-115107142D01*
X150940000Y-114964285D01*
X150868571Y-114678571D01*
X150868571Y-114178571D01*
X150940000Y-113892857D01*
X151082857Y-113750000D01*
X151225714Y-113678571D01*
X130651428Y-113828571D02*
X132151428Y-113828571D01*
X132151428Y-114828571D02*
X132151428Y-115114285D01*
X132080000Y-115257142D01*
X131937142Y-115400000D01*
X131651428Y-115471428D01*
X131151428Y-115471428D01*
X130865714Y-115400000D01*
X130722857Y-115257142D01*
X130651428Y-115114285D01*
X130651428Y-114828571D01*
X130722857Y-114685714D01*
X130865714Y-114542857D01*
X131151428Y-114471428D01*
X131651428Y-114471428D01*
X131937142Y-114542857D01*
X132080000Y-114685714D01*
X132151428Y-114828571D01*
X130508571Y-115757142D02*
X130508571Y-116900000D01*
X132151428Y-117542857D02*
X132151428Y-117685714D01*
X132080000Y-117828571D01*
X132008571Y-117900000D01*
X131865714Y-117971428D01*
X131580000Y-118042857D01*
X131222857Y-118042857D01*
X130937142Y-117971428D01*
X130794285Y-117900000D01*
X130722857Y-117828571D01*
X130651428Y-117685714D01*
X130651428Y-117542857D01*
X130722857Y-117400000D01*
X130794285Y-117328571D01*
X130937142Y-117257142D01*
X131222857Y-117185714D01*
X131580000Y-117185714D01*
X131865714Y-117257142D01*
X132008571Y-117328571D01*
X132080000Y-117400000D01*
X132151428Y-117542857D01*
X133967142Y-113602857D02*
X133967142Y-114102857D01*
X133181428Y-114317142D02*
X133181428Y-113602857D01*
X134681428Y-113602857D01*
X134681428Y-114317142D01*
X133181428Y-114960000D02*
X134681428Y-114960000D01*
X133181428Y-115817142D01*
X134681428Y-115817142D01*
X137211428Y-113582857D02*
X137211428Y-114511428D01*
X136640000Y-114011428D01*
X136640000Y-114225714D01*
X136568571Y-114368571D01*
X136497142Y-114440000D01*
X136354285Y-114511428D01*
X135997142Y-114511428D01*
X135854285Y-114440000D01*
X135782857Y-114368571D01*
X135711428Y-114225714D01*
X135711428Y-113797142D01*
X135782857Y-113654285D01*
X135854285Y-113582857D01*
X137211428Y-114940000D02*
X135711428Y-115440000D01*
X137211428Y-115940000D01*
X137211428Y-116297142D02*
X137211428Y-117225714D01*
X136640000Y-116725714D01*
X136640000Y-116940000D01*
X136568571Y-117082857D01*
X136497142Y-117154285D01*
X136354285Y-117225714D01*
X135997142Y-117225714D01*
X135854285Y-117154285D01*
X135782857Y-117082857D01*
X135711428Y-116940000D01*
X135711428Y-116511428D01*
X135782857Y-116368571D01*
X135854285Y-116297142D01*
X140972857Y-113484285D02*
X140901428Y-113698571D01*
X140901428Y-114055714D01*
X140972857Y-114198571D01*
X141044285Y-114270000D01*
X141187142Y-114341428D01*
X141330000Y-114341428D01*
X141472857Y-114270000D01*
X141544285Y-114198571D01*
X141615714Y-114055714D01*
X141687142Y-113770000D01*
X141758571Y-113627142D01*
X141830000Y-113555714D01*
X141972857Y-113484285D01*
X142115714Y-113484285D01*
X142258571Y-113555714D01*
X142330000Y-113627142D01*
X142401428Y-113770000D01*
X142401428Y-114127142D01*
X142330000Y-114341428D01*
X140758571Y-114627142D02*
X140758571Y-115770000D01*
X142401428Y-115912857D02*
X142401428Y-116770000D01*
X140901428Y-116341428D02*
X142401428Y-116341428D01*
X142401428Y-117127142D02*
X140901428Y-118127142D01*
X142401428Y-118127142D02*
X140901428Y-117127142D01*
X138362857Y-113375714D02*
X138291428Y-113590000D01*
X138291428Y-113947142D01*
X138362857Y-114090000D01*
X138434285Y-114161428D01*
X138577142Y-114232857D01*
X138720000Y-114232857D01*
X138862857Y-114161428D01*
X138934285Y-114090000D01*
X139005714Y-113947142D01*
X139077142Y-113661428D01*
X139148571Y-113518571D01*
X139220000Y-113447142D01*
X139362857Y-113375714D01*
X139505714Y-113375714D01*
X139648571Y-113447142D01*
X139720000Y-113518571D01*
X139791428Y-113661428D01*
X139791428Y-114018571D01*
X139720000Y-114232857D01*
X138148571Y-114518571D02*
X138148571Y-115661428D01*
X138291428Y-116875714D02*
X139005714Y-116375714D01*
X138291428Y-116018571D02*
X139791428Y-116018571D01*
X139791428Y-116590000D01*
X139720000Y-116732857D01*
X139648571Y-116804285D01*
X139505714Y-116875714D01*
X139291428Y-116875714D01*
X139148571Y-116804285D01*
X139077142Y-116732857D01*
X139005714Y-116590000D01*
X139005714Y-116018571D01*
X139791428Y-117375714D02*
X138291428Y-118375714D01*
X139791428Y-118375714D02*
X138291428Y-117375714D01*
X145407142Y-116090000D02*
X145264285Y-116018571D01*
X145050000Y-116018571D01*
X144835714Y-116090000D01*
X144692857Y-116232857D01*
X144621428Y-116375714D01*
X144550000Y-116661428D01*
X144550000Y-116875714D01*
X144621428Y-117161428D01*
X144692857Y-117304285D01*
X144835714Y-117447142D01*
X145050000Y-117518571D01*
X145192857Y-117518571D01*
X145407142Y-117447142D01*
X145478571Y-117375714D01*
X145478571Y-116875714D01*
X145192857Y-116875714D01*
X146121428Y-117518571D02*
X146121428Y-116018571D01*
X146978571Y-117518571D01*
X146978571Y-116018571D01*
X147692857Y-117518571D02*
X147692857Y-116018571D01*
X148050000Y-116018571D01*
X148264285Y-116090000D01*
X148407142Y-116232857D01*
X148478571Y-116375714D01*
X148550000Y-116661428D01*
X148550000Y-116875714D01*
X148478571Y-117161428D01*
X148407142Y-117304285D01*
X148264285Y-117447142D01*
X148050000Y-117518571D01*
X147692857Y-117518571D01*
D11*
X156880000Y-98480000D02*
X153880000Y-98480000D01*
X152330000Y-97480000D02*
X152330000Y-90280000D01*
X152330000Y-84480000D02*
X152330000Y-87480000D01*
X167030000Y-87480000D02*
X167030000Y-85180000D01*
X167030000Y-90280000D02*
X167030000Y-97480000D01*
X156880000Y-98480000D02*
X156880000Y-99780000D01*
D12*
X151170000Y-95220000D02*
X151170000Y-101230000D01*
X144350000Y-97470000D02*
X144350000Y-101230000D01*
X151170000Y-101230000D02*
X149910000Y-101230000D01*
X144350000Y-101230000D02*
X145610000Y-101230000D01*
X148009721Y-111400000D02*
X148335279Y-111400000D01*
X148009721Y-110380000D02*
X148335279Y-110380000D01*
X149665000Y-111635000D02*
X147380000Y-111635000D01*
X149665000Y-113105000D02*
X149665000Y-111635000D01*
X147380000Y-113105000D02*
X149665000Y-113105000D01*
X146120000Y-85955000D02*
X146120000Y-84055000D01*
X146120000Y-89855000D02*
X146120000Y-87855000D01*
X136720000Y-85955000D02*
X136720000Y-84055000D01*
X136720000Y-89855000D02*
X136720000Y-87855000D01*
X146120000Y-84055000D02*
X136720000Y-84055000D01*
X138990000Y-107880000D02*
X142440000Y-107880000D01*
X138990000Y-107880000D02*
X137040000Y-107880000D01*
X138990000Y-97760000D02*
X140940000Y-97760000D01*
X138990000Y-97760000D02*
X137040000Y-97760000D01*
X132070000Y-104110000D02*
X133530000Y-104110000D01*
X132070000Y-107270000D02*
X134230000Y-107270000D01*
X132070000Y-107270000D02*
X132070000Y-106340000D01*
X132070000Y-104110000D02*
X132070000Y-105040000D01*
X133590000Y-101900000D02*
X132130000Y-101900000D01*
X133590000Y-98740000D02*
X131430000Y-98740000D01*
X133590000Y-98740000D02*
X133590000Y-99670000D01*
X133590000Y-101900000D02*
X133590000Y-100970000D01*
X147873922Y-109920000D02*
X148391078Y-109920000D01*
X147873922Y-108500000D02*
X148391078Y-108500000D01*
D11*
X151143333Y-111412380D02*
X150810000Y-110936190D01*
X150571904Y-111412380D02*
X150571904Y-110412380D01*
X150952857Y-110412380D01*
X151048095Y-110460000D01*
X151095714Y-110507619D01*
X151143333Y-110602857D01*
X151143333Y-110745714D01*
X151095714Y-110840952D01*
X151048095Y-110888571D01*
X150952857Y-110936190D01*
X150571904Y-110936190D01*
X151476666Y-110412380D02*
X152095714Y-110412380D01*
X151762380Y-110793333D01*
X151905238Y-110793333D01*
X152000476Y-110840952D01*
X152048095Y-110888571D01*
X152095714Y-110983809D01*
X152095714Y-111221904D01*
X152048095Y-111317142D01*
X152000476Y-111364761D01*
X151905238Y-111412380D01*
X151619523Y-111412380D01*
X151524285Y-111364761D01*
X151476666Y-111317142D01*
X150661904Y-112922380D02*
X150661904Y-111922380D01*
X150900000Y-111922380D01*
X151042857Y-111970000D01*
X151138095Y-112065238D01*
X151185714Y-112160476D01*
X151233333Y-112350952D01*
X151233333Y-112493809D01*
X151185714Y-112684285D01*
X151138095Y-112779523D01*
X151042857Y-112874761D01*
X150900000Y-112922380D01*
X150661904Y-112922380D01*
X152185714Y-112922380D02*
X151614285Y-112922380D01*
X151900000Y-112922380D02*
X151900000Y-111922380D01*
X151804761Y-112065238D01*
X151709523Y-112160476D01*
X151614285Y-112208095D01*
X141121667Y-87962381D02*
X141121667Y-88676667D01*
X141074048Y-88819524D01*
X140978810Y-88914762D01*
X140835953Y-88962381D01*
X140740715Y-88962381D01*
X142121667Y-88962381D02*
X141550239Y-88962381D01*
X141835953Y-88962381D02*
X141835953Y-87962381D01*
X141740715Y-88105239D01*
X141645477Y-88200477D01*
X141550239Y-88248096D01*
X137903333Y-95457142D02*
X137855714Y-95504761D01*
X137712857Y-95552380D01*
X137617619Y-95552380D01*
X137474761Y-95504761D01*
X137379523Y-95409523D01*
X137331904Y-95314285D01*
X137284285Y-95123809D01*
X137284285Y-94980952D01*
X137331904Y-94790476D01*
X137379523Y-94695238D01*
X137474761Y-94600000D01*
X137617619Y-94552380D01*
X137712857Y-94552380D01*
X137855714Y-94600000D01*
X137903333Y-94647619D01*
X138236666Y-94552380D02*
X138855714Y-94552380D01*
X138522380Y-94933333D01*
X138665238Y-94933333D01*
X138760476Y-94980952D01*
X138808095Y-95028571D01*
X138855714Y-95123809D01*
X138855714Y-95361904D01*
X138808095Y-95457142D01*
X138760476Y-95504761D01*
X138665238Y-95552380D01*
X138379523Y-95552380D01*
X138284285Y-95504761D01*
X138236666Y-95457142D01*
X133638095Y-96052380D02*
X133638095Y-96861904D01*
X133685714Y-96957142D01*
X133733333Y-97004761D01*
X133828571Y-97052380D01*
X134019047Y-97052380D01*
X134114285Y-97004761D01*
X134161904Y-96957142D01*
X134209523Y-96861904D01*
X134209523Y-96052380D01*
X134638095Y-96147619D02*
X134685714Y-96100000D01*
X134780952Y-96052380D01*
X135019047Y-96052380D01*
X135114285Y-96100000D01*
X135161904Y-96147619D01*
X135209523Y-96242857D01*
X135209523Y-96338095D01*
X135161904Y-96480952D01*
X134590476Y-97052380D01*
X135209523Y-97052380D01*
X130053333Y-103472380D02*
X129720000Y-102996190D01*
X129481904Y-103472380D02*
X129481904Y-102472380D01*
X129862857Y-102472380D01*
X129958095Y-102520000D01*
X130005714Y-102567619D01*
X130053333Y-102662857D01*
X130053333Y-102805714D01*
X130005714Y-102900952D01*
X129958095Y-102948571D01*
X129862857Y-102996190D01*
X129481904Y-102996190D01*
X130958095Y-102472380D02*
X130481904Y-102472380D01*
X130434285Y-102948571D01*
X130481904Y-102900952D01*
X130577142Y-102853333D01*
X130815238Y-102853333D01*
X130910476Y-102900952D01*
X130958095Y-102948571D01*
X131005714Y-103043809D01*
X131005714Y-103281904D01*
X130958095Y-103377142D01*
X130910476Y-103424761D01*
X130815238Y-103472380D01*
X130577142Y-103472380D01*
X130481904Y-103424761D01*
X130434285Y-103377142D01*
X148353333Y-92602380D02*
X148020000Y-92126190D01*
X147781904Y-92602380D02*
X147781904Y-91602380D01*
X148162857Y-91602380D01*
X148258095Y-91650000D01*
X148305714Y-91697619D01*
X148353333Y-91792857D01*
X148353333Y-91935714D01*
X148305714Y-92030952D01*
X148258095Y-92078571D01*
X148162857Y-92126190D01*
X147781904Y-92126190D01*
X148734285Y-91697619D02*
X148781904Y-91650000D01*
X148877142Y-91602380D01*
X149115238Y-91602380D01*
X149210476Y-91650000D01*
X149258095Y-91697619D01*
X149305714Y-91792857D01*
X149305714Y-91888095D01*
X149258095Y-92030952D01*
X148686666Y-92602380D01*
X149305714Y-92602380D01*
X134163333Y-92512380D02*
X133830000Y-92036190D01*
X133591904Y-92512380D02*
X133591904Y-91512380D01*
X133972857Y-91512380D01*
X134068095Y-91560000D01*
X134115714Y-91607619D01*
X134163333Y-91702857D01*
X134163333Y-91845714D01*
X134115714Y-91940952D01*
X134068095Y-91988571D01*
X133972857Y-92036190D01*
X133591904Y-92036190D01*
X135115714Y-92512380D02*
X134544285Y-92512380D01*
X134830000Y-92512380D02*
X134830000Y-91512380D01*
X134734761Y-91655238D01*
X134639523Y-91750476D01*
X134544285Y-91798095D01*
X129994761Y-106287619D02*
X129899523Y-106240000D01*
X129804285Y-106144761D01*
X129661428Y-106001904D01*
X129566190Y-105954285D01*
X129470952Y-105954285D01*
X129518571Y-106192380D02*
X129423333Y-106144761D01*
X129328095Y-106049523D01*
X129280476Y-105859047D01*
X129280476Y-105525714D01*
X129328095Y-105335238D01*
X129423333Y-105240000D01*
X129518571Y-105192380D01*
X129709047Y-105192380D01*
X129804285Y-105240000D01*
X129899523Y-105335238D01*
X129947142Y-105525714D01*
X129947142Y-105859047D01*
X129899523Y-106049523D01*
X129804285Y-106144761D01*
X129709047Y-106192380D01*
X129518571Y-106192380D01*
X130328095Y-105287619D02*
X130375714Y-105240000D01*
X130470952Y-105192380D01*
X130709047Y-105192380D01*
X130804285Y-105240000D01*
X130851904Y-105287619D01*
X130899523Y-105382857D01*
X130899523Y-105478095D01*
X130851904Y-105620952D01*
X130280476Y-106192380D01*
X130899523Y-106192380D01*
X130014761Y-101017619D02*
X129919523Y-100970000D01*
X129824285Y-100874761D01*
X129681428Y-100731904D01*
X129586190Y-100684285D01*
X129490952Y-100684285D01*
X129538571Y-100922380D02*
X129443333Y-100874761D01*
X129348095Y-100779523D01*
X129300476Y-100589047D01*
X129300476Y-100255714D01*
X129348095Y-100065238D01*
X129443333Y-99970000D01*
X129538571Y-99922380D01*
X129729047Y-99922380D01*
X129824285Y-99970000D01*
X129919523Y-100065238D01*
X129967142Y-100255714D01*
X129967142Y-100589047D01*
X129919523Y-100779523D01*
X129824285Y-100874761D01*
X129729047Y-100922380D01*
X129538571Y-100922380D01*
X130919523Y-100922380D02*
X130348095Y-100922380D01*
X130633809Y-100922380D02*
X130633809Y-99922380D01*
X130538571Y-100065238D01*
X130443333Y-100160476D01*
X130348095Y-100208095D01*
X130873333Y-108627142D02*
X130825714Y-108674761D01*
X130682857Y-108722380D01*
X130587619Y-108722380D01*
X130444761Y-108674761D01*
X130349523Y-108579523D01*
X130301904Y-108484285D01*
X130254285Y-108293809D01*
X130254285Y-108150952D01*
X130301904Y-107960476D01*
X130349523Y-107865238D01*
X130444761Y-107770000D01*
X130587619Y-107722380D01*
X130682857Y-107722380D01*
X130825714Y-107770000D01*
X130873333Y-107817619D01*
X131730476Y-108055714D02*
X131730476Y-108722380D01*
X131492380Y-107674761D02*
X131254285Y-108389047D01*
X131873333Y-108389047D01*
X138153333Y-109147142D02*
X138105714Y-109194761D01*
X137962857Y-109242380D01*
X137867619Y-109242380D01*
X137724761Y-109194761D01*
X137629523Y-109099523D01*
X137581904Y-109004285D01*
X137534285Y-108813809D01*
X137534285Y-108670952D01*
X137581904Y-108480476D01*
X137629523Y-108385238D01*
X137724761Y-108290000D01*
X137867619Y-108242380D01*
X137962857Y-108242380D01*
X138105714Y-108290000D01*
X138153333Y-108337619D01*
X139105714Y-109242380D02*
X138534285Y-109242380D01*
X138820000Y-109242380D02*
X138820000Y-108242380D01*
X138724761Y-108385238D01*
X138629523Y-108480476D01*
X138534285Y-108528095D01*
X151143333Y-109647142D02*
X151095714Y-109694761D01*
X150952857Y-109742380D01*
X150857619Y-109742380D01*
X150714761Y-109694761D01*
X150619523Y-109599523D01*
X150571904Y-109504285D01*
X150524285Y-109313809D01*
X150524285Y-109170952D01*
X150571904Y-108980476D01*
X150619523Y-108885238D01*
X150714761Y-108790000D01*
X150857619Y-108742380D01*
X150952857Y-108742380D01*
X151095714Y-108790000D01*
X151143333Y-108837619D01*
X151524285Y-108837619D02*
X151571904Y-108790000D01*
X151667142Y-108742380D01*
X151905238Y-108742380D01*
X152000476Y-108790000D01*
X152048095Y-108837619D01*
X152095714Y-108932857D01*
X152095714Y-109028095D01*
X152048095Y-109170952D01*
X151476666Y-109742380D01*
X152095714Y-109742380D01*
%LPC*%
D13*
G36*
X150063187Y-101346897D02*
G01*
X150072077Y-103884350D01*
X145377377Y-103889430D01*
X145365947Y-101346897D01*
X144134068Y-101345864D01*
X144132913Y-108157903D01*
X151350422Y-108160000D01*
X151349701Y-101346897D01*
X150063187Y-101346897D01*
G37*
X150063187Y-101346897D02*
X150072077Y-103884350D01*
X145377377Y-103889430D01*
X145365947Y-101346897D01*
X144134068Y-101345864D01*
X144132913Y-108157903D01*
X151350422Y-108160000D01*
X151349701Y-101346897D01*
X150063187Y-101346897D01*
D14*
X151930000Y-88880000D03*
X167430000Y-88880000D03*
D15*
X152830000Y-98480000D03*
D16*
X167430000Y-98480000D03*
D17*
X166280000Y-98980000D03*
X164080000Y-98980000D03*
X165180000Y-98980000D03*
X162980000Y-98980000D03*
X161880000Y-98980000D03*
X160780000Y-98980000D03*
X157480000Y-98980000D03*
X158580000Y-98980000D03*
X159680000Y-98980000D03*
D18*
X154310000Y-116610000D03*
X154310000Y-114070000D03*
X154310000Y-111530000D03*
X154310000Y-108990000D03*
X154310000Y-106450000D03*
D19*
X154310000Y-103910000D03*
D18*
X144080000Y-111500000D03*
X141540000Y-111500000D03*
X139000000Y-111500000D03*
X136460000Y-111500000D03*
X133920000Y-111500000D03*
D19*
X131380000Y-111500000D03*
D20*
X150060000Y-96170000D03*
X145460000Y-96170000D03*
X147760000Y-96170000D03*
D21*
X147760000Y-102470000D03*
D13*
G36*
X149228191Y-110365176D02*
G01*
X149251901Y-110368693D01*
X149275152Y-110374517D01*
X149297720Y-110382592D01*
X149319389Y-110392841D01*
X149339948Y-110405164D01*
X149359201Y-110419442D01*
X149376961Y-110435539D01*
X149393058Y-110453299D01*
X149407336Y-110472552D01*
X149419659Y-110493111D01*
X149429908Y-110514780D01*
X149437983Y-110537348D01*
X149443807Y-110560599D01*
X149447324Y-110584309D01*
X149448500Y-110608250D01*
X149448500Y-111171750D01*
X149447324Y-111195691D01*
X149443807Y-111219401D01*
X149437983Y-111242652D01*
X149429908Y-111265220D01*
X149419659Y-111286889D01*
X149407336Y-111307448D01*
X149393058Y-111326701D01*
X149376961Y-111344461D01*
X149359201Y-111360558D01*
X149339948Y-111374836D01*
X149319389Y-111387159D01*
X149297720Y-111397408D01*
X149275152Y-111405483D01*
X149251901Y-111411307D01*
X149228191Y-111414824D01*
X149204250Y-111416000D01*
X148715750Y-111416000D01*
X148691809Y-111414824D01*
X148668099Y-111411307D01*
X148644848Y-111405483D01*
X148622280Y-111397408D01*
X148600611Y-111387159D01*
X148580052Y-111374836D01*
X148560799Y-111360558D01*
X148543039Y-111344461D01*
X148526942Y-111326701D01*
X148512664Y-111307448D01*
X148500341Y-111286889D01*
X148490092Y-111265220D01*
X148482017Y-111242652D01*
X148476193Y-111219401D01*
X148472676Y-111195691D01*
X148471500Y-111171750D01*
X148471500Y-110608250D01*
X148472676Y-110584309D01*
X148476193Y-110560599D01*
X148482017Y-110537348D01*
X148490092Y-110514780D01*
X148500341Y-110493111D01*
X148512664Y-110472552D01*
X148526942Y-110453299D01*
X148543039Y-110435539D01*
X148560799Y-110419442D01*
X148580052Y-110405164D01*
X148600611Y-110392841D01*
X148622280Y-110382592D01*
X148644848Y-110374517D01*
X148668099Y-110368693D01*
X148691809Y-110365176D01*
X148715750Y-110364000D01*
X149204250Y-110364000D01*
X149228191Y-110365176D01*
G37*
G36*
X147653191Y-110365176D02*
G01*
X147676901Y-110368693D01*
X147700152Y-110374517D01*
X147722720Y-110382592D01*
X147744389Y-110392841D01*
X147764948Y-110405164D01*
X147784201Y-110419442D01*
X147801961Y-110435539D01*
X147818058Y-110453299D01*
X147832336Y-110472552D01*
X147844659Y-110493111D01*
X147854908Y-110514780D01*
X147862983Y-110537348D01*
X147868807Y-110560599D01*
X147872324Y-110584309D01*
X147873500Y-110608250D01*
X147873500Y-111171750D01*
X147872324Y-111195691D01*
X147868807Y-111219401D01*
X147862983Y-111242652D01*
X147854908Y-111265220D01*
X147844659Y-111286889D01*
X147832336Y-111307448D01*
X147818058Y-111326701D01*
X147801961Y-111344461D01*
X147784201Y-111360558D01*
X147764948Y-111374836D01*
X147744389Y-111387159D01*
X147722720Y-111397408D01*
X147700152Y-111405483D01*
X147676901Y-111411307D01*
X147653191Y-111414824D01*
X147629250Y-111416000D01*
X147140750Y-111416000D01*
X147116809Y-111414824D01*
X147093099Y-111411307D01*
X147069848Y-111405483D01*
X147047280Y-111397408D01*
X147025611Y-111387159D01*
X147005052Y-111374836D01*
X146985799Y-111360558D01*
X146968039Y-111344461D01*
X146951942Y-111326701D01*
X146937664Y-111307448D01*
X146925341Y-111286889D01*
X146915092Y-111265220D01*
X146907017Y-111242652D01*
X146901193Y-111219401D01*
X146897676Y-111195691D01*
X146896500Y-111171750D01*
X146896500Y-110608250D01*
X146897676Y-110584309D01*
X146901193Y-110560599D01*
X146907017Y-110537348D01*
X146915092Y-110514780D01*
X146925341Y-110493111D01*
X146937664Y-110472552D01*
X146951942Y-110453299D01*
X146968039Y-110435539D01*
X146985799Y-110419442D01*
X147005052Y-110405164D01*
X147025611Y-110392841D01*
X147047280Y-110382592D01*
X147069848Y-110374517D01*
X147093099Y-110368693D01*
X147116809Y-110365176D01*
X147140750Y-110364000D01*
X147629250Y-110364000D01*
X147653191Y-110365176D01*
G37*
G36*
X147660691Y-111845176D02*
G01*
X147684401Y-111848693D01*
X147707652Y-111854517D01*
X147730220Y-111862592D01*
X147751889Y-111872841D01*
X147772448Y-111885164D01*
X147791701Y-111899442D01*
X147809461Y-111915539D01*
X147825558Y-111933299D01*
X147839836Y-111952552D01*
X147852159Y-111973111D01*
X147862408Y-111994780D01*
X147870483Y-112017348D01*
X147876307Y-112040599D01*
X147879824Y-112064309D01*
X147881000Y-112088250D01*
X147881000Y-112651750D01*
X147879824Y-112675691D01*
X147876307Y-112699401D01*
X147870483Y-112722652D01*
X147862408Y-112745220D01*
X147852159Y-112766889D01*
X147839836Y-112787448D01*
X147825558Y-112806701D01*
X147809461Y-112824461D01*
X147791701Y-112840558D01*
X147772448Y-112854836D01*
X147751889Y-112867159D01*
X147730220Y-112877408D01*
X147707652Y-112885483D01*
X147684401Y-112891307D01*
X147660691Y-112894824D01*
X147636750Y-112896000D01*
X147148250Y-112896000D01*
X147124309Y-112894824D01*
X147100599Y-112891307D01*
X147077348Y-112885483D01*
X147054780Y-112877408D01*
X147033111Y-112867159D01*
X147012552Y-112854836D01*
X146993299Y-112840558D01*
X146975539Y-112824461D01*
X146959442Y-112806701D01*
X146945164Y-112787448D01*
X146932841Y-112766889D01*
X146922592Y-112745220D01*
X146914517Y-112722652D01*
X146908693Y-112699401D01*
X146905176Y-112675691D01*
X146904000Y-112651750D01*
X146904000Y-112088250D01*
X146905176Y-112064309D01*
X146908693Y-112040599D01*
X146914517Y-112017348D01*
X146922592Y-111994780D01*
X146932841Y-111973111D01*
X146945164Y-111952552D01*
X146959442Y-111933299D01*
X146975539Y-111915539D01*
X146993299Y-111899442D01*
X147012552Y-111885164D01*
X147033111Y-111872841D01*
X147054780Y-111862592D01*
X147077348Y-111854517D01*
X147100599Y-111848693D01*
X147124309Y-111845176D01*
X147148250Y-111844000D01*
X147636750Y-111844000D01*
X147660691Y-111845176D01*
G37*
G36*
X149235691Y-111845176D02*
G01*
X149259401Y-111848693D01*
X149282652Y-111854517D01*
X149305220Y-111862592D01*
X149326889Y-111872841D01*
X149347448Y-111885164D01*
X149366701Y-111899442D01*
X149384461Y-111915539D01*
X149400558Y-111933299D01*
X149414836Y-111952552D01*
X149427159Y-111973111D01*
X149437408Y-111994780D01*
X149445483Y-112017348D01*
X149451307Y-112040599D01*
X149454824Y-112064309D01*
X149456000Y-112088250D01*
X149456000Y-112651750D01*
X149454824Y-112675691D01*
X149451307Y-112699401D01*
X149445483Y-112722652D01*
X149437408Y-112745220D01*
X149427159Y-112766889D01*
X149414836Y-112787448D01*
X149400558Y-112806701D01*
X149384461Y-112824461D01*
X149366701Y-112840558D01*
X149347448Y-112854836D01*
X149326889Y-112867159D01*
X149305220Y-112877408D01*
X149282652Y-112885483D01*
X149259401Y-112891307D01*
X149235691Y-112894824D01*
X149211750Y-112896000D01*
X148723250Y-112896000D01*
X148699309Y-112894824D01*
X148675599Y-112891307D01*
X148652348Y-112885483D01*
X148629780Y-112877408D01*
X148608111Y-112867159D01*
X148587552Y-112854836D01*
X148568299Y-112840558D01*
X148550539Y-112824461D01*
X148534442Y-112806701D01*
X148520164Y-112787448D01*
X148507841Y-112766889D01*
X148497592Y-112745220D01*
X148489517Y-112722652D01*
X148483693Y-112699401D01*
X148480176Y-112675691D01*
X148479000Y-112651750D01*
X148479000Y-112088250D01*
X148480176Y-112064309D01*
X148483693Y-112040599D01*
X148489517Y-112017348D01*
X148497592Y-111994780D01*
X148507841Y-111973111D01*
X148520164Y-111952552D01*
X148534442Y-111933299D01*
X148550539Y-111915539D01*
X148568299Y-111899442D01*
X148587552Y-111885164D01*
X148608111Y-111872841D01*
X148629780Y-111862592D01*
X148652348Y-111854517D01*
X148675599Y-111848693D01*
X148699309Y-111845176D01*
X148723250Y-111844000D01*
X149211750Y-111844000D01*
X149235691Y-111845176D01*
G37*
D22*
X137100000Y-86905000D03*
D23*
X138530000Y-90555000D03*
D22*
X145740000Y-86905000D03*
D23*
X144310000Y-90555000D03*
D24*
X145740000Y-91085000D03*
X137100000Y-91085000D03*
D25*
X141670000Y-92000000D03*
X139670000Y-92000000D03*
X140170000Y-92000000D03*
X140670000Y-92000000D03*
X141170000Y-92000000D03*
X142170000Y-92000000D03*
X142670000Y-92000000D03*
X143170000Y-92000000D03*
D26*
X138170000Y-92000000D03*
X138970000Y-92000000D03*
X143870000Y-92000000D03*
X144670000Y-92000000D03*
X144670000Y-92000000D03*
X143870000Y-92000000D03*
X138970000Y-92000000D03*
X138170000Y-92000000D03*
D13*
G36*
X138899957Y-96089833D02*
G01*
X138916751Y-96092324D01*
X138933219Y-96096449D01*
X138949204Y-96102169D01*
X138964552Y-96109428D01*
X138979114Y-96118156D01*
X138992750Y-96128269D01*
X139005329Y-96139671D01*
X139016731Y-96152250D01*
X139026844Y-96165886D01*
X139035572Y-96180448D01*
X139042831Y-96195796D01*
X139048551Y-96211781D01*
X139052676Y-96228249D01*
X139055167Y-96245043D01*
X139056000Y-96262000D01*
X139056000Y-96658000D01*
X139055167Y-96674957D01*
X139052676Y-96691751D01*
X139048551Y-96708219D01*
X139042831Y-96724204D01*
X139035572Y-96739552D01*
X139026844Y-96754114D01*
X139016731Y-96767750D01*
X139005329Y-96780329D01*
X138992750Y-96791731D01*
X138979114Y-96801844D01*
X138964552Y-96810572D01*
X138949204Y-96817831D01*
X138933219Y-96823551D01*
X138916751Y-96827676D01*
X138899957Y-96830167D01*
X138883000Y-96831000D01*
X138537000Y-96831000D01*
X138520043Y-96830167D01*
X138503249Y-96827676D01*
X138486781Y-96823551D01*
X138470796Y-96817831D01*
X138455448Y-96810572D01*
X138440886Y-96801844D01*
X138427250Y-96791731D01*
X138414671Y-96780329D01*
X138403269Y-96767750D01*
X138393156Y-96754114D01*
X138384428Y-96739552D01*
X138377169Y-96724204D01*
X138371449Y-96708219D01*
X138367324Y-96691751D01*
X138364833Y-96674957D01*
X138364000Y-96658000D01*
X138364000Y-96262000D01*
X138364833Y-96245043D01*
X138367324Y-96228249D01*
X138371449Y-96211781D01*
X138377169Y-96195796D01*
X138384428Y-96180448D01*
X138393156Y-96165886D01*
X138403269Y-96152250D01*
X138414671Y-96139671D01*
X138427250Y-96128269D01*
X138440886Y-96118156D01*
X138455448Y-96109428D01*
X138470796Y-96102169D01*
X138486781Y-96096449D01*
X138503249Y-96092324D01*
X138520043Y-96089833D01*
X138537000Y-96089000D01*
X138883000Y-96089000D01*
X138899957Y-96089833D01*
G37*
G36*
X137929957Y-96089833D02*
G01*
X137946751Y-96092324D01*
X137963219Y-96096449D01*
X137979204Y-96102169D01*
X137994552Y-96109428D01*
X138009114Y-96118156D01*
X138022750Y-96128269D01*
X138035329Y-96139671D01*
X138046731Y-96152250D01*
X138056844Y-96165886D01*
X138065572Y-96180448D01*
X138072831Y-96195796D01*
X138078551Y-96211781D01*
X138082676Y-96228249D01*
X138085167Y-96245043D01*
X138086000Y-96262000D01*
X138086000Y-96658000D01*
X138085167Y-96674957D01*
X138082676Y-96691751D01*
X138078551Y-96708219D01*
X138072831Y-96724204D01*
X138065572Y-96739552D01*
X138056844Y-96754114D01*
X138046731Y-96767750D01*
X138035329Y-96780329D01*
X138022750Y-96791731D01*
X138009114Y-96801844D01*
X137994552Y-96810572D01*
X137979204Y-96817831D01*
X137963219Y-96823551D01*
X137946751Y-96827676D01*
X137929957Y-96830167D01*
X137913000Y-96831000D01*
X137567000Y-96831000D01*
X137550043Y-96830167D01*
X137533249Y-96827676D01*
X137516781Y-96823551D01*
X137500796Y-96817831D01*
X137485448Y-96810572D01*
X137470886Y-96801844D01*
X137457250Y-96791731D01*
X137444671Y-96780329D01*
X137433269Y-96767750D01*
X137423156Y-96754114D01*
X137414428Y-96739552D01*
X137407169Y-96724204D01*
X137401449Y-96708219D01*
X137397324Y-96691751D01*
X137394833Y-96674957D01*
X137394000Y-96658000D01*
X137394000Y-96262000D01*
X137394833Y-96245043D01*
X137397324Y-96228249D01*
X137401449Y-96211781D01*
X137407169Y-96195796D01*
X137414428Y-96180448D01*
X137423156Y-96165886D01*
X137433269Y-96152250D01*
X137444671Y-96139671D01*
X137457250Y-96128269D01*
X137470886Y-96118156D01*
X137485448Y-96109428D01*
X137500796Y-96102169D01*
X137516781Y-96096449D01*
X137533249Y-96092324D01*
X137550043Y-96089833D01*
X137567000Y-96089000D01*
X137913000Y-96089000D01*
X137929957Y-96089833D01*
G37*
G36*
X137382702Y-106914845D02*
G01*
X137399738Y-106917372D01*
X137416445Y-106921557D01*
X137432661Y-106927359D01*
X137448230Y-106934723D01*
X137463003Y-106943577D01*
X137476836Y-106953837D01*
X137489597Y-106965403D01*
X137501163Y-106978164D01*
X137511423Y-106991997D01*
X137520277Y-107006770D01*
X137527641Y-107022339D01*
X137533443Y-107038555D01*
X137537628Y-107055262D01*
X137540155Y-107072298D01*
X137541000Y-107089500D01*
X137541000Y-107440500D01*
X137540155Y-107457702D01*
X137537628Y-107474738D01*
X137533443Y-107491445D01*
X137527641Y-107507661D01*
X137520277Y-107523230D01*
X137511423Y-107538003D01*
X137501163Y-107551836D01*
X137489597Y-107564597D01*
X137476836Y-107576163D01*
X137463003Y-107586423D01*
X137448230Y-107595277D01*
X137432661Y-107602641D01*
X137416445Y-107608443D01*
X137399738Y-107612628D01*
X137382702Y-107615155D01*
X137365500Y-107616000D01*
X135664500Y-107616000D01*
X135647298Y-107615155D01*
X135630262Y-107612628D01*
X135613555Y-107608443D01*
X135597339Y-107602641D01*
X135581770Y-107595277D01*
X135566997Y-107586423D01*
X135553164Y-107576163D01*
X135540403Y-107564597D01*
X135528837Y-107551836D01*
X135518577Y-107538003D01*
X135509723Y-107523230D01*
X135502359Y-107507661D01*
X135496557Y-107491445D01*
X135492372Y-107474738D01*
X135489845Y-107457702D01*
X135489000Y-107440500D01*
X135489000Y-107089500D01*
X135489845Y-107072298D01*
X135492372Y-107055262D01*
X135496557Y-107038555D01*
X135502359Y-107022339D01*
X135509723Y-107006770D01*
X135518577Y-106991997D01*
X135528837Y-106978164D01*
X135540403Y-106965403D01*
X135553164Y-106953837D01*
X135566997Y-106943577D01*
X135581770Y-106934723D01*
X135597339Y-106927359D01*
X135613555Y-106921557D01*
X135630262Y-106917372D01*
X135647298Y-106914845D01*
X135664500Y-106914000D01*
X137365500Y-106914000D01*
X137382702Y-106914845D01*
G37*
G36*
X137382702Y-105644845D02*
G01*
X137399738Y-105647372D01*
X137416445Y-105651557D01*
X137432661Y-105657359D01*
X137448230Y-105664723D01*
X137463003Y-105673577D01*
X137476836Y-105683837D01*
X137489597Y-105695403D01*
X137501163Y-105708164D01*
X137511423Y-105721997D01*
X137520277Y-105736770D01*
X137527641Y-105752339D01*
X137533443Y-105768555D01*
X137537628Y-105785262D01*
X137540155Y-105802298D01*
X137541000Y-105819500D01*
X137541000Y-106170500D01*
X137540155Y-106187702D01*
X137537628Y-106204738D01*
X137533443Y-106221445D01*
X137527641Y-106237661D01*
X137520277Y-106253230D01*
X137511423Y-106268003D01*
X137501163Y-106281836D01*
X137489597Y-106294597D01*
X137476836Y-106306163D01*
X137463003Y-106316423D01*
X137448230Y-106325277D01*
X137432661Y-106332641D01*
X137416445Y-106338443D01*
X137399738Y-106342628D01*
X137382702Y-106345155D01*
X137365500Y-106346000D01*
X135664500Y-106346000D01*
X135647298Y-106345155D01*
X135630262Y-106342628D01*
X135613555Y-106338443D01*
X135597339Y-106332641D01*
X135581770Y-106325277D01*
X135566997Y-106316423D01*
X135553164Y-106306163D01*
X135540403Y-106294597D01*
X135528837Y-106281836D01*
X135518577Y-106268003D01*
X135509723Y-106253230D01*
X135502359Y-106237661D01*
X135496557Y-106221445D01*
X135492372Y-106204738D01*
X135489845Y-106187702D01*
X135489000Y-106170500D01*
X135489000Y-105819500D01*
X135489845Y-105802298D01*
X135492372Y-105785262D01*
X135496557Y-105768555D01*
X135502359Y-105752339D01*
X135509723Y-105736770D01*
X135518577Y-105721997D01*
X135528837Y-105708164D01*
X135540403Y-105695403D01*
X135553164Y-105683837D01*
X135566997Y-105673577D01*
X135581770Y-105664723D01*
X135597339Y-105657359D01*
X135613555Y-105651557D01*
X135630262Y-105647372D01*
X135647298Y-105644845D01*
X135664500Y-105644000D01*
X137365500Y-105644000D01*
X137382702Y-105644845D01*
G37*
G36*
X137382702Y-104374845D02*
G01*
X137399738Y-104377372D01*
X137416445Y-104381557D01*
X137432661Y-104387359D01*
X137448230Y-104394723D01*
X137463003Y-104403577D01*
X137476836Y-104413837D01*
X137489597Y-104425403D01*
X137501163Y-104438164D01*
X137511423Y-104451997D01*
X137520277Y-104466770D01*
X137527641Y-104482339D01*
X137533443Y-104498555D01*
X137537628Y-104515262D01*
X137540155Y-104532298D01*
X137541000Y-104549500D01*
X137541000Y-104900500D01*
X137540155Y-104917702D01*
X137537628Y-104934738D01*
X137533443Y-104951445D01*
X137527641Y-104967661D01*
X137520277Y-104983230D01*
X137511423Y-104998003D01*
X137501163Y-105011836D01*
X137489597Y-105024597D01*
X137476836Y-105036163D01*
X137463003Y-105046423D01*
X137448230Y-105055277D01*
X137432661Y-105062641D01*
X137416445Y-105068443D01*
X137399738Y-105072628D01*
X137382702Y-105075155D01*
X137365500Y-105076000D01*
X135664500Y-105076000D01*
X135647298Y-105075155D01*
X135630262Y-105072628D01*
X135613555Y-105068443D01*
X135597339Y-105062641D01*
X135581770Y-105055277D01*
X135566997Y-105046423D01*
X135553164Y-105036163D01*
X135540403Y-105024597D01*
X135528837Y-105011836D01*
X135518577Y-104998003D01*
X135509723Y-104983230D01*
X135502359Y-104967661D01*
X135496557Y-104951445D01*
X135492372Y-104934738D01*
X135489845Y-104917702D01*
X135489000Y-104900500D01*
X135489000Y-104549500D01*
X135489845Y-104532298D01*
X135492372Y-104515262D01*
X135496557Y-104498555D01*
X135502359Y-104482339D01*
X135509723Y-104466770D01*
X135518577Y-104451997D01*
X135528837Y-104438164D01*
X135540403Y-104425403D01*
X135553164Y-104413837D01*
X135566997Y-104403577D01*
X135581770Y-104394723D01*
X135597339Y-104387359D01*
X135613555Y-104381557D01*
X135630262Y-104377372D01*
X135647298Y-104374845D01*
X135664500Y-104374000D01*
X137365500Y-104374000D01*
X137382702Y-104374845D01*
G37*
G36*
X137382702Y-103104845D02*
G01*
X137399738Y-103107372D01*
X137416445Y-103111557D01*
X137432661Y-103117359D01*
X137448230Y-103124723D01*
X137463003Y-103133577D01*
X137476836Y-103143837D01*
X137489597Y-103155403D01*
X137501163Y-103168164D01*
X137511423Y-103181997D01*
X137520277Y-103196770D01*
X137527641Y-103212339D01*
X137533443Y-103228555D01*
X137537628Y-103245262D01*
X137540155Y-103262298D01*
X137541000Y-103279500D01*
X137541000Y-103630500D01*
X137540155Y-103647702D01*
X137537628Y-103664738D01*
X137533443Y-103681445D01*
X137527641Y-103697661D01*
X137520277Y-103713230D01*
X137511423Y-103728003D01*
X137501163Y-103741836D01*
X137489597Y-103754597D01*
X137476836Y-103766163D01*
X137463003Y-103776423D01*
X137448230Y-103785277D01*
X137432661Y-103792641D01*
X137416445Y-103798443D01*
X137399738Y-103802628D01*
X137382702Y-103805155D01*
X137365500Y-103806000D01*
X135664500Y-103806000D01*
X135647298Y-103805155D01*
X135630262Y-103802628D01*
X135613555Y-103798443D01*
X135597339Y-103792641D01*
X135581770Y-103785277D01*
X135566997Y-103776423D01*
X135553164Y-103766163D01*
X135540403Y-103754597D01*
X135528837Y-103741836D01*
X135518577Y-103728003D01*
X135509723Y-103713230D01*
X135502359Y-103697661D01*
X135496557Y-103681445D01*
X135492372Y-103664738D01*
X135489845Y-103647702D01*
X135489000Y-103630500D01*
X135489000Y-103279500D01*
X135489845Y-103262298D01*
X135492372Y-103245262D01*
X135496557Y-103228555D01*
X135502359Y-103212339D01*
X135509723Y-103196770D01*
X135518577Y-103181997D01*
X135528837Y-103168164D01*
X135540403Y-103155403D01*
X135553164Y-103143837D01*
X135566997Y-103133577D01*
X135581770Y-103124723D01*
X135597339Y-103117359D01*
X135613555Y-103111557D01*
X135630262Y-103107372D01*
X135647298Y-103104845D01*
X135664500Y-103104000D01*
X137365500Y-103104000D01*
X137382702Y-103104845D01*
G37*
G36*
X137382702Y-101834845D02*
G01*
X137399738Y-101837372D01*
X137416445Y-101841557D01*
X137432661Y-101847359D01*
X137448230Y-101854723D01*
X137463003Y-101863577D01*
X137476836Y-101873837D01*
X137489597Y-101885403D01*
X137501163Y-101898164D01*
X137511423Y-101911997D01*
X137520277Y-101926770D01*
X137527641Y-101942339D01*
X137533443Y-101958555D01*
X137537628Y-101975262D01*
X137540155Y-101992298D01*
X137541000Y-102009500D01*
X137541000Y-102360500D01*
X137540155Y-102377702D01*
X137537628Y-102394738D01*
X137533443Y-102411445D01*
X137527641Y-102427661D01*
X137520277Y-102443230D01*
X137511423Y-102458003D01*
X137501163Y-102471836D01*
X137489597Y-102484597D01*
X137476836Y-102496163D01*
X137463003Y-102506423D01*
X137448230Y-102515277D01*
X137432661Y-102522641D01*
X137416445Y-102528443D01*
X137399738Y-102532628D01*
X137382702Y-102535155D01*
X137365500Y-102536000D01*
X135664500Y-102536000D01*
X135647298Y-102535155D01*
X135630262Y-102532628D01*
X135613555Y-102528443D01*
X135597339Y-102522641D01*
X135581770Y-102515277D01*
X135566997Y-102506423D01*
X135553164Y-102496163D01*
X135540403Y-102484597D01*
X135528837Y-102471836D01*
X135518577Y-102458003D01*
X135509723Y-102443230D01*
X135502359Y-102427661D01*
X135496557Y-102411445D01*
X135492372Y-102394738D01*
X135489845Y-102377702D01*
X135489000Y-102360500D01*
X135489000Y-102009500D01*
X135489845Y-101992298D01*
X135492372Y-101975262D01*
X135496557Y-101958555D01*
X135502359Y-101942339D01*
X135509723Y-101926770D01*
X135518577Y-101911997D01*
X135528837Y-101898164D01*
X135540403Y-101885403D01*
X135553164Y-101873837D01*
X135566997Y-101863577D01*
X135581770Y-101854723D01*
X135597339Y-101847359D01*
X135613555Y-101841557D01*
X135630262Y-101837372D01*
X135647298Y-101834845D01*
X135664500Y-101834000D01*
X137365500Y-101834000D01*
X137382702Y-101834845D01*
G37*
G36*
X137382702Y-100564845D02*
G01*
X137399738Y-100567372D01*
X137416445Y-100571557D01*
X137432661Y-100577359D01*
X137448230Y-100584723D01*
X137463003Y-100593577D01*
X137476836Y-100603837D01*
X137489597Y-100615403D01*
X137501163Y-100628164D01*
X137511423Y-100641997D01*
X137520277Y-100656770D01*
X137527641Y-100672339D01*
X137533443Y-100688555D01*
X137537628Y-100705262D01*
X137540155Y-100722298D01*
X137541000Y-100739500D01*
X137541000Y-101090500D01*
X137540155Y-101107702D01*
X137537628Y-101124738D01*
X137533443Y-101141445D01*
X137527641Y-101157661D01*
X137520277Y-101173230D01*
X137511423Y-101188003D01*
X137501163Y-101201836D01*
X137489597Y-101214597D01*
X137476836Y-101226163D01*
X137463003Y-101236423D01*
X137448230Y-101245277D01*
X137432661Y-101252641D01*
X137416445Y-101258443D01*
X137399738Y-101262628D01*
X137382702Y-101265155D01*
X137365500Y-101266000D01*
X135664500Y-101266000D01*
X135647298Y-101265155D01*
X135630262Y-101262628D01*
X135613555Y-101258443D01*
X135597339Y-101252641D01*
X135581770Y-101245277D01*
X135566997Y-101236423D01*
X135553164Y-101226163D01*
X135540403Y-101214597D01*
X135528837Y-101201836D01*
X135518577Y-101188003D01*
X135509723Y-101173230D01*
X135502359Y-101157661D01*
X135496557Y-101141445D01*
X135492372Y-101124738D01*
X135489845Y-101107702D01*
X135489000Y-101090500D01*
X135489000Y-100739500D01*
X135489845Y-100722298D01*
X135492372Y-100705262D01*
X135496557Y-100688555D01*
X135502359Y-100672339D01*
X135509723Y-100656770D01*
X135518577Y-100641997D01*
X135528837Y-100628164D01*
X135540403Y-100615403D01*
X135553164Y-100603837D01*
X135566997Y-100593577D01*
X135581770Y-100584723D01*
X135597339Y-100577359D01*
X135613555Y-100571557D01*
X135630262Y-100567372D01*
X135647298Y-100564845D01*
X135664500Y-100564000D01*
X137365500Y-100564000D01*
X137382702Y-100564845D01*
G37*
G36*
X137382702Y-99294845D02*
G01*
X137399738Y-99297372D01*
X137416445Y-99301557D01*
X137432661Y-99307359D01*
X137448230Y-99314723D01*
X137463003Y-99323577D01*
X137476836Y-99333837D01*
X137489597Y-99345403D01*
X137501163Y-99358164D01*
X137511423Y-99371997D01*
X137520277Y-99386770D01*
X137527641Y-99402339D01*
X137533443Y-99418555D01*
X137537628Y-99435262D01*
X137540155Y-99452298D01*
X137541000Y-99469500D01*
X137541000Y-99820500D01*
X137540155Y-99837702D01*
X137537628Y-99854738D01*
X137533443Y-99871445D01*
X137527641Y-99887661D01*
X137520277Y-99903230D01*
X137511423Y-99918003D01*
X137501163Y-99931836D01*
X137489597Y-99944597D01*
X137476836Y-99956163D01*
X137463003Y-99966423D01*
X137448230Y-99975277D01*
X137432661Y-99982641D01*
X137416445Y-99988443D01*
X137399738Y-99992628D01*
X137382702Y-99995155D01*
X137365500Y-99996000D01*
X135664500Y-99996000D01*
X135647298Y-99995155D01*
X135630262Y-99992628D01*
X135613555Y-99988443D01*
X135597339Y-99982641D01*
X135581770Y-99975277D01*
X135566997Y-99966423D01*
X135553164Y-99956163D01*
X135540403Y-99944597D01*
X135528837Y-99931836D01*
X135518577Y-99918003D01*
X135509723Y-99903230D01*
X135502359Y-99887661D01*
X135496557Y-99871445D01*
X135492372Y-99854738D01*
X135489845Y-99837702D01*
X135489000Y-99820500D01*
X135489000Y-99469500D01*
X135489845Y-99452298D01*
X135492372Y-99435262D01*
X135496557Y-99418555D01*
X135502359Y-99402339D01*
X135509723Y-99386770D01*
X135518577Y-99371997D01*
X135528837Y-99358164D01*
X135540403Y-99345403D01*
X135553164Y-99333837D01*
X135566997Y-99323577D01*
X135581770Y-99314723D01*
X135597339Y-99307359D01*
X135613555Y-99301557D01*
X135630262Y-99297372D01*
X135647298Y-99294845D01*
X135664500Y-99294000D01*
X137365500Y-99294000D01*
X137382702Y-99294845D01*
G37*
G36*
X137382702Y-98024845D02*
G01*
X137399738Y-98027372D01*
X137416445Y-98031557D01*
X137432661Y-98037359D01*
X137448230Y-98044723D01*
X137463003Y-98053577D01*
X137476836Y-98063837D01*
X137489597Y-98075403D01*
X137501163Y-98088164D01*
X137511423Y-98101997D01*
X137520277Y-98116770D01*
X137527641Y-98132339D01*
X137533443Y-98148555D01*
X137537628Y-98165262D01*
X137540155Y-98182298D01*
X137541000Y-98199500D01*
X137541000Y-98550500D01*
X137540155Y-98567702D01*
X137537628Y-98584738D01*
X137533443Y-98601445D01*
X137527641Y-98617661D01*
X137520277Y-98633230D01*
X137511423Y-98648003D01*
X137501163Y-98661836D01*
X137489597Y-98674597D01*
X137476836Y-98686163D01*
X137463003Y-98696423D01*
X137448230Y-98705277D01*
X137432661Y-98712641D01*
X137416445Y-98718443D01*
X137399738Y-98722628D01*
X137382702Y-98725155D01*
X137365500Y-98726000D01*
X135664500Y-98726000D01*
X135647298Y-98725155D01*
X135630262Y-98722628D01*
X135613555Y-98718443D01*
X135597339Y-98712641D01*
X135581770Y-98705277D01*
X135566997Y-98696423D01*
X135553164Y-98686163D01*
X135540403Y-98674597D01*
X135528837Y-98661836D01*
X135518577Y-98648003D01*
X135509723Y-98633230D01*
X135502359Y-98617661D01*
X135496557Y-98601445D01*
X135492372Y-98584738D01*
X135489845Y-98567702D01*
X135489000Y-98550500D01*
X135489000Y-98199500D01*
X135489845Y-98182298D01*
X135492372Y-98165262D01*
X135496557Y-98148555D01*
X135502359Y-98132339D01*
X135509723Y-98116770D01*
X135518577Y-98101997D01*
X135528837Y-98088164D01*
X135540403Y-98075403D01*
X135553164Y-98063837D01*
X135566997Y-98053577D01*
X135581770Y-98044723D01*
X135597339Y-98037359D01*
X135613555Y-98031557D01*
X135630262Y-98027372D01*
X135647298Y-98024845D01*
X135664500Y-98024000D01*
X137365500Y-98024000D01*
X137382702Y-98024845D01*
G37*
G36*
X142332702Y-98024845D02*
G01*
X142349738Y-98027372D01*
X142366445Y-98031557D01*
X142382661Y-98037359D01*
X142398230Y-98044723D01*
X142413003Y-98053577D01*
X142426836Y-98063837D01*
X142439597Y-98075403D01*
X142451163Y-98088164D01*
X142461423Y-98101997D01*
X142470277Y-98116770D01*
X142477641Y-98132339D01*
X142483443Y-98148555D01*
X142487628Y-98165262D01*
X142490155Y-98182298D01*
X142491000Y-98199500D01*
X142491000Y-98550500D01*
X142490155Y-98567702D01*
X142487628Y-98584738D01*
X142483443Y-98601445D01*
X142477641Y-98617661D01*
X142470277Y-98633230D01*
X142461423Y-98648003D01*
X142451163Y-98661836D01*
X142439597Y-98674597D01*
X142426836Y-98686163D01*
X142413003Y-98696423D01*
X142398230Y-98705277D01*
X142382661Y-98712641D01*
X142366445Y-98718443D01*
X142349738Y-98722628D01*
X142332702Y-98725155D01*
X142315500Y-98726000D01*
X140614500Y-98726000D01*
X140597298Y-98725155D01*
X140580262Y-98722628D01*
X140563555Y-98718443D01*
X140547339Y-98712641D01*
X140531770Y-98705277D01*
X140516997Y-98696423D01*
X140503164Y-98686163D01*
X140490403Y-98674597D01*
X140478837Y-98661836D01*
X140468577Y-98648003D01*
X140459723Y-98633230D01*
X140452359Y-98617661D01*
X140446557Y-98601445D01*
X140442372Y-98584738D01*
X140439845Y-98567702D01*
X140439000Y-98550500D01*
X140439000Y-98199500D01*
X140439845Y-98182298D01*
X140442372Y-98165262D01*
X140446557Y-98148555D01*
X140452359Y-98132339D01*
X140459723Y-98116770D01*
X140468577Y-98101997D01*
X140478837Y-98088164D01*
X140490403Y-98075403D01*
X140503164Y-98063837D01*
X140516997Y-98053577D01*
X140531770Y-98044723D01*
X140547339Y-98037359D01*
X140563555Y-98031557D01*
X140580262Y-98027372D01*
X140597298Y-98024845D01*
X140614500Y-98024000D01*
X142315500Y-98024000D01*
X142332702Y-98024845D01*
G37*
G36*
X142332702Y-99294845D02*
G01*
X142349738Y-99297372D01*
X142366445Y-99301557D01*
X142382661Y-99307359D01*
X142398230Y-99314723D01*
X142413003Y-99323577D01*
X142426836Y-99333837D01*
X142439597Y-99345403D01*
X142451163Y-99358164D01*
X142461423Y-99371997D01*
X142470277Y-99386770D01*
X142477641Y-99402339D01*
X142483443Y-99418555D01*
X142487628Y-99435262D01*
X142490155Y-99452298D01*
X142491000Y-99469500D01*
X142491000Y-99820500D01*
X142490155Y-99837702D01*
X142487628Y-99854738D01*
X142483443Y-99871445D01*
X142477641Y-99887661D01*
X142470277Y-99903230D01*
X142461423Y-99918003D01*
X142451163Y-99931836D01*
X142439597Y-99944597D01*
X142426836Y-99956163D01*
X142413003Y-99966423D01*
X142398230Y-99975277D01*
X142382661Y-99982641D01*
X142366445Y-99988443D01*
X142349738Y-99992628D01*
X142332702Y-99995155D01*
X142315500Y-99996000D01*
X140614500Y-99996000D01*
X140597298Y-99995155D01*
X140580262Y-99992628D01*
X140563555Y-99988443D01*
X140547339Y-99982641D01*
X140531770Y-99975277D01*
X140516997Y-99966423D01*
X140503164Y-99956163D01*
X140490403Y-99944597D01*
X140478837Y-99931836D01*
X140468577Y-99918003D01*
X140459723Y-99903230D01*
X140452359Y-99887661D01*
X140446557Y-99871445D01*
X140442372Y-99854738D01*
X140439845Y-99837702D01*
X140439000Y-99820500D01*
X140439000Y-99469500D01*
X140439845Y-99452298D01*
X140442372Y-99435262D01*
X140446557Y-99418555D01*
X140452359Y-99402339D01*
X140459723Y-99386770D01*
X140468577Y-99371997D01*
X140478837Y-99358164D01*
X140490403Y-99345403D01*
X140503164Y-99333837D01*
X140516997Y-99323577D01*
X140531770Y-99314723D01*
X140547339Y-99307359D01*
X140563555Y-99301557D01*
X140580262Y-99297372D01*
X140597298Y-99294845D01*
X140614500Y-99294000D01*
X142315500Y-99294000D01*
X142332702Y-99294845D01*
G37*
G36*
X142332702Y-100564845D02*
G01*
X142349738Y-100567372D01*
X142366445Y-100571557D01*
X142382661Y-100577359D01*
X142398230Y-100584723D01*
X142413003Y-100593577D01*
X142426836Y-100603837D01*
X142439597Y-100615403D01*
X142451163Y-100628164D01*
X142461423Y-100641997D01*
X142470277Y-100656770D01*
X142477641Y-100672339D01*
X142483443Y-100688555D01*
X142487628Y-100705262D01*
X142490155Y-100722298D01*
X142491000Y-100739500D01*
X142491000Y-101090500D01*
X142490155Y-101107702D01*
X142487628Y-101124738D01*
X142483443Y-101141445D01*
X142477641Y-101157661D01*
X142470277Y-101173230D01*
X142461423Y-101188003D01*
X142451163Y-101201836D01*
X142439597Y-101214597D01*
X142426836Y-101226163D01*
X142413003Y-101236423D01*
X142398230Y-101245277D01*
X142382661Y-101252641D01*
X142366445Y-101258443D01*
X142349738Y-101262628D01*
X142332702Y-101265155D01*
X142315500Y-101266000D01*
X140614500Y-101266000D01*
X140597298Y-101265155D01*
X140580262Y-101262628D01*
X140563555Y-101258443D01*
X140547339Y-101252641D01*
X140531770Y-101245277D01*
X140516997Y-101236423D01*
X140503164Y-101226163D01*
X140490403Y-101214597D01*
X140478837Y-101201836D01*
X140468577Y-101188003D01*
X140459723Y-101173230D01*
X140452359Y-101157661D01*
X140446557Y-101141445D01*
X140442372Y-101124738D01*
X140439845Y-101107702D01*
X140439000Y-101090500D01*
X140439000Y-100739500D01*
X140439845Y-100722298D01*
X140442372Y-100705262D01*
X140446557Y-100688555D01*
X140452359Y-100672339D01*
X140459723Y-100656770D01*
X140468577Y-100641997D01*
X140478837Y-100628164D01*
X140490403Y-100615403D01*
X140503164Y-100603837D01*
X140516997Y-100593577D01*
X140531770Y-100584723D01*
X140547339Y-100577359D01*
X140563555Y-100571557D01*
X140580262Y-100567372D01*
X140597298Y-100564845D01*
X140614500Y-100564000D01*
X142315500Y-100564000D01*
X142332702Y-100564845D01*
G37*
G36*
X142332702Y-101834845D02*
G01*
X142349738Y-101837372D01*
X142366445Y-101841557D01*
X142382661Y-101847359D01*
X142398230Y-101854723D01*
X142413003Y-101863577D01*
X142426836Y-101873837D01*
X142439597Y-101885403D01*
X142451163Y-101898164D01*
X142461423Y-101911997D01*
X142470277Y-101926770D01*
X142477641Y-101942339D01*
X142483443Y-101958555D01*
X142487628Y-101975262D01*
X142490155Y-101992298D01*
X142491000Y-102009500D01*
X142491000Y-102360500D01*
X142490155Y-102377702D01*
X142487628Y-102394738D01*
X142483443Y-102411445D01*
X142477641Y-102427661D01*
X142470277Y-102443230D01*
X142461423Y-102458003D01*
X142451163Y-102471836D01*
X142439597Y-102484597D01*
X142426836Y-102496163D01*
X142413003Y-102506423D01*
X142398230Y-102515277D01*
X142382661Y-102522641D01*
X142366445Y-102528443D01*
X142349738Y-102532628D01*
X142332702Y-102535155D01*
X142315500Y-102536000D01*
X140614500Y-102536000D01*
X140597298Y-102535155D01*
X140580262Y-102532628D01*
X140563555Y-102528443D01*
X140547339Y-102522641D01*
X140531770Y-102515277D01*
X140516997Y-102506423D01*
X140503164Y-102496163D01*
X140490403Y-102484597D01*
X140478837Y-102471836D01*
X140468577Y-102458003D01*
X140459723Y-102443230D01*
X140452359Y-102427661D01*
X140446557Y-102411445D01*
X140442372Y-102394738D01*
X140439845Y-102377702D01*
X140439000Y-102360500D01*
X140439000Y-102009500D01*
X140439845Y-101992298D01*
X140442372Y-101975262D01*
X140446557Y-101958555D01*
X140452359Y-101942339D01*
X140459723Y-101926770D01*
X140468577Y-101911997D01*
X140478837Y-101898164D01*
X140490403Y-101885403D01*
X140503164Y-101873837D01*
X140516997Y-101863577D01*
X140531770Y-101854723D01*
X140547339Y-101847359D01*
X140563555Y-101841557D01*
X140580262Y-101837372D01*
X140597298Y-101834845D01*
X140614500Y-101834000D01*
X142315500Y-101834000D01*
X142332702Y-101834845D01*
G37*
G36*
X142332702Y-103104845D02*
G01*
X142349738Y-103107372D01*
X142366445Y-103111557D01*
X142382661Y-103117359D01*
X142398230Y-103124723D01*
X142413003Y-103133577D01*
X142426836Y-103143837D01*
X142439597Y-103155403D01*
X142451163Y-103168164D01*
X142461423Y-103181997D01*
X142470277Y-103196770D01*
X142477641Y-103212339D01*
X142483443Y-103228555D01*
X142487628Y-103245262D01*
X142490155Y-103262298D01*
X142491000Y-103279500D01*
X142491000Y-103630500D01*
X142490155Y-103647702D01*
X142487628Y-103664738D01*
X142483443Y-103681445D01*
X142477641Y-103697661D01*
X142470277Y-103713230D01*
X142461423Y-103728003D01*
X142451163Y-103741836D01*
X142439597Y-103754597D01*
X142426836Y-103766163D01*
X142413003Y-103776423D01*
X142398230Y-103785277D01*
X142382661Y-103792641D01*
X142366445Y-103798443D01*
X142349738Y-103802628D01*
X142332702Y-103805155D01*
X142315500Y-103806000D01*
X140614500Y-103806000D01*
X140597298Y-103805155D01*
X140580262Y-103802628D01*
X140563555Y-103798443D01*
X140547339Y-103792641D01*
X140531770Y-103785277D01*
X140516997Y-103776423D01*
X140503164Y-103766163D01*
X140490403Y-103754597D01*
X140478837Y-103741836D01*
X140468577Y-103728003D01*
X140459723Y-103713230D01*
X140452359Y-103697661D01*
X140446557Y-103681445D01*
X140442372Y-103664738D01*
X140439845Y-103647702D01*
X140439000Y-103630500D01*
X140439000Y-103279500D01*
X140439845Y-103262298D01*
X140442372Y-103245262D01*
X140446557Y-103228555D01*
X140452359Y-103212339D01*
X140459723Y-103196770D01*
X140468577Y-103181997D01*
X140478837Y-103168164D01*
X140490403Y-103155403D01*
X140503164Y-103143837D01*
X140516997Y-103133577D01*
X140531770Y-103124723D01*
X140547339Y-103117359D01*
X140563555Y-103111557D01*
X140580262Y-103107372D01*
X140597298Y-103104845D01*
X140614500Y-103104000D01*
X142315500Y-103104000D01*
X142332702Y-103104845D01*
G37*
G36*
X142332702Y-104374845D02*
G01*
X142349738Y-104377372D01*
X142366445Y-104381557D01*
X142382661Y-104387359D01*
X142398230Y-104394723D01*
X142413003Y-104403577D01*
X142426836Y-104413837D01*
X142439597Y-104425403D01*
X142451163Y-104438164D01*
X142461423Y-104451997D01*
X142470277Y-104466770D01*
X142477641Y-104482339D01*
X142483443Y-104498555D01*
X142487628Y-104515262D01*
X142490155Y-104532298D01*
X142491000Y-104549500D01*
X142491000Y-104900500D01*
X142490155Y-104917702D01*
X142487628Y-104934738D01*
X142483443Y-104951445D01*
X142477641Y-104967661D01*
X142470277Y-104983230D01*
X142461423Y-104998003D01*
X142451163Y-105011836D01*
X142439597Y-105024597D01*
X142426836Y-105036163D01*
X142413003Y-105046423D01*
X142398230Y-105055277D01*
X142382661Y-105062641D01*
X142366445Y-105068443D01*
X142349738Y-105072628D01*
X142332702Y-105075155D01*
X142315500Y-105076000D01*
X140614500Y-105076000D01*
X140597298Y-105075155D01*
X140580262Y-105072628D01*
X140563555Y-105068443D01*
X140547339Y-105062641D01*
X140531770Y-105055277D01*
X140516997Y-105046423D01*
X140503164Y-105036163D01*
X140490403Y-105024597D01*
X140478837Y-105011836D01*
X140468577Y-104998003D01*
X140459723Y-104983230D01*
X140452359Y-104967661D01*
X140446557Y-104951445D01*
X140442372Y-104934738D01*
X140439845Y-104917702D01*
X140439000Y-104900500D01*
X140439000Y-104549500D01*
X140439845Y-104532298D01*
X140442372Y-104515262D01*
X140446557Y-104498555D01*
X140452359Y-104482339D01*
X140459723Y-104466770D01*
X140468577Y-104451997D01*
X140478837Y-104438164D01*
X140490403Y-104425403D01*
X140503164Y-104413837D01*
X140516997Y-104403577D01*
X140531770Y-104394723D01*
X140547339Y-104387359D01*
X140563555Y-104381557D01*
X140580262Y-104377372D01*
X140597298Y-104374845D01*
X140614500Y-104374000D01*
X142315500Y-104374000D01*
X142332702Y-104374845D01*
G37*
G36*
X142332702Y-105644845D02*
G01*
X142349738Y-105647372D01*
X142366445Y-105651557D01*
X142382661Y-105657359D01*
X142398230Y-105664723D01*
X142413003Y-105673577D01*
X142426836Y-105683837D01*
X142439597Y-105695403D01*
X142451163Y-105708164D01*
X142461423Y-105721997D01*
X142470277Y-105736770D01*
X142477641Y-105752339D01*
X142483443Y-105768555D01*
X142487628Y-105785262D01*
X142490155Y-105802298D01*
X142491000Y-105819500D01*
X142491000Y-106170500D01*
X142490155Y-106187702D01*
X142487628Y-106204738D01*
X142483443Y-106221445D01*
X142477641Y-106237661D01*
X142470277Y-106253230D01*
X142461423Y-106268003D01*
X142451163Y-106281836D01*
X142439597Y-106294597D01*
X142426836Y-106306163D01*
X142413003Y-106316423D01*
X142398230Y-106325277D01*
X142382661Y-106332641D01*
X142366445Y-106338443D01*
X142349738Y-106342628D01*
X142332702Y-106345155D01*
X142315500Y-106346000D01*
X140614500Y-106346000D01*
X140597298Y-106345155D01*
X140580262Y-106342628D01*
X140563555Y-106338443D01*
X140547339Y-106332641D01*
X140531770Y-106325277D01*
X140516997Y-106316423D01*
X140503164Y-106306163D01*
X140490403Y-106294597D01*
X140478837Y-106281836D01*
X140468577Y-106268003D01*
X140459723Y-106253230D01*
X140452359Y-106237661D01*
X140446557Y-106221445D01*
X140442372Y-106204738D01*
X140439845Y-106187702D01*
X140439000Y-106170500D01*
X140439000Y-105819500D01*
X140439845Y-105802298D01*
X140442372Y-105785262D01*
X140446557Y-105768555D01*
X140452359Y-105752339D01*
X140459723Y-105736770D01*
X140468577Y-105721997D01*
X140478837Y-105708164D01*
X140490403Y-105695403D01*
X140503164Y-105683837D01*
X140516997Y-105673577D01*
X140531770Y-105664723D01*
X140547339Y-105657359D01*
X140563555Y-105651557D01*
X140580262Y-105647372D01*
X140597298Y-105644845D01*
X140614500Y-105644000D01*
X142315500Y-105644000D01*
X142332702Y-105644845D01*
G37*
G36*
X142332702Y-106914845D02*
G01*
X142349738Y-106917372D01*
X142366445Y-106921557D01*
X142382661Y-106927359D01*
X142398230Y-106934723D01*
X142413003Y-106943577D01*
X142426836Y-106953837D01*
X142439597Y-106965403D01*
X142451163Y-106978164D01*
X142461423Y-106991997D01*
X142470277Y-107006770D01*
X142477641Y-107022339D01*
X142483443Y-107038555D01*
X142487628Y-107055262D01*
X142490155Y-107072298D01*
X142491000Y-107089500D01*
X142491000Y-107440500D01*
X142490155Y-107457702D01*
X142487628Y-107474738D01*
X142483443Y-107491445D01*
X142477641Y-107507661D01*
X142470277Y-107523230D01*
X142461423Y-107538003D01*
X142451163Y-107551836D01*
X142439597Y-107564597D01*
X142426836Y-107576163D01*
X142413003Y-107586423D01*
X142398230Y-107595277D01*
X142382661Y-107602641D01*
X142366445Y-107608443D01*
X142349738Y-107612628D01*
X142332702Y-107615155D01*
X142315500Y-107616000D01*
X140614500Y-107616000D01*
X140597298Y-107615155D01*
X140580262Y-107612628D01*
X140563555Y-107608443D01*
X140547339Y-107602641D01*
X140531770Y-107595277D01*
X140516997Y-107586423D01*
X140503164Y-107576163D01*
X140490403Y-107564597D01*
X140478837Y-107551836D01*
X140468577Y-107538003D01*
X140459723Y-107523230D01*
X140452359Y-107507661D01*
X140446557Y-107491445D01*
X140442372Y-107474738D01*
X140439845Y-107457702D01*
X140439000Y-107440500D01*
X140439000Y-107089500D01*
X140439845Y-107072298D01*
X140442372Y-107055262D01*
X140446557Y-107038555D01*
X140452359Y-107022339D01*
X140459723Y-107006770D01*
X140468577Y-106991997D01*
X140478837Y-106978164D01*
X140490403Y-106965403D01*
X140503164Y-106953837D01*
X140516997Y-106943577D01*
X140531770Y-106934723D01*
X140547339Y-106927359D01*
X140563555Y-106921557D01*
X140580262Y-106917372D01*
X140597298Y-106914845D01*
X140614500Y-106914000D01*
X142315500Y-106914000D01*
X142332702Y-106914845D01*
G37*
G36*
X132044957Y-102169833D02*
G01*
X132061751Y-102172324D01*
X132078219Y-102176449D01*
X132094204Y-102182169D01*
X132109552Y-102189428D01*
X132124114Y-102198156D01*
X132137750Y-102208269D01*
X132150329Y-102219671D01*
X132161731Y-102232250D01*
X132171844Y-102245886D01*
X132180572Y-102260448D01*
X132187831Y-102275796D01*
X132193551Y-102291781D01*
X132197676Y-102308249D01*
X132200167Y-102325043D01*
X132201000Y-102342000D01*
X132201000Y-102688000D01*
X132200167Y-102704957D01*
X132197676Y-102721751D01*
X132193551Y-102738219D01*
X132187831Y-102754204D01*
X132180572Y-102769552D01*
X132171844Y-102784114D01*
X132161731Y-102797750D01*
X132150329Y-102810329D01*
X132137750Y-102821731D01*
X132124114Y-102831844D01*
X132109552Y-102840572D01*
X132094204Y-102847831D01*
X132078219Y-102853551D01*
X132061751Y-102857676D01*
X132044957Y-102860167D01*
X132028000Y-102861000D01*
X131632000Y-102861000D01*
X131615043Y-102860167D01*
X131598249Y-102857676D01*
X131581781Y-102853551D01*
X131565796Y-102847831D01*
X131550448Y-102840572D01*
X131535886Y-102831844D01*
X131522250Y-102821731D01*
X131509671Y-102810329D01*
X131498269Y-102797750D01*
X131488156Y-102784114D01*
X131479428Y-102769552D01*
X131472169Y-102754204D01*
X131466449Y-102738219D01*
X131462324Y-102721751D01*
X131459833Y-102704957D01*
X131459000Y-102688000D01*
X131459000Y-102342000D01*
X131459833Y-102325043D01*
X131462324Y-102308249D01*
X131466449Y-102291781D01*
X131472169Y-102275796D01*
X131479428Y-102260448D01*
X131488156Y-102245886D01*
X131498269Y-102232250D01*
X131509671Y-102219671D01*
X131522250Y-102208269D01*
X131535886Y-102198156D01*
X131550448Y-102189428D01*
X131565796Y-102182169D01*
X131581781Y-102176449D01*
X131598249Y-102172324D01*
X131615043Y-102169833D01*
X131632000Y-102169000D01*
X132028000Y-102169000D01*
X132044957Y-102169833D01*
G37*
G36*
X132044957Y-103139833D02*
G01*
X132061751Y-103142324D01*
X132078219Y-103146449D01*
X132094204Y-103152169D01*
X132109552Y-103159428D01*
X132124114Y-103168156D01*
X132137750Y-103178269D01*
X132150329Y-103189671D01*
X132161731Y-103202250D01*
X132171844Y-103215886D01*
X132180572Y-103230448D01*
X132187831Y-103245796D01*
X132193551Y-103261781D01*
X132197676Y-103278249D01*
X132200167Y-103295043D01*
X132201000Y-103312000D01*
X132201000Y-103658000D01*
X132200167Y-103674957D01*
X132197676Y-103691751D01*
X132193551Y-103708219D01*
X132187831Y-103724204D01*
X132180572Y-103739552D01*
X132171844Y-103754114D01*
X132161731Y-103767750D01*
X132150329Y-103780329D01*
X132137750Y-103791731D01*
X132124114Y-103801844D01*
X132109552Y-103810572D01*
X132094204Y-103817831D01*
X132078219Y-103823551D01*
X132061751Y-103827676D01*
X132044957Y-103830167D01*
X132028000Y-103831000D01*
X131632000Y-103831000D01*
X131615043Y-103830167D01*
X131598249Y-103827676D01*
X131581781Y-103823551D01*
X131565796Y-103817831D01*
X131550448Y-103810572D01*
X131535886Y-103801844D01*
X131522250Y-103791731D01*
X131509671Y-103780329D01*
X131498269Y-103767750D01*
X131488156Y-103754114D01*
X131479428Y-103739552D01*
X131472169Y-103724204D01*
X131466449Y-103708219D01*
X131462324Y-103691751D01*
X131459833Y-103674957D01*
X131459000Y-103658000D01*
X131459000Y-103312000D01*
X131459833Y-103295043D01*
X131462324Y-103278249D01*
X131466449Y-103261781D01*
X131472169Y-103245796D01*
X131479428Y-103230448D01*
X131488156Y-103215886D01*
X131498269Y-103202250D01*
X131509671Y-103189671D01*
X131522250Y-103178269D01*
X131535886Y-103168156D01*
X131550448Y-103159428D01*
X131565796Y-103152169D01*
X131581781Y-103146449D01*
X131598249Y-103142324D01*
X131615043Y-103139833D01*
X131632000Y-103139000D01*
X132028000Y-103139000D01*
X132044957Y-103139833D01*
G37*
G36*
X134044957Y-102169833D02*
G01*
X134061751Y-102172324D01*
X134078219Y-102176449D01*
X134094204Y-102182169D01*
X134109552Y-102189428D01*
X134124114Y-102198156D01*
X134137750Y-102208269D01*
X134150329Y-102219671D01*
X134161731Y-102232250D01*
X134171844Y-102245886D01*
X134180572Y-102260448D01*
X134187831Y-102275796D01*
X134193551Y-102291781D01*
X134197676Y-102308249D01*
X134200167Y-102325043D01*
X134201000Y-102342000D01*
X134201000Y-102688000D01*
X134200167Y-102704957D01*
X134197676Y-102721751D01*
X134193551Y-102738219D01*
X134187831Y-102754204D01*
X134180572Y-102769552D01*
X134171844Y-102784114D01*
X134161731Y-102797750D01*
X134150329Y-102810329D01*
X134137750Y-102821731D01*
X134124114Y-102831844D01*
X134109552Y-102840572D01*
X134094204Y-102847831D01*
X134078219Y-102853551D01*
X134061751Y-102857676D01*
X134044957Y-102860167D01*
X134028000Y-102861000D01*
X133632000Y-102861000D01*
X133615043Y-102860167D01*
X133598249Y-102857676D01*
X133581781Y-102853551D01*
X133565796Y-102847831D01*
X133550448Y-102840572D01*
X133535886Y-102831844D01*
X133522250Y-102821731D01*
X133509671Y-102810329D01*
X133498269Y-102797750D01*
X133488156Y-102784114D01*
X133479428Y-102769552D01*
X133472169Y-102754204D01*
X133466449Y-102738219D01*
X133462324Y-102721751D01*
X133459833Y-102704957D01*
X133459000Y-102688000D01*
X133459000Y-102342000D01*
X133459833Y-102325043D01*
X133462324Y-102308249D01*
X133466449Y-102291781D01*
X133472169Y-102275796D01*
X133479428Y-102260448D01*
X133488156Y-102245886D01*
X133498269Y-102232250D01*
X133509671Y-102219671D01*
X133522250Y-102208269D01*
X133535886Y-102198156D01*
X133550448Y-102189428D01*
X133565796Y-102182169D01*
X133581781Y-102176449D01*
X133598249Y-102172324D01*
X133615043Y-102169833D01*
X133632000Y-102169000D01*
X134028000Y-102169000D01*
X134044957Y-102169833D01*
G37*
G36*
X134044957Y-103139833D02*
G01*
X134061751Y-103142324D01*
X134078219Y-103146449D01*
X134094204Y-103152169D01*
X134109552Y-103159428D01*
X134124114Y-103168156D01*
X134137750Y-103178269D01*
X134150329Y-103189671D01*
X134161731Y-103202250D01*
X134171844Y-103215886D01*
X134180572Y-103230448D01*
X134187831Y-103245796D01*
X134193551Y-103261781D01*
X134197676Y-103278249D01*
X134200167Y-103295043D01*
X134201000Y-103312000D01*
X134201000Y-103658000D01*
X134200167Y-103674957D01*
X134197676Y-103691751D01*
X134193551Y-103708219D01*
X134187831Y-103724204D01*
X134180572Y-103739552D01*
X134171844Y-103754114D01*
X134161731Y-103767750D01*
X134150329Y-103780329D01*
X134137750Y-103791731D01*
X134124114Y-103801844D01*
X134109552Y-103810572D01*
X134094204Y-103817831D01*
X134078219Y-103823551D01*
X134061751Y-103827676D01*
X134044957Y-103830167D01*
X134028000Y-103831000D01*
X133632000Y-103831000D01*
X133615043Y-103830167D01*
X133598249Y-103827676D01*
X133581781Y-103823551D01*
X133565796Y-103817831D01*
X133550448Y-103810572D01*
X133535886Y-103801844D01*
X133522250Y-103791731D01*
X133509671Y-103780329D01*
X133498269Y-103767750D01*
X133488156Y-103754114D01*
X133479428Y-103739552D01*
X133472169Y-103724204D01*
X133466449Y-103708219D01*
X133462324Y-103691751D01*
X133459833Y-103674957D01*
X133459000Y-103658000D01*
X133459000Y-103312000D01*
X133459833Y-103295043D01*
X133462324Y-103278249D01*
X133466449Y-103261781D01*
X133472169Y-103245796D01*
X133479428Y-103230448D01*
X133488156Y-103215886D01*
X133498269Y-103202250D01*
X133509671Y-103189671D01*
X133522250Y-103178269D01*
X133535886Y-103168156D01*
X133550448Y-103159428D01*
X133565796Y-103152169D01*
X133581781Y-103146449D01*
X133598249Y-103142324D01*
X133615043Y-103139833D01*
X133632000Y-103139000D01*
X134028000Y-103139000D01*
X134044957Y-103139833D01*
G37*
G36*
X148124957Y-89689833D02*
G01*
X148141751Y-89692324D01*
X148158219Y-89696449D01*
X148174204Y-89702169D01*
X148189552Y-89709428D01*
X148204114Y-89718156D01*
X148217750Y-89728269D01*
X148230329Y-89739671D01*
X148241731Y-89752250D01*
X148251844Y-89765886D01*
X148260572Y-89780448D01*
X148267831Y-89795796D01*
X148273551Y-89811781D01*
X148277676Y-89828249D01*
X148280167Y-89845043D01*
X148281000Y-89862000D01*
X148281000Y-90208000D01*
X148280167Y-90224957D01*
X148277676Y-90241751D01*
X148273551Y-90258219D01*
X148267831Y-90274204D01*
X148260572Y-90289552D01*
X148251844Y-90304114D01*
X148241731Y-90317750D01*
X148230329Y-90330329D01*
X148217750Y-90341731D01*
X148204114Y-90351844D01*
X148189552Y-90360572D01*
X148174204Y-90367831D01*
X148158219Y-90373551D01*
X148141751Y-90377676D01*
X148124957Y-90380167D01*
X148108000Y-90381000D01*
X147712000Y-90381000D01*
X147695043Y-90380167D01*
X147678249Y-90377676D01*
X147661781Y-90373551D01*
X147645796Y-90367831D01*
X147630448Y-90360572D01*
X147615886Y-90351844D01*
X147602250Y-90341731D01*
X147589671Y-90330329D01*
X147578269Y-90317750D01*
X147568156Y-90304114D01*
X147559428Y-90289552D01*
X147552169Y-90274204D01*
X147546449Y-90258219D01*
X147542324Y-90241751D01*
X147539833Y-90224957D01*
X147539000Y-90208000D01*
X147539000Y-89862000D01*
X147539833Y-89845043D01*
X147542324Y-89828249D01*
X147546449Y-89811781D01*
X147552169Y-89795796D01*
X147559428Y-89780448D01*
X147568156Y-89765886D01*
X147578269Y-89752250D01*
X147589671Y-89739671D01*
X147602250Y-89728269D01*
X147615886Y-89718156D01*
X147630448Y-89709428D01*
X147645796Y-89702169D01*
X147661781Y-89696449D01*
X147678249Y-89692324D01*
X147695043Y-89689833D01*
X147712000Y-89689000D01*
X148108000Y-89689000D01*
X148124957Y-89689833D01*
G37*
G36*
X148124957Y-88719833D02*
G01*
X148141751Y-88722324D01*
X148158219Y-88726449D01*
X148174204Y-88732169D01*
X148189552Y-88739428D01*
X148204114Y-88748156D01*
X148217750Y-88758269D01*
X148230329Y-88769671D01*
X148241731Y-88782250D01*
X148251844Y-88795886D01*
X148260572Y-88810448D01*
X148267831Y-88825796D01*
X148273551Y-88841781D01*
X148277676Y-88858249D01*
X148280167Y-88875043D01*
X148281000Y-88892000D01*
X148281000Y-89238000D01*
X148280167Y-89254957D01*
X148277676Y-89271751D01*
X148273551Y-89288219D01*
X148267831Y-89304204D01*
X148260572Y-89319552D01*
X148251844Y-89334114D01*
X148241731Y-89347750D01*
X148230329Y-89360329D01*
X148217750Y-89371731D01*
X148204114Y-89381844D01*
X148189552Y-89390572D01*
X148174204Y-89397831D01*
X148158219Y-89403551D01*
X148141751Y-89407676D01*
X148124957Y-89410167D01*
X148108000Y-89411000D01*
X147712000Y-89411000D01*
X147695043Y-89410167D01*
X147678249Y-89407676D01*
X147661781Y-89403551D01*
X147645796Y-89397831D01*
X147630448Y-89390572D01*
X147615886Y-89381844D01*
X147602250Y-89371731D01*
X147589671Y-89360329D01*
X147578269Y-89347750D01*
X147568156Y-89334114D01*
X147559428Y-89319552D01*
X147552169Y-89304204D01*
X147546449Y-89288219D01*
X147542324Y-89271751D01*
X147539833Y-89254957D01*
X147539000Y-89238000D01*
X147539000Y-88892000D01*
X147539833Y-88875043D01*
X147542324Y-88858249D01*
X147546449Y-88841781D01*
X147552169Y-88825796D01*
X147559428Y-88810448D01*
X147568156Y-88795886D01*
X147578269Y-88782250D01*
X147589671Y-88769671D01*
X147602250Y-88758269D01*
X147615886Y-88748156D01*
X147630448Y-88739428D01*
X147645796Y-88732169D01*
X147661781Y-88726449D01*
X147678249Y-88722324D01*
X147695043Y-88719833D01*
X147712000Y-88719000D01*
X148108000Y-88719000D01*
X148124957Y-88719833D01*
G37*
G36*
X135194957Y-89694833D02*
G01*
X135211751Y-89697324D01*
X135228219Y-89701449D01*
X135244204Y-89707169D01*
X135259552Y-89714428D01*
X135274114Y-89723156D01*
X135287750Y-89733269D01*
X135300329Y-89744671D01*
X135311731Y-89757250D01*
X135321844Y-89770886D01*
X135330572Y-89785448D01*
X135337831Y-89800796D01*
X135343551Y-89816781D01*
X135347676Y-89833249D01*
X135350167Y-89850043D01*
X135351000Y-89867000D01*
X135351000Y-90213000D01*
X135350167Y-90229957D01*
X135347676Y-90246751D01*
X135343551Y-90263219D01*
X135337831Y-90279204D01*
X135330572Y-90294552D01*
X135321844Y-90309114D01*
X135311731Y-90322750D01*
X135300329Y-90335329D01*
X135287750Y-90346731D01*
X135274114Y-90356844D01*
X135259552Y-90365572D01*
X135244204Y-90372831D01*
X135228219Y-90378551D01*
X135211751Y-90382676D01*
X135194957Y-90385167D01*
X135178000Y-90386000D01*
X134782000Y-90386000D01*
X134765043Y-90385167D01*
X134748249Y-90382676D01*
X134731781Y-90378551D01*
X134715796Y-90372831D01*
X134700448Y-90365572D01*
X134685886Y-90356844D01*
X134672250Y-90346731D01*
X134659671Y-90335329D01*
X134648269Y-90322750D01*
X134638156Y-90309114D01*
X134629428Y-90294552D01*
X134622169Y-90279204D01*
X134616449Y-90263219D01*
X134612324Y-90246751D01*
X134609833Y-90229957D01*
X134609000Y-90213000D01*
X134609000Y-89867000D01*
X134609833Y-89850043D01*
X134612324Y-89833249D01*
X134616449Y-89816781D01*
X134622169Y-89800796D01*
X134629428Y-89785448D01*
X134638156Y-89770886D01*
X134648269Y-89757250D01*
X134659671Y-89744671D01*
X134672250Y-89733269D01*
X134685886Y-89723156D01*
X134700448Y-89714428D01*
X134715796Y-89707169D01*
X134731781Y-89701449D01*
X134748249Y-89697324D01*
X134765043Y-89694833D01*
X134782000Y-89694000D01*
X135178000Y-89694000D01*
X135194957Y-89694833D01*
G37*
G36*
X135194957Y-88724833D02*
G01*
X135211751Y-88727324D01*
X135228219Y-88731449D01*
X135244204Y-88737169D01*
X135259552Y-88744428D01*
X135274114Y-88753156D01*
X135287750Y-88763269D01*
X135300329Y-88774671D01*
X135311731Y-88787250D01*
X135321844Y-88800886D01*
X135330572Y-88815448D01*
X135337831Y-88830796D01*
X135343551Y-88846781D01*
X135347676Y-88863249D01*
X135350167Y-88880043D01*
X135351000Y-88897000D01*
X135351000Y-89243000D01*
X135350167Y-89259957D01*
X135347676Y-89276751D01*
X135343551Y-89293219D01*
X135337831Y-89309204D01*
X135330572Y-89324552D01*
X135321844Y-89339114D01*
X135311731Y-89352750D01*
X135300329Y-89365329D01*
X135287750Y-89376731D01*
X135274114Y-89386844D01*
X135259552Y-89395572D01*
X135244204Y-89402831D01*
X135228219Y-89408551D01*
X135211751Y-89412676D01*
X135194957Y-89415167D01*
X135178000Y-89416000D01*
X134782000Y-89416000D01*
X134765043Y-89415167D01*
X134748249Y-89412676D01*
X134731781Y-89408551D01*
X134715796Y-89402831D01*
X134700448Y-89395572D01*
X134685886Y-89386844D01*
X134672250Y-89376731D01*
X134659671Y-89365329D01*
X134648269Y-89352750D01*
X134638156Y-89339114D01*
X134629428Y-89324552D01*
X134622169Y-89309204D01*
X134616449Y-89293219D01*
X134612324Y-89276751D01*
X134609833Y-89259957D01*
X134609000Y-89243000D01*
X134609000Y-88897000D01*
X134609833Y-88880043D01*
X134612324Y-88863249D01*
X134616449Y-88846781D01*
X134622169Y-88830796D01*
X134629428Y-88815448D01*
X134638156Y-88800886D01*
X134648269Y-88787250D01*
X134659671Y-88774671D01*
X134672250Y-88763269D01*
X134685886Y-88753156D01*
X134700448Y-88744428D01*
X134715796Y-88737169D01*
X134731781Y-88731449D01*
X134748249Y-88727324D01*
X134765043Y-88724833D01*
X134782000Y-88724000D01*
X135178000Y-88724000D01*
X135194957Y-88724833D01*
G37*
D27*
X131830000Y-105690000D03*
X133830000Y-104740000D03*
X133830000Y-106640000D03*
X133830000Y-100320000D03*
X131830000Y-101270000D03*
X131830000Y-99370000D03*
D13*
G36*
X134044957Y-107659833D02*
G01*
X134061751Y-107662324D01*
X134078219Y-107666449D01*
X134094204Y-107672169D01*
X134109552Y-107679428D01*
X134124114Y-107688156D01*
X134137750Y-107698269D01*
X134150329Y-107709671D01*
X134161731Y-107722250D01*
X134171844Y-107735886D01*
X134180572Y-107750448D01*
X134187831Y-107765796D01*
X134193551Y-107781781D01*
X134197676Y-107798249D01*
X134200167Y-107815043D01*
X134201000Y-107832000D01*
X134201000Y-108228000D01*
X134200167Y-108244957D01*
X134197676Y-108261751D01*
X134193551Y-108278219D01*
X134187831Y-108294204D01*
X134180572Y-108309552D01*
X134171844Y-108324114D01*
X134161731Y-108337750D01*
X134150329Y-108350329D01*
X134137750Y-108361731D01*
X134124114Y-108371844D01*
X134109552Y-108380572D01*
X134094204Y-108387831D01*
X134078219Y-108393551D01*
X134061751Y-108397676D01*
X134044957Y-108400167D01*
X134028000Y-108401000D01*
X133682000Y-108401000D01*
X133665043Y-108400167D01*
X133648249Y-108397676D01*
X133631781Y-108393551D01*
X133615796Y-108387831D01*
X133600448Y-108380572D01*
X133585886Y-108371844D01*
X133572250Y-108361731D01*
X133559671Y-108350329D01*
X133548269Y-108337750D01*
X133538156Y-108324114D01*
X133529428Y-108309552D01*
X133522169Y-108294204D01*
X133516449Y-108278219D01*
X133512324Y-108261751D01*
X133509833Y-108244957D01*
X133509000Y-108228000D01*
X133509000Y-107832000D01*
X133509833Y-107815043D01*
X133512324Y-107798249D01*
X133516449Y-107781781D01*
X133522169Y-107765796D01*
X133529428Y-107750448D01*
X133538156Y-107735886D01*
X133548269Y-107722250D01*
X133559671Y-107709671D01*
X133572250Y-107698269D01*
X133585886Y-107688156D01*
X133600448Y-107679428D01*
X133615796Y-107672169D01*
X133631781Y-107666449D01*
X133648249Y-107662324D01*
X133665043Y-107659833D01*
X133682000Y-107659000D01*
X134028000Y-107659000D01*
X134044957Y-107659833D01*
G37*
G36*
X133074957Y-107659833D02*
G01*
X133091751Y-107662324D01*
X133108219Y-107666449D01*
X133124204Y-107672169D01*
X133139552Y-107679428D01*
X133154114Y-107688156D01*
X133167750Y-107698269D01*
X133180329Y-107709671D01*
X133191731Y-107722250D01*
X133201844Y-107735886D01*
X133210572Y-107750448D01*
X133217831Y-107765796D01*
X133223551Y-107781781D01*
X133227676Y-107798249D01*
X133230167Y-107815043D01*
X133231000Y-107832000D01*
X133231000Y-108228000D01*
X133230167Y-108244957D01*
X133227676Y-108261751D01*
X133223551Y-108278219D01*
X133217831Y-108294204D01*
X133210572Y-108309552D01*
X133201844Y-108324114D01*
X133191731Y-108337750D01*
X133180329Y-108350329D01*
X133167750Y-108361731D01*
X133154114Y-108371844D01*
X133139552Y-108380572D01*
X133124204Y-108387831D01*
X133108219Y-108393551D01*
X133091751Y-108397676D01*
X133074957Y-108400167D01*
X133058000Y-108401000D01*
X132712000Y-108401000D01*
X132695043Y-108400167D01*
X132678249Y-108397676D01*
X132661781Y-108393551D01*
X132645796Y-108387831D01*
X132630448Y-108380572D01*
X132615886Y-108371844D01*
X132602250Y-108361731D01*
X132589671Y-108350329D01*
X132578269Y-108337750D01*
X132568156Y-108324114D01*
X132559428Y-108309552D01*
X132552169Y-108294204D01*
X132546449Y-108278219D01*
X132542324Y-108261751D01*
X132539833Y-108244957D01*
X132539000Y-108228000D01*
X132539000Y-107832000D01*
X132539833Y-107815043D01*
X132542324Y-107798249D01*
X132546449Y-107781781D01*
X132552169Y-107765796D01*
X132559428Y-107750448D01*
X132568156Y-107735886D01*
X132578269Y-107722250D01*
X132589671Y-107709671D01*
X132602250Y-107698269D01*
X132615886Y-107688156D01*
X132630448Y-107679428D01*
X132645796Y-107672169D01*
X132661781Y-107666449D01*
X132678249Y-107662324D01*
X132695043Y-107659833D01*
X132712000Y-107659000D01*
X133058000Y-107659000D01*
X133074957Y-107659833D01*
G37*
G36*
X135769957Y-108419833D02*
G01*
X135786751Y-108422324D01*
X135803219Y-108426449D01*
X135819204Y-108432169D01*
X135834552Y-108439428D01*
X135849114Y-108448156D01*
X135862750Y-108458269D01*
X135875329Y-108469671D01*
X135886731Y-108482250D01*
X135896844Y-108495886D01*
X135905572Y-108510448D01*
X135912831Y-108525796D01*
X135918551Y-108541781D01*
X135922676Y-108558249D01*
X135925167Y-108575043D01*
X135926000Y-108592000D01*
X135926000Y-108988000D01*
X135925167Y-109004957D01*
X135922676Y-109021751D01*
X135918551Y-109038219D01*
X135912831Y-109054204D01*
X135905572Y-109069552D01*
X135896844Y-109084114D01*
X135886731Y-109097750D01*
X135875329Y-109110329D01*
X135862750Y-109121731D01*
X135849114Y-109131844D01*
X135834552Y-109140572D01*
X135819204Y-109147831D01*
X135803219Y-109153551D01*
X135786751Y-109157676D01*
X135769957Y-109160167D01*
X135753000Y-109161000D01*
X135407000Y-109161000D01*
X135390043Y-109160167D01*
X135373249Y-109157676D01*
X135356781Y-109153551D01*
X135340796Y-109147831D01*
X135325448Y-109140572D01*
X135310886Y-109131844D01*
X135297250Y-109121731D01*
X135284671Y-109110329D01*
X135273269Y-109097750D01*
X135263156Y-109084114D01*
X135254428Y-109069552D01*
X135247169Y-109054204D01*
X135241449Y-109038219D01*
X135237324Y-109021751D01*
X135234833Y-109004957D01*
X135234000Y-108988000D01*
X135234000Y-108592000D01*
X135234833Y-108575043D01*
X135237324Y-108558249D01*
X135241449Y-108541781D01*
X135247169Y-108525796D01*
X135254428Y-108510448D01*
X135263156Y-108495886D01*
X135273269Y-108482250D01*
X135284671Y-108469671D01*
X135297250Y-108458269D01*
X135310886Y-108448156D01*
X135325448Y-108439428D01*
X135340796Y-108432169D01*
X135356781Y-108426449D01*
X135373249Y-108422324D01*
X135390043Y-108419833D01*
X135407000Y-108419000D01*
X135753000Y-108419000D01*
X135769957Y-108419833D01*
G37*
G36*
X136739957Y-108419833D02*
G01*
X136756751Y-108422324D01*
X136773219Y-108426449D01*
X136789204Y-108432169D01*
X136804552Y-108439428D01*
X136819114Y-108448156D01*
X136832750Y-108458269D01*
X136845329Y-108469671D01*
X136856731Y-108482250D01*
X136866844Y-108495886D01*
X136875572Y-108510448D01*
X136882831Y-108525796D01*
X136888551Y-108541781D01*
X136892676Y-108558249D01*
X136895167Y-108575043D01*
X136896000Y-108592000D01*
X136896000Y-108988000D01*
X136895167Y-109004957D01*
X136892676Y-109021751D01*
X136888551Y-109038219D01*
X136882831Y-109054204D01*
X136875572Y-109069552D01*
X136866844Y-109084114D01*
X136856731Y-109097750D01*
X136845329Y-109110329D01*
X136832750Y-109121731D01*
X136819114Y-109131844D01*
X136804552Y-109140572D01*
X136789204Y-109147831D01*
X136773219Y-109153551D01*
X136756751Y-109157676D01*
X136739957Y-109160167D01*
X136723000Y-109161000D01*
X136377000Y-109161000D01*
X136360043Y-109160167D01*
X136343249Y-109157676D01*
X136326781Y-109153551D01*
X136310796Y-109147831D01*
X136295448Y-109140572D01*
X136280886Y-109131844D01*
X136267250Y-109121731D01*
X136254671Y-109110329D01*
X136243269Y-109097750D01*
X136233156Y-109084114D01*
X136224428Y-109069552D01*
X136217169Y-109054204D01*
X136211449Y-109038219D01*
X136207324Y-109021751D01*
X136204833Y-109004957D01*
X136204000Y-108988000D01*
X136204000Y-108592000D01*
X136204833Y-108575043D01*
X136207324Y-108558249D01*
X136211449Y-108541781D01*
X136217169Y-108525796D01*
X136224428Y-108510448D01*
X136233156Y-108495886D01*
X136243269Y-108482250D01*
X136254671Y-108469671D01*
X136267250Y-108458269D01*
X136280886Y-108448156D01*
X136295448Y-108439428D01*
X136310796Y-108432169D01*
X136326781Y-108426449D01*
X136343249Y-108422324D01*
X136360043Y-108419833D01*
X136377000Y-108419000D01*
X136723000Y-108419000D01*
X136739957Y-108419833D01*
G37*
G36*
X149365641Y-108460297D02*
G01*
X149391778Y-108464174D01*
X149417409Y-108470594D01*
X149442288Y-108479495D01*
X149466174Y-108490793D01*
X149488837Y-108504377D01*
X149510060Y-108520117D01*
X149529639Y-108537861D01*
X149547383Y-108557440D01*
X149563123Y-108578663D01*
X149576707Y-108601326D01*
X149588005Y-108625212D01*
X149596906Y-108650091D01*
X149603326Y-108675722D01*
X149607203Y-108701859D01*
X149608500Y-108728250D01*
X149608500Y-109691750D01*
X149607203Y-109718141D01*
X149603326Y-109744278D01*
X149596906Y-109769909D01*
X149588005Y-109794788D01*
X149576707Y-109818674D01*
X149563123Y-109841337D01*
X149547383Y-109862560D01*
X149529639Y-109882139D01*
X149510060Y-109899883D01*
X149488837Y-109915623D01*
X149466174Y-109929207D01*
X149442288Y-109940505D01*
X149417409Y-109949406D01*
X149391778Y-109955826D01*
X149365641Y-109959703D01*
X149339250Y-109961000D01*
X148800750Y-109961000D01*
X148774359Y-109959703D01*
X148748222Y-109955826D01*
X148722591Y-109949406D01*
X148697712Y-109940505D01*
X148673826Y-109929207D01*
X148651163Y-109915623D01*
X148629940Y-109899883D01*
X148610361Y-109882139D01*
X148592617Y-109862560D01*
X148576877Y-109841337D01*
X148563293Y-109818674D01*
X148551995Y-109794788D01*
X148543094Y-109769909D01*
X148536674Y-109744278D01*
X148532797Y-109718141D01*
X148531500Y-109691750D01*
X148531500Y-108728250D01*
X148532797Y-108701859D01*
X148536674Y-108675722D01*
X148543094Y-108650091D01*
X148551995Y-108625212D01*
X148563293Y-108601326D01*
X148576877Y-108578663D01*
X148592617Y-108557440D01*
X148610361Y-108537861D01*
X148629940Y-108520117D01*
X148651163Y-108504377D01*
X148673826Y-108490793D01*
X148697712Y-108479495D01*
X148722591Y-108470594D01*
X148748222Y-108464174D01*
X148774359Y-108460297D01*
X148800750Y-108459000D01*
X149339250Y-108459000D01*
X149365641Y-108460297D01*
G37*
G36*
X147490641Y-108460297D02*
G01*
X147516778Y-108464174D01*
X147542409Y-108470594D01*
X147567288Y-108479495D01*
X147591174Y-108490793D01*
X147613837Y-108504377D01*
X147635060Y-108520117D01*
X147654639Y-108537861D01*
X147672383Y-108557440D01*
X147688123Y-108578663D01*
X147701707Y-108601326D01*
X147713005Y-108625212D01*
X147721906Y-108650091D01*
X147728326Y-108675722D01*
X147732203Y-108701859D01*
X147733500Y-108728250D01*
X147733500Y-109691750D01*
X147732203Y-109718141D01*
X147728326Y-109744278D01*
X147721906Y-109769909D01*
X147713005Y-109794788D01*
X147701707Y-109818674D01*
X147688123Y-109841337D01*
X147672383Y-109862560D01*
X147654639Y-109882139D01*
X147635060Y-109899883D01*
X147613837Y-109915623D01*
X147591174Y-109929207D01*
X147567288Y-109940505D01*
X147542409Y-109949406D01*
X147516778Y-109955826D01*
X147490641Y-109959703D01*
X147464250Y-109961000D01*
X146925750Y-109961000D01*
X146899359Y-109959703D01*
X146873222Y-109955826D01*
X146847591Y-109949406D01*
X146822712Y-109940505D01*
X146798826Y-109929207D01*
X146776163Y-109915623D01*
X146754940Y-109899883D01*
X146735361Y-109882139D01*
X146717617Y-109862560D01*
X146701877Y-109841337D01*
X146688293Y-109818674D01*
X146676995Y-109794788D01*
X146668094Y-109769909D01*
X146661674Y-109744278D01*
X146657797Y-109718141D01*
X146656500Y-109691750D01*
X146656500Y-108728250D01*
X146657797Y-108701859D01*
X146661674Y-108675722D01*
X146668094Y-108650091D01*
X146676995Y-108625212D01*
X146688293Y-108601326D01*
X146701877Y-108578663D01*
X146717617Y-108557440D01*
X146735361Y-108537861D01*
X146754940Y-108520117D01*
X146776163Y-108504377D01*
X146798826Y-108490793D01*
X146822712Y-108479495D01*
X146847591Y-108470594D01*
X146873222Y-108464174D01*
X146899359Y-108460297D01*
X146925750Y-108459000D01*
X147464250Y-108459000D01*
X147490641Y-108460297D01*
G37*
M02*
