G04 #@! TF.GenerationSoftware,KiCad,Pcbnew,5.1.5+dfsg1-2build2*
G04 #@! TF.CreationDate,2021-12-02T15:55:02+01:00*
G04 #@! TF.ProjectId,Daugter_board,44617567-7465-4725-9f62-6f6172642e6b,rev?*
G04 #@! TF.SameCoordinates,Original*
G04 #@! TF.FileFunction,Soldermask,Bot*
G04 #@! TF.FilePolarity,Negative*
%FSLAX46Y46*%
G04 Gerber Fmt 4.6, Leading zero omitted, Abs format (unit mm)*
G04 Created by KiCad (PCBNEW 5.1.5+dfsg1-2build2) date 2021-12-02 15:55:02*
%MOMM*%
%LPD*%
G04 APERTURE LIST*
%ADD10C,0.100726*%
%ADD11C,0.100000*%
G04 APERTURE END LIST*
D10*
G36*
X144153299Y-97699419D02*
G01*
X144153299Y-108159637D01*
X151330036Y-108159637D01*
X151330036Y-97699419D01*
X144153299Y-97699419D01*
G37*
X144153299Y-97699419D02*
X144153299Y-108159637D01*
X151330036Y-108159637D01*
X151330036Y-97699419D01*
X144153299Y-97699419D01*
D11*
G36*
X154423512Y-115713927D02*
G01*
X154572812Y-115743624D01*
X154736784Y-115811544D01*
X154884354Y-115910147D01*
X155009853Y-116035646D01*
X155108456Y-116183216D01*
X155176376Y-116347188D01*
X155211000Y-116521259D01*
X155211000Y-116698741D01*
X155176376Y-116872812D01*
X155108456Y-117036784D01*
X155009853Y-117184354D01*
X154884354Y-117309853D01*
X154736784Y-117408456D01*
X154572812Y-117476376D01*
X154423512Y-117506073D01*
X154398742Y-117511000D01*
X154221258Y-117511000D01*
X154196488Y-117506073D01*
X154047188Y-117476376D01*
X153883216Y-117408456D01*
X153735646Y-117309853D01*
X153610147Y-117184354D01*
X153511544Y-117036784D01*
X153443624Y-116872812D01*
X153409000Y-116698741D01*
X153409000Y-116521259D01*
X153443624Y-116347188D01*
X153511544Y-116183216D01*
X153610147Y-116035646D01*
X153735646Y-115910147D01*
X153883216Y-115811544D01*
X154047188Y-115743624D01*
X154196488Y-115713927D01*
X154221258Y-115709000D01*
X154398742Y-115709000D01*
X154423512Y-115713927D01*
G37*
G36*
X154423512Y-113173927D02*
G01*
X154572812Y-113203624D01*
X154736784Y-113271544D01*
X154884354Y-113370147D01*
X155009853Y-113495646D01*
X155108456Y-113643216D01*
X155176376Y-113807188D01*
X155211000Y-113981259D01*
X155211000Y-114158741D01*
X155176376Y-114332812D01*
X155108456Y-114496784D01*
X155009853Y-114644354D01*
X154884354Y-114769853D01*
X154736784Y-114868456D01*
X154572812Y-114936376D01*
X154423512Y-114966073D01*
X154398742Y-114971000D01*
X154221258Y-114971000D01*
X154196488Y-114966073D01*
X154047188Y-114936376D01*
X153883216Y-114868456D01*
X153735646Y-114769853D01*
X153610147Y-114644354D01*
X153511544Y-114496784D01*
X153443624Y-114332812D01*
X153409000Y-114158741D01*
X153409000Y-113981259D01*
X153443624Y-113807188D01*
X153511544Y-113643216D01*
X153610147Y-113495646D01*
X153735646Y-113370147D01*
X153883216Y-113271544D01*
X154047188Y-113203624D01*
X154196488Y-113173927D01*
X154221258Y-113169000D01*
X154398742Y-113169000D01*
X154423512Y-113173927D01*
G37*
G36*
X154421988Y-110633624D02*
G01*
X154572812Y-110663624D01*
X154736784Y-110731544D01*
X154884354Y-110830147D01*
X155009853Y-110955646D01*
X155108456Y-111103216D01*
X155176376Y-111267188D01*
X155211000Y-111441259D01*
X155211000Y-111618741D01*
X155176376Y-111792812D01*
X155108456Y-111956784D01*
X155009853Y-112104354D01*
X154884354Y-112229853D01*
X154736784Y-112328456D01*
X154572812Y-112396376D01*
X154423512Y-112426073D01*
X154398742Y-112431000D01*
X154221258Y-112431000D01*
X154196488Y-112426073D01*
X154047188Y-112396376D01*
X153883216Y-112328456D01*
X153735646Y-112229853D01*
X153610147Y-112104354D01*
X153511544Y-111956784D01*
X153443624Y-111792812D01*
X153409000Y-111618741D01*
X153409000Y-111441259D01*
X153443624Y-111267188D01*
X153511544Y-111103216D01*
X153610147Y-110955646D01*
X153735646Y-110830147D01*
X153883216Y-110731544D01*
X154047188Y-110663624D01*
X154198012Y-110633624D01*
X154221258Y-110629000D01*
X154398742Y-110629000D01*
X154421988Y-110633624D01*
G37*
G36*
X139113512Y-110603927D02*
G01*
X139262812Y-110633624D01*
X139426784Y-110701544D01*
X139574354Y-110800147D01*
X139699853Y-110925646D01*
X139798456Y-111073216D01*
X139866376Y-111237188D01*
X139901000Y-111411259D01*
X139901000Y-111588741D01*
X139866376Y-111762812D01*
X139798456Y-111926784D01*
X139699853Y-112074354D01*
X139574354Y-112199853D01*
X139426784Y-112298456D01*
X139262812Y-112366376D01*
X139113512Y-112396073D01*
X139088742Y-112401000D01*
X138911258Y-112401000D01*
X138886488Y-112396073D01*
X138737188Y-112366376D01*
X138573216Y-112298456D01*
X138425646Y-112199853D01*
X138300147Y-112074354D01*
X138201544Y-111926784D01*
X138133624Y-111762812D01*
X138099000Y-111588741D01*
X138099000Y-111411259D01*
X138133624Y-111237188D01*
X138201544Y-111073216D01*
X138300147Y-110925646D01*
X138425646Y-110800147D01*
X138573216Y-110701544D01*
X138737188Y-110633624D01*
X138886488Y-110603927D01*
X138911258Y-110599000D01*
X139088742Y-110599000D01*
X139113512Y-110603927D01*
G37*
G36*
X132281000Y-112401000D02*
G01*
X130479000Y-112401000D01*
X130479000Y-110599000D01*
X132281000Y-110599000D01*
X132281000Y-112401000D01*
G37*
G36*
X134033512Y-110603927D02*
G01*
X134182812Y-110633624D01*
X134346784Y-110701544D01*
X134494354Y-110800147D01*
X134619853Y-110925646D01*
X134718456Y-111073216D01*
X134786376Y-111237188D01*
X134821000Y-111411259D01*
X134821000Y-111588741D01*
X134786376Y-111762812D01*
X134718456Y-111926784D01*
X134619853Y-112074354D01*
X134494354Y-112199853D01*
X134346784Y-112298456D01*
X134182812Y-112366376D01*
X134033512Y-112396073D01*
X134008742Y-112401000D01*
X133831258Y-112401000D01*
X133806488Y-112396073D01*
X133657188Y-112366376D01*
X133493216Y-112298456D01*
X133345646Y-112199853D01*
X133220147Y-112074354D01*
X133121544Y-111926784D01*
X133053624Y-111762812D01*
X133019000Y-111588741D01*
X133019000Y-111411259D01*
X133053624Y-111237188D01*
X133121544Y-111073216D01*
X133220147Y-110925646D01*
X133345646Y-110800147D01*
X133493216Y-110701544D01*
X133657188Y-110633624D01*
X133806488Y-110603927D01*
X133831258Y-110599000D01*
X134008742Y-110599000D01*
X134033512Y-110603927D01*
G37*
G36*
X136573512Y-110603927D02*
G01*
X136722812Y-110633624D01*
X136886784Y-110701544D01*
X137034354Y-110800147D01*
X137159853Y-110925646D01*
X137258456Y-111073216D01*
X137326376Y-111237188D01*
X137361000Y-111411259D01*
X137361000Y-111588741D01*
X137326376Y-111762812D01*
X137258456Y-111926784D01*
X137159853Y-112074354D01*
X137034354Y-112199853D01*
X136886784Y-112298456D01*
X136722812Y-112366376D01*
X136573512Y-112396073D01*
X136548742Y-112401000D01*
X136371258Y-112401000D01*
X136346488Y-112396073D01*
X136197188Y-112366376D01*
X136033216Y-112298456D01*
X135885646Y-112199853D01*
X135760147Y-112074354D01*
X135661544Y-111926784D01*
X135593624Y-111762812D01*
X135559000Y-111588741D01*
X135559000Y-111411259D01*
X135593624Y-111237188D01*
X135661544Y-111073216D01*
X135760147Y-110925646D01*
X135885646Y-110800147D01*
X136033216Y-110701544D01*
X136197188Y-110633624D01*
X136346488Y-110603927D01*
X136371258Y-110599000D01*
X136548742Y-110599000D01*
X136573512Y-110603927D01*
G37*
G36*
X141653512Y-110603927D02*
G01*
X141802812Y-110633624D01*
X141966784Y-110701544D01*
X142114354Y-110800147D01*
X142239853Y-110925646D01*
X142338456Y-111073216D01*
X142406376Y-111237188D01*
X142441000Y-111411259D01*
X142441000Y-111588741D01*
X142406376Y-111762812D01*
X142338456Y-111926784D01*
X142239853Y-112074354D01*
X142114354Y-112199853D01*
X141966784Y-112298456D01*
X141802812Y-112366376D01*
X141653512Y-112396073D01*
X141628742Y-112401000D01*
X141451258Y-112401000D01*
X141426488Y-112396073D01*
X141277188Y-112366376D01*
X141113216Y-112298456D01*
X140965646Y-112199853D01*
X140840147Y-112074354D01*
X140741544Y-111926784D01*
X140673624Y-111762812D01*
X140639000Y-111588741D01*
X140639000Y-111411259D01*
X140673624Y-111237188D01*
X140741544Y-111073216D01*
X140840147Y-110925646D01*
X140965646Y-110800147D01*
X141113216Y-110701544D01*
X141277188Y-110633624D01*
X141426488Y-110603927D01*
X141451258Y-110599000D01*
X141628742Y-110599000D01*
X141653512Y-110603927D01*
G37*
G36*
X144193512Y-110603927D02*
G01*
X144342812Y-110633624D01*
X144506784Y-110701544D01*
X144654354Y-110800147D01*
X144779853Y-110925646D01*
X144878456Y-111073216D01*
X144946376Y-111237188D01*
X144981000Y-111411259D01*
X144981000Y-111588741D01*
X144946376Y-111762812D01*
X144878456Y-111926784D01*
X144779853Y-112074354D01*
X144654354Y-112199853D01*
X144506784Y-112298456D01*
X144342812Y-112366376D01*
X144193512Y-112396073D01*
X144168742Y-112401000D01*
X143991258Y-112401000D01*
X143966488Y-112396073D01*
X143817188Y-112366376D01*
X143653216Y-112298456D01*
X143505646Y-112199853D01*
X143380147Y-112074354D01*
X143281544Y-111926784D01*
X143213624Y-111762812D01*
X143179000Y-111588741D01*
X143179000Y-111411259D01*
X143213624Y-111237188D01*
X143281544Y-111073216D01*
X143380147Y-110925646D01*
X143505646Y-110800147D01*
X143653216Y-110701544D01*
X143817188Y-110633624D01*
X143966488Y-110603927D01*
X143991258Y-110599000D01*
X144168742Y-110599000D01*
X144193512Y-110603927D01*
G37*
G36*
X154423512Y-108093927D02*
G01*
X154572812Y-108123624D01*
X154736784Y-108191544D01*
X154884354Y-108290147D01*
X155009853Y-108415646D01*
X155108456Y-108563216D01*
X155176376Y-108727188D01*
X155211000Y-108901259D01*
X155211000Y-109078741D01*
X155176376Y-109252812D01*
X155108456Y-109416784D01*
X155009853Y-109564354D01*
X154884354Y-109689853D01*
X154736784Y-109788456D01*
X154572812Y-109856376D01*
X154423512Y-109886073D01*
X154398742Y-109891000D01*
X154221258Y-109891000D01*
X154196488Y-109886073D01*
X154047188Y-109856376D01*
X153883216Y-109788456D01*
X153735646Y-109689853D01*
X153610147Y-109564354D01*
X153511544Y-109416784D01*
X153443624Y-109252812D01*
X153409000Y-109078741D01*
X153409000Y-108901259D01*
X153443624Y-108727188D01*
X153511544Y-108563216D01*
X153610147Y-108415646D01*
X153735646Y-108290147D01*
X153883216Y-108191544D01*
X154047188Y-108123624D01*
X154196488Y-108093927D01*
X154221258Y-108089000D01*
X154398742Y-108089000D01*
X154423512Y-108093927D01*
G37*
G36*
X154423512Y-105553927D02*
G01*
X154572812Y-105583624D01*
X154736784Y-105651544D01*
X154884354Y-105750147D01*
X155009853Y-105875646D01*
X155108456Y-106023216D01*
X155176376Y-106187188D01*
X155211000Y-106361259D01*
X155211000Y-106538741D01*
X155176376Y-106712812D01*
X155108456Y-106876784D01*
X155009853Y-107024354D01*
X154884354Y-107149853D01*
X154736784Y-107248456D01*
X154572812Y-107316376D01*
X154423512Y-107346073D01*
X154398742Y-107351000D01*
X154221258Y-107351000D01*
X154196488Y-107346073D01*
X154047188Y-107316376D01*
X153883216Y-107248456D01*
X153735646Y-107149853D01*
X153610147Y-107024354D01*
X153511544Y-106876784D01*
X153443624Y-106712812D01*
X153409000Y-106538741D01*
X153409000Y-106361259D01*
X153443624Y-106187188D01*
X153511544Y-106023216D01*
X153610147Y-105875646D01*
X153735646Y-105750147D01*
X153883216Y-105651544D01*
X154047188Y-105583624D01*
X154196488Y-105553927D01*
X154221258Y-105549000D01*
X154398742Y-105549000D01*
X154423512Y-105553927D01*
G37*
G36*
X155211000Y-104811000D02*
G01*
X153409000Y-104811000D01*
X153409000Y-103009000D01*
X155211000Y-103009000D01*
X155211000Y-104811000D01*
G37*
G36*
X137208015Y-89991973D02*
G01*
X137311879Y-90023479D01*
X137339055Y-90038005D01*
X137407600Y-90074643D01*
X137491501Y-90143499D01*
X137560357Y-90227400D01*
X137579354Y-90262942D01*
X137611521Y-90323121D01*
X137643027Y-90426985D01*
X137651000Y-90507933D01*
X137651000Y-91662067D01*
X137643027Y-91743015D01*
X137611521Y-91846879D01*
X137560356Y-91942600D01*
X137491501Y-92026501D01*
X137422645Y-92083009D01*
X137407599Y-92095357D01*
X137355907Y-92122987D01*
X137311878Y-92146521D01*
X137208014Y-92178027D01*
X137100000Y-92188666D01*
X136991985Y-92178027D01*
X136888121Y-92146521D01*
X136844093Y-92122987D01*
X136792401Y-92095357D01*
X136779643Y-92084887D01*
X136708499Y-92026501D01*
X136639644Y-91942600D01*
X136588479Y-91846878D01*
X136556973Y-91743014D01*
X136549000Y-91662066D01*
X136549001Y-90507933D01*
X136556974Y-90426985D01*
X136588480Y-90323121D01*
X136620647Y-90262942D01*
X136639644Y-90227400D01*
X136708500Y-90143499D01*
X136792401Y-90074643D01*
X136860946Y-90038005D01*
X136888122Y-90023479D01*
X136991986Y-89991973D01*
X137100000Y-89981334D01*
X137208015Y-89991973D01*
G37*
G36*
X145848015Y-89991973D02*
G01*
X145951879Y-90023479D01*
X145979055Y-90038005D01*
X146047600Y-90074643D01*
X146131501Y-90143499D01*
X146200357Y-90227400D01*
X146219354Y-90262942D01*
X146251521Y-90323121D01*
X146283027Y-90426985D01*
X146291000Y-90507933D01*
X146291000Y-91662067D01*
X146283027Y-91743015D01*
X146251521Y-91846879D01*
X146200356Y-91942600D01*
X146131501Y-92026501D01*
X146062645Y-92083009D01*
X146047599Y-92095357D01*
X145995907Y-92122987D01*
X145951878Y-92146521D01*
X145848014Y-92178027D01*
X145740000Y-92188666D01*
X145631985Y-92178027D01*
X145528121Y-92146521D01*
X145484093Y-92122987D01*
X145432401Y-92095357D01*
X145419643Y-92084887D01*
X145348499Y-92026501D01*
X145279644Y-91942600D01*
X145228479Y-91846878D01*
X145196973Y-91743014D01*
X145189000Y-91662066D01*
X145189001Y-90507933D01*
X145196974Y-90426985D01*
X145228480Y-90323121D01*
X145260647Y-90262942D01*
X145279644Y-90227400D01*
X145348500Y-90143499D01*
X145432401Y-90074643D01*
X145500946Y-90038005D01*
X145528122Y-90023479D01*
X145631986Y-89991973D01*
X145740000Y-89981334D01*
X145848015Y-89991973D01*
G37*
G36*
X138639672Y-90193449D02*
G01*
X138639674Y-90193450D01*
X138639675Y-90193450D01*
X138708103Y-90221793D01*
X138769686Y-90262942D01*
X138822058Y-90315314D01*
X138863207Y-90376897D01*
X138891550Y-90445325D01*
X138906000Y-90517967D01*
X138906000Y-90592033D01*
X138891550Y-90664675D01*
X138863207Y-90733103D01*
X138822058Y-90794686D01*
X138769686Y-90847058D01*
X138708103Y-90888207D01*
X138639675Y-90916550D01*
X138639674Y-90916550D01*
X138639672Y-90916551D01*
X138567034Y-90931000D01*
X138492966Y-90931000D01*
X138420328Y-90916551D01*
X138420326Y-90916550D01*
X138420325Y-90916550D01*
X138351897Y-90888207D01*
X138290314Y-90847058D01*
X138237942Y-90794686D01*
X138196793Y-90733103D01*
X138168450Y-90664675D01*
X138154000Y-90592033D01*
X138154000Y-90517967D01*
X138168450Y-90445325D01*
X138196793Y-90376897D01*
X138237942Y-90315314D01*
X138290314Y-90262942D01*
X138351897Y-90221793D01*
X138420325Y-90193450D01*
X138420326Y-90193450D01*
X138420328Y-90193449D01*
X138492966Y-90179000D01*
X138567034Y-90179000D01*
X138639672Y-90193449D01*
G37*
G36*
X144419672Y-90193449D02*
G01*
X144419674Y-90193450D01*
X144419675Y-90193450D01*
X144488103Y-90221793D01*
X144549686Y-90262942D01*
X144602058Y-90315314D01*
X144643207Y-90376897D01*
X144671550Y-90445325D01*
X144686000Y-90517967D01*
X144686000Y-90592033D01*
X144671550Y-90664675D01*
X144643207Y-90733103D01*
X144602058Y-90794686D01*
X144549686Y-90847058D01*
X144488103Y-90888207D01*
X144419675Y-90916550D01*
X144419674Y-90916550D01*
X144419672Y-90916551D01*
X144347034Y-90931000D01*
X144272966Y-90931000D01*
X144200328Y-90916551D01*
X144200326Y-90916550D01*
X144200325Y-90916550D01*
X144131897Y-90888207D01*
X144070314Y-90847058D01*
X144017942Y-90794686D01*
X143976793Y-90733103D01*
X143948450Y-90664675D01*
X143934000Y-90592033D01*
X143934000Y-90517967D01*
X143948450Y-90445325D01*
X143976793Y-90376897D01*
X144017942Y-90315314D01*
X144070314Y-90262942D01*
X144131897Y-90221793D01*
X144200325Y-90193450D01*
X144200326Y-90193450D01*
X144200328Y-90193449D01*
X144272966Y-90179000D01*
X144347034Y-90179000D01*
X144419672Y-90193449D01*
G37*
G36*
X137208015Y-86061973D02*
G01*
X137311879Y-86093479D01*
X137339055Y-86108005D01*
X137407600Y-86144643D01*
X137491501Y-86213499D01*
X137560357Y-86297400D01*
X137596995Y-86365945D01*
X137611521Y-86393121D01*
X137643027Y-86496985D01*
X137651000Y-86577933D01*
X137651000Y-87232067D01*
X137643027Y-87313015D01*
X137611521Y-87416879D01*
X137560356Y-87512600D01*
X137491501Y-87596501D01*
X137422645Y-87653009D01*
X137407599Y-87665357D01*
X137355907Y-87692987D01*
X137311878Y-87716521D01*
X137208014Y-87748027D01*
X137100000Y-87758666D01*
X136991985Y-87748027D01*
X136888121Y-87716521D01*
X136844093Y-87692987D01*
X136792401Y-87665357D01*
X136779643Y-87654887D01*
X136708499Y-87596501D01*
X136639644Y-87512600D01*
X136588479Y-87416878D01*
X136556973Y-87313014D01*
X136549000Y-87232066D01*
X136549000Y-86577933D01*
X136556973Y-86496985D01*
X136588480Y-86393121D01*
X136588482Y-86393118D01*
X136639645Y-86297399D01*
X136708500Y-86213499D01*
X136792401Y-86144643D01*
X136860946Y-86108005D01*
X136888122Y-86093479D01*
X136991986Y-86061973D01*
X137100000Y-86051334D01*
X137208015Y-86061973D01*
G37*
G36*
X145848015Y-86061973D02*
G01*
X145951879Y-86093479D01*
X145979055Y-86108005D01*
X146047600Y-86144643D01*
X146131501Y-86213499D01*
X146200357Y-86297400D01*
X146236995Y-86365945D01*
X146251521Y-86393121D01*
X146283027Y-86496985D01*
X146291000Y-86577933D01*
X146291000Y-87232067D01*
X146283027Y-87313015D01*
X146251521Y-87416879D01*
X146200356Y-87512600D01*
X146131501Y-87596501D01*
X146062645Y-87653009D01*
X146047599Y-87665357D01*
X145995907Y-87692987D01*
X145951878Y-87716521D01*
X145848014Y-87748027D01*
X145740000Y-87758666D01*
X145631985Y-87748027D01*
X145528121Y-87716521D01*
X145484093Y-87692987D01*
X145432401Y-87665357D01*
X145419643Y-87654887D01*
X145348499Y-87596501D01*
X145279644Y-87512600D01*
X145228479Y-87416878D01*
X145196973Y-87313014D01*
X145189000Y-87232066D01*
X145189000Y-86577933D01*
X145196973Y-86496985D01*
X145228480Y-86393121D01*
X145228482Y-86393118D01*
X145279645Y-86297399D01*
X145348500Y-86213499D01*
X145432401Y-86144643D01*
X145500946Y-86108005D01*
X145528122Y-86093479D01*
X145631986Y-86061973D01*
X145740000Y-86051334D01*
X145848015Y-86061973D01*
G37*
M02*
