G04 #@! TF.GenerationSoftware,KiCad,Pcbnew,5.1.5+dfsg1-2build2*
G04 #@! TF.CreationDate,2021-12-02T15:55:02+01:00*
G04 #@! TF.ProjectId,Daugter_board,44617567-7465-4725-9f62-6f6172642e6b,rev?*
G04 #@! TF.SameCoordinates,Original*
G04 #@! TF.FileFunction,Copper,L1,Top*
G04 #@! TF.FilePolarity,Positive*
%FSLAX46Y46*%
G04 Gerber Fmt 4.6, Leading zero omitted, Abs format (unit mm)*
G04 Created by KiCad (PCBNEW 5.1.5+dfsg1-2build2) date 2021-12-02 15:55:02*
%MOMM*%
%LPD*%
G04 APERTURE LIST*
%ADD10C,0.052917*%
%ADD11R,1.200000X2.200000*%
%ADD12R,1.600000X1.400000*%
%ADD13R,1.200000X1.400000*%
%ADD14R,0.700000X1.600000*%
%ADD15O,1.700000X1.700000*%
%ADD16R,1.700000X1.700000*%
%ADD17R,1.500000X2.000000*%
%ADD18R,3.800000X2.000000*%
%ADD19C,0.100000*%
%ADD20O,1.000000X1.600000*%
%ADD21O,1.000000X2.100000*%
%ADD22R,0.300000X1.450000*%
%ADD23R,0.600000X1.450000*%
%ADD24R,0.900000X0.800000*%
%ADD25C,0.800000*%
%ADD26C,0.400000*%
%ADD27C,0.600000*%
%ADD28C,0.300000*%
%ADD29C,0.800000*%
%ADD30C,1.000000*%
%ADD31C,0.250000*%
%ADD32C,0.254000*%
G04 APERTURE END LIST*
D10*
G36*
X146994734Y-95168078D02*
G01*
X146962577Y-104768996D01*
X147057066Y-104889392D01*
X147134536Y-105019439D01*
X147195242Y-105157107D01*
X147238931Y-105300362D01*
X147656000Y-105204605D01*
X147533064Y-105026805D01*
X147508426Y-104937651D01*
X147518840Y-104855356D01*
X147558210Y-104783728D01*
X147620440Y-104733944D01*
X147695878Y-104713370D01*
X147774111Y-104725562D01*
X147841675Y-104768996D01*
X147935909Y-104889392D01*
X148013380Y-105019439D01*
X148074086Y-105157107D01*
X148118028Y-105300362D01*
X148144698Y-105447174D01*
X148574214Y-105287154D01*
X148534590Y-105204605D01*
X148411653Y-105026805D01*
X148387015Y-104937397D01*
X148397429Y-104855102D01*
X148436799Y-104783474D01*
X148499283Y-104733690D01*
X148574722Y-104713370D01*
X148652700Y-104725562D01*
X148720010Y-104768996D01*
X148814499Y-104889392D01*
X148891971Y-105019439D01*
X148952678Y-105157107D01*
X148996620Y-105300362D01*
X149023290Y-105447174D01*
X149452806Y-105287154D01*
X149413181Y-105204605D01*
X149289991Y-105026805D01*
X149265353Y-104937397D01*
X149276021Y-104855102D01*
X149315391Y-104783474D01*
X149377621Y-104733690D01*
X149453314Y-104713370D01*
X149531038Y-104725562D01*
X149598602Y-104768996D01*
X149693091Y-104889392D01*
X149770561Y-105019439D01*
X149831267Y-105157107D01*
X149874955Y-105300362D01*
X150331395Y-105287154D01*
X150291517Y-105204605D01*
X150168580Y-105026805D01*
X150143942Y-104937397D01*
X150154356Y-104855102D01*
X150193980Y-104783474D01*
X150256211Y-104733690D01*
X150331903Y-104713370D01*
X150409881Y-104725562D01*
X150477192Y-104768996D01*
X150571426Y-104889392D01*
X150648896Y-105019439D01*
X150709602Y-105157107D01*
X150753545Y-105300362D01*
X150780469Y-105447174D01*
X150790121Y-105596017D01*
X150784533Y-105724800D01*
X150767769Y-105842402D01*
X150739829Y-105957971D01*
X150700458Y-106070493D01*
X150654484Y-106170061D01*
X150598858Y-106265311D01*
X150450775Y-106454286D01*
X150403531Y-106527438D01*
X150353493Y-106636403D01*
X150317425Y-106764673D01*
X150302693Y-106867797D01*
X150299645Y-106974223D01*
X150308535Y-107074552D01*
X150328093Y-107169802D01*
X150357557Y-107257940D01*
X150395911Y-107337187D01*
X150519356Y-107500763D01*
X150542470Y-107589917D01*
X150531294Y-107671450D01*
X150491416Y-107742316D01*
X150429185Y-107791338D01*
X150382957Y-107807594D01*
X150344349Y-107811658D01*
X150268149Y-107795656D01*
X150210999Y-107757048D01*
X150112700Y-107644781D01*
X150029642Y-107509907D01*
X149974524Y-107381637D01*
X149935407Y-107246510D01*
X149911531Y-107106556D01*
X149902387Y-106953903D01*
X149907721Y-106824109D01*
X149925247Y-106694315D01*
X149955220Y-106566808D01*
X149994590Y-106452254D01*
X150040564Y-106350908D01*
X150096190Y-106254389D01*
X150247067Y-106062111D01*
X150300915Y-105978291D01*
X150349429Y-105870342D01*
X150380417Y-105756296D01*
X150392863Y-105658501D01*
X150393371Y-105559442D01*
X150381941Y-105460636D01*
X150361367Y-105372752D01*
X150331395Y-105287154D01*
X149874955Y-105300362D01*
X149901879Y-105447174D01*
X149911531Y-105596017D01*
X149905943Y-105724800D01*
X149889179Y-105842402D01*
X149861239Y-105957971D01*
X149821869Y-106070493D01*
X149775895Y-106170061D01*
X149720269Y-106265311D01*
X149572186Y-106454286D01*
X149524942Y-106527438D01*
X149475158Y-106636403D01*
X149438836Y-106764673D01*
X149424104Y-106867797D01*
X149421056Y-106974223D01*
X149429946Y-107074552D01*
X149449504Y-107169802D01*
X149478968Y-107257940D01*
X149517322Y-107337187D01*
X149640766Y-107500763D01*
X149664134Y-107589917D01*
X149649148Y-107681102D01*
X149606222Y-107749682D01*
X149541706Y-107795656D01*
X149465760Y-107811658D01*
X149398957Y-107799466D01*
X149332409Y-107757048D01*
X149234111Y-107644781D01*
X149151052Y-107509907D01*
X149095934Y-107381637D01*
X149056818Y-107246510D01*
X149032942Y-107106556D01*
X149023798Y-106953903D01*
X149029132Y-106824109D01*
X149046658Y-106694315D01*
X149076630Y-106566808D01*
X149115746Y-106452254D01*
X149161721Y-106350908D01*
X149217347Y-106254389D01*
X149367969Y-106062111D01*
X149421818Y-105978291D01*
X149470586Y-105870342D01*
X149501574Y-105756296D01*
X149514274Y-105658501D01*
X149514782Y-105559442D01*
X149503352Y-105460636D01*
X149482778Y-105372752D01*
X149452806Y-105287154D01*
X149023290Y-105447174D01*
X149033196Y-105596017D01*
X149027608Y-105724800D01*
X149010844Y-105842402D01*
X148982904Y-105957971D01*
X148943534Y-106070493D01*
X148897559Y-106170061D01*
X148841931Y-106265311D01*
X148693594Y-106454286D01*
X148646350Y-106527438D01*
X148596312Y-106636403D01*
X148559990Y-106764673D01*
X148545258Y-106867797D01*
X148542210Y-106974223D01*
X148551100Y-107074552D01*
X148570658Y-107169802D01*
X148600376Y-107257940D01*
X148638730Y-107337187D01*
X148762428Y-107500763D01*
X148785797Y-107589917D01*
X148774366Y-107671704D01*
X148734488Y-107742316D01*
X148663368Y-107795656D01*
X148587422Y-107811912D01*
X148511221Y-107795656D01*
X148453817Y-107757048D01*
X148355773Y-107644781D01*
X148272461Y-107509907D01*
X148217342Y-107381637D01*
X148177972Y-107246510D01*
X148154096Y-107106556D01*
X148144952Y-106953903D01*
X148150032Y-106824109D01*
X148167558Y-106694315D01*
X148197784Y-106566808D01*
X148237154Y-106452254D01*
X148283129Y-106350908D01*
X148338755Y-106254389D01*
X148489631Y-106062111D01*
X148543480Y-105978291D01*
X148591994Y-105870342D01*
X148622982Y-105756296D01*
X148635682Y-105658501D01*
X148636190Y-105559442D01*
X148624760Y-105460636D01*
X148604440Y-105372752D01*
X148574214Y-105287154D01*
X148144698Y-105447174D01*
X148154350Y-105596017D01*
X148148762Y-105724800D01*
X148131998Y-105842402D01*
X148103804Y-105957971D01*
X148064434Y-106070493D01*
X148018460Y-106170061D01*
X147962833Y-106265311D01*
X147814751Y-106454286D01*
X147767507Y-106527438D01*
X147717468Y-106636403D01*
X147681400Y-106764673D01*
X147666668Y-106867797D01*
X147663620Y-106974223D01*
X147672510Y-107074552D01*
X147692068Y-107169802D01*
X147721532Y-107257940D01*
X147759887Y-107337187D01*
X147884347Y-107499493D01*
X147902889Y-107547245D01*
X147909747Y-107598299D01*
X147896539Y-107679324D01*
X147855391Y-107748666D01*
X147792399Y-107796164D01*
X147716960Y-107814452D01*
X147640760Y-107800482D01*
X147582594Y-107763906D01*
X147483025Y-107652655D01*
X147398443Y-107518797D01*
X147342055Y-107391035D01*
X147301669Y-107256162D01*
X147275507Y-107106556D01*
X147266363Y-106953903D01*
X147271697Y-106824109D01*
X147289223Y-106694315D01*
X147319195Y-106566808D01*
X147358565Y-106452254D01*
X147404539Y-106350908D01*
X147460165Y-106254389D01*
X147611042Y-106062111D01*
X147664890Y-105978291D01*
X147713404Y-105870342D01*
X147744647Y-105756296D01*
X147757093Y-105658501D01*
X147757855Y-105559442D01*
X147746425Y-105460636D01*
X147725850Y-105372752D01*
X147695878Y-105287154D01*
X147656000Y-105204605D01*
X147238931Y-105300362D01*
X147265855Y-105447174D01*
X147275507Y-105596017D01*
X147269919Y-105724800D01*
X147253155Y-105842402D01*
X147225214Y-105957971D01*
X147185844Y-106070493D01*
X147139870Y-106170061D01*
X147084244Y-106265311D01*
X146936161Y-106454286D01*
X146888917Y-106527438D01*
X146839133Y-106636403D01*
X146802811Y-106764673D01*
X146788079Y-106867797D01*
X146785285Y-106974223D01*
X146793921Y-107074552D01*
X146813479Y-107169802D01*
X146842943Y-107257940D01*
X146881551Y-107337187D01*
X147004996Y-107500763D01*
X147028110Y-107589917D01*
X147016934Y-107671704D01*
X146977056Y-107742316D01*
X146914825Y-107791592D01*
X146868597Y-107807848D01*
X146829735Y-107811912D01*
X146753789Y-107795656D01*
X146696384Y-107757048D01*
X146598086Y-107644781D01*
X146515028Y-107509907D01*
X146459910Y-107381637D01*
X146420793Y-107246510D01*
X146396917Y-107106556D01*
X146387773Y-106953903D01*
X146393107Y-106824109D01*
X146410633Y-106694315D01*
X146440605Y-106566808D01*
X146479722Y-106452254D01*
X146525696Y-106350908D01*
X146581322Y-106254389D01*
X146731945Y-106062111D01*
X146786047Y-105978291D01*
X146834561Y-105870342D01*
X146865549Y-105756296D01*
X146878249Y-105658501D01*
X146878757Y-105559442D01*
X146867327Y-105460636D01*
X146846753Y-105372752D01*
X146816781Y-105287154D01*
X146777157Y-105204605D01*
X146653966Y-105026805D01*
X146629328Y-104937397D01*
X146639996Y-104855102D01*
X146679366Y-104783474D01*
X146741851Y-104733690D01*
X146817289Y-104713370D01*
X146895267Y-104725562D01*
X146962577Y-104768996D01*
X146994734Y-95168078D01*
X146969080Y-95200844D01*
X146954094Y-95250882D01*
X146939616Y-97839388D01*
X146726865Y-98074591D01*
X146083988Y-104768996D01*
X146178476Y-104889392D01*
X146255947Y-105019439D01*
X146316653Y-105157107D01*
X146360595Y-105300362D01*
X146387519Y-105447174D01*
X146397171Y-105596017D01*
X146391583Y-105724800D01*
X146374819Y-105842402D01*
X146346879Y-105957971D01*
X146307509Y-106070493D01*
X146261535Y-106170061D01*
X146205909Y-106265311D01*
X146057826Y-106454286D01*
X146010328Y-106527438D01*
X145960544Y-106636403D01*
X145924475Y-106764673D01*
X145909743Y-106867797D01*
X145906695Y-106974223D01*
X145915585Y-107074552D01*
X145935144Y-107169802D01*
X145964608Y-107257940D01*
X146002962Y-107337187D01*
X146126406Y-107500763D01*
X146149520Y-107589917D01*
X146138344Y-107671450D01*
X146098466Y-107742316D01*
X146027346Y-107795656D01*
X145951146Y-107811658D01*
X145875199Y-107795656D01*
X145817795Y-107757048D01*
X145719751Y-107644781D01*
X145636692Y-107509907D01*
X145581574Y-107381637D01*
X145542204Y-107246510D01*
X145518582Y-107106556D01*
X145509438Y-106953903D01*
X145514518Y-106824109D01*
X145532044Y-106694315D01*
X145562016Y-106566808D01*
X145601386Y-106452254D01*
X145647106Y-106350908D01*
X145702733Y-106254389D01*
X145853609Y-106062111D01*
X145907457Y-105978291D01*
X145955972Y-105870342D01*
X145986960Y-105756296D01*
X145999660Y-105658501D01*
X146000168Y-105559442D01*
X145988738Y-105460636D01*
X145968418Y-105372752D01*
X145938192Y-105287154D01*
X145898567Y-105204605D01*
X145775631Y-105026805D01*
X145750993Y-104937397D01*
X145761407Y-104855102D01*
X145800777Y-104783474D01*
X145863261Y-104733690D01*
X145938700Y-104713370D01*
X146016678Y-104725562D01*
X146083988Y-104768996D01*
X146726865Y-98074591D01*
X144238747Y-98075099D01*
X145205653Y-104768996D01*
X145299887Y-104889392D01*
X145377357Y-105019439D01*
X145438064Y-105157107D01*
X145482006Y-105300362D01*
X145508930Y-105447174D01*
X145518582Y-105596017D01*
X145512994Y-105724800D01*
X145496230Y-105842402D01*
X145468290Y-105957971D01*
X145428920Y-106070493D01*
X145382945Y-106170061D01*
X145327319Y-106265311D01*
X145179237Y-106454286D01*
X145131738Y-106527438D01*
X145081954Y-106636403D01*
X145045378Y-106764673D01*
X145030646Y-106867797D01*
X145027598Y-106974223D01*
X145036488Y-107074552D01*
X145056300Y-107169802D01*
X145085764Y-107257940D01*
X145124372Y-107337187D01*
X145247817Y-107500763D01*
X145271185Y-107589917D01*
X145256199Y-107681102D01*
X145213273Y-107749682D01*
X145148756Y-107795656D01*
X145072810Y-107811658D01*
X145005754Y-107799466D01*
X144939460Y-107757048D01*
X144841161Y-107644781D01*
X144757849Y-107509907D01*
X144702731Y-107381637D01*
X144663361Y-107246510D01*
X144639485Y-107106556D01*
X144630340Y-106953903D01*
X144635675Y-106824109D01*
X144653201Y-106694315D01*
X144683173Y-106566808D01*
X144722543Y-106452254D01*
X144768517Y-106350908D01*
X144824397Y-106254389D01*
X144975020Y-106062111D01*
X145028868Y-105978291D01*
X145077382Y-105870342D01*
X145108624Y-105756296D01*
X145121070Y-105658501D01*
X145121832Y-105559442D01*
X145110402Y-105460636D01*
X145089828Y-105372752D01*
X145059856Y-105287154D01*
X145019978Y-105204605D01*
X144897042Y-105026805D01*
X144872403Y-104937397D01*
X144882817Y-104855102D01*
X144922442Y-104783474D01*
X144984672Y-104733690D01*
X145060364Y-104713370D01*
X145138088Y-104725562D01*
X145205653Y-104768996D01*
X144238747Y-98075099D01*
X144197599Y-98081703D01*
X144161023Y-98101261D01*
X144132829Y-98131741D01*
X144113702Y-98169587D01*
X144113702Y-108081405D01*
X144119545Y-108121029D01*
X144137579Y-108156843D01*
X144165519Y-108185291D01*
X144201333Y-108203325D01*
X144240703Y-108209675D01*
X151248441Y-108210000D01*
X151289335Y-108203142D01*
X151325657Y-108183584D01*
X151347755Y-108161740D01*
X151367821Y-108125672D01*
X151367464Y-108059298D01*
X151368150Y-106981856D01*
X151369293Y-104364643D01*
X151369521Y-101130331D01*
X151367464Y-98201591D01*
X151360352Y-98160443D01*
X151340540Y-98123867D01*
X151318188Y-98101515D01*
X151281358Y-98081703D01*
X148810409Y-98074591D01*
X148534996Y-97814496D01*
X148543632Y-95262312D01*
X148525090Y-95195510D01*
X148483180Y-95153346D01*
X148426538Y-95135058D01*
X147080840Y-95134550D01*
X147039438Y-95141408D01*
X146994734Y-95168078D01*
G37*
X146994734Y-95168078D02*
X146962577Y-104768996D01*
X147057066Y-104889392D01*
X147134536Y-105019439D01*
X147195242Y-105157107D01*
X147238931Y-105300362D01*
X147656000Y-105204605D01*
X147533064Y-105026805D01*
X147508426Y-104937651D01*
X147518840Y-104855356D01*
X147558210Y-104783728D01*
X147620440Y-104733944D01*
X147695878Y-104713370D01*
X147774111Y-104725562D01*
X147841675Y-104768996D01*
X147935909Y-104889392D01*
X148013380Y-105019439D01*
X148074086Y-105157107D01*
X148118028Y-105300362D01*
X148144698Y-105447174D01*
X148574214Y-105287154D01*
X148534590Y-105204605D01*
X148411653Y-105026805D01*
X148387015Y-104937397D01*
X148397429Y-104855102D01*
X148436799Y-104783474D01*
X148499283Y-104733690D01*
X148574722Y-104713370D01*
X148652700Y-104725562D01*
X148720010Y-104768996D01*
X148814499Y-104889392D01*
X148891971Y-105019439D01*
X148952678Y-105157107D01*
X148996620Y-105300362D01*
X149023290Y-105447174D01*
X149452806Y-105287154D01*
X149413181Y-105204605D01*
X149289991Y-105026805D01*
X149265353Y-104937397D01*
X149276021Y-104855102D01*
X149315391Y-104783474D01*
X149377621Y-104733690D01*
X149453314Y-104713370D01*
X149531038Y-104725562D01*
X149598602Y-104768996D01*
X149693091Y-104889392D01*
X149770561Y-105019439D01*
X149831267Y-105157107D01*
X149874955Y-105300362D01*
X150331395Y-105287154D01*
X150291517Y-105204605D01*
X150168580Y-105026805D01*
X150143942Y-104937397D01*
X150154356Y-104855102D01*
X150193980Y-104783474D01*
X150256211Y-104733690D01*
X150331903Y-104713370D01*
X150409881Y-104725562D01*
X150477192Y-104768996D01*
X150571426Y-104889392D01*
X150648896Y-105019439D01*
X150709602Y-105157107D01*
X150753545Y-105300362D01*
X150780469Y-105447174D01*
X150790121Y-105596017D01*
X150784533Y-105724800D01*
X150767769Y-105842402D01*
X150739829Y-105957971D01*
X150700458Y-106070493D01*
X150654484Y-106170061D01*
X150598858Y-106265311D01*
X150450775Y-106454286D01*
X150403531Y-106527438D01*
X150353493Y-106636403D01*
X150317425Y-106764673D01*
X150302693Y-106867797D01*
X150299645Y-106974223D01*
X150308535Y-107074552D01*
X150328093Y-107169802D01*
X150357557Y-107257940D01*
X150395911Y-107337187D01*
X150519356Y-107500763D01*
X150542470Y-107589917D01*
X150531294Y-107671450D01*
X150491416Y-107742316D01*
X150429185Y-107791338D01*
X150382957Y-107807594D01*
X150344349Y-107811658D01*
X150268149Y-107795656D01*
X150210999Y-107757048D01*
X150112700Y-107644781D01*
X150029642Y-107509907D01*
X149974524Y-107381637D01*
X149935407Y-107246510D01*
X149911531Y-107106556D01*
X149902387Y-106953903D01*
X149907721Y-106824109D01*
X149925247Y-106694315D01*
X149955220Y-106566808D01*
X149994590Y-106452254D01*
X150040564Y-106350908D01*
X150096190Y-106254389D01*
X150247067Y-106062111D01*
X150300915Y-105978291D01*
X150349429Y-105870342D01*
X150380417Y-105756296D01*
X150392863Y-105658501D01*
X150393371Y-105559442D01*
X150381941Y-105460636D01*
X150361367Y-105372752D01*
X150331395Y-105287154D01*
X149874955Y-105300362D01*
X149901879Y-105447174D01*
X149911531Y-105596017D01*
X149905943Y-105724800D01*
X149889179Y-105842402D01*
X149861239Y-105957971D01*
X149821869Y-106070493D01*
X149775895Y-106170061D01*
X149720269Y-106265311D01*
X149572186Y-106454286D01*
X149524942Y-106527438D01*
X149475158Y-106636403D01*
X149438836Y-106764673D01*
X149424104Y-106867797D01*
X149421056Y-106974223D01*
X149429946Y-107074552D01*
X149449504Y-107169802D01*
X149478968Y-107257940D01*
X149517322Y-107337187D01*
X149640766Y-107500763D01*
X149664134Y-107589917D01*
X149649148Y-107681102D01*
X149606222Y-107749682D01*
X149541706Y-107795656D01*
X149465760Y-107811658D01*
X149398957Y-107799466D01*
X149332409Y-107757048D01*
X149234111Y-107644781D01*
X149151052Y-107509907D01*
X149095934Y-107381637D01*
X149056818Y-107246510D01*
X149032942Y-107106556D01*
X149023798Y-106953903D01*
X149029132Y-106824109D01*
X149046658Y-106694315D01*
X149076630Y-106566808D01*
X149115746Y-106452254D01*
X149161721Y-106350908D01*
X149217347Y-106254389D01*
X149367969Y-106062111D01*
X149421818Y-105978291D01*
X149470586Y-105870342D01*
X149501574Y-105756296D01*
X149514274Y-105658501D01*
X149514782Y-105559442D01*
X149503352Y-105460636D01*
X149482778Y-105372752D01*
X149452806Y-105287154D01*
X149023290Y-105447174D01*
X149033196Y-105596017D01*
X149027608Y-105724800D01*
X149010844Y-105842402D01*
X148982904Y-105957971D01*
X148943534Y-106070493D01*
X148897559Y-106170061D01*
X148841931Y-106265311D01*
X148693594Y-106454286D01*
X148646350Y-106527438D01*
X148596312Y-106636403D01*
X148559990Y-106764673D01*
X148545258Y-106867797D01*
X148542210Y-106974223D01*
X148551100Y-107074552D01*
X148570658Y-107169802D01*
X148600376Y-107257940D01*
X148638730Y-107337187D01*
X148762428Y-107500763D01*
X148785797Y-107589917D01*
X148774366Y-107671704D01*
X148734488Y-107742316D01*
X148663368Y-107795656D01*
X148587422Y-107811912D01*
X148511221Y-107795656D01*
X148453817Y-107757048D01*
X148355773Y-107644781D01*
X148272461Y-107509907D01*
X148217342Y-107381637D01*
X148177972Y-107246510D01*
X148154096Y-107106556D01*
X148144952Y-106953903D01*
X148150032Y-106824109D01*
X148167558Y-106694315D01*
X148197784Y-106566808D01*
X148237154Y-106452254D01*
X148283129Y-106350908D01*
X148338755Y-106254389D01*
X148489631Y-106062111D01*
X148543480Y-105978291D01*
X148591994Y-105870342D01*
X148622982Y-105756296D01*
X148635682Y-105658501D01*
X148636190Y-105559442D01*
X148624760Y-105460636D01*
X148604440Y-105372752D01*
X148574214Y-105287154D01*
X148144698Y-105447174D01*
X148154350Y-105596017D01*
X148148762Y-105724800D01*
X148131998Y-105842402D01*
X148103804Y-105957971D01*
X148064434Y-106070493D01*
X148018460Y-106170061D01*
X147962833Y-106265311D01*
X147814751Y-106454286D01*
X147767507Y-106527438D01*
X147717468Y-106636403D01*
X147681400Y-106764673D01*
X147666668Y-106867797D01*
X147663620Y-106974223D01*
X147672510Y-107074552D01*
X147692068Y-107169802D01*
X147721532Y-107257940D01*
X147759887Y-107337187D01*
X147884347Y-107499493D01*
X147902889Y-107547245D01*
X147909747Y-107598299D01*
X147896539Y-107679324D01*
X147855391Y-107748666D01*
X147792399Y-107796164D01*
X147716960Y-107814452D01*
X147640760Y-107800482D01*
X147582594Y-107763906D01*
X147483025Y-107652655D01*
X147398443Y-107518797D01*
X147342055Y-107391035D01*
X147301669Y-107256162D01*
X147275507Y-107106556D01*
X147266363Y-106953903D01*
X147271697Y-106824109D01*
X147289223Y-106694315D01*
X147319195Y-106566808D01*
X147358565Y-106452254D01*
X147404539Y-106350908D01*
X147460165Y-106254389D01*
X147611042Y-106062111D01*
X147664890Y-105978291D01*
X147713404Y-105870342D01*
X147744647Y-105756296D01*
X147757093Y-105658501D01*
X147757855Y-105559442D01*
X147746425Y-105460636D01*
X147725850Y-105372752D01*
X147695878Y-105287154D01*
X147656000Y-105204605D01*
X147238931Y-105300362D01*
X147265855Y-105447174D01*
X147275507Y-105596017D01*
X147269919Y-105724800D01*
X147253155Y-105842402D01*
X147225214Y-105957971D01*
X147185844Y-106070493D01*
X147139870Y-106170061D01*
X147084244Y-106265311D01*
X146936161Y-106454286D01*
X146888917Y-106527438D01*
X146839133Y-106636403D01*
X146802811Y-106764673D01*
X146788079Y-106867797D01*
X146785285Y-106974223D01*
X146793921Y-107074552D01*
X146813479Y-107169802D01*
X146842943Y-107257940D01*
X146881551Y-107337187D01*
X147004996Y-107500763D01*
X147028110Y-107589917D01*
X147016934Y-107671704D01*
X146977056Y-107742316D01*
X146914825Y-107791592D01*
X146868597Y-107807848D01*
X146829735Y-107811912D01*
X146753789Y-107795656D01*
X146696384Y-107757048D01*
X146598086Y-107644781D01*
X146515028Y-107509907D01*
X146459910Y-107381637D01*
X146420793Y-107246510D01*
X146396917Y-107106556D01*
X146387773Y-106953903D01*
X146393107Y-106824109D01*
X146410633Y-106694315D01*
X146440605Y-106566808D01*
X146479722Y-106452254D01*
X146525696Y-106350908D01*
X146581322Y-106254389D01*
X146731945Y-106062111D01*
X146786047Y-105978291D01*
X146834561Y-105870342D01*
X146865549Y-105756296D01*
X146878249Y-105658501D01*
X146878757Y-105559442D01*
X146867327Y-105460636D01*
X146846753Y-105372752D01*
X146816781Y-105287154D01*
X146777157Y-105204605D01*
X146653966Y-105026805D01*
X146629328Y-104937397D01*
X146639996Y-104855102D01*
X146679366Y-104783474D01*
X146741851Y-104733690D01*
X146817289Y-104713370D01*
X146895267Y-104725562D01*
X146962577Y-104768996D01*
X146994734Y-95168078D01*
X146969080Y-95200844D01*
X146954094Y-95250882D01*
X146939616Y-97839388D01*
X146726865Y-98074591D01*
X146083988Y-104768996D01*
X146178476Y-104889392D01*
X146255947Y-105019439D01*
X146316653Y-105157107D01*
X146360595Y-105300362D01*
X146387519Y-105447174D01*
X146397171Y-105596017D01*
X146391583Y-105724800D01*
X146374819Y-105842402D01*
X146346879Y-105957971D01*
X146307509Y-106070493D01*
X146261535Y-106170061D01*
X146205909Y-106265311D01*
X146057826Y-106454286D01*
X146010328Y-106527438D01*
X145960544Y-106636403D01*
X145924475Y-106764673D01*
X145909743Y-106867797D01*
X145906695Y-106974223D01*
X145915585Y-107074552D01*
X145935144Y-107169802D01*
X145964608Y-107257940D01*
X146002962Y-107337187D01*
X146126406Y-107500763D01*
X146149520Y-107589917D01*
X146138344Y-107671450D01*
X146098466Y-107742316D01*
X146027346Y-107795656D01*
X145951146Y-107811658D01*
X145875199Y-107795656D01*
X145817795Y-107757048D01*
X145719751Y-107644781D01*
X145636692Y-107509907D01*
X145581574Y-107381637D01*
X145542204Y-107246510D01*
X145518582Y-107106556D01*
X145509438Y-106953903D01*
X145514518Y-106824109D01*
X145532044Y-106694315D01*
X145562016Y-106566808D01*
X145601386Y-106452254D01*
X145647106Y-106350908D01*
X145702733Y-106254389D01*
X145853609Y-106062111D01*
X145907457Y-105978291D01*
X145955972Y-105870342D01*
X145986960Y-105756296D01*
X145999660Y-105658501D01*
X146000168Y-105559442D01*
X145988738Y-105460636D01*
X145968418Y-105372752D01*
X145938192Y-105287154D01*
X145898567Y-105204605D01*
X145775631Y-105026805D01*
X145750993Y-104937397D01*
X145761407Y-104855102D01*
X145800777Y-104783474D01*
X145863261Y-104733690D01*
X145938700Y-104713370D01*
X146016678Y-104725562D01*
X146083988Y-104768996D01*
X146726865Y-98074591D01*
X144238747Y-98075099D01*
X145205653Y-104768996D01*
X145299887Y-104889392D01*
X145377357Y-105019439D01*
X145438064Y-105157107D01*
X145482006Y-105300362D01*
X145508930Y-105447174D01*
X145518582Y-105596017D01*
X145512994Y-105724800D01*
X145496230Y-105842402D01*
X145468290Y-105957971D01*
X145428920Y-106070493D01*
X145382945Y-106170061D01*
X145327319Y-106265311D01*
X145179237Y-106454286D01*
X145131738Y-106527438D01*
X145081954Y-106636403D01*
X145045378Y-106764673D01*
X145030646Y-106867797D01*
X145027598Y-106974223D01*
X145036488Y-107074552D01*
X145056300Y-107169802D01*
X145085764Y-107257940D01*
X145124372Y-107337187D01*
X145247817Y-107500763D01*
X145271185Y-107589917D01*
X145256199Y-107681102D01*
X145213273Y-107749682D01*
X145148756Y-107795656D01*
X145072810Y-107811658D01*
X145005754Y-107799466D01*
X144939460Y-107757048D01*
X144841161Y-107644781D01*
X144757849Y-107509907D01*
X144702731Y-107381637D01*
X144663361Y-107246510D01*
X144639485Y-107106556D01*
X144630340Y-106953903D01*
X144635675Y-106824109D01*
X144653201Y-106694315D01*
X144683173Y-106566808D01*
X144722543Y-106452254D01*
X144768517Y-106350908D01*
X144824397Y-106254389D01*
X144975020Y-106062111D01*
X145028868Y-105978291D01*
X145077382Y-105870342D01*
X145108624Y-105756296D01*
X145121070Y-105658501D01*
X145121832Y-105559442D01*
X145110402Y-105460636D01*
X145089828Y-105372752D01*
X145059856Y-105287154D01*
X145019978Y-105204605D01*
X144897042Y-105026805D01*
X144872403Y-104937397D01*
X144882817Y-104855102D01*
X144922442Y-104783474D01*
X144984672Y-104733690D01*
X145060364Y-104713370D01*
X145138088Y-104725562D01*
X145205653Y-104768996D01*
X144238747Y-98075099D01*
X144197599Y-98081703D01*
X144161023Y-98101261D01*
X144132829Y-98131741D01*
X144113702Y-98169587D01*
X144113702Y-108081405D01*
X144119545Y-108121029D01*
X144137579Y-108156843D01*
X144165519Y-108185291D01*
X144201333Y-108203325D01*
X144240703Y-108209675D01*
X151248441Y-108210000D01*
X151289335Y-108203142D01*
X151325657Y-108183584D01*
X151347755Y-108161740D01*
X151367821Y-108125672D01*
X151367464Y-108059298D01*
X151368150Y-106981856D01*
X151369293Y-104364643D01*
X151369521Y-101130331D01*
X151367464Y-98201591D01*
X151360352Y-98160443D01*
X151340540Y-98123867D01*
X151318188Y-98101515D01*
X151281358Y-98081703D01*
X148810409Y-98074591D01*
X148534996Y-97814496D01*
X148543632Y-95262312D01*
X148525090Y-95195510D01*
X148483180Y-95153346D01*
X148426538Y-95135058D01*
X147080840Y-95134550D01*
X147039438Y-95141408D01*
X146994734Y-95168078D01*
D11*
X151930000Y-88880000D03*
X167430000Y-88880000D03*
D12*
X152830000Y-98480000D03*
D13*
X167430000Y-98480000D03*
D14*
X166280000Y-98980000D03*
X164080000Y-98980000D03*
X165180000Y-98980000D03*
X162980000Y-98980000D03*
X161880000Y-98980000D03*
X160780000Y-98980000D03*
X157480000Y-98980000D03*
X158580000Y-98980000D03*
X159680000Y-98980000D03*
D15*
X154310000Y-116610000D03*
X154310000Y-114070000D03*
X154310000Y-111530000D03*
X154310000Y-108990000D03*
X154310000Y-106450000D03*
D16*
X154310000Y-103910000D03*
D15*
X144080000Y-111500000D03*
X141540000Y-111500000D03*
X139000000Y-111500000D03*
X136460000Y-111500000D03*
X133920000Y-111500000D03*
D16*
X131380000Y-111500000D03*
D17*
X150060000Y-96170000D03*
X145460000Y-96170000D03*
X147760000Y-96170000D03*
D18*
X147760000Y-102470000D03*
G04 #@! TA.AperFunction,SMDPad,CuDef*
D19*
G36*
X149200191Y-110416053D02*
G01*
X149221426Y-110419203D01*
X149242250Y-110424419D01*
X149262462Y-110431651D01*
X149281868Y-110440830D01*
X149300281Y-110451866D01*
X149317524Y-110464654D01*
X149333430Y-110479070D01*
X149347846Y-110494976D01*
X149360634Y-110512219D01*
X149371670Y-110530632D01*
X149380849Y-110550038D01*
X149388081Y-110570250D01*
X149393297Y-110591074D01*
X149396447Y-110612309D01*
X149397500Y-110633750D01*
X149397500Y-111146250D01*
X149396447Y-111167691D01*
X149393297Y-111188926D01*
X149388081Y-111209750D01*
X149380849Y-111229962D01*
X149371670Y-111249368D01*
X149360634Y-111267781D01*
X149347846Y-111285024D01*
X149333430Y-111300930D01*
X149317524Y-111315346D01*
X149300281Y-111328134D01*
X149281868Y-111339170D01*
X149262462Y-111348349D01*
X149242250Y-111355581D01*
X149221426Y-111360797D01*
X149200191Y-111363947D01*
X149178750Y-111365000D01*
X148741250Y-111365000D01*
X148719809Y-111363947D01*
X148698574Y-111360797D01*
X148677750Y-111355581D01*
X148657538Y-111348349D01*
X148638132Y-111339170D01*
X148619719Y-111328134D01*
X148602476Y-111315346D01*
X148586570Y-111300930D01*
X148572154Y-111285024D01*
X148559366Y-111267781D01*
X148548330Y-111249368D01*
X148539151Y-111229962D01*
X148531919Y-111209750D01*
X148526703Y-111188926D01*
X148523553Y-111167691D01*
X148522500Y-111146250D01*
X148522500Y-110633750D01*
X148523553Y-110612309D01*
X148526703Y-110591074D01*
X148531919Y-110570250D01*
X148539151Y-110550038D01*
X148548330Y-110530632D01*
X148559366Y-110512219D01*
X148572154Y-110494976D01*
X148586570Y-110479070D01*
X148602476Y-110464654D01*
X148619719Y-110451866D01*
X148638132Y-110440830D01*
X148657538Y-110431651D01*
X148677750Y-110424419D01*
X148698574Y-110419203D01*
X148719809Y-110416053D01*
X148741250Y-110415000D01*
X149178750Y-110415000D01*
X149200191Y-110416053D01*
G37*
G04 #@! TD.AperFunction*
G04 #@! TA.AperFunction,SMDPad,CuDef*
G36*
X147625191Y-110416053D02*
G01*
X147646426Y-110419203D01*
X147667250Y-110424419D01*
X147687462Y-110431651D01*
X147706868Y-110440830D01*
X147725281Y-110451866D01*
X147742524Y-110464654D01*
X147758430Y-110479070D01*
X147772846Y-110494976D01*
X147785634Y-110512219D01*
X147796670Y-110530632D01*
X147805849Y-110550038D01*
X147813081Y-110570250D01*
X147818297Y-110591074D01*
X147821447Y-110612309D01*
X147822500Y-110633750D01*
X147822500Y-111146250D01*
X147821447Y-111167691D01*
X147818297Y-111188926D01*
X147813081Y-111209750D01*
X147805849Y-111229962D01*
X147796670Y-111249368D01*
X147785634Y-111267781D01*
X147772846Y-111285024D01*
X147758430Y-111300930D01*
X147742524Y-111315346D01*
X147725281Y-111328134D01*
X147706868Y-111339170D01*
X147687462Y-111348349D01*
X147667250Y-111355581D01*
X147646426Y-111360797D01*
X147625191Y-111363947D01*
X147603750Y-111365000D01*
X147166250Y-111365000D01*
X147144809Y-111363947D01*
X147123574Y-111360797D01*
X147102750Y-111355581D01*
X147082538Y-111348349D01*
X147063132Y-111339170D01*
X147044719Y-111328134D01*
X147027476Y-111315346D01*
X147011570Y-111300930D01*
X146997154Y-111285024D01*
X146984366Y-111267781D01*
X146973330Y-111249368D01*
X146964151Y-111229962D01*
X146956919Y-111209750D01*
X146951703Y-111188926D01*
X146948553Y-111167691D01*
X146947500Y-111146250D01*
X146947500Y-110633750D01*
X146948553Y-110612309D01*
X146951703Y-110591074D01*
X146956919Y-110570250D01*
X146964151Y-110550038D01*
X146973330Y-110530632D01*
X146984366Y-110512219D01*
X146997154Y-110494976D01*
X147011570Y-110479070D01*
X147027476Y-110464654D01*
X147044719Y-110451866D01*
X147063132Y-110440830D01*
X147082538Y-110431651D01*
X147102750Y-110424419D01*
X147123574Y-110419203D01*
X147144809Y-110416053D01*
X147166250Y-110415000D01*
X147603750Y-110415000D01*
X147625191Y-110416053D01*
G37*
G04 #@! TD.AperFunction*
G04 #@! TA.AperFunction,SMDPad,CuDef*
G36*
X147632691Y-111896053D02*
G01*
X147653926Y-111899203D01*
X147674750Y-111904419D01*
X147694962Y-111911651D01*
X147714368Y-111920830D01*
X147732781Y-111931866D01*
X147750024Y-111944654D01*
X147765930Y-111959070D01*
X147780346Y-111974976D01*
X147793134Y-111992219D01*
X147804170Y-112010632D01*
X147813349Y-112030038D01*
X147820581Y-112050250D01*
X147825797Y-112071074D01*
X147828947Y-112092309D01*
X147830000Y-112113750D01*
X147830000Y-112626250D01*
X147828947Y-112647691D01*
X147825797Y-112668926D01*
X147820581Y-112689750D01*
X147813349Y-112709962D01*
X147804170Y-112729368D01*
X147793134Y-112747781D01*
X147780346Y-112765024D01*
X147765930Y-112780930D01*
X147750024Y-112795346D01*
X147732781Y-112808134D01*
X147714368Y-112819170D01*
X147694962Y-112828349D01*
X147674750Y-112835581D01*
X147653926Y-112840797D01*
X147632691Y-112843947D01*
X147611250Y-112845000D01*
X147173750Y-112845000D01*
X147152309Y-112843947D01*
X147131074Y-112840797D01*
X147110250Y-112835581D01*
X147090038Y-112828349D01*
X147070632Y-112819170D01*
X147052219Y-112808134D01*
X147034976Y-112795346D01*
X147019070Y-112780930D01*
X147004654Y-112765024D01*
X146991866Y-112747781D01*
X146980830Y-112729368D01*
X146971651Y-112709962D01*
X146964419Y-112689750D01*
X146959203Y-112668926D01*
X146956053Y-112647691D01*
X146955000Y-112626250D01*
X146955000Y-112113750D01*
X146956053Y-112092309D01*
X146959203Y-112071074D01*
X146964419Y-112050250D01*
X146971651Y-112030038D01*
X146980830Y-112010632D01*
X146991866Y-111992219D01*
X147004654Y-111974976D01*
X147019070Y-111959070D01*
X147034976Y-111944654D01*
X147052219Y-111931866D01*
X147070632Y-111920830D01*
X147090038Y-111911651D01*
X147110250Y-111904419D01*
X147131074Y-111899203D01*
X147152309Y-111896053D01*
X147173750Y-111895000D01*
X147611250Y-111895000D01*
X147632691Y-111896053D01*
G37*
G04 #@! TD.AperFunction*
G04 #@! TA.AperFunction,SMDPad,CuDef*
G36*
X149207691Y-111896053D02*
G01*
X149228926Y-111899203D01*
X149249750Y-111904419D01*
X149269962Y-111911651D01*
X149289368Y-111920830D01*
X149307781Y-111931866D01*
X149325024Y-111944654D01*
X149340930Y-111959070D01*
X149355346Y-111974976D01*
X149368134Y-111992219D01*
X149379170Y-112010632D01*
X149388349Y-112030038D01*
X149395581Y-112050250D01*
X149400797Y-112071074D01*
X149403947Y-112092309D01*
X149405000Y-112113750D01*
X149405000Y-112626250D01*
X149403947Y-112647691D01*
X149400797Y-112668926D01*
X149395581Y-112689750D01*
X149388349Y-112709962D01*
X149379170Y-112729368D01*
X149368134Y-112747781D01*
X149355346Y-112765024D01*
X149340930Y-112780930D01*
X149325024Y-112795346D01*
X149307781Y-112808134D01*
X149289368Y-112819170D01*
X149269962Y-112828349D01*
X149249750Y-112835581D01*
X149228926Y-112840797D01*
X149207691Y-112843947D01*
X149186250Y-112845000D01*
X148748750Y-112845000D01*
X148727309Y-112843947D01*
X148706074Y-112840797D01*
X148685250Y-112835581D01*
X148665038Y-112828349D01*
X148645632Y-112819170D01*
X148627219Y-112808134D01*
X148609976Y-112795346D01*
X148594070Y-112780930D01*
X148579654Y-112765024D01*
X148566866Y-112747781D01*
X148555830Y-112729368D01*
X148546651Y-112709962D01*
X148539419Y-112689750D01*
X148534203Y-112668926D01*
X148531053Y-112647691D01*
X148530000Y-112626250D01*
X148530000Y-112113750D01*
X148531053Y-112092309D01*
X148534203Y-112071074D01*
X148539419Y-112050250D01*
X148546651Y-112030038D01*
X148555830Y-112010632D01*
X148566866Y-111992219D01*
X148579654Y-111974976D01*
X148594070Y-111959070D01*
X148609976Y-111944654D01*
X148627219Y-111931866D01*
X148645632Y-111920830D01*
X148665038Y-111911651D01*
X148685250Y-111904419D01*
X148706074Y-111899203D01*
X148727309Y-111896053D01*
X148748750Y-111895000D01*
X149186250Y-111895000D01*
X149207691Y-111896053D01*
G37*
G04 #@! TD.AperFunction*
D20*
X137100000Y-86905000D03*
X145740000Y-86905000D03*
D21*
X145740000Y-91085000D03*
X137100000Y-91085000D03*
D22*
X141670000Y-92000000D03*
X139670000Y-92000000D03*
X140170000Y-92000000D03*
X140670000Y-92000000D03*
X141170000Y-92000000D03*
X142170000Y-92000000D03*
X142670000Y-92000000D03*
X143170000Y-92000000D03*
D23*
X138170000Y-92000000D03*
X138970000Y-92000000D03*
X143870000Y-92000000D03*
X144670000Y-92000000D03*
X144670000Y-92000000D03*
X143870000Y-92000000D03*
X138970000Y-92000000D03*
X138170000Y-92000000D03*
G04 #@! TA.AperFunction,SMDPad,CuDef*
D19*
G36*
X138871958Y-96140710D02*
G01*
X138886276Y-96142834D01*
X138900317Y-96146351D01*
X138913946Y-96151228D01*
X138927031Y-96157417D01*
X138939447Y-96164858D01*
X138951073Y-96173481D01*
X138961798Y-96183202D01*
X138971519Y-96193927D01*
X138980142Y-96205553D01*
X138987583Y-96217969D01*
X138993772Y-96231054D01*
X138998649Y-96244683D01*
X139002166Y-96258724D01*
X139004290Y-96273042D01*
X139005000Y-96287500D01*
X139005000Y-96632500D01*
X139004290Y-96646958D01*
X139002166Y-96661276D01*
X138998649Y-96675317D01*
X138993772Y-96688946D01*
X138987583Y-96702031D01*
X138980142Y-96714447D01*
X138971519Y-96726073D01*
X138961798Y-96736798D01*
X138951073Y-96746519D01*
X138939447Y-96755142D01*
X138927031Y-96762583D01*
X138913946Y-96768772D01*
X138900317Y-96773649D01*
X138886276Y-96777166D01*
X138871958Y-96779290D01*
X138857500Y-96780000D01*
X138562500Y-96780000D01*
X138548042Y-96779290D01*
X138533724Y-96777166D01*
X138519683Y-96773649D01*
X138506054Y-96768772D01*
X138492969Y-96762583D01*
X138480553Y-96755142D01*
X138468927Y-96746519D01*
X138458202Y-96736798D01*
X138448481Y-96726073D01*
X138439858Y-96714447D01*
X138432417Y-96702031D01*
X138426228Y-96688946D01*
X138421351Y-96675317D01*
X138417834Y-96661276D01*
X138415710Y-96646958D01*
X138415000Y-96632500D01*
X138415000Y-96287500D01*
X138415710Y-96273042D01*
X138417834Y-96258724D01*
X138421351Y-96244683D01*
X138426228Y-96231054D01*
X138432417Y-96217969D01*
X138439858Y-96205553D01*
X138448481Y-96193927D01*
X138458202Y-96183202D01*
X138468927Y-96173481D01*
X138480553Y-96164858D01*
X138492969Y-96157417D01*
X138506054Y-96151228D01*
X138519683Y-96146351D01*
X138533724Y-96142834D01*
X138548042Y-96140710D01*
X138562500Y-96140000D01*
X138857500Y-96140000D01*
X138871958Y-96140710D01*
G37*
G04 #@! TD.AperFunction*
G04 #@! TA.AperFunction,SMDPad,CuDef*
G36*
X137901958Y-96140710D02*
G01*
X137916276Y-96142834D01*
X137930317Y-96146351D01*
X137943946Y-96151228D01*
X137957031Y-96157417D01*
X137969447Y-96164858D01*
X137981073Y-96173481D01*
X137991798Y-96183202D01*
X138001519Y-96193927D01*
X138010142Y-96205553D01*
X138017583Y-96217969D01*
X138023772Y-96231054D01*
X138028649Y-96244683D01*
X138032166Y-96258724D01*
X138034290Y-96273042D01*
X138035000Y-96287500D01*
X138035000Y-96632500D01*
X138034290Y-96646958D01*
X138032166Y-96661276D01*
X138028649Y-96675317D01*
X138023772Y-96688946D01*
X138017583Y-96702031D01*
X138010142Y-96714447D01*
X138001519Y-96726073D01*
X137991798Y-96736798D01*
X137981073Y-96746519D01*
X137969447Y-96755142D01*
X137957031Y-96762583D01*
X137943946Y-96768772D01*
X137930317Y-96773649D01*
X137916276Y-96777166D01*
X137901958Y-96779290D01*
X137887500Y-96780000D01*
X137592500Y-96780000D01*
X137578042Y-96779290D01*
X137563724Y-96777166D01*
X137549683Y-96773649D01*
X137536054Y-96768772D01*
X137522969Y-96762583D01*
X137510553Y-96755142D01*
X137498927Y-96746519D01*
X137488202Y-96736798D01*
X137478481Y-96726073D01*
X137469858Y-96714447D01*
X137462417Y-96702031D01*
X137456228Y-96688946D01*
X137451351Y-96675317D01*
X137447834Y-96661276D01*
X137445710Y-96646958D01*
X137445000Y-96632500D01*
X137445000Y-96287500D01*
X137445710Y-96273042D01*
X137447834Y-96258724D01*
X137451351Y-96244683D01*
X137456228Y-96231054D01*
X137462417Y-96217969D01*
X137469858Y-96205553D01*
X137478481Y-96193927D01*
X137488202Y-96183202D01*
X137498927Y-96173481D01*
X137510553Y-96164858D01*
X137522969Y-96157417D01*
X137536054Y-96151228D01*
X137549683Y-96146351D01*
X137563724Y-96142834D01*
X137578042Y-96140710D01*
X137592500Y-96140000D01*
X137887500Y-96140000D01*
X137901958Y-96140710D01*
G37*
G04 #@! TD.AperFunction*
G04 #@! TA.AperFunction,SMDPad,CuDef*
G36*
X137354703Y-106965722D02*
G01*
X137369264Y-106967882D01*
X137383543Y-106971459D01*
X137397403Y-106976418D01*
X137410710Y-106982712D01*
X137423336Y-106990280D01*
X137435159Y-106999048D01*
X137446066Y-107008934D01*
X137455952Y-107019841D01*
X137464720Y-107031664D01*
X137472288Y-107044290D01*
X137478582Y-107057597D01*
X137483541Y-107071457D01*
X137487118Y-107085736D01*
X137489278Y-107100297D01*
X137490000Y-107115000D01*
X137490000Y-107415000D01*
X137489278Y-107429703D01*
X137487118Y-107444264D01*
X137483541Y-107458543D01*
X137478582Y-107472403D01*
X137472288Y-107485710D01*
X137464720Y-107498336D01*
X137455952Y-107510159D01*
X137446066Y-107521066D01*
X137435159Y-107530952D01*
X137423336Y-107539720D01*
X137410710Y-107547288D01*
X137397403Y-107553582D01*
X137383543Y-107558541D01*
X137369264Y-107562118D01*
X137354703Y-107564278D01*
X137340000Y-107565000D01*
X135690000Y-107565000D01*
X135675297Y-107564278D01*
X135660736Y-107562118D01*
X135646457Y-107558541D01*
X135632597Y-107553582D01*
X135619290Y-107547288D01*
X135606664Y-107539720D01*
X135594841Y-107530952D01*
X135583934Y-107521066D01*
X135574048Y-107510159D01*
X135565280Y-107498336D01*
X135557712Y-107485710D01*
X135551418Y-107472403D01*
X135546459Y-107458543D01*
X135542882Y-107444264D01*
X135540722Y-107429703D01*
X135540000Y-107415000D01*
X135540000Y-107115000D01*
X135540722Y-107100297D01*
X135542882Y-107085736D01*
X135546459Y-107071457D01*
X135551418Y-107057597D01*
X135557712Y-107044290D01*
X135565280Y-107031664D01*
X135574048Y-107019841D01*
X135583934Y-107008934D01*
X135594841Y-106999048D01*
X135606664Y-106990280D01*
X135619290Y-106982712D01*
X135632597Y-106976418D01*
X135646457Y-106971459D01*
X135660736Y-106967882D01*
X135675297Y-106965722D01*
X135690000Y-106965000D01*
X137340000Y-106965000D01*
X137354703Y-106965722D01*
G37*
G04 #@! TD.AperFunction*
G04 #@! TA.AperFunction,SMDPad,CuDef*
G36*
X137354703Y-105695722D02*
G01*
X137369264Y-105697882D01*
X137383543Y-105701459D01*
X137397403Y-105706418D01*
X137410710Y-105712712D01*
X137423336Y-105720280D01*
X137435159Y-105729048D01*
X137446066Y-105738934D01*
X137455952Y-105749841D01*
X137464720Y-105761664D01*
X137472288Y-105774290D01*
X137478582Y-105787597D01*
X137483541Y-105801457D01*
X137487118Y-105815736D01*
X137489278Y-105830297D01*
X137490000Y-105845000D01*
X137490000Y-106145000D01*
X137489278Y-106159703D01*
X137487118Y-106174264D01*
X137483541Y-106188543D01*
X137478582Y-106202403D01*
X137472288Y-106215710D01*
X137464720Y-106228336D01*
X137455952Y-106240159D01*
X137446066Y-106251066D01*
X137435159Y-106260952D01*
X137423336Y-106269720D01*
X137410710Y-106277288D01*
X137397403Y-106283582D01*
X137383543Y-106288541D01*
X137369264Y-106292118D01*
X137354703Y-106294278D01*
X137340000Y-106295000D01*
X135690000Y-106295000D01*
X135675297Y-106294278D01*
X135660736Y-106292118D01*
X135646457Y-106288541D01*
X135632597Y-106283582D01*
X135619290Y-106277288D01*
X135606664Y-106269720D01*
X135594841Y-106260952D01*
X135583934Y-106251066D01*
X135574048Y-106240159D01*
X135565280Y-106228336D01*
X135557712Y-106215710D01*
X135551418Y-106202403D01*
X135546459Y-106188543D01*
X135542882Y-106174264D01*
X135540722Y-106159703D01*
X135540000Y-106145000D01*
X135540000Y-105845000D01*
X135540722Y-105830297D01*
X135542882Y-105815736D01*
X135546459Y-105801457D01*
X135551418Y-105787597D01*
X135557712Y-105774290D01*
X135565280Y-105761664D01*
X135574048Y-105749841D01*
X135583934Y-105738934D01*
X135594841Y-105729048D01*
X135606664Y-105720280D01*
X135619290Y-105712712D01*
X135632597Y-105706418D01*
X135646457Y-105701459D01*
X135660736Y-105697882D01*
X135675297Y-105695722D01*
X135690000Y-105695000D01*
X137340000Y-105695000D01*
X137354703Y-105695722D01*
G37*
G04 #@! TD.AperFunction*
G04 #@! TA.AperFunction,SMDPad,CuDef*
G36*
X137354703Y-104425722D02*
G01*
X137369264Y-104427882D01*
X137383543Y-104431459D01*
X137397403Y-104436418D01*
X137410710Y-104442712D01*
X137423336Y-104450280D01*
X137435159Y-104459048D01*
X137446066Y-104468934D01*
X137455952Y-104479841D01*
X137464720Y-104491664D01*
X137472288Y-104504290D01*
X137478582Y-104517597D01*
X137483541Y-104531457D01*
X137487118Y-104545736D01*
X137489278Y-104560297D01*
X137490000Y-104575000D01*
X137490000Y-104875000D01*
X137489278Y-104889703D01*
X137487118Y-104904264D01*
X137483541Y-104918543D01*
X137478582Y-104932403D01*
X137472288Y-104945710D01*
X137464720Y-104958336D01*
X137455952Y-104970159D01*
X137446066Y-104981066D01*
X137435159Y-104990952D01*
X137423336Y-104999720D01*
X137410710Y-105007288D01*
X137397403Y-105013582D01*
X137383543Y-105018541D01*
X137369264Y-105022118D01*
X137354703Y-105024278D01*
X137340000Y-105025000D01*
X135690000Y-105025000D01*
X135675297Y-105024278D01*
X135660736Y-105022118D01*
X135646457Y-105018541D01*
X135632597Y-105013582D01*
X135619290Y-105007288D01*
X135606664Y-104999720D01*
X135594841Y-104990952D01*
X135583934Y-104981066D01*
X135574048Y-104970159D01*
X135565280Y-104958336D01*
X135557712Y-104945710D01*
X135551418Y-104932403D01*
X135546459Y-104918543D01*
X135542882Y-104904264D01*
X135540722Y-104889703D01*
X135540000Y-104875000D01*
X135540000Y-104575000D01*
X135540722Y-104560297D01*
X135542882Y-104545736D01*
X135546459Y-104531457D01*
X135551418Y-104517597D01*
X135557712Y-104504290D01*
X135565280Y-104491664D01*
X135574048Y-104479841D01*
X135583934Y-104468934D01*
X135594841Y-104459048D01*
X135606664Y-104450280D01*
X135619290Y-104442712D01*
X135632597Y-104436418D01*
X135646457Y-104431459D01*
X135660736Y-104427882D01*
X135675297Y-104425722D01*
X135690000Y-104425000D01*
X137340000Y-104425000D01*
X137354703Y-104425722D01*
G37*
G04 #@! TD.AperFunction*
G04 #@! TA.AperFunction,SMDPad,CuDef*
G36*
X137354703Y-103155722D02*
G01*
X137369264Y-103157882D01*
X137383543Y-103161459D01*
X137397403Y-103166418D01*
X137410710Y-103172712D01*
X137423336Y-103180280D01*
X137435159Y-103189048D01*
X137446066Y-103198934D01*
X137455952Y-103209841D01*
X137464720Y-103221664D01*
X137472288Y-103234290D01*
X137478582Y-103247597D01*
X137483541Y-103261457D01*
X137487118Y-103275736D01*
X137489278Y-103290297D01*
X137490000Y-103305000D01*
X137490000Y-103605000D01*
X137489278Y-103619703D01*
X137487118Y-103634264D01*
X137483541Y-103648543D01*
X137478582Y-103662403D01*
X137472288Y-103675710D01*
X137464720Y-103688336D01*
X137455952Y-103700159D01*
X137446066Y-103711066D01*
X137435159Y-103720952D01*
X137423336Y-103729720D01*
X137410710Y-103737288D01*
X137397403Y-103743582D01*
X137383543Y-103748541D01*
X137369264Y-103752118D01*
X137354703Y-103754278D01*
X137340000Y-103755000D01*
X135690000Y-103755000D01*
X135675297Y-103754278D01*
X135660736Y-103752118D01*
X135646457Y-103748541D01*
X135632597Y-103743582D01*
X135619290Y-103737288D01*
X135606664Y-103729720D01*
X135594841Y-103720952D01*
X135583934Y-103711066D01*
X135574048Y-103700159D01*
X135565280Y-103688336D01*
X135557712Y-103675710D01*
X135551418Y-103662403D01*
X135546459Y-103648543D01*
X135542882Y-103634264D01*
X135540722Y-103619703D01*
X135540000Y-103605000D01*
X135540000Y-103305000D01*
X135540722Y-103290297D01*
X135542882Y-103275736D01*
X135546459Y-103261457D01*
X135551418Y-103247597D01*
X135557712Y-103234290D01*
X135565280Y-103221664D01*
X135574048Y-103209841D01*
X135583934Y-103198934D01*
X135594841Y-103189048D01*
X135606664Y-103180280D01*
X135619290Y-103172712D01*
X135632597Y-103166418D01*
X135646457Y-103161459D01*
X135660736Y-103157882D01*
X135675297Y-103155722D01*
X135690000Y-103155000D01*
X137340000Y-103155000D01*
X137354703Y-103155722D01*
G37*
G04 #@! TD.AperFunction*
G04 #@! TA.AperFunction,SMDPad,CuDef*
G36*
X137354703Y-101885722D02*
G01*
X137369264Y-101887882D01*
X137383543Y-101891459D01*
X137397403Y-101896418D01*
X137410710Y-101902712D01*
X137423336Y-101910280D01*
X137435159Y-101919048D01*
X137446066Y-101928934D01*
X137455952Y-101939841D01*
X137464720Y-101951664D01*
X137472288Y-101964290D01*
X137478582Y-101977597D01*
X137483541Y-101991457D01*
X137487118Y-102005736D01*
X137489278Y-102020297D01*
X137490000Y-102035000D01*
X137490000Y-102335000D01*
X137489278Y-102349703D01*
X137487118Y-102364264D01*
X137483541Y-102378543D01*
X137478582Y-102392403D01*
X137472288Y-102405710D01*
X137464720Y-102418336D01*
X137455952Y-102430159D01*
X137446066Y-102441066D01*
X137435159Y-102450952D01*
X137423336Y-102459720D01*
X137410710Y-102467288D01*
X137397403Y-102473582D01*
X137383543Y-102478541D01*
X137369264Y-102482118D01*
X137354703Y-102484278D01*
X137340000Y-102485000D01*
X135690000Y-102485000D01*
X135675297Y-102484278D01*
X135660736Y-102482118D01*
X135646457Y-102478541D01*
X135632597Y-102473582D01*
X135619290Y-102467288D01*
X135606664Y-102459720D01*
X135594841Y-102450952D01*
X135583934Y-102441066D01*
X135574048Y-102430159D01*
X135565280Y-102418336D01*
X135557712Y-102405710D01*
X135551418Y-102392403D01*
X135546459Y-102378543D01*
X135542882Y-102364264D01*
X135540722Y-102349703D01*
X135540000Y-102335000D01*
X135540000Y-102035000D01*
X135540722Y-102020297D01*
X135542882Y-102005736D01*
X135546459Y-101991457D01*
X135551418Y-101977597D01*
X135557712Y-101964290D01*
X135565280Y-101951664D01*
X135574048Y-101939841D01*
X135583934Y-101928934D01*
X135594841Y-101919048D01*
X135606664Y-101910280D01*
X135619290Y-101902712D01*
X135632597Y-101896418D01*
X135646457Y-101891459D01*
X135660736Y-101887882D01*
X135675297Y-101885722D01*
X135690000Y-101885000D01*
X137340000Y-101885000D01*
X137354703Y-101885722D01*
G37*
G04 #@! TD.AperFunction*
G04 #@! TA.AperFunction,SMDPad,CuDef*
G36*
X137354703Y-100615722D02*
G01*
X137369264Y-100617882D01*
X137383543Y-100621459D01*
X137397403Y-100626418D01*
X137410710Y-100632712D01*
X137423336Y-100640280D01*
X137435159Y-100649048D01*
X137446066Y-100658934D01*
X137455952Y-100669841D01*
X137464720Y-100681664D01*
X137472288Y-100694290D01*
X137478582Y-100707597D01*
X137483541Y-100721457D01*
X137487118Y-100735736D01*
X137489278Y-100750297D01*
X137490000Y-100765000D01*
X137490000Y-101065000D01*
X137489278Y-101079703D01*
X137487118Y-101094264D01*
X137483541Y-101108543D01*
X137478582Y-101122403D01*
X137472288Y-101135710D01*
X137464720Y-101148336D01*
X137455952Y-101160159D01*
X137446066Y-101171066D01*
X137435159Y-101180952D01*
X137423336Y-101189720D01*
X137410710Y-101197288D01*
X137397403Y-101203582D01*
X137383543Y-101208541D01*
X137369264Y-101212118D01*
X137354703Y-101214278D01*
X137340000Y-101215000D01*
X135690000Y-101215000D01*
X135675297Y-101214278D01*
X135660736Y-101212118D01*
X135646457Y-101208541D01*
X135632597Y-101203582D01*
X135619290Y-101197288D01*
X135606664Y-101189720D01*
X135594841Y-101180952D01*
X135583934Y-101171066D01*
X135574048Y-101160159D01*
X135565280Y-101148336D01*
X135557712Y-101135710D01*
X135551418Y-101122403D01*
X135546459Y-101108543D01*
X135542882Y-101094264D01*
X135540722Y-101079703D01*
X135540000Y-101065000D01*
X135540000Y-100765000D01*
X135540722Y-100750297D01*
X135542882Y-100735736D01*
X135546459Y-100721457D01*
X135551418Y-100707597D01*
X135557712Y-100694290D01*
X135565280Y-100681664D01*
X135574048Y-100669841D01*
X135583934Y-100658934D01*
X135594841Y-100649048D01*
X135606664Y-100640280D01*
X135619290Y-100632712D01*
X135632597Y-100626418D01*
X135646457Y-100621459D01*
X135660736Y-100617882D01*
X135675297Y-100615722D01*
X135690000Y-100615000D01*
X137340000Y-100615000D01*
X137354703Y-100615722D01*
G37*
G04 #@! TD.AperFunction*
G04 #@! TA.AperFunction,SMDPad,CuDef*
G36*
X137354703Y-99345722D02*
G01*
X137369264Y-99347882D01*
X137383543Y-99351459D01*
X137397403Y-99356418D01*
X137410710Y-99362712D01*
X137423336Y-99370280D01*
X137435159Y-99379048D01*
X137446066Y-99388934D01*
X137455952Y-99399841D01*
X137464720Y-99411664D01*
X137472288Y-99424290D01*
X137478582Y-99437597D01*
X137483541Y-99451457D01*
X137487118Y-99465736D01*
X137489278Y-99480297D01*
X137490000Y-99495000D01*
X137490000Y-99795000D01*
X137489278Y-99809703D01*
X137487118Y-99824264D01*
X137483541Y-99838543D01*
X137478582Y-99852403D01*
X137472288Y-99865710D01*
X137464720Y-99878336D01*
X137455952Y-99890159D01*
X137446066Y-99901066D01*
X137435159Y-99910952D01*
X137423336Y-99919720D01*
X137410710Y-99927288D01*
X137397403Y-99933582D01*
X137383543Y-99938541D01*
X137369264Y-99942118D01*
X137354703Y-99944278D01*
X137340000Y-99945000D01*
X135690000Y-99945000D01*
X135675297Y-99944278D01*
X135660736Y-99942118D01*
X135646457Y-99938541D01*
X135632597Y-99933582D01*
X135619290Y-99927288D01*
X135606664Y-99919720D01*
X135594841Y-99910952D01*
X135583934Y-99901066D01*
X135574048Y-99890159D01*
X135565280Y-99878336D01*
X135557712Y-99865710D01*
X135551418Y-99852403D01*
X135546459Y-99838543D01*
X135542882Y-99824264D01*
X135540722Y-99809703D01*
X135540000Y-99795000D01*
X135540000Y-99495000D01*
X135540722Y-99480297D01*
X135542882Y-99465736D01*
X135546459Y-99451457D01*
X135551418Y-99437597D01*
X135557712Y-99424290D01*
X135565280Y-99411664D01*
X135574048Y-99399841D01*
X135583934Y-99388934D01*
X135594841Y-99379048D01*
X135606664Y-99370280D01*
X135619290Y-99362712D01*
X135632597Y-99356418D01*
X135646457Y-99351459D01*
X135660736Y-99347882D01*
X135675297Y-99345722D01*
X135690000Y-99345000D01*
X137340000Y-99345000D01*
X137354703Y-99345722D01*
G37*
G04 #@! TD.AperFunction*
G04 #@! TA.AperFunction,SMDPad,CuDef*
G36*
X137354703Y-98075722D02*
G01*
X137369264Y-98077882D01*
X137383543Y-98081459D01*
X137397403Y-98086418D01*
X137410710Y-98092712D01*
X137423336Y-98100280D01*
X137435159Y-98109048D01*
X137446066Y-98118934D01*
X137455952Y-98129841D01*
X137464720Y-98141664D01*
X137472288Y-98154290D01*
X137478582Y-98167597D01*
X137483541Y-98181457D01*
X137487118Y-98195736D01*
X137489278Y-98210297D01*
X137490000Y-98225000D01*
X137490000Y-98525000D01*
X137489278Y-98539703D01*
X137487118Y-98554264D01*
X137483541Y-98568543D01*
X137478582Y-98582403D01*
X137472288Y-98595710D01*
X137464720Y-98608336D01*
X137455952Y-98620159D01*
X137446066Y-98631066D01*
X137435159Y-98640952D01*
X137423336Y-98649720D01*
X137410710Y-98657288D01*
X137397403Y-98663582D01*
X137383543Y-98668541D01*
X137369264Y-98672118D01*
X137354703Y-98674278D01*
X137340000Y-98675000D01*
X135690000Y-98675000D01*
X135675297Y-98674278D01*
X135660736Y-98672118D01*
X135646457Y-98668541D01*
X135632597Y-98663582D01*
X135619290Y-98657288D01*
X135606664Y-98649720D01*
X135594841Y-98640952D01*
X135583934Y-98631066D01*
X135574048Y-98620159D01*
X135565280Y-98608336D01*
X135557712Y-98595710D01*
X135551418Y-98582403D01*
X135546459Y-98568543D01*
X135542882Y-98554264D01*
X135540722Y-98539703D01*
X135540000Y-98525000D01*
X135540000Y-98225000D01*
X135540722Y-98210297D01*
X135542882Y-98195736D01*
X135546459Y-98181457D01*
X135551418Y-98167597D01*
X135557712Y-98154290D01*
X135565280Y-98141664D01*
X135574048Y-98129841D01*
X135583934Y-98118934D01*
X135594841Y-98109048D01*
X135606664Y-98100280D01*
X135619290Y-98092712D01*
X135632597Y-98086418D01*
X135646457Y-98081459D01*
X135660736Y-98077882D01*
X135675297Y-98075722D01*
X135690000Y-98075000D01*
X137340000Y-98075000D01*
X137354703Y-98075722D01*
G37*
G04 #@! TD.AperFunction*
G04 #@! TA.AperFunction,SMDPad,CuDef*
G36*
X142304703Y-98075722D02*
G01*
X142319264Y-98077882D01*
X142333543Y-98081459D01*
X142347403Y-98086418D01*
X142360710Y-98092712D01*
X142373336Y-98100280D01*
X142385159Y-98109048D01*
X142396066Y-98118934D01*
X142405952Y-98129841D01*
X142414720Y-98141664D01*
X142422288Y-98154290D01*
X142428582Y-98167597D01*
X142433541Y-98181457D01*
X142437118Y-98195736D01*
X142439278Y-98210297D01*
X142440000Y-98225000D01*
X142440000Y-98525000D01*
X142439278Y-98539703D01*
X142437118Y-98554264D01*
X142433541Y-98568543D01*
X142428582Y-98582403D01*
X142422288Y-98595710D01*
X142414720Y-98608336D01*
X142405952Y-98620159D01*
X142396066Y-98631066D01*
X142385159Y-98640952D01*
X142373336Y-98649720D01*
X142360710Y-98657288D01*
X142347403Y-98663582D01*
X142333543Y-98668541D01*
X142319264Y-98672118D01*
X142304703Y-98674278D01*
X142290000Y-98675000D01*
X140640000Y-98675000D01*
X140625297Y-98674278D01*
X140610736Y-98672118D01*
X140596457Y-98668541D01*
X140582597Y-98663582D01*
X140569290Y-98657288D01*
X140556664Y-98649720D01*
X140544841Y-98640952D01*
X140533934Y-98631066D01*
X140524048Y-98620159D01*
X140515280Y-98608336D01*
X140507712Y-98595710D01*
X140501418Y-98582403D01*
X140496459Y-98568543D01*
X140492882Y-98554264D01*
X140490722Y-98539703D01*
X140490000Y-98525000D01*
X140490000Y-98225000D01*
X140490722Y-98210297D01*
X140492882Y-98195736D01*
X140496459Y-98181457D01*
X140501418Y-98167597D01*
X140507712Y-98154290D01*
X140515280Y-98141664D01*
X140524048Y-98129841D01*
X140533934Y-98118934D01*
X140544841Y-98109048D01*
X140556664Y-98100280D01*
X140569290Y-98092712D01*
X140582597Y-98086418D01*
X140596457Y-98081459D01*
X140610736Y-98077882D01*
X140625297Y-98075722D01*
X140640000Y-98075000D01*
X142290000Y-98075000D01*
X142304703Y-98075722D01*
G37*
G04 #@! TD.AperFunction*
G04 #@! TA.AperFunction,SMDPad,CuDef*
G36*
X142304703Y-99345722D02*
G01*
X142319264Y-99347882D01*
X142333543Y-99351459D01*
X142347403Y-99356418D01*
X142360710Y-99362712D01*
X142373336Y-99370280D01*
X142385159Y-99379048D01*
X142396066Y-99388934D01*
X142405952Y-99399841D01*
X142414720Y-99411664D01*
X142422288Y-99424290D01*
X142428582Y-99437597D01*
X142433541Y-99451457D01*
X142437118Y-99465736D01*
X142439278Y-99480297D01*
X142440000Y-99495000D01*
X142440000Y-99795000D01*
X142439278Y-99809703D01*
X142437118Y-99824264D01*
X142433541Y-99838543D01*
X142428582Y-99852403D01*
X142422288Y-99865710D01*
X142414720Y-99878336D01*
X142405952Y-99890159D01*
X142396066Y-99901066D01*
X142385159Y-99910952D01*
X142373336Y-99919720D01*
X142360710Y-99927288D01*
X142347403Y-99933582D01*
X142333543Y-99938541D01*
X142319264Y-99942118D01*
X142304703Y-99944278D01*
X142290000Y-99945000D01*
X140640000Y-99945000D01*
X140625297Y-99944278D01*
X140610736Y-99942118D01*
X140596457Y-99938541D01*
X140582597Y-99933582D01*
X140569290Y-99927288D01*
X140556664Y-99919720D01*
X140544841Y-99910952D01*
X140533934Y-99901066D01*
X140524048Y-99890159D01*
X140515280Y-99878336D01*
X140507712Y-99865710D01*
X140501418Y-99852403D01*
X140496459Y-99838543D01*
X140492882Y-99824264D01*
X140490722Y-99809703D01*
X140490000Y-99795000D01*
X140490000Y-99495000D01*
X140490722Y-99480297D01*
X140492882Y-99465736D01*
X140496459Y-99451457D01*
X140501418Y-99437597D01*
X140507712Y-99424290D01*
X140515280Y-99411664D01*
X140524048Y-99399841D01*
X140533934Y-99388934D01*
X140544841Y-99379048D01*
X140556664Y-99370280D01*
X140569290Y-99362712D01*
X140582597Y-99356418D01*
X140596457Y-99351459D01*
X140610736Y-99347882D01*
X140625297Y-99345722D01*
X140640000Y-99345000D01*
X142290000Y-99345000D01*
X142304703Y-99345722D01*
G37*
G04 #@! TD.AperFunction*
G04 #@! TA.AperFunction,SMDPad,CuDef*
G36*
X142304703Y-100615722D02*
G01*
X142319264Y-100617882D01*
X142333543Y-100621459D01*
X142347403Y-100626418D01*
X142360710Y-100632712D01*
X142373336Y-100640280D01*
X142385159Y-100649048D01*
X142396066Y-100658934D01*
X142405952Y-100669841D01*
X142414720Y-100681664D01*
X142422288Y-100694290D01*
X142428582Y-100707597D01*
X142433541Y-100721457D01*
X142437118Y-100735736D01*
X142439278Y-100750297D01*
X142440000Y-100765000D01*
X142440000Y-101065000D01*
X142439278Y-101079703D01*
X142437118Y-101094264D01*
X142433541Y-101108543D01*
X142428582Y-101122403D01*
X142422288Y-101135710D01*
X142414720Y-101148336D01*
X142405952Y-101160159D01*
X142396066Y-101171066D01*
X142385159Y-101180952D01*
X142373336Y-101189720D01*
X142360710Y-101197288D01*
X142347403Y-101203582D01*
X142333543Y-101208541D01*
X142319264Y-101212118D01*
X142304703Y-101214278D01*
X142290000Y-101215000D01*
X140640000Y-101215000D01*
X140625297Y-101214278D01*
X140610736Y-101212118D01*
X140596457Y-101208541D01*
X140582597Y-101203582D01*
X140569290Y-101197288D01*
X140556664Y-101189720D01*
X140544841Y-101180952D01*
X140533934Y-101171066D01*
X140524048Y-101160159D01*
X140515280Y-101148336D01*
X140507712Y-101135710D01*
X140501418Y-101122403D01*
X140496459Y-101108543D01*
X140492882Y-101094264D01*
X140490722Y-101079703D01*
X140490000Y-101065000D01*
X140490000Y-100765000D01*
X140490722Y-100750297D01*
X140492882Y-100735736D01*
X140496459Y-100721457D01*
X140501418Y-100707597D01*
X140507712Y-100694290D01*
X140515280Y-100681664D01*
X140524048Y-100669841D01*
X140533934Y-100658934D01*
X140544841Y-100649048D01*
X140556664Y-100640280D01*
X140569290Y-100632712D01*
X140582597Y-100626418D01*
X140596457Y-100621459D01*
X140610736Y-100617882D01*
X140625297Y-100615722D01*
X140640000Y-100615000D01*
X142290000Y-100615000D01*
X142304703Y-100615722D01*
G37*
G04 #@! TD.AperFunction*
G04 #@! TA.AperFunction,SMDPad,CuDef*
G36*
X142304703Y-101885722D02*
G01*
X142319264Y-101887882D01*
X142333543Y-101891459D01*
X142347403Y-101896418D01*
X142360710Y-101902712D01*
X142373336Y-101910280D01*
X142385159Y-101919048D01*
X142396066Y-101928934D01*
X142405952Y-101939841D01*
X142414720Y-101951664D01*
X142422288Y-101964290D01*
X142428582Y-101977597D01*
X142433541Y-101991457D01*
X142437118Y-102005736D01*
X142439278Y-102020297D01*
X142440000Y-102035000D01*
X142440000Y-102335000D01*
X142439278Y-102349703D01*
X142437118Y-102364264D01*
X142433541Y-102378543D01*
X142428582Y-102392403D01*
X142422288Y-102405710D01*
X142414720Y-102418336D01*
X142405952Y-102430159D01*
X142396066Y-102441066D01*
X142385159Y-102450952D01*
X142373336Y-102459720D01*
X142360710Y-102467288D01*
X142347403Y-102473582D01*
X142333543Y-102478541D01*
X142319264Y-102482118D01*
X142304703Y-102484278D01*
X142290000Y-102485000D01*
X140640000Y-102485000D01*
X140625297Y-102484278D01*
X140610736Y-102482118D01*
X140596457Y-102478541D01*
X140582597Y-102473582D01*
X140569290Y-102467288D01*
X140556664Y-102459720D01*
X140544841Y-102450952D01*
X140533934Y-102441066D01*
X140524048Y-102430159D01*
X140515280Y-102418336D01*
X140507712Y-102405710D01*
X140501418Y-102392403D01*
X140496459Y-102378543D01*
X140492882Y-102364264D01*
X140490722Y-102349703D01*
X140490000Y-102335000D01*
X140490000Y-102035000D01*
X140490722Y-102020297D01*
X140492882Y-102005736D01*
X140496459Y-101991457D01*
X140501418Y-101977597D01*
X140507712Y-101964290D01*
X140515280Y-101951664D01*
X140524048Y-101939841D01*
X140533934Y-101928934D01*
X140544841Y-101919048D01*
X140556664Y-101910280D01*
X140569290Y-101902712D01*
X140582597Y-101896418D01*
X140596457Y-101891459D01*
X140610736Y-101887882D01*
X140625297Y-101885722D01*
X140640000Y-101885000D01*
X142290000Y-101885000D01*
X142304703Y-101885722D01*
G37*
G04 #@! TD.AperFunction*
G04 #@! TA.AperFunction,SMDPad,CuDef*
G36*
X142304703Y-103155722D02*
G01*
X142319264Y-103157882D01*
X142333543Y-103161459D01*
X142347403Y-103166418D01*
X142360710Y-103172712D01*
X142373336Y-103180280D01*
X142385159Y-103189048D01*
X142396066Y-103198934D01*
X142405952Y-103209841D01*
X142414720Y-103221664D01*
X142422288Y-103234290D01*
X142428582Y-103247597D01*
X142433541Y-103261457D01*
X142437118Y-103275736D01*
X142439278Y-103290297D01*
X142440000Y-103305000D01*
X142440000Y-103605000D01*
X142439278Y-103619703D01*
X142437118Y-103634264D01*
X142433541Y-103648543D01*
X142428582Y-103662403D01*
X142422288Y-103675710D01*
X142414720Y-103688336D01*
X142405952Y-103700159D01*
X142396066Y-103711066D01*
X142385159Y-103720952D01*
X142373336Y-103729720D01*
X142360710Y-103737288D01*
X142347403Y-103743582D01*
X142333543Y-103748541D01*
X142319264Y-103752118D01*
X142304703Y-103754278D01*
X142290000Y-103755000D01*
X140640000Y-103755000D01*
X140625297Y-103754278D01*
X140610736Y-103752118D01*
X140596457Y-103748541D01*
X140582597Y-103743582D01*
X140569290Y-103737288D01*
X140556664Y-103729720D01*
X140544841Y-103720952D01*
X140533934Y-103711066D01*
X140524048Y-103700159D01*
X140515280Y-103688336D01*
X140507712Y-103675710D01*
X140501418Y-103662403D01*
X140496459Y-103648543D01*
X140492882Y-103634264D01*
X140490722Y-103619703D01*
X140490000Y-103605000D01*
X140490000Y-103305000D01*
X140490722Y-103290297D01*
X140492882Y-103275736D01*
X140496459Y-103261457D01*
X140501418Y-103247597D01*
X140507712Y-103234290D01*
X140515280Y-103221664D01*
X140524048Y-103209841D01*
X140533934Y-103198934D01*
X140544841Y-103189048D01*
X140556664Y-103180280D01*
X140569290Y-103172712D01*
X140582597Y-103166418D01*
X140596457Y-103161459D01*
X140610736Y-103157882D01*
X140625297Y-103155722D01*
X140640000Y-103155000D01*
X142290000Y-103155000D01*
X142304703Y-103155722D01*
G37*
G04 #@! TD.AperFunction*
G04 #@! TA.AperFunction,SMDPad,CuDef*
G36*
X142304703Y-104425722D02*
G01*
X142319264Y-104427882D01*
X142333543Y-104431459D01*
X142347403Y-104436418D01*
X142360710Y-104442712D01*
X142373336Y-104450280D01*
X142385159Y-104459048D01*
X142396066Y-104468934D01*
X142405952Y-104479841D01*
X142414720Y-104491664D01*
X142422288Y-104504290D01*
X142428582Y-104517597D01*
X142433541Y-104531457D01*
X142437118Y-104545736D01*
X142439278Y-104560297D01*
X142440000Y-104575000D01*
X142440000Y-104875000D01*
X142439278Y-104889703D01*
X142437118Y-104904264D01*
X142433541Y-104918543D01*
X142428582Y-104932403D01*
X142422288Y-104945710D01*
X142414720Y-104958336D01*
X142405952Y-104970159D01*
X142396066Y-104981066D01*
X142385159Y-104990952D01*
X142373336Y-104999720D01*
X142360710Y-105007288D01*
X142347403Y-105013582D01*
X142333543Y-105018541D01*
X142319264Y-105022118D01*
X142304703Y-105024278D01*
X142290000Y-105025000D01*
X140640000Y-105025000D01*
X140625297Y-105024278D01*
X140610736Y-105022118D01*
X140596457Y-105018541D01*
X140582597Y-105013582D01*
X140569290Y-105007288D01*
X140556664Y-104999720D01*
X140544841Y-104990952D01*
X140533934Y-104981066D01*
X140524048Y-104970159D01*
X140515280Y-104958336D01*
X140507712Y-104945710D01*
X140501418Y-104932403D01*
X140496459Y-104918543D01*
X140492882Y-104904264D01*
X140490722Y-104889703D01*
X140490000Y-104875000D01*
X140490000Y-104575000D01*
X140490722Y-104560297D01*
X140492882Y-104545736D01*
X140496459Y-104531457D01*
X140501418Y-104517597D01*
X140507712Y-104504290D01*
X140515280Y-104491664D01*
X140524048Y-104479841D01*
X140533934Y-104468934D01*
X140544841Y-104459048D01*
X140556664Y-104450280D01*
X140569290Y-104442712D01*
X140582597Y-104436418D01*
X140596457Y-104431459D01*
X140610736Y-104427882D01*
X140625297Y-104425722D01*
X140640000Y-104425000D01*
X142290000Y-104425000D01*
X142304703Y-104425722D01*
G37*
G04 #@! TD.AperFunction*
G04 #@! TA.AperFunction,SMDPad,CuDef*
G36*
X142304703Y-105695722D02*
G01*
X142319264Y-105697882D01*
X142333543Y-105701459D01*
X142347403Y-105706418D01*
X142360710Y-105712712D01*
X142373336Y-105720280D01*
X142385159Y-105729048D01*
X142396066Y-105738934D01*
X142405952Y-105749841D01*
X142414720Y-105761664D01*
X142422288Y-105774290D01*
X142428582Y-105787597D01*
X142433541Y-105801457D01*
X142437118Y-105815736D01*
X142439278Y-105830297D01*
X142440000Y-105845000D01*
X142440000Y-106145000D01*
X142439278Y-106159703D01*
X142437118Y-106174264D01*
X142433541Y-106188543D01*
X142428582Y-106202403D01*
X142422288Y-106215710D01*
X142414720Y-106228336D01*
X142405952Y-106240159D01*
X142396066Y-106251066D01*
X142385159Y-106260952D01*
X142373336Y-106269720D01*
X142360710Y-106277288D01*
X142347403Y-106283582D01*
X142333543Y-106288541D01*
X142319264Y-106292118D01*
X142304703Y-106294278D01*
X142290000Y-106295000D01*
X140640000Y-106295000D01*
X140625297Y-106294278D01*
X140610736Y-106292118D01*
X140596457Y-106288541D01*
X140582597Y-106283582D01*
X140569290Y-106277288D01*
X140556664Y-106269720D01*
X140544841Y-106260952D01*
X140533934Y-106251066D01*
X140524048Y-106240159D01*
X140515280Y-106228336D01*
X140507712Y-106215710D01*
X140501418Y-106202403D01*
X140496459Y-106188543D01*
X140492882Y-106174264D01*
X140490722Y-106159703D01*
X140490000Y-106145000D01*
X140490000Y-105845000D01*
X140490722Y-105830297D01*
X140492882Y-105815736D01*
X140496459Y-105801457D01*
X140501418Y-105787597D01*
X140507712Y-105774290D01*
X140515280Y-105761664D01*
X140524048Y-105749841D01*
X140533934Y-105738934D01*
X140544841Y-105729048D01*
X140556664Y-105720280D01*
X140569290Y-105712712D01*
X140582597Y-105706418D01*
X140596457Y-105701459D01*
X140610736Y-105697882D01*
X140625297Y-105695722D01*
X140640000Y-105695000D01*
X142290000Y-105695000D01*
X142304703Y-105695722D01*
G37*
G04 #@! TD.AperFunction*
G04 #@! TA.AperFunction,SMDPad,CuDef*
G36*
X142304703Y-106965722D02*
G01*
X142319264Y-106967882D01*
X142333543Y-106971459D01*
X142347403Y-106976418D01*
X142360710Y-106982712D01*
X142373336Y-106990280D01*
X142385159Y-106999048D01*
X142396066Y-107008934D01*
X142405952Y-107019841D01*
X142414720Y-107031664D01*
X142422288Y-107044290D01*
X142428582Y-107057597D01*
X142433541Y-107071457D01*
X142437118Y-107085736D01*
X142439278Y-107100297D01*
X142440000Y-107115000D01*
X142440000Y-107415000D01*
X142439278Y-107429703D01*
X142437118Y-107444264D01*
X142433541Y-107458543D01*
X142428582Y-107472403D01*
X142422288Y-107485710D01*
X142414720Y-107498336D01*
X142405952Y-107510159D01*
X142396066Y-107521066D01*
X142385159Y-107530952D01*
X142373336Y-107539720D01*
X142360710Y-107547288D01*
X142347403Y-107553582D01*
X142333543Y-107558541D01*
X142319264Y-107562118D01*
X142304703Y-107564278D01*
X142290000Y-107565000D01*
X140640000Y-107565000D01*
X140625297Y-107564278D01*
X140610736Y-107562118D01*
X140596457Y-107558541D01*
X140582597Y-107553582D01*
X140569290Y-107547288D01*
X140556664Y-107539720D01*
X140544841Y-107530952D01*
X140533934Y-107521066D01*
X140524048Y-107510159D01*
X140515280Y-107498336D01*
X140507712Y-107485710D01*
X140501418Y-107472403D01*
X140496459Y-107458543D01*
X140492882Y-107444264D01*
X140490722Y-107429703D01*
X140490000Y-107415000D01*
X140490000Y-107115000D01*
X140490722Y-107100297D01*
X140492882Y-107085736D01*
X140496459Y-107071457D01*
X140501418Y-107057597D01*
X140507712Y-107044290D01*
X140515280Y-107031664D01*
X140524048Y-107019841D01*
X140533934Y-107008934D01*
X140544841Y-106999048D01*
X140556664Y-106990280D01*
X140569290Y-106982712D01*
X140582597Y-106976418D01*
X140596457Y-106971459D01*
X140610736Y-106967882D01*
X140625297Y-106965722D01*
X140640000Y-106965000D01*
X142290000Y-106965000D01*
X142304703Y-106965722D01*
G37*
G04 #@! TD.AperFunction*
G04 #@! TA.AperFunction,SMDPad,CuDef*
G36*
X132016958Y-102220710D02*
G01*
X132031276Y-102222834D01*
X132045317Y-102226351D01*
X132058946Y-102231228D01*
X132072031Y-102237417D01*
X132084447Y-102244858D01*
X132096073Y-102253481D01*
X132106798Y-102263202D01*
X132116519Y-102273927D01*
X132125142Y-102285553D01*
X132132583Y-102297969D01*
X132138772Y-102311054D01*
X132143649Y-102324683D01*
X132147166Y-102338724D01*
X132149290Y-102353042D01*
X132150000Y-102367500D01*
X132150000Y-102662500D01*
X132149290Y-102676958D01*
X132147166Y-102691276D01*
X132143649Y-102705317D01*
X132138772Y-102718946D01*
X132132583Y-102732031D01*
X132125142Y-102744447D01*
X132116519Y-102756073D01*
X132106798Y-102766798D01*
X132096073Y-102776519D01*
X132084447Y-102785142D01*
X132072031Y-102792583D01*
X132058946Y-102798772D01*
X132045317Y-102803649D01*
X132031276Y-102807166D01*
X132016958Y-102809290D01*
X132002500Y-102810000D01*
X131657500Y-102810000D01*
X131643042Y-102809290D01*
X131628724Y-102807166D01*
X131614683Y-102803649D01*
X131601054Y-102798772D01*
X131587969Y-102792583D01*
X131575553Y-102785142D01*
X131563927Y-102776519D01*
X131553202Y-102766798D01*
X131543481Y-102756073D01*
X131534858Y-102744447D01*
X131527417Y-102732031D01*
X131521228Y-102718946D01*
X131516351Y-102705317D01*
X131512834Y-102691276D01*
X131510710Y-102676958D01*
X131510000Y-102662500D01*
X131510000Y-102367500D01*
X131510710Y-102353042D01*
X131512834Y-102338724D01*
X131516351Y-102324683D01*
X131521228Y-102311054D01*
X131527417Y-102297969D01*
X131534858Y-102285553D01*
X131543481Y-102273927D01*
X131553202Y-102263202D01*
X131563927Y-102253481D01*
X131575553Y-102244858D01*
X131587969Y-102237417D01*
X131601054Y-102231228D01*
X131614683Y-102226351D01*
X131628724Y-102222834D01*
X131643042Y-102220710D01*
X131657500Y-102220000D01*
X132002500Y-102220000D01*
X132016958Y-102220710D01*
G37*
G04 #@! TD.AperFunction*
G04 #@! TA.AperFunction,SMDPad,CuDef*
G36*
X132016958Y-103190710D02*
G01*
X132031276Y-103192834D01*
X132045317Y-103196351D01*
X132058946Y-103201228D01*
X132072031Y-103207417D01*
X132084447Y-103214858D01*
X132096073Y-103223481D01*
X132106798Y-103233202D01*
X132116519Y-103243927D01*
X132125142Y-103255553D01*
X132132583Y-103267969D01*
X132138772Y-103281054D01*
X132143649Y-103294683D01*
X132147166Y-103308724D01*
X132149290Y-103323042D01*
X132150000Y-103337500D01*
X132150000Y-103632500D01*
X132149290Y-103646958D01*
X132147166Y-103661276D01*
X132143649Y-103675317D01*
X132138772Y-103688946D01*
X132132583Y-103702031D01*
X132125142Y-103714447D01*
X132116519Y-103726073D01*
X132106798Y-103736798D01*
X132096073Y-103746519D01*
X132084447Y-103755142D01*
X132072031Y-103762583D01*
X132058946Y-103768772D01*
X132045317Y-103773649D01*
X132031276Y-103777166D01*
X132016958Y-103779290D01*
X132002500Y-103780000D01*
X131657500Y-103780000D01*
X131643042Y-103779290D01*
X131628724Y-103777166D01*
X131614683Y-103773649D01*
X131601054Y-103768772D01*
X131587969Y-103762583D01*
X131575553Y-103755142D01*
X131563927Y-103746519D01*
X131553202Y-103736798D01*
X131543481Y-103726073D01*
X131534858Y-103714447D01*
X131527417Y-103702031D01*
X131521228Y-103688946D01*
X131516351Y-103675317D01*
X131512834Y-103661276D01*
X131510710Y-103646958D01*
X131510000Y-103632500D01*
X131510000Y-103337500D01*
X131510710Y-103323042D01*
X131512834Y-103308724D01*
X131516351Y-103294683D01*
X131521228Y-103281054D01*
X131527417Y-103267969D01*
X131534858Y-103255553D01*
X131543481Y-103243927D01*
X131553202Y-103233202D01*
X131563927Y-103223481D01*
X131575553Y-103214858D01*
X131587969Y-103207417D01*
X131601054Y-103201228D01*
X131614683Y-103196351D01*
X131628724Y-103192834D01*
X131643042Y-103190710D01*
X131657500Y-103190000D01*
X132002500Y-103190000D01*
X132016958Y-103190710D01*
G37*
G04 #@! TD.AperFunction*
G04 #@! TA.AperFunction,SMDPad,CuDef*
G36*
X134016958Y-102220710D02*
G01*
X134031276Y-102222834D01*
X134045317Y-102226351D01*
X134058946Y-102231228D01*
X134072031Y-102237417D01*
X134084447Y-102244858D01*
X134096073Y-102253481D01*
X134106798Y-102263202D01*
X134116519Y-102273927D01*
X134125142Y-102285553D01*
X134132583Y-102297969D01*
X134138772Y-102311054D01*
X134143649Y-102324683D01*
X134147166Y-102338724D01*
X134149290Y-102353042D01*
X134150000Y-102367500D01*
X134150000Y-102662500D01*
X134149290Y-102676958D01*
X134147166Y-102691276D01*
X134143649Y-102705317D01*
X134138772Y-102718946D01*
X134132583Y-102732031D01*
X134125142Y-102744447D01*
X134116519Y-102756073D01*
X134106798Y-102766798D01*
X134096073Y-102776519D01*
X134084447Y-102785142D01*
X134072031Y-102792583D01*
X134058946Y-102798772D01*
X134045317Y-102803649D01*
X134031276Y-102807166D01*
X134016958Y-102809290D01*
X134002500Y-102810000D01*
X133657500Y-102810000D01*
X133643042Y-102809290D01*
X133628724Y-102807166D01*
X133614683Y-102803649D01*
X133601054Y-102798772D01*
X133587969Y-102792583D01*
X133575553Y-102785142D01*
X133563927Y-102776519D01*
X133553202Y-102766798D01*
X133543481Y-102756073D01*
X133534858Y-102744447D01*
X133527417Y-102732031D01*
X133521228Y-102718946D01*
X133516351Y-102705317D01*
X133512834Y-102691276D01*
X133510710Y-102676958D01*
X133510000Y-102662500D01*
X133510000Y-102367500D01*
X133510710Y-102353042D01*
X133512834Y-102338724D01*
X133516351Y-102324683D01*
X133521228Y-102311054D01*
X133527417Y-102297969D01*
X133534858Y-102285553D01*
X133543481Y-102273927D01*
X133553202Y-102263202D01*
X133563927Y-102253481D01*
X133575553Y-102244858D01*
X133587969Y-102237417D01*
X133601054Y-102231228D01*
X133614683Y-102226351D01*
X133628724Y-102222834D01*
X133643042Y-102220710D01*
X133657500Y-102220000D01*
X134002500Y-102220000D01*
X134016958Y-102220710D01*
G37*
G04 #@! TD.AperFunction*
G04 #@! TA.AperFunction,SMDPad,CuDef*
G36*
X134016958Y-103190710D02*
G01*
X134031276Y-103192834D01*
X134045317Y-103196351D01*
X134058946Y-103201228D01*
X134072031Y-103207417D01*
X134084447Y-103214858D01*
X134096073Y-103223481D01*
X134106798Y-103233202D01*
X134116519Y-103243927D01*
X134125142Y-103255553D01*
X134132583Y-103267969D01*
X134138772Y-103281054D01*
X134143649Y-103294683D01*
X134147166Y-103308724D01*
X134149290Y-103323042D01*
X134150000Y-103337500D01*
X134150000Y-103632500D01*
X134149290Y-103646958D01*
X134147166Y-103661276D01*
X134143649Y-103675317D01*
X134138772Y-103688946D01*
X134132583Y-103702031D01*
X134125142Y-103714447D01*
X134116519Y-103726073D01*
X134106798Y-103736798D01*
X134096073Y-103746519D01*
X134084447Y-103755142D01*
X134072031Y-103762583D01*
X134058946Y-103768772D01*
X134045317Y-103773649D01*
X134031276Y-103777166D01*
X134016958Y-103779290D01*
X134002500Y-103780000D01*
X133657500Y-103780000D01*
X133643042Y-103779290D01*
X133628724Y-103777166D01*
X133614683Y-103773649D01*
X133601054Y-103768772D01*
X133587969Y-103762583D01*
X133575553Y-103755142D01*
X133563927Y-103746519D01*
X133553202Y-103736798D01*
X133543481Y-103726073D01*
X133534858Y-103714447D01*
X133527417Y-103702031D01*
X133521228Y-103688946D01*
X133516351Y-103675317D01*
X133512834Y-103661276D01*
X133510710Y-103646958D01*
X133510000Y-103632500D01*
X133510000Y-103337500D01*
X133510710Y-103323042D01*
X133512834Y-103308724D01*
X133516351Y-103294683D01*
X133521228Y-103281054D01*
X133527417Y-103267969D01*
X133534858Y-103255553D01*
X133543481Y-103243927D01*
X133553202Y-103233202D01*
X133563927Y-103223481D01*
X133575553Y-103214858D01*
X133587969Y-103207417D01*
X133601054Y-103201228D01*
X133614683Y-103196351D01*
X133628724Y-103192834D01*
X133643042Y-103190710D01*
X133657500Y-103190000D01*
X134002500Y-103190000D01*
X134016958Y-103190710D01*
G37*
G04 #@! TD.AperFunction*
G04 #@! TA.AperFunction,SMDPad,CuDef*
G36*
X148096958Y-89740710D02*
G01*
X148111276Y-89742834D01*
X148125317Y-89746351D01*
X148138946Y-89751228D01*
X148152031Y-89757417D01*
X148164447Y-89764858D01*
X148176073Y-89773481D01*
X148186798Y-89783202D01*
X148196519Y-89793927D01*
X148205142Y-89805553D01*
X148212583Y-89817969D01*
X148218772Y-89831054D01*
X148223649Y-89844683D01*
X148227166Y-89858724D01*
X148229290Y-89873042D01*
X148230000Y-89887500D01*
X148230000Y-90182500D01*
X148229290Y-90196958D01*
X148227166Y-90211276D01*
X148223649Y-90225317D01*
X148218772Y-90238946D01*
X148212583Y-90252031D01*
X148205142Y-90264447D01*
X148196519Y-90276073D01*
X148186798Y-90286798D01*
X148176073Y-90296519D01*
X148164447Y-90305142D01*
X148152031Y-90312583D01*
X148138946Y-90318772D01*
X148125317Y-90323649D01*
X148111276Y-90327166D01*
X148096958Y-90329290D01*
X148082500Y-90330000D01*
X147737500Y-90330000D01*
X147723042Y-90329290D01*
X147708724Y-90327166D01*
X147694683Y-90323649D01*
X147681054Y-90318772D01*
X147667969Y-90312583D01*
X147655553Y-90305142D01*
X147643927Y-90296519D01*
X147633202Y-90286798D01*
X147623481Y-90276073D01*
X147614858Y-90264447D01*
X147607417Y-90252031D01*
X147601228Y-90238946D01*
X147596351Y-90225317D01*
X147592834Y-90211276D01*
X147590710Y-90196958D01*
X147590000Y-90182500D01*
X147590000Y-89887500D01*
X147590710Y-89873042D01*
X147592834Y-89858724D01*
X147596351Y-89844683D01*
X147601228Y-89831054D01*
X147607417Y-89817969D01*
X147614858Y-89805553D01*
X147623481Y-89793927D01*
X147633202Y-89783202D01*
X147643927Y-89773481D01*
X147655553Y-89764858D01*
X147667969Y-89757417D01*
X147681054Y-89751228D01*
X147694683Y-89746351D01*
X147708724Y-89742834D01*
X147723042Y-89740710D01*
X147737500Y-89740000D01*
X148082500Y-89740000D01*
X148096958Y-89740710D01*
G37*
G04 #@! TD.AperFunction*
G04 #@! TA.AperFunction,SMDPad,CuDef*
G36*
X148096958Y-88770710D02*
G01*
X148111276Y-88772834D01*
X148125317Y-88776351D01*
X148138946Y-88781228D01*
X148152031Y-88787417D01*
X148164447Y-88794858D01*
X148176073Y-88803481D01*
X148186798Y-88813202D01*
X148196519Y-88823927D01*
X148205142Y-88835553D01*
X148212583Y-88847969D01*
X148218772Y-88861054D01*
X148223649Y-88874683D01*
X148227166Y-88888724D01*
X148229290Y-88903042D01*
X148230000Y-88917500D01*
X148230000Y-89212500D01*
X148229290Y-89226958D01*
X148227166Y-89241276D01*
X148223649Y-89255317D01*
X148218772Y-89268946D01*
X148212583Y-89282031D01*
X148205142Y-89294447D01*
X148196519Y-89306073D01*
X148186798Y-89316798D01*
X148176073Y-89326519D01*
X148164447Y-89335142D01*
X148152031Y-89342583D01*
X148138946Y-89348772D01*
X148125317Y-89353649D01*
X148111276Y-89357166D01*
X148096958Y-89359290D01*
X148082500Y-89360000D01*
X147737500Y-89360000D01*
X147723042Y-89359290D01*
X147708724Y-89357166D01*
X147694683Y-89353649D01*
X147681054Y-89348772D01*
X147667969Y-89342583D01*
X147655553Y-89335142D01*
X147643927Y-89326519D01*
X147633202Y-89316798D01*
X147623481Y-89306073D01*
X147614858Y-89294447D01*
X147607417Y-89282031D01*
X147601228Y-89268946D01*
X147596351Y-89255317D01*
X147592834Y-89241276D01*
X147590710Y-89226958D01*
X147590000Y-89212500D01*
X147590000Y-88917500D01*
X147590710Y-88903042D01*
X147592834Y-88888724D01*
X147596351Y-88874683D01*
X147601228Y-88861054D01*
X147607417Y-88847969D01*
X147614858Y-88835553D01*
X147623481Y-88823927D01*
X147633202Y-88813202D01*
X147643927Y-88803481D01*
X147655553Y-88794858D01*
X147667969Y-88787417D01*
X147681054Y-88781228D01*
X147694683Y-88776351D01*
X147708724Y-88772834D01*
X147723042Y-88770710D01*
X147737500Y-88770000D01*
X148082500Y-88770000D01*
X148096958Y-88770710D01*
G37*
G04 #@! TD.AperFunction*
G04 #@! TA.AperFunction,SMDPad,CuDef*
G36*
X135166958Y-89745710D02*
G01*
X135181276Y-89747834D01*
X135195317Y-89751351D01*
X135208946Y-89756228D01*
X135222031Y-89762417D01*
X135234447Y-89769858D01*
X135246073Y-89778481D01*
X135256798Y-89788202D01*
X135266519Y-89798927D01*
X135275142Y-89810553D01*
X135282583Y-89822969D01*
X135288772Y-89836054D01*
X135293649Y-89849683D01*
X135297166Y-89863724D01*
X135299290Y-89878042D01*
X135300000Y-89892500D01*
X135300000Y-90187500D01*
X135299290Y-90201958D01*
X135297166Y-90216276D01*
X135293649Y-90230317D01*
X135288772Y-90243946D01*
X135282583Y-90257031D01*
X135275142Y-90269447D01*
X135266519Y-90281073D01*
X135256798Y-90291798D01*
X135246073Y-90301519D01*
X135234447Y-90310142D01*
X135222031Y-90317583D01*
X135208946Y-90323772D01*
X135195317Y-90328649D01*
X135181276Y-90332166D01*
X135166958Y-90334290D01*
X135152500Y-90335000D01*
X134807500Y-90335000D01*
X134793042Y-90334290D01*
X134778724Y-90332166D01*
X134764683Y-90328649D01*
X134751054Y-90323772D01*
X134737969Y-90317583D01*
X134725553Y-90310142D01*
X134713927Y-90301519D01*
X134703202Y-90291798D01*
X134693481Y-90281073D01*
X134684858Y-90269447D01*
X134677417Y-90257031D01*
X134671228Y-90243946D01*
X134666351Y-90230317D01*
X134662834Y-90216276D01*
X134660710Y-90201958D01*
X134660000Y-90187500D01*
X134660000Y-89892500D01*
X134660710Y-89878042D01*
X134662834Y-89863724D01*
X134666351Y-89849683D01*
X134671228Y-89836054D01*
X134677417Y-89822969D01*
X134684858Y-89810553D01*
X134693481Y-89798927D01*
X134703202Y-89788202D01*
X134713927Y-89778481D01*
X134725553Y-89769858D01*
X134737969Y-89762417D01*
X134751054Y-89756228D01*
X134764683Y-89751351D01*
X134778724Y-89747834D01*
X134793042Y-89745710D01*
X134807500Y-89745000D01*
X135152500Y-89745000D01*
X135166958Y-89745710D01*
G37*
G04 #@! TD.AperFunction*
G04 #@! TA.AperFunction,SMDPad,CuDef*
G36*
X135166958Y-88775710D02*
G01*
X135181276Y-88777834D01*
X135195317Y-88781351D01*
X135208946Y-88786228D01*
X135222031Y-88792417D01*
X135234447Y-88799858D01*
X135246073Y-88808481D01*
X135256798Y-88818202D01*
X135266519Y-88828927D01*
X135275142Y-88840553D01*
X135282583Y-88852969D01*
X135288772Y-88866054D01*
X135293649Y-88879683D01*
X135297166Y-88893724D01*
X135299290Y-88908042D01*
X135300000Y-88922500D01*
X135300000Y-89217500D01*
X135299290Y-89231958D01*
X135297166Y-89246276D01*
X135293649Y-89260317D01*
X135288772Y-89273946D01*
X135282583Y-89287031D01*
X135275142Y-89299447D01*
X135266519Y-89311073D01*
X135256798Y-89321798D01*
X135246073Y-89331519D01*
X135234447Y-89340142D01*
X135222031Y-89347583D01*
X135208946Y-89353772D01*
X135195317Y-89358649D01*
X135181276Y-89362166D01*
X135166958Y-89364290D01*
X135152500Y-89365000D01*
X134807500Y-89365000D01*
X134793042Y-89364290D01*
X134778724Y-89362166D01*
X134764683Y-89358649D01*
X134751054Y-89353772D01*
X134737969Y-89347583D01*
X134725553Y-89340142D01*
X134713927Y-89331519D01*
X134703202Y-89321798D01*
X134693481Y-89311073D01*
X134684858Y-89299447D01*
X134677417Y-89287031D01*
X134671228Y-89273946D01*
X134666351Y-89260317D01*
X134662834Y-89246276D01*
X134660710Y-89231958D01*
X134660000Y-89217500D01*
X134660000Y-88922500D01*
X134660710Y-88908042D01*
X134662834Y-88893724D01*
X134666351Y-88879683D01*
X134671228Y-88866054D01*
X134677417Y-88852969D01*
X134684858Y-88840553D01*
X134693481Y-88828927D01*
X134703202Y-88818202D01*
X134713927Y-88808481D01*
X134725553Y-88799858D01*
X134737969Y-88792417D01*
X134751054Y-88786228D01*
X134764683Y-88781351D01*
X134778724Y-88777834D01*
X134793042Y-88775710D01*
X134807500Y-88775000D01*
X135152500Y-88775000D01*
X135166958Y-88775710D01*
G37*
G04 #@! TD.AperFunction*
D24*
X131830000Y-105690000D03*
X133830000Y-104740000D03*
X133830000Y-106640000D03*
X133830000Y-100320000D03*
X131830000Y-101270000D03*
X131830000Y-99370000D03*
G04 #@! TA.AperFunction,SMDPad,CuDef*
D19*
G36*
X134016958Y-107710710D02*
G01*
X134031276Y-107712834D01*
X134045317Y-107716351D01*
X134058946Y-107721228D01*
X134072031Y-107727417D01*
X134084447Y-107734858D01*
X134096073Y-107743481D01*
X134106798Y-107753202D01*
X134116519Y-107763927D01*
X134125142Y-107775553D01*
X134132583Y-107787969D01*
X134138772Y-107801054D01*
X134143649Y-107814683D01*
X134147166Y-107828724D01*
X134149290Y-107843042D01*
X134150000Y-107857500D01*
X134150000Y-108202500D01*
X134149290Y-108216958D01*
X134147166Y-108231276D01*
X134143649Y-108245317D01*
X134138772Y-108258946D01*
X134132583Y-108272031D01*
X134125142Y-108284447D01*
X134116519Y-108296073D01*
X134106798Y-108306798D01*
X134096073Y-108316519D01*
X134084447Y-108325142D01*
X134072031Y-108332583D01*
X134058946Y-108338772D01*
X134045317Y-108343649D01*
X134031276Y-108347166D01*
X134016958Y-108349290D01*
X134002500Y-108350000D01*
X133707500Y-108350000D01*
X133693042Y-108349290D01*
X133678724Y-108347166D01*
X133664683Y-108343649D01*
X133651054Y-108338772D01*
X133637969Y-108332583D01*
X133625553Y-108325142D01*
X133613927Y-108316519D01*
X133603202Y-108306798D01*
X133593481Y-108296073D01*
X133584858Y-108284447D01*
X133577417Y-108272031D01*
X133571228Y-108258946D01*
X133566351Y-108245317D01*
X133562834Y-108231276D01*
X133560710Y-108216958D01*
X133560000Y-108202500D01*
X133560000Y-107857500D01*
X133560710Y-107843042D01*
X133562834Y-107828724D01*
X133566351Y-107814683D01*
X133571228Y-107801054D01*
X133577417Y-107787969D01*
X133584858Y-107775553D01*
X133593481Y-107763927D01*
X133603202Y-107753202D01*
X133613927Y-107743481D01*
X133625553Y-107734858D01*
X133637969Y-107727417D01*
X133651054Y-107721228D01*
X133664683Y-107716351D01*
X133678724Y-107712834D01*
X133693042Y-107710710D01*
X133707500Y-107710000D01*
X134002500Y-107710000D01*
X134016958Y-107710710D01*
G37*
G04 #@! TD.AperFunction*
G04 #@! TA.AperFunction,SMDPad,CuDef*
G36*
X133046958Y-107710710D02*
G01*
X133061276Y-107712834D01*
X133075317Y-107716351D01*
X133088946Y-107721228D01*
X133102031Y-107727417D01*
X133114447Y-107734858D01*
X133126073Y-107743481D01*
X133136798Y-107753202D01*
X133146519Y-107763927D01*
X133155142Y-107775553D01*
X133162583Y-107787969D01*
X133168772Y-107801054D01*
X133173649Y-107814683D01*
X133177166Y-107828724D01*
X133179290Y-107843042D01*
X133180000Y-107857500D01*
X133180000Y-108202500D01*
X133179290Y-108216958D01*
X133177166Y-108231276D01*
X133173649Y-108245317D01*
X133168772Y-108258946D01*
X133162583Y-108272031D01*
X133155142Y-108284447D01*
X133146519Y-108296073D01*
X133136798Y-108306798D01*
X133126073Y-108316519D01*
X133114447Y-108325142D01*
X133102031Y-108332583D01*
X133088946Y-108338772D01*
X133075317Y-108343649D01*
X133061276Y-108347166D01*
X133046958Y-108349290D01*
X133032500Y-108350000D01*
X132737500Y-108350000D01*
X132723042Y-108349290D01*
X132708724Y-108347166D01*
X132694683Y-108343649D01*
X132681054Y-108338772D01*
X132667969Y-108332583D01*
X132655553Y-108325142D01*
X132643927Y-108316519D01*
X132633202Y-108306798D01*
X132623481Y-108296073D01*
X132614858Y-108284447D01*
X132607417Y-108272031D01*
X132601228Y-108258946D01*
X132596351Y-108245317D01*
X132592834Y-108231276D01*
X132590710Y-108216958D01*
X132590000Y-108202500D01*
X132590000Y-107857500D01*
X132590710Y-107843042D01*
X132592834Y-107828724D01*
X132596351Y-107814683D01*
X132601228Y-107801054D01*
X132607417Y-107787969D01*
X132614858Y-107775553D01*
X132623481Y-107763927D01*
X132633202Y-107753202D01*
X132643927Y-107743481D01*
X132655553Y-107734858D01*
X132667969Y-107727417D01*
X132681054Y-107721228D01*
X132694683Y-107716351D01*
X132708724Y-107712834D01*
X132723042Y-107710710D01*
X132737500Y-107710000D01*
X133032500Y-107710000D01*
X133046958Y-107710710D01*
G37*
G04 #@! TD.AperFunction*
G04 #@! TA.AperFunction,SMDPad,CuDef*
G36*
X135741958Y-108470710D02*
G01*
X135756276Y-108472834D01*
X135770317Y-108476351D01*
X135783946Y-108481228D01*
X135797031Y-108487417D01*
X135809447Y-108494858D01*
X135821073Y-108503481D01*
X135831798Y-108513202D01*
X135841519Y-108523927D01*
X135850142Y-108535553D01*
X135857583Y-108547969D01*
X135863772Y-108561054D01*
X135868649Y-108574683D01*
X135872166Y-108588724D01*
X135874290Y-108603042D01*
X135875000Y-108617500D01*
X135875000Y-108962500D01*
X135874290Y-108976958D01*
X135872166Y-108991276D01*
X135868649Y-109005317D01*
X135863772Y-109018946D01*
X135857583Y-109032031D01*
X135850142Y-109044447D01*
X135841519Y-109056073D01*
X135831798Y-109066798D01*
X135821073Y-109076519D01*
X135809447Y-109085142D01*
X135797031Y-109092583D01*
X135783946Y-109098772D01*
X135770317Y-109103649D01*
X135756276Y-109107166D01*
X135741958Y-109109290D01*
X135727500Y-109110000D01*
X135432500Y-109110000D01*
X135418042Y-109109290D01*
X135403724Y-109107166D01*
X135389683Y-109103649D01*
X135376054Y-109098772D01*
X135362969Y-109092583D01*
X135350553Y-109085142D01*
X135338927Y-109076519D01*
X135328202Y-109066798D01*
X135318481Y-109056073D01*
X135309858Y-109044447D01*
X135302417Y-109032031D01*
X135296228Y-109018946D01*
X135291351Y-109005317D01*
X135287834Y-108991276D01*
X135285710Y-108976958D01*
X135285000Y-108962500D01*
X135285000Y-108617500D01*
X135285710Y-108603042D01*
X135287834Y-108588724D01*
X135291351Y-108574683D01*
X135296228Y-108561054D01*
X135302417Y-108547969D01*
X135309858Y-108535553D01*
X135318481Y-108523927D01*
X135328202Y-108513202D01*
X135338927Y-108503481D01*
X135350553Y-108494858D01*
X135362969Y-108487417D01*
X135376054Y-108481228D01*
X135389683Y-108476351D01*
X135403724Y-108472834D01*
X135418042Y-108470710D01*
X135432500Y-108470000D01*
X135727500Y-108470000D01*
X135741958Y-108470710D01*
G37*
G04 #@! TD.AperFunction*
G04 #@! TA.AperFunction,SMDPad,CuDef*
G36*
X136711958Y-108470710D02*
G01*
X136726276Y-108472834D01*
X136740317Y-108476351D01*
X136753946Y-108481228D01*
X136767031Y-108487417D01*
X136779447Y-108494858D01*
X136791073Y-108503481D01*
X136801798Y-108513202D01*
X136811519Y-108523927D01*
X136820142Y-108535553D01*
X136827583Y-108547969D01*
X136833772Y-108561054D01*
X136838649Y-108574683D01*
X136842166Y-108588724D01*
X136844290Y-108603042D01*
X136845000Y-108617500D01*
X136845000Y-108962500D01*
X136844290Y-108976958D01*
X136842166Y-108991276D01*
X136838649Y-109005317D01*
X136833772Y-109018946D01*
X136827583Y-109032031D01*
X136820142Y-109044447D01*
X136811519Y-109056073D01*
X136801798Y-109066798D01*
X136791073Y-109076519D01*
X136779447Y-109085142D01*
X136767031Y-109092583D01*
X136753946Y-109098772D01*
X136740317Y-109103649D01*
X136726276Y-109107166D01*
X136711958Y-109109290D01*
X136697500Y-109110000D01*
X136402500Y-109110000D01*
X136388042Y-109109290D01*
X136373724Y-109107166D01*
X136359683Y-109103649D01*
X136346054Y-109098772D01*
X136332969Y-109092583D01*
X136320553Y-109085142D01*
X136308927Y-109076519D01*
X136298202Y-109066798D01*
X136288481Y-109056073D01*
X136279858Y-109044447D01*
X136272417Y-109032031D01*
X136266228Y-109018946D01*
X136261351Y-109005317D01*
X136257834Y-108991276D01*
X136255710Y-108976958D01*
X136255000Y-108962500D01*
X136255000Y-108617500D01*
X136255710Y-108603042D01*
X136257834Y-108588724D01*
X136261351Y-108574683D01*
X136266228Y-108561054D01*
X136272417Y-108547969D01*
X136279858Y-108535553D01*
X136288481Y-108523927D01*
X136298202Y-108513202D01*
X136308927Y-108503481D01*
X136320553Y-108494858D01*
X136332969Y-108487417D01*
X136346054Y-108481228D01*
X136359683Y-108476351D01*
X136373724Y-108472834D01*
X136388042Y-108470710D01*
X136402500Y-108470000D01*
X136697500Y-108470000D01*
X136711958Y-108470710D01*
G37*
G04 #@! TD.AperFunction*
G04 #@! TA.AperFunction,SMDPad,CuDef*
G36*
X149337642Y-108511174D02*
G01*
X149361303Y-108514684D01*
X149384507Y-108520496D01*
X149407029Y-108528554D01*
X149428653Y-108538782D01*
X149449170Y-108551079D01*
X149468383Y-108565329D01*
X149486107Y-108581393D01*
X149502171Y-108599117D01*
X149516421Y-108618330D01*
X149528718Y-108638847D01*
X149538946Y-108660471D01*
X149547004Y-108682993D01*
X149552816Y-108706197D01*
X149556326Y-108729858D01*
X149557500Y-108753750D01*
X149557500Y-109666250D01*
X149556326Y-109690142D01*
X149552816Y-109713803D01*
X149547004Y-109737007D01*
X149538946Y-109759529D01*
X149528718Y-109781153D01*
X149516421Y-109801670D01*
X149502171Y-109820883D01*
X149486107Y-109838607D01*
X149468383Y-109854671D01*
X149449170Y-109868921D01*
X149428653Y-109881218D01*
X149407029Y-109891446D01*
X149384507Y-109899504D01*
X149361303Y-109905316D01*
X149337642Y-109908826D01*
X149313750Y-109910000D01*
X148826250Y-109910000D01*
X148802358Y-109908826D01*
X148778697Y-109905316D01*
X148755493Y-109899504D01*
X148732971Y-109891446D01*
X148711347Y-109881218D01*
X148690830Y-109868921D01*
X148671617Y-109854671D01*
X148653893Y-109838607D01*
X148637829Y-109820883D01*
X148623579Y-109801670D01*
X148611282Y-109781153D01*
X148601054Y-109759529D01*
X148592996Y-109737007D01*
X148587184Y-109713803D01*
X148583674Y-109690142D01*
X148582500Y-109666250D01*
X148582500Y-108753750D01*
X148583674Y-108729858D01*
X148587184Y-108706197D01*
X148592996Y-108682993D01*
X148601054Y-108660471D01*
X148611282Y-108638847D01*
X148623579Y-108618330D01*
X148637829Y-108599117D01*
X148653893Y-108581393D01*
X148671617Y-108565329D01*
X148690830Y-108551079D01*
X148711347Y-108538782D01*
X148732971Y-108528554D01*
X148755493Y-108520496D01*
X148778697Y-108514684D01*
X148802358Y-108511174D01*
X148826250Y-108510000D01*
X149313750Y-108510000D01*
X149337642Y-108511174D01*
G37*
G04 #@! TD.AperFunction*
G04 #@! TA.AperFunction,SMDPad,CuDef*
G36*
X147462642Y-108511174D02*
G01*
X147486303Y-108514684D01*
X147509507Y-108520496D01*
X147532029Y-108528554D01*
X147553653Y-108538782D01*
X147574170Y-108551079D01*
X147593383Y-108565329D01*
X147611107Y-108581393D01*
X147627171Y-108599117D01*
X147641421Y-108618330D01*
X147653718Y-108638847D01*
X147663946Y-108660471D01*
X147672004Y-108682993D01*
X147677816Y-108706197D01*
X147681326Y-108729858D01*
X147682500Y-108753750D01*
X147682500Y-109666250D01*
X147681326Y-109690142D01*
X147677816Y-109713803D01*
X147672004Y-109737007D01*
X147663946Y-109759529D01*
X147653718Y-109781153D01*
X147641421Y-109801670D01*
X147627171Y-109820883D01*
X147611107Y-109838607D01*
X147593383Y-109854671D01*
X147574170Y-109868921D01*
X147553653Y-109881218D01*
X147532029Y-109891446D01*
X147509507Y-109899504D01*
X147486303Y-109905316D01*
X147462642Y-109908826D01*
X147438750Y-109910000D01*
X146951250Y-109910000D01*
X146927358Y-109908826D01*
X146903697Y-109905316D01*
X146880493Y-109899504D01*
X146857971Y-109891446D01*
X146836347Y-109881218D01*
X146815830Y-109868921D01*
X146796617Y-109854671D01*
X146778893Y-109838607D01*
X146762829Y-109820883D01*
X146748579Y-109801670D01*
X146736282Y-109781153D01*
X146726054Y-109759529D01*
X146717996Y-109737007D01*
X146712184Y-109713803D01*
X146708674Y-109690142D01*
X146707500Y-109666250D01*
X146707500Y-108753750D01*
X146708674Y-108729858D01*
X146712184Y-108706197D01*
X146717996Y-108682993D01*
X146726054Y-108660471D01*
X146736282Y-108638847D01*
X146748579Y-108618330D01*
X146762829Y-108599117D01*
X146778893Y-108581393D01*
X146796617Y-108565329D01*
X146815830Y-108551079D01*
X146836347Y-108538782D01*
X146857971Y-108528554D01*
X146880493Y-108520496D01*
X146903697Y-108514684D01*
X146927358Y-108511174D01*
X146951250Y-108510000D01*
X147438750Y-108510000D01*
X147462642Y-108511174D01*
G37*
G04 #@! TD.AperFunction*
D25*
X150280000Y-98910000D03*
X145630000Y-104260000D03*
X145030000Y-102390000D03*
X150440000Y-102390000D03*
X145170000Y-98910000D03*
X149690000Y-104260000D03*
X147660000Y-104260000D03*
X134605010Y-109020000D03*
X132890000Y-109020000D03*
X156110000Y-110200000D03*
X141790000Y-96630000D03*
X156110000Y-112760000D03*
X134910000Y-92050000D03*
X148070000Y-91810000D03*
X147270000Y-93050000D03*
X135760000Y-93250000D03*
X144080000Y-109450000D03*
X156100000Y-115380000D03*
X157580000Y-96140000D03*
X158650000Y-96140000D03*
X159720000Y-96140000D03*
X160790000Y-96140000D03*
X161860000Y-96140000D03*
X162930000Y-96140000D03*
X164000000Y-96140000D03*
X165070000Y-96140000D03*
X166140000Y-96140000D03*
X143870000Y-94580000D03*
X139610000Y-94580000D03*
X134800000Y-103460000D03*
X132870000Y-103450000D03*
D26*
X136550000Y-107300000D02*
X136515000Y-107265000D01*
X136550000Y-108790000D02*
X136550000Y-107300000D01*
X136550000Y-108790000D02*
X136550000Y-111410000D01*
D27*
X149070000Y-109210000D02*
X149070000Y-108070000D01*
D28*
X149070000Y-110780000D02*
X148960000Y-110890000D01*
X149020000Y-109210000D02*
X149020000Y-110780000D01*
D27*
X149290000Y-108990000D02*
X149070000Y-109210000D01*
X154310000Y-108990000D02*
X149290000Y-108990000D01*
D29*
X136460000Y-111500000D02*
X136460000Y-110130000D01*
D27*
X155990000Y-108990000D02*
X154340000Y-108990000D01*
X160790000Y-104190000D02*
X155990000Y-108990000D01*
X160790000Y-98530000D02*
X160790000Y-104190000D01*
X160800000Y-98520000D02*
X160790000Y-98530000D01*
D29*
X148610000Y-98910000D02*
X150280000Y-98910000D01*
X147760000Y-98060000D02*
X148610000Y-98910000D01*
X147760000Y-96170000D02*
X147760000Y-98060000D01*
D28*
X132885000Y-108030000D02*
X132885000Y-109005000D01*
X134835010Y-108790000D02*
X134605010Y-109020000D01*
X135580000Y-108790000D02*
X134835010Y-108790000D01*
D29*
X138069990Y-91899990D02*
X138069990Y-92000000D01*
X137255000Y-91085000D02*
X138069990Y-91899990D01*
X137100000Y-91085000D02*
X137255000Y-91085000D01*
X144770010Y-91899990D02*
X144770010Y-92000000D01*
X145585000Y-91085000D02*
X144770010Y-91899990D01*
X145740000Y-91085000D02*
X145585000Y-91085000D01*
X154310000Y-106450000D02*
X155860000Y-106450000D01*
D28*
X159700000Y-103220000D02*
X159700000Y-98520000D01*
X156470000Y-106450000D02*
X159700000Y-103220000D01*
X154340000Y-106450000D02*
X156470000Y-106450000D01*
D29*
X154310000Y-103910000D02*
X155930000Y-103910000D01*
D28*
X157100000Y-103910000D02*
X154340000Y-103910000D01*
X158600000Y-102410000D02*
X157100000Y-103910000D01*
X158600000Y-98520000D02*
X158600000Y-102410000D01*
D29*
X154310000Y-111530000D02*
X155710000Y-111530000D01*
D28*
X156490000Y-111530000D02*
X155710000Y-111530000D01*
X161890000Y-98530000D02*
X161890000Y-106130000D01*
X161890000Y-106130000D02*
X156490000Y-111530000D01*
X161900000Y-98520000D02*
X161890000Y-98530000D01*
D29*
X154310000Y-114070000D02*
X155700000Y-114070000D01*
D28*
X156750000Y-114070000D02*
X155700000Y-114070000D01*
X164090000Y-106730000D02*
X156750000Y-114070000D01*
X164090000Y-98530000D02*
X164090000Y-106730000D01*
X164100000Y-98520000D02*
X164090000Y-98530000D01*
D27*
X145444999Y-96185001D02*
X145460000Y-96170000D01*
D30*
X143870000Y-94580000D02*
X145460000Y-96170000D01*
D27*
X143870000Y-92000000D02*
X143870000Y-94580000D01*
X143870000Y-94580000D02*
X143870000Y-94580000D01*
X138970000Y-92000000D02*
X138970000Y-93940000D01*
X138970000Y-93940000D02*
X139610000Y-94580000D01*
X139610000Y-94580000D02*
X139610000Y-94580000D01*
D28*
X133830000Y-102515000D02*
X133830000Y-100320000D01*
X136515000Y-103455000D02*
X134775000Y-103455000D01*
X131830000Y-101270000D02*
X131830000Y-102515000D01*
D31*
X132870000Y-103440000D02*
X132870000Y-103450000D01*
X131945000Y-102515000D02*
X132870000Y-103440000D01*
X131830000Y-102515000D02*
X131945000Y-102515000D01*
D28*
X131360000Y-111480000D02*
X131380000Y-111500000D01*
X131360000Y-109580000D02*
X131360000Y-111480000D01*
X130570000Y-108790000D02*
X131360000Y-109580000D01*
X130570000Y-99880000D02*
X130570000Y-108790000D01*
X131080000Y-99370000D02*
X130570000Y-99880000D01*
X131830000Y-99370000D02*
X131080000Y-99370000D01*
D29*
X131380000Y-111500000D02*
X131380000Y-110120000D01*
D28*
X131830000Y-103485000D02*
X131830000Y-105690000D01*
X133830000Y-103485000D02*
X133830000Y-104740000D01*
X133845000Y-104725000D02*
X133830000Y-104740000D01*
X136515000Y-104725000D02*
X133845000Y-104725000D01*
X133830000Y-108005000D02*
X133855000Y-108030000D01*
X133830000Y-106640000D02*
X133830000Y-108005000D01*
X133855000Y-111435000D02*
X133855000Y-108030000D01*
D29*
X133920000Y-111500000D02*
X133920000Y-110150000D01*
X141540000Y-111500000D02*
X141540000Y-109900000D01*
D28*
X141540000Y-109750000D02*
X141540000Y-111500000D01*
X139830000Y-108040000D02*
X141540000Y-109750000D01*
X139830000Y-106350000D02*
X139830000Y-108040000D01*
X140185000Y-105995000D02*
X139830000Y-106350000D01*
X141465000Y-105995000D02*
X140185000Y-105995000D01*
X139010000Y-105500000D02*
X139010000Y-111490000D01*
X139785000Y-104725000D02*
X139010000Y-105500000D01*
X141465000Y-104725000D02*
X139785000Y-104725000D01*
D29*
X139000000Y-110020000D02*
X139010000Y-110010000D01*
X139000000Y-111500000D02*
X139000000Y-110020000D01*
D28*
X147205000Y-112362500D02*
X147212500Y-112370000D01*
X147370000Y-110887500D02*
X147370000Y-112360000D01*
D31*
X140395000Y-103455000D02*
X141465000Y-103455000D01*
X138710000Y-96460000D02*
X138710000Y-101740000D01*
X138710000Y-101740000D02*
X140395000Y-103455000D01*
X147910000Y-89065000D02*
X143795000Y-89065000D01*
X142670000Y-90190000D02*
X142670000Y-92000000D01*
X143795000Y-89065000D02*
X142670000Y-90190000D01*
X141920000Y-90840000D02*
X142170000Y-91090000D01*
X142170000Y-91090000D02*
X142170000Y-92000000D01*
X141450000Y-90840000D02*
X141920000Y-90840000D01*
X141170000Y-91120000D02*
X141450000Y-90840000D01*
X141170000Y-92000000D02*
X141170000Y-91120000D01*
X142170000Y-92000000D02*
X142170000Y-94270000D01*
X143370000Y-99985000D02*
X142440000Y-100915000D01*
X142440000Y-100915000D02*
X141465000Y-100915000D01*
X143370000Y-95470000D02*
X143370000Y-99985000D01*
X142170000Y-94270000D02*
X143370000Y-95470000D01*
X140670000Y-92000000D02*
X140670000Y-95290000D01*
X141645001Y-92454999D02*
X141645001Y-94314999D01*
X141645001Y-94314999D02*
X140670000Y-95290000D01*
X141670000Y-92430000D02*
X141645001Y-92454999D01*
X141670000Y-92000000D02*
X141670000Y-92430000D01*
X139720000Y-96240000D02*
X140670000Y-95290000D01*
X139720000Y-101415000D02*
X139720000Y-96240000D01*
X140490000Y-102185000D02*
X139720000Y-101415000D01*
X141465000Y-102185000D02*
X140490000Y-102185000D01*
X139670000Y-90040000D02*
X139670000Y-92000000D01*
X138695000Y-89065000D02*
X139670000Y-90040000D01*
X134985000Y-89065000D02*
X138695000Y-89065000D01*
X134980000Y-89070000D02*
X134985000Y-89065000D01*
D32*
G36*
X168479659Y-85068625D02*
G01*
X168729429Y-85144035D01*
X168959792Y-85266522D01*
X169161980Y-85431422D01*
X169328286Y-85632450D01*
X169452378Y-85861954D01*
X169529531Y-86111195D01*
X169560000Y-86401089D01*
X169560001Y-105646518D01*
X157182424Y-118017669D01*
X157181309Y-118019027D01*
X156973785Y-118228678D01*
X156757721Y-118374921D01*
X156517370Y-118476411D01*
X156247367Y-118532288D01*
X156102564Y-118539994D01*
X130602412Y-118530113D01*
X130310319Y-118501473D01*
X130060535Y-118426059D01*
X129830153Y-118303562D01*
X129627949Y-118138649D01*
X129461630Y-117937604D01*
X129337531Y-117708087D01*
X129260371Y-117458825D01*
X129229999Y-117169854D01*
X129229999Y-116966890D01*
X152868524Y-116966890D01*
X152913175Y-117114099D01*
X153038359Y-117376920D01*
X153212412Y-117610269D01*
X153428645Y-117805178D01*
X153678748Y-117954157D01*
X153953109Y-118051481D01*
X154183000Y-117930814D01*
X154183000Y-116737000D01*
X154437000Y-116737000D01*
X154437000Y-117930814D01*
X154666891Y-118051481D01*
X154941252Y-117954157D01*
X155191355Y-117805178D01*
X155407588Y-117610269D01*
X155581641Y-117376920D01*
X155706825Y-117114099D01*
X155751476Y-116966890D01*
X155630155Y-116737000D01*
X154437000Y-116737000D01*
X154183000Y-116737000D01*
X152989845Y-116737000D01*
X152868524Y-116966890D01*
X129229999Y-116966890D01*
X129230013Y-99880000D01*
X129781203Y-99880000D01*
X129785000Y-99918553D01*
X129785001Y-108751437D01*
X129781203Y-108790000D01*
X129796359Y-108943886D01*
X129841246Y-109091859D01*
X129867923Y-109141768D01*
X129914139Y-109228233D01*
X129937046Y-109256145D01*
X129987655Y-109317812D01*
X129987659Y-109317816D01*
X130012237Y-109347764D01*
X130042185Y-109372342D01*
X130412804Y-109742961D01*
X130359977Y-109917105D01*
X130347703Y-110041726D01*
X130285820Y-110060498D01*
X130175506Y-110119463D01*
X130078815Y-110198815D01*
X129999463Y-110295506D01*
X129940498Y-110405820D01*
X129904188Y-110525518D01*
X129891928Y-110650000D01*
X129891928Y-112350000D01*
X129904188Y-112474482D01*
X129940498Y-112594180D01*
X129999463Y-112704494D01*
X130078815Y-112801185D01*
X130175506Y-112880537D01*
X130285820Y-112939502D01*
X130405518Y-112975812D01*
X130530000Y-112988072D01*
X132230000Y-112988072D01*
X132354482Y-112975812D01*
X132474180Y-112939502D01*
X132584494Y-112880537D01*
X132681185Y-112801185D01*
X132760537Y-112704494D01*
X132819502Y-112594180D01*
X132841513Y-112521620D01*
X132973368Y-112653475D01*
X133216589Y-112815990D01*
X133486842Y-112927932D01*
X133773740Y-112985000D01*
X134066260Y-112985000D01*
X134353158Y-112927932D01*
X134623411Y-112815990D01*
X134866632Y-112653475D01*
X135073475Y-112446632D01*
X135190000Y-112272240D01*
X135306525Y-112446632D01*
X135513368Y-112653475D01*
X135756589Y-112815990D01*
X136026842Y-112927932D01*
X136313740Y-112985000D01*
X136606260Y-112985000D01*
X136893158Y-112927932D01*
X137163411Y-112815990D01*
X137406632Y-112653475D01*
X137613475Y-112446632D01*
X137730000Y-112272240D01*
X137846525Y-112446632D01*
X138053368Y-112653475D01*
X138296589Y-112815990D01*
X138566842Y-112927932D01*
X138853740Y-112985000D01*
X139146260Y-112985000D01*
X139433158Y-112927932D01*
X139703411Y-112815990D01*
X139946632Y-112653475D01*
X140153475Y-112446632D01*
X140270000Y-112272240D01*
X140386525Y-112446632D01*
X140593368Y-112653475D01*
X140836589Y-112815990D01*
X141106842Y-112927932D01*
X141393740Y-112985000D01*
X141686260Y-112985000D01*
X141973158Y-112927932D01*
X142243411Y-112815990D01*
X142486632Y-112653475D01*
X142693475Y-112446632D01*
X142815195Y-112264466D01*
X142884822Y-112381355D01*
X143079731Y-112597588D01*
X143313080Y-112771641D01*
X143575901Y-112896825D01*
X143723110Y-112941476D01*
X143953000Y-112820155D01*
X143953000Y-111627000D01*
X144207000Y-111627000D01*
X144207000Y-112820155D01*
X144436890Y-112941476D01*
X144584099Y-112896825D01*
X144846920Y-112771641D01*
X145080269Y-112597588D01*
X145275178Y-112381355D01*
X145424157Y-112131252D01*
X145521481Y-111856891D01*
X145400814Y-111627000D01*
X144207000Y-111627000D01*
X143953000Y-111627000D01*
X143933000Y-111627000D01*
X143933000Y-111373000D01*
X143953000Y-111373000D01*
X143953000Y-110179845D01*
X144207000Y-110179845D01*
X144207000Y-111373000D01*
X145400814Y-111373000D01*
X145521481Y-111143109D01*
X145424157Y-110868748D01*
X145275178Y-110618645D01*
X145080269Y-110402412D01*
X144846920Y-110228359D01*
X144584099Y-110103175D01*
X144436890Y-110058524D01*
X144207000Y-110179845D01*
X143953000Y-110179845D01*
X143723110Y-110058524D01*
X143575901Y-110103175D01*
X143313080Y-110228359D01*
X143079731Y-110402412D01*
X142884822Y-110618645D01*
X142815195Y-110735534D01*
X142693475Y-110553368D01*
X142575000Y-110434893D01*
X142575000Y-109849162D01*
X142560024Y-109697105D01*
X142500841Y-109502007D01*
X142404734Y-109322203D01*
X142275396Y-109164604D01*
X142117797Y-109035266D01*
X141937993Y-108939159D01*
X141796349Y-108896191D01*
X141100508Y-108200351D01*
X141179250Y-108200000D01*
X141338000Y-108041250D01*
X141338000Y-107392000D01*
X141592000Y-107392000D01*
X141592000Y-108041250D01*
X141750750Y-108200000D01*
X142440000Y-108203072D01*
X142564482Y-108190812D01*
X142684180Y-108154502D01*
X142794494Y-108095537D01*
X142891185Y-108016185D01*
X142970537Y-107919494D01*
X143029502Y-107809180D01*
X143065812Y-107689482D01*
X143078072Y-107565000D01*
X143075000Y-107550750D01*
X142916250Y-107392000D01*
X141592000Y-107392000D01*
X141338000Y-107392000D01*
X141318000Y-107392000D01*
X141318000Y-107138000D01*
X141338000Y-107138000D01*
X141338000Y-107118000D01*
X141592000Y-107118000D01*
X141592000Y-107138000D01*
X142916250Y-107138000D01*
X143075000Y-106979250D01*
X143078072Y-106965000D01*
X143065812Y-106840518D01*
X143029502Y-106720820D01*
X142970537Y-106610506D01*
X142946270Y-106580936D01*
X143018084Y-106446582D01*
X143062929Y-106298745D01*
X143078072Y-106145000D01*
X143078072Y-105845000D01*
X143062929Y-105691255D01*
X143018084Y-105543418D01*
X142945258Y-105407171D01*
X142906546Y-105360000D01*
X142945258Y-105312829D01*
X143018084Y-105176582D01*
X143062929Y-105028745D01*
X143078072Y-104875000D01*
X143078072Y-104575000D01*
X143062929Y-104421255D01*
X143018084Y-104273418D01*
X142945258Y-104137171D01*
X142906546Y-104090000D01*
X142945258Y-104042829D01*
X143018084Y-103906582D01*
X143062929Y-103758745D01*
X143078072Y-103605000D01*
X143078072Y-103305000D01*
X143062929Y-103151255D01*
X143018084Y-103003418D01*
X142945258Y-102867171D01*
X142906546Y-102820000D01*
X142945258Y-102772829D01*
X143018084Y-102636582D01*
X143062929Y-102488745D01*
X143078072Y-102335000D01*
X143078072Y-102035000D01*
X143062929Y-101881255D01*
X143018084Y-101733418D01*
X142945258Y-101597171D01*
X142906546Y-101550000D01*
X142945258Y-101502829D01*
X142963650Y-101468420D01*
X142980001Y-101455001D01*
X143003803Y-101425998D01*
X143452244Y-100977558D01*
X143452244Y-108081405D01*
X143456517Y-108124988D01*
X143458037Y-108168755D01*
X143459320Y-108177901D01*
X143465163Y-108217524D01*
X143474013Y-108253049D01*
X143479818Y-108289185D01*
X143489577Y-108315528D01*
X143496368Y-108342790D01*
X143511946Y-108375912D01*
X143524663Y-108410240D01*
X143528759Y-108418517D01*
X143546793Y-108454331D01*
X143564574Y-108482428D01*
X143579610Y-108512087D01*
X143599011Y-108536844D01*
X143615827Y-108563416D01*
X143638727Y-108587525D01*
X143659238Y-108613698D01*
X143665663Y-108620332D01*
X143693603Y-108648780D01*
X143723659Y-108673925D01*
X143751700Y-108701316D01*
X143773058Y-108715254D01*
X143792616Y-108731616D01*
X143826990Y-108750447D01*
X143859812Y-108771866D01*
X143868031Y-108776077D01*
X143903845Y-108794111D01*
X143933833Y-108805699D01*
X143962539Y-108820176D01*
X143993900Y-108828910D01*
X144024261Y-108840642D01*
X144055925Y-108846184D01*
X144086900Y-108854810D01*
X144096007Y-108856344D01*
X144135378Y-108862694D01*
X144183501Y-108865690D01*
X144231437Y-108871069D01*
X144240672Y-108871133D01*
X146072107Y-108871218D01*
X146072500Y-108924250D01*
X146231250Y-109083000D01*
X147068000Y-109083000D01*
X147068000Y-109063000D01*
X147322000Y-109063000D01*
X147322000Y-109083000D01*
X147342000Y-109083000D01*
X147342000Y-109337000D01*
X147322000Y-109337000D01*
X147322000Y-109357000D01*
X147068000Y-109357000D01*
X147068000Y-109337000D01*
X146231250Y-109337000D01*
X146072500Y-109495750D01*
X146069428Y-109910000D01*
X146081688Y-110034482D01*
X146117998Y-110154180D01*
X146176963Y-110264494D01*
X146256315Y-110361185D01*
X146337625Y-110427914D01*
X146325892Y-110466592D01*
X146309428Y-110633750D01*
X146309428Y-111146250D01*
X146325892Y-111313408D01*
X146374650Y-111474142D01*
X146453829Y-111622275D01*
X146463919Y-111634569D01*
X146461329Y-111637725D01*
X146382150Y-111785858D01*
X146333392Y-111946592D01*
X146316928Y-112113750D01*
X146316928Y-112626250D01*
X146333392Y-112793408D01*
X146382150Y-112954142D01*
X146461329Y-113102275D01*
X146567885Y-113232115D01*
X146697725Y-113338671D01*
X146845858Y-113417850D01*
X147006592Y-113466608D01*
X147173750Y-113483072D01*
X147611250Y-113483072D01*
X147778408Y-113466608D01*
X147939142Y-113417850D01*
X148087275Y-113338671D01*
X148108930Y-113320900D01*
X148175506Y-113375537D01*
X148285820Y-113434502D01*
X148405518Y-113470812D01*
X148530000Y-113483072D01*
X148681750Y-113480000D01*
X148840500Y-113321250D01*
X148840500Y-112497000D01*
X149094500Y-112497000D01*
X149094500Y-113321250D01*
X149253250Y-113480000D01*
X149405000Y-113483072D01*
X149529482Y-113470812D01*
X149649180Y-113434502D01*
X149759494Y-113375537D01*
X149856185Y-113296185D01*
X149935537Y-113199494D01*
X149994502Y-113089180D01*
X150030812Y-112969482D01*
X150043072Y-112845000D01*
X150040000Y-112655750D01*
X149881250Y-112497000D01*
X149094500Y-112497000D01*
X148840500Y-112497000D01*
X148820500Y-112497000D01*
X148820500Y-112243000D01*
X148840500Y-112243000D01*
X148840500Y-112223000D01*
X149094500Y-112223000D01*
X149094500Y-112243000D01*
X149881250Y-112243000D01*
X150040000Y-112084250D01*
X150043072Y-111895000D01*
X150030812Y-111770518D01*
X149994502Y-111650820D01*
X149935537Y-111540506D01*
X149935138Y-111540019D01*
X149970350Y-111474142D01*
X150019108Y-111313408D01*
X150035572Y-111146250D01*
X150035572Y-110633750D01*
X150019108Y-110466592D01*
X149970350Y-110305858D01*
X149952111Y-110271735D01*
X150046958Y-110156164D01*
X150128447Y-110003709D01*
X150152323Y-109925000D01*
X153148753Y-109925000D01*
X153156525Y-109936632D01*
X153363368Y-110143475D01*
X153537760Y-110260000D01*
X153363368Y-110376525D01*
X153156525Y-110583368D01*
X152994010Y-110826589D01*
X152882068Y-111096842D01*
X152825000Y-111383740D01*
X152825000Y-111676260D01*
X152882068Y-111963158D01*
X152994010Y-112233411D01*
X153156525Y-112476632D01*
X153363368Y-112683475D01*
X153537760Y-112800000D01*
X153363368Y-112916525D01*
X153156525Y-113123368D01*
X152994010Y-113366589D01*
X152882068Y-113636842D01*
X152825000Y-113923740D01*
X152825000Y-114216260D01*
X152882068Y-114503158D01*
X152994010Y-114773411D01*
X153156525Y-115016632D01*
X153363368Y-115223475D01*
X153545534Y-115345195D01*
X153428645Y-115414822D01*
X153212412Y-115609731D01*
X153038359Y-115843080D01*
X152913175Y-116105901D01*
X152868524Y-116253110D01*
X152989845Y-116483000D01*
X154183000Y-116483000D01*
X154183000Y-116463000D01*
X154437000Y-116463000D01*
X154437000Y-116483000D01*
X155630155Y-116483000D01*
X155751476Y-116253110D01*
X155706825Y-116105901D01*
X155581641Y-115843080D01*
X155407588Y-115609731D01*
X155191355Y-115414822D01*
X155074466Y-115345195D01*
X155256632Y-115223475D01*
X155375107Y-115105000D01*
X155750838Y-115105000D01*
X155902895Y-115090024D01*
X156097993Y-115030841D01*
X156277797Y-114934734D01*
X156374953Y-114855000D01*
X156711447Y-114855000D01*
X156750000Y-114858797D01*
X156788553Y-114855000D01*
X156788561Y-114855000D01*
X156903887Y-114843641D01*
X157051860Y-114798754D01*
X157188233Y-114725862D01*
X157307764Y-114627764D01*
X157332347Y-114597810D01*
X164617810Y-107312347D01*
X164647764Y-107287764D01*
X164745862Y-107168233D01*
X164818754Y-107031860D01*
X164819385Y-107029781D01*
X164863642Y-106883887D01*
X164871231Y-106806825D01*
X164875000Y-106768561D01*
X164875000Y-106768556D01*
X164878797Y-106730000D01*
X164875000Y-106691444D01*
X164875000Y-100418072D01*
X165530000Y-100418072D01*
X165654482Y-100405812D01*
X165730000Y-100382904D01*
X165805518Y-100405812D01*
X165930000Y-100418072D01*
X165994250Y-100415000D01*
X166153000Y-100256250D01*
X166153000Y-99913752D01*
X166155812Y-99904482D01*
X166168072Y-99780000D01*
X166168072Y-98833000D01*
X166194501Y-98833000D01*
X166191928Y-99180000D01*
X166204188Y-99304482D01*
X166240498Y-99424180D01*
X166299463Y-99534494D01*
X166378815Y-99631185D01*
X166407000Y-99654316D01*
X166407000Y-100256250D01*
X166565750Y-100415000D01*
X166630000Y-100418072D01*
X166754482Y-100405812D01*
X166874180Y-100369502D01*
X166984494Y-100310537D01*
X167081185Y-100231185D01*
X167160537Y-100134494D01*
X167219502Y-100024180D01*
X167255812Y-99904482D01*
X167268072Y-99780000D01*
X167267545Y-99691705D01*
X167303000Y-99656250D01*
X167303000Y-98607000D01*
X167557000Y-98607000D01*
X167557000Y-99656250D01*
X167715750Y-99815000D01*
X168030000Y-99818072D01*
X168154482Y-99805812D01*
X168274180Y-99769502D01*
X168384494Y-99710537D01*
X168481185Y-99631185D01*
X168560537Y-99534494D01*
X168619502Y-99424180D01*
X168655812Y-99304482D01*
X168668072Y-99180000D01*
X168665000Y-98765750D01*
X168506250Y-98607000D01*
X167557000Y-98607000D01*
X167303000Y-98607000D01*
X167265521Y-98607000D01*
X167267039Y-98353000D01*
X167303000Y-98353000D01*
X167303000Y-97303750D01*
X167557000Y-97303750D01*
X167557000Y-98353000D01*
X168506250Y-98353000D01*
X168665000Y-98194250D01*
X168668072Y-97780000D01*
X168655812Y-97655518D01*
X168619502Y-97535820D01*
X168560537Y-97425506D01*
X168481185Y-97328815D01*
X168384494Y-97249463D01*
X168274180Y-97190498D01*
X168154482Y-97154188D01*
X168030000Y-97141928D01*
X167715750Y-97145000D01*
X167557000Y-97303750D01*
X167303000Y-97303750D01*
X167144250Y-97145000D01*
X166830000Y-97141928D01*
X166705518Y-97154188D01*
X166585820Y-97190498D01*
X166475506Y-97249463D01*
X166378815Y-97328815D01*
X166299463Y-97425506D01*
X166240498Y-97535820D01*
X166237713Y-97545000D01*
X166152998Y-97545000D01*
X166152998Y-97703748D01*
X165994250Y-97545000D01*
X165930000Y-97541928D01*
X165805518Y-97554188D01*
X165730000Y-97577096D01*
X165654482Y-97554188D01*
X165530000Y-97541928D01*
X164830000Y-97541928D01*
X164705518Y-97554188D01*
X164630000Y-97577096D01*
X164554482Y-97554188D01*
X164430000Y-97541928D01*
X163730000Y-97541928D01*
X163605518Y-97554188D01*
X163530000Y-97577096D01*
X163454482Y-97554188D01*
X163330000Y-97541928D01*
X163265750Y-97545000D01*
X163107000Y-97703750D01*
X163107000Y-98046248D01*
X163104188Y-98055518D01*
X163091928Y-98180000D01*
X163091928Y-99780000D01*
X163104188Y-99904482D01*
X163107000Y-99913752D01*
X163107000Y-100256250D01*
X163265750Y-100415000D01*
X163305000Y-100416877D01*
X163305001Y-106404842D01*
X156424843Y-113285000D01*
X156374953Y-113285000D01*
X156277797Y-113205266D01*
X156097993Y-113109159D01*
X155902895Y-113049976D01*
X155750838Y-113035000D01*
X155375107Y-113035000D01*
X155256632Y-112916525D01*
X155082240Y-112800000D01*
X155256632Y-112683475D01*
X155375107Y-112565000D01*
X155760838Y-112565000D01*
X155912895Y-112550024D01*
X156107993Y-112490841D01*
X156287797Y-112394734D01*
X156384953Y-112315000D01*
X156451447Y-112315000D01*
X156490000Y-112318797D01*
X156528553Y-112315000D01*
X156528561Y-112315000D01*
X156643887Y-112303641D01*
X156791860Y-112258754D01*
X156928233Y-112185862D01*
X157047764Y-112087764D01*
X157072347Y-112057810D01*
X162417816Y-106712342D01*
X162447764Y-106687764D01*
X162472704Y-106657376D01*
X162500987Y-106622912D01*
X162545862Y-106568233D01*
X162618754Y-106431860D01*
X162657673Y-106303561D01*
X162663641Y-106283888D01*
X162666546Y-106254389D01*
X162675000Y-106168561D01*
X162675000Y-106168554D01*
X162678797Y-106130001D01*
X162675000Y-106091448D01*
X162675000Y-100415920D01*
X162694250Y-100415000D01*
X162853000Y-100256250D01*
X162853000Y-99913752D01*
X162855812Y-99904482D01*
X162868072Y-99780000D01*
X162868072Y-98180000D01*
X162855812Y-98055518D01*
X162853000Y-98046248D01*
X162853000Y-97703750D01*
X162694250Y-97545000D01*
X162630000Y-97541928D01*
X162505518Y-97554188D01*
X162430000Y-97577096D01*
X162354482Y-97554188D01*
X162230000Y-97541928D01*
X161530000Y-97541928D01*
X161405518Y-97554188D01*
X161330000Y-97577096D01*
X161254482Y-97554188D01*
X161130000Y-97541928D01*
X160430000Y-97541928D01*
X160305518Y-97554188D01*
X160230000Y-97577096D01*
X160154482Y-97554188D01*
X160030000Y-97541928D01*
X159330000Y-97541928D01*
X159205518Y-97554188D01*
X159130000Y-97577096D01*
X159054482Y-97554188D01*
X158930000Y-97541928D01*
X158230000Y-97541928D01*
X158105518Y-97554188D01*
X158030000Y-97577096D01*
X157954482Y-97554188D01*
X157830000Y-97541928D01*
X157130000Y-97541928D01*
X157005518Y-97554188D01*
X156885820Y-97590498D01*
X156775506Y-97649463D01*
X156678815Y-97728815D01*
X156599463Y-97825506D01*
X156540498Y-97935820D01*
X156504188Y-98055518D01*
X156491928Y-98180000D01*
X156491928Y-99780000D01*
X156504188Y-99904482D01*
X156540498Y-100024180D01*
X156599463Y-100134494D01*
X156678815Y-100231185D01*
X156775506Y-100310537D01*
X156885820Y-100369502D01*
X157005518Y-100405812D01*
X157130000Y-100418072D01*
X157815000Y-100418072D01*
X157815001Y-102084841D01*
X156774843Y-103125000D01*
X156604953Y-103125000D01*
X156507797Y-103045266D01*
X156327993Y-102949159D01*
X156132895Y-102889976D01*
X155980838Y-102875000D01*
X155767454Y-102875000D01*
X155749502Y-102815820D01*
X155690537Y-102705506D01*
X155611185Y-102608815D01*
X155514494Y-102529463D01*
X155404180Y-102470498D01*
X155284482Y-102434188D01*
X155160000Y-102421928D01*
X153460000Y-102421928D01*
X153335518Y-102434188D01*
X153215820Y-102470498D01*
X153105506Y-102529463D01*
X153008815Y-102608815D01*
X152929463Y-102705506D01*
X152870498Y-102815820D01*
X152834188Y-102935518D01*
X152821928Y-103060000D01*
X152821928Y-104760000D01*
X152834188Y-104884482D01*
X152870498Y-105004180D01*
X152929463Y-105114494D01*
X153008815Y-105211185D01*
X153105506Y-105290537D01*
X153215820Y-105349502D01*
X153288380Y-105371513D01*
X153156525Y-105503368D01*
X152994010Y-105746589D01*
X152882068Y-106016842D01*
X152825000Y-106303740D01*
X152825000Y-106596260D01*
X152882068Y-106883158D01*
X152994010Y-107153411D01*
X153156525Y-107396632D01*
X153363368Y-107603475D01*
X153537760Y-107720000D01*
X153363368Y-107836525D01*
X153156525Y-108043368D01*
X153148753Y-108055000D01*
X152028925Y-108055000D01*
X152029608Y-106982277D01*
X152029607Y-106982268D01*
X152029608Y-106982145D01*
X152030751Y-104364932D01*
X152030749Y-104364916D01*
X152030751Y-104364690D01*
X152030979Y-101130378D01*
X152030976Y-101130347D01*
X152030979Y-101129867D01*
X152030058Y-99818072D01*
X152544250Y-99815000D01*
X152703000Y-99656250D01*
X152703000Y-98607000D01*
X152957000Y-98607000D01*
X152957000Y-99656250D01*
X153115750Y-99815000D01*
X153630000Y-99818072D01*
X153754482Y-99805812D01*
X153874180Y-99769502D01*
X153984494Y-99710537D01*
X154081185Y-99631185D01*
X154160537Y-99534494D01*
X154219502Y-99424180D01*
X154255812Y-99304482D01*
X154268072Y-99180000D01*
X154265000Y-98765750D01*
X154106250Y-98607000D01*
X152957000Y-98607000D01*
X152703000Y-98607000D01*
X152683000Y-98607000D01*
X152683000Y-98353000D01*
X152703000Y-98353000D01*
X152703000Y-97303750D01*
X152957000Y-97303750D01*
X152957000Y-98353000D01*
X154106250Y-98353000D01*
X154265000Y-98194250D01*
X154268072Y-97780000D01*
X154255812Y-97655518D01*
X154219502Y-97535820D01*
X154160537Y-97425506D01*
X154081185Y-97328815D01*
X153984494Y-97249463D01*
X153874180Y-97190498D01*
X153754482Y-97154188D01*
X153630000Y-97141928D01*
X153115750Y-97145000D01*
X152957000Y-97303750D01*
X152703000Y-97303750D01*
X152544250Y-97145000D01*
X152030000Y-97141928D01*
X151905518Y-97154188D01*
X151785820Y-97190498D01*
X151675506Y-97249463D01*
X151578815Y-97328815D01*
X151499463Y-97425506D01*
X151484663Y-97453194D01*
X151475602Y-97449408D01*
X151447772Y-97443758D01*
X151420744Y-97435098D01*
X151390200Y-97431583D01*
X151399502Y-97414180D01*
X151435812Y-97294482D01*
X151448072Y-97170000D01*
X151445000Y-96455750D01*
X151286250Y-96297000D01*
X150187000Y-96297000D01*
X150187000Y-96317000D01*
X149933000Y-96317000D01*
X149933000Y-96297000D01*
X149913000Y-96297000D01*
X149913000Y-96043000D01*
X149933000Y-96043000D01*
X149933000Y-94693750D01*
X150187000Y-94693750D01*
X150187000Y-96043000D01*
X151286250Y-96043000D01*
X151445000Y-95884250D01*
X151448072Y-95170000D01*
X151435812Y-95045518D01*
X151399502Y-94925820D01*
X151340537Y-94815506D01*
X151261185Y-94718815D01*
X151164494Y-94639463D01*
X151054180Y-94580498D01*
X150934482Y-94544188D01*
X150810000Y-94531928D01*
X150345750Y-94535000D01*
X150187000Y-94693750D01*
X149933000Y-94693750D01*
X149774250Y-94535000D01*
X149310000Y-94531928D01*
X149185518Y-94544188D01*
X149065820Y-94580498D01*
X148955506Y-94639463D01*
X148926154Y-94663551D01*
X148917951Y-94654848D01*
X148884487Y-94630984D01*
X148852805Y-94604799D01*
X148832052Y-94593590D01*
X148812846Y-94579894D01*
X148775379Y-94562982D01*
X148739219Y-94543452D01*
X148716688Y-94536489D01*
X148695183Y-94526782D01*
X148686414Y-94523884D01*
X148629772Y-94505596D01*
X148596634Y-94498374D01*
X148564307Y-94488106D01*
X148533720Y-94484664D01*
X148503639Y-94478108D01*
X148469723Y-94477461D01*
X148436023Y-94473668D01*
X148426788Y-94473600D01*
X147081090Y-94473092D01*
X147031570Y-94477929D01*
X146981867Y-94480538D01*
X146972746Y-94481984D01*
X146931344Y-94488842D01*
X146878906Y-94502898D01*
X146826055Y-94515313D01*
X146816640Y-94519588D01*
X146806652Y-94522265D01*
X146757955Y-94546233D01*
X146708509Y-94568683D01*
X146700546Y-94573360D01*
X146655842Y-94600030D01*
X146645646Y-94607552D01*
X146634400Y-94613384D01*
X146603125Y-94638357D01*
X146581308Y-94653262D01*
X146564494Y-94639463D01*
X146454180Y-94580498D01*
X146334482Y-94544188D01*
X146210000Y-94531928D01*
X145427060Y-94531928D01*
X144805000Y-93909869D01*
X144805000Y-93209250D01*
X144955750Y-93360000D01*
X144970000Y-93363072D01*
X145094482Y-93350812D01*
X145214180Y-93314502D01*
X145324494Y-93255537D01*
X145421185Y-93176185D01*
X145500537Y-93079494D01*
X145559502Y-92969180D01*
X145595812Y-92849482D01*
X145608072Y-92725000D01*
X145607247Y-92607104D01*
X145613000Y-92602954D01*
X145613000Y-91212000D01*
X145867000Y-91212000D01*
X145867000Y-92602954D01*
X146041874Y-92729119D01*
X146264976Y-92649276D01*
X146452764Y-92527369D01*
X146613161Y-92371169D01*
X146740003Y-92186678D01*
X146828415Y-91980987D01*
X146875000Y-91762000D01*
X146875000Y-91212000D01*
X145867000Y-91212000D01*
X145613000Y-91212000D01*
X145601867Y-91212000D01*
X145595812Y-91150518D01*
X145593000Y-91141248D01*
X145593000Y-90958000D01*
X145613000Y-90958000D01*
X145613000Y-90938000D01*
X145867000Y-90938000D01*
X145867000Y-90958000D01*
X146875000Y-90958000D01*
X146875000Y-90408000D01*
X146858408Y-90330000D01*
X146951928Y-90330000D01*
X146964188Y-90454482D01*
X147000498Y-90574180D01*
X147059463Y-90684494D01*
X147138815Y-90781185D01*
X147235506Y-90860537D01*
X147345820Y-90919502D01*
X147465518Y-90955812D01*
X147590000Y-90968072D01*
X147624250Y-90965000D01*
X147783000Y-90806250D01*
X147783000Y-90162000D01*
X148037000Y-90162000D01*
X148037000Y-90806250D01*
X148195750Y-90965000D01*
X148230000Y-90968072D01*
X148354482Y-90955812D01*
X148474180Y-90919502D01*
X148584494Y-90860537D01*
X148681185Y-90781185D01*
X148760537Y-90684494D01*
X148819502Y-90574180D01*
X148855812Y-90454482D01*
X148868072Y-90330000D01*
X148865000Y-90320750D01*
X148706250Y-90162000D01*
X148037000Y-90162000D01*
X147783000Y-90162000D01*
X147113750Y-90162000D01*
X146955000Y-90320750D01*
X146951928Y-90330000D01*
X146858408Y-90330000D01*
X146828415Y-90189013D01*
X146740003Y-89983322D01*
X146631153Y-89825000D01*
X147030750Y-89825000D01*
X147113750Y-89908000D01*
X147380237Y-89908000D01*
X147436875Y-89938274D01*
X147584243Y-89982977D01*
X147737500Y-89998072D01*
X148082500Y-89998072D01*
X148235757Y-89982977D01*
X148245570Y-89980000D01*
X150691928Y-89980000D01*
X150704188Y-90104482D01*
X150740498Y-90224180D01*
X150799463Y-90334494D01*
X150878815Y-90431185D01*
X150975506Y-90510537D01*
X151085820Y-90569502D01*
X151205518Y-90605812D01*
X151330000Y-90618072D01*
X151644250Y-90615000D01*
X151803000Y-90456250D01*
X151803000Y-89007000D01*
X152057000Y-89007000D01*
X152057000Y-90456250D01*
X152215750Y-90615000D01*
X152530000Y-90618072D01*
X152654482Y-90605812D01*
X152774180Y-90569502D01*
X152884494Y-90510537D01*
X152981185Y-90431185D01*
X153060537Y-90334494D01*
X153119502Y-90224180D01*
X153155812Y-90104482D01*
X153168072Y-89980000D01*
X166191928Y-89980000D01*
X166204188Y-90104482D01*
X166240498Y-90224180D01*
X166299463Y-90334494D01*
X166378815Y-90431185D01*
X166475506Y-90510537D01*
X166585820Y-90569502D01*
X166705518Y-90605812D01*
X166830000Y-90618072D01*
X167144250Y-90615000D01*
X167303000Y-90456250D01*
X167303000Y-89007000D01*
X167557000Y-89007000D01*
X167557000Y-90456250D01*
X167715750Y-90615000D01*
X168030000Y-90618072D01*
X168154482Y-90605812D01*
X168274180Y-90569502D01*
X168384494Y-90510537D01*
X168481185Y-90431185D01*
X168560537Y-90334494D01*
X168619502Y-90224180D01*
X168655812Y-90104482D01*
X168668072Y-89980000D01*
X168665000Y-89165750D01*
X168506250Y-89007000D01*
X167557000Y-89007000D01*
X167303000Y-89007000D01*
X166353750Y-89007000D01*
X166195000Y-89165750D01*
X166191928Y-89980000D01*
X153168072Y-89980000D01*
X153165000Y-89165750D01*
X153006250Y-89007000D01*
X152057000Y-89007000D01*
X151803000Y-89007000D01*
X150853750Y-89007000D01*
X150695000Y-89165750D01*
X150691928Y-89980000D01*
X148245570Y-89980000D01*
X148383125Y-89938274D01*
X148439763Y-89908000D01*
X148706250Y-89908000D01*
X148865000Y-89749250D01*
X148868072Y-89740000D01*
X148855812Y-89615518D01*
X148819502Y-89495820D01*
X148815688Y-89488684D01*
X148852977Y-89365757D01*
X148868072Y-89212500D01*
X148868072Y-88917500D01*
X148852977Y-88764243D01*
X148808274Y-88616875D01*
X148735679Y-88481060D01*
X148637983Y-88362017D01*
X148518940Y-88264321D01*
X148383125Y-88191726D01*
X148235757Y-88147023D01*
X148082500Y-88131928D01*
X147737500Y-88131928D01*
X147584243Y-88147023D01*
X147436875Y-88191726D01*
X147301060Y-88264321D01*
X147251492Y-88305000D01*
X145867002Y-88305000D01*
X145867002Y-88172955D01*
X146041874Y-88299119D01*
X146264976Y-88219276D01*
X146452764Y-88097369D01*
X146613161Y-87941169D01*
X146723968Y-87780000D01*
X150691928Y-87780000D01*
X150695000Y-88594250D01*
X150853750Y-88753000D01*
X151803000Y-88753000D01*
X151803000Y-87303750D01*
X152057000Y-87303750D01*
X152057000Y-88753000D01*
X153006250Y-88753000D01*
X153165000Y-88594250D01*
X153165852Y-88368212D01*
X155495000Y-88368212D01*
X155495000Y-88591788D01*
X155538617Y-88811067D01*
X155624176Y-89017624D01*
X155748388Y-89203520D01*
X155906480Y-89361612D01*
X156092376Y-89485824D01*
X156298933Y-89571383D01*
X156518212Y-89615000D01*
X156741788Y-89615000D01*
X156961067Y-89571383D01*
X157167624Y-89485824D01*
X157353520Y-89361612D01*
X157511612Y-89203520D01*
X157635824Y-89017624D01*
X157721383Y-88811067D01*
X157765000Y-88591788D01*
X157765000Y-88368212D01*
X163475000Y-88368212D01*
X163475000Y-88591788D01*
X163518617Y-88811067D01*
X163604176Y-89017624D01*
X163728388Y-89203520D01*
X163886480Y-89361612D01*
X164072376Y-89485824D01*
X164278933Y-89571383D01*
X164498212Y-89615000D01*
X164721788Y-89615000D01*
X164941067Y-89571383D01*
X165147624Y-89485824D01*
X165333520Y-89361612D01*
X165491612Y-89203520D01*
X165615824Y-89017624D01*
X165701383Y-88811067D01*
X165745000Y-88591788D01*
X165745000Y-88368212D01*
X165701383Y-88148933D01*
X165615824Y-87942376D01*
X165507328Y-87780000D01*
X166191928Y-87780000D01*
X166195000Y-88594250D01*
X166353750Y-88753000D01*
X167303000Y-88753000D01*
X167303000Y-87303750D01*
X167557000Y-87303750D01*
X167557000Y-88753000D01*
X168506250Y-88753000D01*
X168665000Y-88594250D01*
X168668072Y-87780000D01*
X168655812Y-87655518D01*
X168619502Y-87535820D01*
X168560537Y-87425506D01*
X168481185Y-87328815D01*
X168384494Y-87249463D01*
X168274180Y-87190498D01*
X168154482Y-87154188D01*
X168030000Y-87141928D01*
X167715750Y-87145000D01*
X167557000Y-87303750D01*
X167303000Y-87303750D01*
X167144250Y-87145000D01*
X166830000Y-87141928D01*
X166705518Y-87154188D01*
X166585820Y-87190498D01*
X166475506Y-87249463D01*
X166378815Y-87328815D01*
X166299463Y-87425506D01*
X166240498Y-87535820D01*
X166204188Y-87655518D01*
X166191928Y-87780000D01*
X165507328Y-87780000D01*
X165491612Y-87756480D01*
X165333520Y-87598388D01*
X165147624Y-87474176D01*
X164941067Y-87388617D01*
X164721788Y-87345000D01*
X164498212Y-87345000D01*
X164278933Y-87388617D01*
X164072376Y-87474176D01*
X163886480Y-87598388D01*
X163728388Y-87756480D01*
X163604176Y-87942376D01*
X163518617Y-88148933D01*
X163475000Y-88368212D01*
X157765000Y-88368212D01*
X157721383Y-88148933D01*
X157635824Y-87942376D01*
X157511612Y-87756480D01*
X157353520Y-87598388D01*
X157167624Y-87474176D01*
X156961067Y-87388617D01*
X156741788Y-87345000D01*
X156518212Y-87345000D01*
X156298933Y-87388617D01*
X156092376Y-87474176D01*
X155906480Y-87598388D01*
X155748388Y-87756480D01*
X155624176Y-87942376D01*
X155538617Y-88148933D01*
X155495000Y-88368212D01*
X153165852Y-88368212D01*
X153168072Y-87780000D01*
X153155812Y-87655518D01*
X153119502Y-87535820D01*
X153060537Y-87425506D01*
X152981185Y-87328815D01*
X152884494Y-87249463D01*
X152774180Y-87190498D01*
X152654482Y-87154188D01*
X152530000Y-87141928D01*
X152215750Y-87145000D01*
X152057000Y-87303750D01*
X151803000Y-87303750D01*
X151644250Y-87145000D01*
X151330000Y-87141928D01*
X151205518Y-87154188D01*
X151085820Y-87190498D01*
X150975506Y-87249463D01*
X150878815Y-87328815D01*
X150799463Y-87425506D01*
X150740498Y-87535820D01*
X150704188Y-87655518D01*
X150691928Y-87780000D01*
X146723968Y-87780000D01*
X146740003Y-87756678D01*
X146828415Y-87550987D01*
X146875000Y-87332000D01*
X146875000Y-87032000D01*
X145867000Y-87032000D01*
X145867000Y-87052000D01*
X145613000Y-87052000D01*
X145613000Y-87032000D01*
X144605000Y-87032000D01*
X144605000Y-87332000D01*
X144651585Y-87550987D01*
X144739997Y-87756678D01*
X144866839Y-87941169D01*
X145027236Y-88097369D01*
X145215024Y-88219276D01*
X145438126Y-88299119D01*
X145612998Y-88172955D01*
X145612998Y-88305000D01*
X143832322Y-88305000D01*
X143794999Y-88301324D01*
X143757676Y-88305000D01*
X143757667Y-88305000D01*
X143646014Y-88315997D01*
X143502753Y-88359454D01*
X143370724Y-88430026D01*
X143254999Y-88524999D01*
X143231201Y-88553997D01*
X142159002Y-89626196D01*
X142129999Y-89649999D01*
X142084883Y-89704974D01*
X142035026Y-89765724D01*
X142033819Y-89767983D01*
X141964454Y-89897754D01*
X141920997Y-90041015D01*
X141917495Y-90076571D01*
X141882678Y-90080000D01*
X141487325Y-90080000D01*
X141450000Y-90076324D01*
X141412675Y-90080000D01*
X141412667Y-90080000D01*
X141301014Y-90090997D01*
X141157753Y-90134454D01*
X141025724Y-90205026D01*
X140909999Y-90299999D01*
X140886196Y-90329003D01*
X140658998Y-90556201D01*
X140630000Y-90579999D01*
X140606202Y-90608997D01*
X140606201Y-90608998D01*
X140583279Y-90636928D01*
X140520000Y-90636928D01*
X140430000Y-90645792D01*
X140430000Y-90077322D01*
X140433676Y-90039999D01*
X140430000Y-90002676D01*
X140430000Y-90002667D01*
X140419003Y-89891014D01*
X140375546Y-89747753D01*
X140304974Y-89615724D01*
X140210001Y-89499999D01*
X140181004Y-89476202D01*
X139258804Y-88554002D01*
X139235001Y-88524999D01*
X139119276Y-88430026D01*
X138987247Y-88359454D01*
X138843986Y-88315997D01*
X138732333Y-88305000D01*
X138732322Y-88305000D01*
X138695000Y-88301324D01*
X138657678Y-88305000D01*
X137227002Y-88305000D01*
X137227002Y-88172955D01*
X137401874Y-88299119D01*
X137624976Y-88219276D01*
X137812764Y-88097369D01*
X137973161Y-87941169D01*
X138100003Y-87756678D01*
X138188415Y-87550987D01*
X138235000Y-87332000D01*
X138235000Y-87032000D01*
X137227000Y-87032000D01*
X137227000Y-87052000D01*
X136973000Y-87052000D01*
X136973000Y-87032000D01*
X135965000Y-87032000D01*
X135965000Y-87332000D01*
X136011585Y-87550987D01*
X136099997Y-87756678D01*
X136226839Y-87941169D01*
X136387236Y-88097369D01*
X136575024Y-88219276D01*
X136798126Y-88299119D01*
X136972998Y-88172955D01*
X136972998Y-88305000D01*
X135632415Y-88305000D01*
X135588940Y-88269321D01*
X135453125Y-88196726D01*
X135305757Y-88152023D01*
X135152500Y-88136928D01*
X134807500Y-88136928D01*
X134654243Y-88152023D01*
X134506875Y-88196726D01*
X134371060Y-88269321D01*
X134252017Y-88367017D01*
X134154321Y-88486060D01*
X134081726Y-88621875D01*
X134037023Y-88769243D01*
X134021928Y-88922500D01*
X134021928Y-89217500D01*
X134037023Y-89370757D01*
X134074312Y-89493684D01*
X134070498Y-89500820D01*
X134034188Y-89620518D01*
X134021928Y-89745000D01*
X134025000Y-89754250D01*
X134183750Y-89913000D01*
X134450237Y-89913000D01*
X134506875Y-89943274D01*
X134654243Y-89987977D01*
X134807500Y-90003072D01*
X135152500Y-90003072D01*
X135305757Y-89987977D01*
X135453125Y-89943274D01*
X135509763Y-89913000D01*
X135776250Y-89913000D01*
X135864250Y-89825000D01*
X136208847Y-89825000D01*
X136099997Y-89983322D01*
X136011585Y-90189013D01*
X135965000Y-90408000D01*
X135965000Y-90958000D01*
X136973000Y-90958000D01*
X136973000Y-90938000D01*
X137227000Y-90938000D01*
X137227000Y-90958000D01*
X137247000Y-90958000D01*
X137247000Y-91141248D01*
X137244188Y-91150518D01*
X137238133Y-91212000D01*
X137227000Y-91212000D01*
X137227000Y-92602954D01*
X137232753Y-92607104D01*
X137231928Y-92725000D01*
X137244188Y-92849482D01*
X137280498Y-92969180D01*
X137339463Y-93079494D01*
X137418815Y-93176185D01*
X137515506Y-93255537D01*
X137625820Y-93314502D01*
X137745518Y-93350812D01*
X137870000Y-93363072D01*
X137884250Y-93360000D01*
X138035001Y-93209249D01*
X138035001Y-93894058D01*
X138030476Y-93940000D01*
X138048529Y-94123291D01*
X138054676Y-94143554D01*
X138101994Y-94299540D01*
X138188815Y-94461972D01*
X138305657Y-94604344D01*
X138341336Y-94633625D01*
X138632569Y-94924858D01*
X138692795Y-95070256D01*
X138806063Y-95239774D01*
X138950226Y-95383937D01*
X139119744Y-95497205D01*
X139308102Y-95575226D01*
X139309662Y-95575536D01*
X139265878Y-95619321D01*
X139158125Y-95561726D01*
X139010757Y-95517023D01*
X138857500Y-95501928D01*
X138562500Y-95501928D01*
X138409243Y-95517023D01*
X138286316Y-95554312D01*
X138279180Y-95550498D01*
X138159482Y-95514188D01*
X138035000Y-95501928D01*
X138025750Y-95505000D01*
X137867000Y-95663750D01*
X137867000Y-95930237D01*
X137836726Y-95986875D01*
X137792023Y-96134243D01*
X137776928Y-96287500D01*
X137776928Y-96632500D01*
X137792023Y-96785757D01*
X137836726Y-96933125D01*
X137867000Y-96989763D01*
X137867000Y-97256250D01*
X137950000Y-97339250D01*
X137950000Y-97732024D01*
X137897251Y-97667749D01*
X137777829Y-97569742D01*
X137641582Y-97496916D01*
X137493745Y-97452071D01*
X137340000Y-97436928D01*
X135690000Y-97436928D01*
X135536255Y-97452071D01*
X135388418Y-97496916D01*
X135252171Y-97569742D01*
X135132749Y-97667749D01*
X135034742Y-97787171D01*
X134961916Y-97923418D01*
X134917071Y-98071255D01*
X134901928Y-98225000D01*
X134901928Y-98363732D01*
X132417859Y-98348246D01*
X132404482Y-98344188D01*
X132280000Y-98331928D01*
X131380000Y-98331928D01*
X131285963Y-98341190D01*
X131175993Y-98340504D01*
X131150911Y-98342846D01*
X131127059Y-98349980D01*
X131105057Y-98361631D01*
X131085750Y-98377349D01*
X131069881Y-98396533D01*
X131058059Y-98418443D01*
X131056726Y-98422775D01*
X131025506Y-98439463D01*
X130928815Y-98518815D01*
X130849463Y-98615506D01*
X130846845Y-98620404D01*
X130803029Y-98633696D01*
X130778140Y-98641246D01*
X130641767Y-98714138D01*
X130522236Y-98812236D01*
X130497653Y-98842190D01*
X130042190Y-99297653D01*
X130012236Y-99322236D01*
X129914138Y-99441768D01*
X129841246Y-99578141D01*
X129796359Y-99726114D01*
X129785000Y-99841440D01*
X129785000Y-99841447D01*
X129781203Y-99880000D01*
X129230013Y-99880000D01*
X129230015Y-96780000D01*
X136806928Y-96780000D01*
X136819188Y-96904482D01*
X136855498Y-97024180D01*
X136914463Y-97134494D01*
X136993815Y-97231185D01*
X137090506Y-97310537D01*
X137200820Y-97369502D01*
X137320518Y-97405812D01*
X137445000Y-97418072D01*
X137454250Y-97415000D01*
X137613000Y-97256250D01*
X137613000Y-96587000D01*
X136968750Y-96587000D01*
X136810000Y-96745750D01*
X136806928Y-96780000D01*
X129230015Y-96780000D01*
X129230015Y-96140000D01*
X136806928Y-96140000D01*
X136810000Y-96174250D01*
X136968750Y-96333000D01*
X137613000Y-96333000D01*
X137613000Y-95663750D01*
X137454250Y-95505000D01*
X137445000Y-95501928D01*
X137320518Y-95514188D01*
X137200820Y-95550498D01*
X137090506Y-95609463D01*
X136993815Y-95688815D01*
X136914463Y-95785506D01*
X136855498Y-95895820D01*
X136819188Y-96015518D01*
X136806928Y-96140000D01*
X129230015Y-96140000D01*
X129230020Y-91212000D01*
X135965000Y-91212000D01*
X135965000Y-91762000D01*
X136011585Y-91980987D01*
X136099997Y-92186678D01*
X136226839Y-92371169D01*
X136387236Y-92527369D01*
X136575024Y-92649276D01*
X136798126Y-92729119D01*
X136973000Y-92602954D01*
X136973000Y-91212000D01*
X135965000Y-91212000D01*
X129230020Y-91212000D01*
X129230021Y-90335000D01*
X134021928Y-90335000D01*
X134034188Y-90459482D01*
X134070498Y-90579180D01*
X134129463Y-90689494D01*
X134208815Y-90786185D01*
X134305506Y-90865537D01*
X134415820Y-90924502D01*
X134535518Y-90960812D01*
X134660000Y-90973072D01*
X134694250Y-90970000D01*
X134853000Y-90811250D01*
X134853000Y-90167000D01*
X135107000Y-90167000D01*
X135107000Y-90811250D01*
X135265750Y-90970000D01*
X135300000Y-90973072D01*
X135424482Y-90960812D01*
X135544180Y-90924502D01*
X135654494Y-90865537D01*
X135751185Y-90786185D01*
X135830537Y-90689494D01*
X135889502Y-90579180D01*
X135925812Y-90459482D01*
X135938072Y-90335000D01*
X135935000Y-90325750D01*
X135776250Y-90167000D01*
X135107000Y-90167000D01*
X134853000Y-90167000D01*
X134183750Y-90167000D01*
X134025000Y-90325750D01*
X134021928Y-90335000D01*
X129230021Y-90335000D01*
X129230024Y-86478000D01*
X135965000Y-86478000D01*
X135965000Y-86778000D01*
X136973000Y-86778000D01*
X136973000Y-85637046D01*
X137227000Y-85637046D01*
X137227000Y-86778000D01*
X138235000Y-86778000D01*
X138235000Y-86478000D01*
X144605000Y-86478000D01*
X144605000Y-86778000D01*
X145613000Y-86778000D01*
X145613000Y-85637046D01*
X145867000Y-85637046D01*
X145867000Y-86778000D01*
X146875000Y-86778000D01*
X146875000Y-86478000D01*
X146828415Y-86259013D01*
X146740003Y-86053322D01*
X146613161Y-85868831D01*
X146452764Y-85712631D01*
X146264976Y-85590724D01*
X146041874Y-85510881D01*
X145867000Y-85637046D01*
X145613000Y-85637046D01*
X145438126Y-85510881D01*
X145215024Y-85590724D01*
X145027236Y-85712631D01*
X144866839Y-85868831D01*
X144739997Y-86053322D01*
X144651585Y-86259013D01*
X144605000Y-86478000D01*
X138235000Y-86478000D01*
X138188415Y-86259013D01*
X138100003Y-86053322D01*
X137973161Y-85868831D01*
X137812764Y-85712631D01*
X137624976Y-85590724D01*
X137401874Y-85510881D01*
X137227000Y-85637046D01*
X136973000Y-85637046D01*
X136798126Y-85510881D01*
X136575024Y-85590724D01*
X136387236Y-85712631D01*
X136226839Y-85868831D01*
X136099997Y-86053322D01*
X136011585Y-86259013D01*
X135965000Y-86478000D01*
X129230024Y-86478000D01*
X129230025Y-86403937D01*
X129259940Y-86113784D01*
X129336597Y-85864400D01*
X129460236Y-85634647D01*
X129626142Y-85433290D01*
X129828003Y-85267990D01*
X130058127Y-85145045D01*
X130307742Y-85069142D01*
X130599010Y-85040000D01*
X168187721Y-85040000D01*
X168479659Y-85068625D01*
G37*
X168479659Y-85068625D02*
X168729429Y-85144035D01*
X168959792Y-85266522D01*
X169161980Y-85431422D01*
X169328286Y-85632450D01*
X169452378Y-85861954D01*
X169529531Y-86111195D01*
X169560000Y-86401089D01*
X169560001Y-105646518D01*
X157182424Y-118017669D01*
X157181309Y-118019027D01*
X156973785Y-118228678D01*
X156757721Y-118374921D01*
X156517370Y-118476411D01*
X156247367Y-118532288D01*
X156102564Y-118539994D01*
X130602412Y-118530113D01*
X130310319Y-118501473D01*
X130060535Y-118426059D01*
X129830153Y-118303562D01*
X129627949Y-118138649D01*
X129461630Y-117937604D01*
X129337531Y-117708087D01*
X129260371Y-117458825D01*
X129229999Y-117169854D01*
X129229999Y-116966890D01*
X152868524Y-116966890D01*
X152913175Y-117114099D01*
X153038359Y-117376920D01*
X153212412Y-117610269D01*
X153428645Y-117805178D01*
X153678748Y-117954157D01*
X153953109Y-118051481D01*
X154183000Y-117930814D01*
X154183000Y-116737000D01*
X154437000Y-116737000D01*
X154437000Y-117930814D01*
X154666891Y-118051481D01*
X154941252Y-117954157D01*
X155191355Y-117805178D01*
X155407588Y-117610269D01*
X155581641Y-117376920D01*
X155706825Y-117114099D01*
X155751476Y-116966890D01*
X155630155Y-116737000D01*
X154437000Y-116737000D01*
X154183000Y-116737000D01*
X152989845Y-116737000D01*
X152868524Y-116966890D01*
X129229999Y-116966890D01*
X129230013Y-99880000D01*
X129781203Y-99880000D01*
X129785000Y-99918553D01*
X129785001Y-108751437D01*
X129781203Y-108790000D01*
X129796359Y-108943886D01*
X129841246Y-109091859D01*
X129867923Y-109141768D01*
X129914139Y-109228233D01*
X129937046Y-109256145D01*
X129987655Y-109317812D01*
X129987659Y-109317816D01*
X130012237Y-109347764D01*
X130042185Y-109372342D01*
X130412804Y-109742961D01*
X130359977Y-109917105D01*
X130347703Y-110041726D01*
X130285820Y-110060498D01*
X130175506Y-110119463D01*
X130078815Y-110198815D01*
X129999463Y-110295506D01*
X129940498Y-110405820D01*
X129904188Y-110525518D01*
X129891928Y-110650000D01*
X129891928Y-112350000D01*
X129904188Y-112474482D01*
X129940498Y-112594180D01*
X129999463Y-112704494D01*
X130078815Y-112801185D01*
X130175506Y-112880537D01*
X130285820Y-112939502D01*
X130405518Y-112975812D01*
X130530000Y-112988072D01*
X132230000Y-112988072D01*
X132354482Y-112975812D01*
X132474180Y-112939502D01*
X132584494Y-112880537D01*
X132681185Y-112801185D01*
X132760537Y-112704494D01*
X132819502Y-112594180D01*
X132841513Y-112521620D01*
X132973368Y-112653475D01*
X133216589Y-112815990D01*
X133486842Y-112927932D01*
X133773740Y-112985000D01*
X134066260Y-112985000D01*
X134353158Y-112927932D01*
X134623411Y-112815990D01*
X134866632Y-112653475D01*
X135073475Y-112446632D01*
X135190000Y-112272240D01*
X135306525Y-112446632D01*
X135513368Y-112653475D01*
X135756589Y-112815990D01*
X136026842Y-112927932D01*
X136313740Y-112985000D01*
X136606260Y-112985000D01*
X136893158Y-112927932D01*
X137163411Y-112815990D01*
X137406632Y-112653475D01*
X137613475Y-112446632D01*
X137730000Y-112272240D01*
X137846525Y-112446632D01*
X138053368Y-112653475D01*
X138296589Y-112815990D01*
X138566842Y-112927932D01*
X138853740Y-112985000D01*
X139146260Y-112985000D01*
X139433158Y-112927932D01*
X139703411Y-112815990D01*
X139946632Y-112653475D01*
X140153475Y-112446632D01*
X140270000Y-112272240D01*
X140386525Y-112446632D01*
X140593368Y-112653475D01*
X140836589Y-112815990D01*
X141106842Y-112927932D01*
X141393740Y-112985000D01*
X141686260Y-112985000D01*
X141973158Y-112927932D01*
X142243411Y-112815990D01*
X142486632Y-112653475D01*
X142693475Y-112446632D01*
X142815195Y-112264466D01*
X142884822Y-112381355D01*
X143079731Y-112597588D01*
X143313080Y-112771641D01*
X143575901Y-112896825D01*
X143723110Y-112941476D01*
X143953000Y-112820155D01*
X143953000Y-111627000D01*
X144207000Y-111627000D01*
X144207000Y-112820155D01*
X144436890Y-112941476D01*
X144584099Y-112896825D01*
X144846920Y-112771641D01*
X145080269Y-112597588D01*
X145275178Y-112381355D01*
X145424157Y-112131252D01*
X145521481Y-111856891D01*
X145400814Y-111627000D01*
X144207000Y-111627000D01*
X143953000Y-111627000D01*
X143933000Y-111627000D01*
X143933000Y-111373000D01*
X143953000Y-111373000D01*
X143953000Y-110179845D01*
X144207000Y-110179845D01*
X144207000Y-111373000D01*
X145400814Y-111373000D01*
X145521481Y-111143109D01*
X145424157Y-110868748D01*
X145275178Y-110618645D01*
X145080269Y-110402412D01*
X144846920Y-110228359D01*
X144584099Y-110103175D01*
X144436890Y-110058524D01*
X144207000Y-110179845D01*
X143953000Y-110179845D01*
X143723110Y-110058524D01*
X143575901Y-110103175D01*
X143313080Y-110228359D01*
X143079731Y-110402412D01*
X142884822Y-110618645D01*
X142815195Y-110735534D01*
X142693475Y-110553368D01*
X142575000Y-110434893D01*
X142575000Y-109849162D01*
X142560024Y-109697105D01*
X142500841Y-109502007D01*
X142404734Y-109322203D01*
X142275396Y-109164604D01*
X142117797Y-109035266D01*
X141937993Y-108939159D01*
X141796349Y-108896191D01*
X141100508Y-108200351D01*
X141179250Y-108200000D01*
X141338000Y-108041250D01*
X141338000Y-107392000D01*
X141592000Y-107392000D01*
X141592000Y-108041250D01*
X141750750Y-108200000D01*
X142440000Y-108203072D01*
X142564482Y-108190812D01*
X142684180Y-108154502D01*
X142794494Y-108095537D01*
X142891185Y-108016185D01*
X142970537Y-107919494D01*
X143029502Y-107809180D01*
X143065812Y-107689482D01*
X143078072Y-107565000D01*
X143075000Y-107550750D01*
X142916250Y-107392000D01*
X141592000Y-107392000D01*
X141338000Y-107392000D01*
X141318000Y-107392000D01*
X141318000Y-107138000D01*
X141338000Y-107138000D01*
X141338000Y-107118000D01*
X141592000Y-107118000D01*
X141592000Y-107138000D01*
X142916250Y-107138000D01*
X143075000Y-106979250D01*
X143078072Y-106965000D01*
X143065812Y-106840518D01*
X143029502Y-106720820D01*
X142970537Y-106610506D01*
X142946270Y-106580936D01*
X143018084Y-106446582D01*
X143062929Y-106298745D01*
X143078072Y-106145000D01*
X143078072Y-105845000D01*
X143062929Y-105691255D01*
X143018084Y-105543418D01*
X142945258Y-105407171D01*
X142906546Y-105360000D01*
X142945258Y-105312829D01*
X143018084Y-105176582D01*
X143062929Y-105028745D01*
X143078072Y-104875000D01*
X143078072Y-104575000D01*
X143062929Y-104421255D01*
X143018084Y-104273418D01*
X142945258Y-104137171D01*
X142906546Y-104090000D01*
X142945258Y-104042829D01*
X143018084Y-103906582D01*
X143062929Y-103758745D01*
X143078072Y-103605000D01*
X143078072Y-103305000D01*
X143062929Y-103151255D01*
X143018084Y-103003418D01*
X142945258Y-102867171D01*
X142906546Y-102820000D01*
X142945258Y-102772829D01*
X143018084Y-102636582D01*
X143062929Y-102488745D01*
X143078072Y-102335000D01*
X143078072Y-102035000D01*
X143062929Y-101881255D01*
X143018084Y-101733418D01*
X142945258Y-101597171D01*
X142906546Y-101550000D01*
X142945258Y-101502829D01*
X142963650Y-101468420D01*
X142980001Y-101455001D01*
X143003803Y-101425998D01*
X143452244Y-100977558D01*
X143452244Y-108081405D01*
X143456517Y-108124988D01*
X143458037Y-108168755D01*
X143459320Y-108177901D01*
X143465163Y-108217524D01*
X143474013Y-108253049D01*
X143479818Y-108289185D01*
X143489577Y-108315528D01*
X143496368Y-108342790D01*
X143511946Y-108375912D01*
X143524663Y-108410240D01*
X143528759Y-108418517D01*
X143546793Y-108454331D01*
X143564574Y-108482428D01*
X143579610Y-108512087D01*
X143599011Y-108536844D01*
X143615827Y-108563416D01*
X143638727Y-108587525D01*
X143659238Y-108613698D01*
X143665663Y-108620332D01*
X143693603Y-108648780D01*
X143723659Y-108673925D01*
X143751700Y-108701316D01*
X143773058Y-108715254D01*
X143792616Y-108731616D01*
X143826990Y-108750447D01*
X143859812Y-108771866D01*
X143868031Y-108776077D01*
X143903845Y-108794111D01*
X143933833Y-108805699D01*
X143962539Y-108820176D01*
X143993900Y-108828910D01*
X144024261Y-108840642D01*
X144055925Y-108846184D01*
X144086900Y-108854810D01*
X144096007Y-108856344D01*
X144135378Y-108862694D01*
X144183501Y-108865690D01*
X144231437Y-108871069D01*
X144240672Y-108871133D01*
X146072107Y-108871218D01*
X146072500Y-108924250D01*
X146231250Y-109083000D01*
X147068000Y-109083000D01*
X147068000Y-109063000D01*
X147322000Y-109063000D01*
X147322000Y-109083000D01*
X147342000Y-109083000D01*
X147342000Y-109337000D01*
X147322000Y-109337000D01*
X147322000Y-109357000D01*
X147068000Y-109357000D01*
X147068000Y-109337000D01*
X146231250Y-109337000D01*
X146072500Y-109495750D01*
X146069428Y-109910000D01*
X146081688Y-110034482D01*
X146117998Y-110154180D01*
X146176963Y-110264494D01*
X146256315Y-110361185D01*
X146337625Y-110427914D01*
X146325892Y-110466592D01*
X146309428Y-110633750D01*
X146309428Y-111146250D01*
X146325892Y-111313408D01*
X146374650Y-111474142D01*
X146453829Y-111622275D01*
X146463919Y-111634569D01*
X146461329Y-111637725D01*
X146382150Y-111785858D01*
X146333392Y-111946592D01*
X146316928Y-112113750D01*
X146316928Y-112626250D01*
X146333392Y-112793408D01*
X146382150Y-112954142D01*
X146461329Y-113102275D01*
X146567885Y-113232115D01*
X146697725Y-113338671D01*
X146845858Y-113417850D01*
X147006592Y-113466608D01*
X147173750Y-113483072D01*
X147611250Y-113483072D01*
X147778408Y-113466608D01*
X147939142Y-113417850D01*
X148087275Y-113338671D01*
X148108930Y-113320900D01*
X148175506Y-113375537D01*
X148285820Y-113434502D01*
X148405518Y-113470812D01*
X148530000Y-113483072D01*
X148681750Y-113480000D01*
X148840500Y-113321250D01*
X148840500Y-112497000D01*
X149094500Y-112497000D01*
X149094500Y-113321250D01*
X149253250Y-113480000D01*
X149405000Y-113483072D01*
X149529482Y-113470812D01*
X149649180Y-113434502D01*
X149759494Y-113375537D01*
X149856185Y-113296185D01*
X149935537Y-113199494D01*
X149994502Y-113089180D01*
X150030812Y-112969482D01*
X150043072Y-112845000D01*
X150040000Y-112655750D01*
X149881250Y-112497000D01*
X149094500Y-112497000D01*
X148840500Y-112497000D01*
X148820500Y-112497000D01*
X148820500Y-112243000D01*
X148840500Y-112243000D01*
X148840500Y-112223000D01*
X149094500Y-112223000D01*
X149094500Y-112243000D01*
X149881250Y-112243000D01*
X150040000Y-112084250D01*
X150043072Y-111895000D01*
X150030812Y-111770518D01*
X149994502Y-111650820D01*
X149935537Y-111540506D01*
X149935138Y-111540019D01*
X149970350Y-111474142D01*
X150019108Y-111313408D01*
X150035572Y-111146250D01*
X150035572Y-110633750D01*
X150019108Y-110466592D01*
X149970350Y-110305858D01*
X149952111Y-110271735D01*
X150046958Y-110156164D01*
X150128447Y-110003709D01*
X150152323Y-109925000D01*
X153148753Y-109925000D01*
X153156525Y-109936632D01*
X153363368Y-110143475D01*
X153537760Y-110260000D01*
X153363368Y-110376525D01*
X153156525Y-110583368D01*
X152994010Y-110826589D01*
X152882068Y-111096842D01*
X152825000Y-111383740D01*
X152825000Y-111676260D01*
X152882068Y-111963158D01*
X152994010Y-112233411D01*
X153156525Y-112476632D01*
X153363368Y-112683475D01*
X153537760Y-112800000D01*
X153363368Y-112916525D01*
X153156525Y-113123368D01*
X152994010Y-113366589D01*
X152882068Y-113636842D01*
X152825000Y-113923740D01*
X152825000Y-114216260D01*
X152882068Y-114503158D01*
X152994010Y-114773411D01*
X153156525Y-115016632D01*
X153363368Y-115223475D01*
X153545534Y-115345195D01*
X153428645Y-115414822D01*
X153212412Y-115609731D01*
X153038359Y-115843080D01*
X152913175Y-116105901D01*
X152868524Y-116253110D01*
X152989845Y-116483000D01*
X154183000Y-116483000D01*
X154183000Y-116463000D01*
X154437000Y-116463000D01*
X154437000Y-116483000D01*
X155630155Y-116483000D01*
X155751476Y-116253110D01*
X155706825Y-116105901D01*
X155581641Y-115843080D01*
X155407588Y-115609731D01*
X155191355Y-115414822D01*
X155074466Y-115345195D01*
X155256632Y-115223475D01*
X155375107Y-115105000D01*
X155750838Y-115105000D01*
X155902895Y-115090024D01*
X156097993Y-115030841D01*
X156277797Y-114934734D01*
X156374953Y-114855000D01*
X156711447Y-114855000D01*
X156750000Y-114858797D01*
X156788553Y-114855000D01*
X156788561Y-114855000D01*
X156903887Y-114843641D01*
X157051860Y-114798754D01*
X157188233Y-114725862D01*
X157307764Y-114627764D01*
X157332347Y-114597810D01*
X164617810Y-107312347D01*
X164647764Y-107287764D01*
X164745862Y-107168233D01*
X164818754Y-107031860D01*
X164819385Y-107029781D01*
X164863642Y-106883887D01*
X164871231Y-106806825D01*
X164875000Y-106768561D01*
X164875000Y-106768556D01*
X164878797Y-106730000D01*
X164875000Y-106691444D01*
X164875000Y-100418072D01*
X165530000Y-100418072D01*
X165654482Y-100405812D01*
X165730000Y-100382904D01*
X165805518Y-100405812D01*
X165930000Y-100418072D01*
X165994250Y-100415000D01*
X166153000Y-100256250D01*
X166153000Y-99913752D01*
X166155812Y-99904482D01*
X166168072Y-99780000D01*
X166168072Y-98833000D01*
X166194501Y-98833000D01*
X166191928Y-99180000D01*
X166204188Y-99304482D01*
X166240498Y-99424180D01*
X166299463Y-99534494D01*
X166378815Y-99631185D01*
X166407000Y-99654316D01*
X166407000Y-100256250D01*
X166565750Y-100415000D01*
X166630000Y-100418072D01*
X166754482Y-100405812D01*
X166874180Y-100369502D01*
X166984494Y-100310537D01*
X167081185Y-100231185D01*
X167160537Y-100134494D01*
X167219502Y-100024180D01*
X167255812Y-99904482D01*
X167268072Y-99780000D01*
X167267545Y-99691705D01*
X167303000Y-99656250D01*
X167303000Y-98607000D01*
X167557000Y-98607000D01*
X167557000Y-99656250D01*
X167715750Y-99815000D01*
X168030000Y-99818072D01*
X168154482Y-99805812D01*
X168274180Y-99769502D01*
X168384494Y-99710537D01*
X168481185Y-99631185D01*
X168560537Y-99534494D01*
X168619502Y-99424180D01*
X168655812Y-99304482D01*
X168668072Y-99180000D01*
X168665000Y-98765750D01*
X168506250Y-98607000D01*
X167557000Y-98607000D01*
X167303000Y-98607000D01*
X167265521Y-98607000D01*
X167267039Y-98353000D01*
X167303000Y-98353000D01*
X167303000Y-97303750D01*
X167557000Y-97303750D01*
X167557000Y-98353000D01*
X168506250Y-98353000D01*
X168665000Y-98194250D01*
X168668072Y-97780000D01*
X168655812Y-97655518D01*
X168619502Y-97535820D01*
X168560537Y-97425506D01*
X168481185Y-97328815D01*
X168384494Y-97249463D01*
X168274180Y-97190498D01*
X168154482Y-97154188D01*
X168030000Y-97141928D01*
X167715750Y-97145000D01*
X167557000Y-97303750D01*
X167303000Y-97303750D01*
X167144250Y-97145000D01*
X166830000Y-97141928D01*
X166705518Y-97154188D01*
X166585820Y-97190498D01*
X166475506Y-97249463D01*
X166378815Y-97328815D01*
X166299463Y-97425506D01*
X166240498Y-97535820D01*
X166237713Y-97545000D01*
X166152998Y-97545000D01*
X166152998Y-97703748D01*
X165994250Y-97545000D01*
X165930000Y-97541928D01*
X165805518Y-97554188D01*
X165730000Y-97577096D01*
X165654482Y-97554188D01*
X165530000Y-97541928D01*
X164830000Y-97541928D01*
X164705518Y-97554188D01*
X164630000Y-97577096D01*
X164554482Y-97554188D01*
X164430000Y-97541928D01*
X163730000Y-97541928D01*
X163605518Y-97554188D01*
X163530000Y-97577096D01*
X163454482Y-97554188D01*
X163330000Y-97541928D01*
X163265750Y-97545000D01*
X163107000Y-97703750D01*
X163107000Y-98046248D01*
X163104188Y-98055518D01*
X163091928Y-98180000D01*
X163091928Y-99780000D01*
X163104188Y-99904482D01*
X163107000Y-99913752D01*
X163107000Y-100256250D01*
X163265750Y-100415000D01*
X163305000Y-100416877D01*
X163305001Y-106404842D01*
X156424843Y-113285000D01*
X156374953Y-113285000D01*
X156277797Y-113205266D01*
X156097993Y-113109159D01*
X155902895Y-113049976D01*
X155750838Y-113035000D01*
X155375107Y-113035000D01*
X155256632Y-112916525D01*
X155082240Y-112800000D01*
X155256632Y-112683475D01*
X155375107Y-112565000D01*
X155760838Y-112565000D01*
X155912895Y-112550024D01*
X156107993Y-112490841D01*
X156287797Y-112394734D01*
X156384953Y-112315000D01*
X156451447Y-112315000D01*
X156490000Y-112318797D01*
X156528553Y-112315000D01*
X156528561Y-112315000D01*
X156643887Y-112303641D01*
X156791860Y-112258754D01*
X156928233Y-112185862D01*
X157047764Y-112087764D01*
X157072347Y-112057810D01*
X162417816Y-106712342D01*
X162447764Y-106687764D01*
X162472704Y-106657376D01*
X162500987Y-106622912D01*
X162545862Y-106568233D01*
X162618754Y-106431860D01*
X162657673Y-106303561D01*
X162663641Y-106283888D01*
X162666546Y-106254389D01*
X162675000Y-106168561D01*
X162675000Y-106168554D01*
X162678797Y-106130001D01*
X162675000Y-106091448D01*
X162675000Y-100415920D01*
X162694250Y-100415000D01*
X162853000Y-100256250D01*
X162853000Y-99913752D01*
X162855812Y-99904482D01*
X162868072Y-99780000D01*
X162868072Y-98180000D01*
X162855812Y-98055518D01*
X162853000Y-98046248D01*
X162853000Y-97703750D01*
X162694250Y-97545000D01*
X162630000Y-97541928D01*
X162505518Y-97554188D01*
X162430000Y-97577096D01*
X162354482Y-97554188D01*
X162230000Y-97541928D01*
X161530000Y-97541928D01*
X161405518Y-97554188D01*
X161330000Y-97577096D01*
X161254482Y-97554188D01*
X161130000Y-97541928D01*
X160430000Y-97541928D01*
X160305518Y-97554188D01*
X160230000Y-97577096D01*
X160154482Y-97554188D01*
X160030000Y-97541928D01*
X159330000Y-97541928D01*
X159205518Y-97554188D01*
X159130000Y-97577096D01*
X159054482Y-97554188D01*
X158930000Y-97541928D01*
X158230000Y-97541928D01*
X158105518Y-97554188D01*
X158030000Y-97577096D01*
X157954482Y-97554188D01*
X157830000Y-97541928D01*
X157130000Y-97541928D01*
X157005518Y-97554188D01*
X156885820Y-97590498D01*
X156775506Y-97649463D01*
X156678815Y-97728815D01*
X156599463Y-97825506D01*
X156540498Y-97935820D01*
X156504188Y-98055518D01*
X156491928Y-98180000D01*
X156491928Y-99780000D01*
X156504188Y-99904482D01*
X156540498Y-100024180D01*
X156599463Y-100134494D01*
X156678815Y-100231185D01*
X156775506Y-100310537D01*
X156885820Y-100369502D01*
X157005518Y-100405812D01*
X157130000Y-100418072D01*
X157815000Y-100418072D01*
X157815001Y-102084841D01*
X156774843Y-103125000D01*
X156604953Y-103125000D01*
X156507797Y-103045266D01*
X156327993Y-102949159D01*
X156132895Y-102889976D01*
X155980838Y-102875000D01*
X155767454Y-102875000D01*
X155749502Y-102815820D01*
X155690537Y-102705506D01*
X155611185Y-102608815D01*
X155514494Y-102529463D01*
X155404180Y-102470498D01*
X155284482Y-102434188D01*
X155160000Y-102421928D01*
X153460000Y-102421928D01*
X153335518Y-102434188D01*
X153215820Y-102470498D01*
X153105506Y-102529463D01*
X153008815Y-102608815D01*
X152929463Y-102705506D01*
X152870498Y-102815820D01*
X152834188Y-102935518D01*
X152821928Y-103060000D01*
X152821928Y-104760000D01*
X152834188Y-104884482D01*
X152870498Y-105004180D01*
X152929463Y-105114494D01*
X153008815Y-105211185D01*
X153105506Y-105290537D01*
X153215820Y-105349502D01*
X153288380Y-105371513D01*
X153156525Y-105503368D01*
X152994010Y-105746589D01*
X152882068Y-106016842D01*
X152825000Y-106303740D01*
X152825000Y-106596260D01*
X152882068Y-106883158D01*
X152994010Y-107153411D01*
X153156525Y-107396632D01*
X153363368Y-107603475D01*
X153537760Y-107720000D01*
X153363368Y-107836525D01*
X153156525Y-108043368D01*
X153148753Y-108055000D01*
X152028925Y-108055000D01*
X152029608Y-106982277D01*
X152029607Y-106982268D01*
X152029608Y-106982145D01*
X152030751Y-104364932D01*
X152030749Y-104364916D01*
X152030751Y-104364690D01*
X152030979Y-101130378D01*
X152030976Y-101130347D01*
X152030979Y-101129867D01*
X152030058Y-99818072D01*
X152544250Y-99815000D01*
X152703000Y-99656250D01*
X152703000Y-98607000D01*
X152957000Y-98607000D01*
X152957000Y-99656250D01*
X153115750Y-99815000D01*
X153630000Y-99818072D01*
X153754482Y-99805812D01*
X153874180Y-99769502D01*
X153984494Y-99710537D01*
X154081185Y-99631185D01*
X154160537Y-99534494D01*
X154219502Y-99424180D01*
X154255812Y-99304482D01*
X154268072Y-99180000D01*
X154265000Y-98765750D01*
X154106250Y-98607000D01*
X152957000Y-98607000D01*
X152703000Y-98607000D01*
X152683000Y-98607000D01*
X152683000Y-98353000D01*
X152703000Y-98353000D01*
X152703000Y-97303750D01*
X152957000Y-97303750D01*
X152957000Y-98353000D01*
X154106250Y-98353000D01*
X154265000Y-98194250D01*
X154268072Y-97780000D01*
X154255812Y-97655518D01*
X154219502Y-97535820D01*
X154160537Y-97425506D01*
X154081185Y-97328815D01*
X153984494Y-97249463D01*
X153874180Y-97190498D01*
X153754482Y-97154188D01*
X153630000Y-97141928D01*
X153115750Y-97145000D01*
X152957000Y-97303750D01*
X152703000Y-97303750D01*
X152544250Y-97145000D01*
X152030000Y-97141928D01*
X151905518Y-97154188D01*
X151785820Y-97190498D01*
X151675506Y-97249463D01*
X151578815Y-97328815D01*
X151499463Y-97425506D01*
X151484663Y-97453194D01*
X151475602Y-97449408D01*
X151447772Y-97443758D01*
X151420744Y-97435098D01*
X151390200Y-97431583D01*
X151399502Y-97414180D01*
X151435812Y-97294482D01*
X151448072Y-97170000D01*
X151445000Y-96455750D01*
X151286250Y-96297000D01*
X150187000Y-96297000D01*
X150187000Y-96317000D01*
X149933000Y-96317000D01*
X149933000Y-96297000D01*
X149913000Y-96297000D01*
X149913000Y-96043000D01*
X149933000Y-96043000D01*
X149933000Y-94693750D01*
X150187000Y-94693750D01*
X150187000Y-96043000D01*
X151286250Y-96043000D01*
X151445000Y-95884250D01*
X151448072Y-95170000D01*
X151435812Y-95045518D01*
X151399502Y-94925820D01*
X151340537Y-94815506D01*
X151261185Y-94718815D01*
X151164494Y-94639463D01*
X151054180Y-94580498D01*
X150934482Y-94544188D01*
X150810000Y-94531928D01*
X150345750Y-94535000D01*
X150187000Y-94693750D01*
X149933000Y-94693750D01*
X149774250Y-94535000D01*
X149310000Y-94531928D01*
X149185518Y-94544188D01*
X149065820Y-94580498D01*
X148955506Y-94639463D01*
X148926154Y-94663551D01*
X148917951Y-94654848D01*
X148884487Y-94630984D01*
X148852805Y-94604799D01*
X148832052Y-94593590D01*
X148812846Y-94579894D01*
X148775379Y-94562982D01*
X148739219Y-94543452D01*
X148716688Y-94536489D01*
X148695183Y-94526782D01*
X148686414Y-94523884D01*
X148629772Y-94505596D01*
X148596634Y-94498374D01*
X148564307Y-94488106D01*
X148533720Y-94484664D01*
X148503639Y-94478108D01*
X148469723Y-94477461D01*
X148436023Y-94473668D01*
X148426788Y-94473600D01*
X147081090Y-94473092D01*
X147031570Y-94477929D01*
X146981867Y-94480538D01*
X146972746Y-94481984D01*
X146931344Y-94488842D01*
X146878906Y-94502898D01*
X146826055Y-94515313D01*
X146816640Y-94519588D01*
X146806652Y-94522265D01*
X146757955Y-94546233D01*
X146708509Y-94568683D01*
X146700546Y-94573360D01*
X146655842Y-94600030D01*
X146645646Y-94607552D01*
X146634400Y-94613384D01*
X146603125Y-94638357D01*
X146581308Y-94653262D01*
X146564494Y-94639463D01*
X146454180Y-94580498D01*
X146334482Y-94544188D01*
X146210000Y-94531928D01*
X145427060Y-94531928D01*
X144805000Y-93909869D01*
X144805000Y-93209250D01*
X144955750Y-93360000D01*
X144970000Y-93363072D01*
X145094482Y-93350812D01*
X145214180Y-93314502D01*
X145324494Y-93255537D01*
X145421185Y-93176185D01*
X145500537Y-93079494D01*
X145559502Y-92969180D01*
X145595812Y-92849482D01*
X145608072Y-92725000D01*
X145607247Y-92607104D01*
X145613000Y-92602954D01*
X145613000Y-91212000D01*
X145867000Y-91212000D01*
X145867000Y-92602954D01*
X146041874Y-92729119D01*
X146264976Y-92649276D01*
X146452764Y-92527369D01*
X146613161Y-92371169D01*
X146740003Y-92186678D01*
X146828415Y-91980987D01*
X146875000Y-91762000D01*
X146875000Y-91212000D01*
X145867000Y-91212000D01*
X145613000Y-91212000D01*
X145601867Y-91212000D01*
X145595812Y-91150518D01*
X145593000Y-91141248D01*
X145593000Y-90958000D01*
X145613000Y-90958000D01*
X145613000Y-90938000D01*
X145867000Y-90938000D01*
X145867000Y-90958000D01*
X146875000Y-90958000D01*
X146875000Y-90408000D01*
X146858408Y-90330000D01*
X146951928Y-90330000D01*
X146964188Y-90454482D01*
X147000498Y-90574180D01*
X147059463Y-90684494D01*
X147138815Y-90781185D01*
X147235506Y-90860537D01*
X147345820Y-90919502D01*
X147465518Y-90955812D01*
X147590000Y-90968072D01*
X147624250Y-90965000D01*
X147783000Y-90806250D01*
X147783000Y-90162000D01*
X148037000Y-90162000D01*
X148037000Y-90806250D01*
X148195750Y-90965000D01*
X148230000Y-90968072D01*
X148354482Y-90955812D01*
X148474180Y-90919502D01*
X148584494Y-90860537D01*
X148681185Y-90781185D01*
X148760537Y-90684494D01*
X148819502Y-90574180D01*
X148855812Y-90454482D01*
X148868072Y-90330000D01*
X148865000Y-90320750D01*
X148706250Y-90162000D01*
X148037000Y-90162000D01*
X147783000Y-90162000D01*
X147113750Y-90162000D01*
X146955000Y-90320750D01*
X146951928Y-90330000D01*
X146858408Y-90330000D01*
X146828415Y-90189013D01*
X146740003Y-89983322D01*
X146631153Y-89825000D01*
X147030750Y-89825000D01*
X147113750Y-89908000D01*
X147380237Y-89908000D01*
X147436875Y-89938274D01*
X147584243Y-89982977D01*
X147737500Y-89998072D01*
X148082500Y-89998072D01*
X148235757Y-89982977D01*
X148245570Y-89980000D01*
X150691928Y-89980000D01*
X150704188Y-90104482D01*
X150740498Y-90224180D01*
X150799463Y-90334494D01*
X150878815Y-90431185D01*
X150975506Y-90510537D01*
X151085820Y-90569502D01*
X151205518Y-90605812D01*
X151330000Y-90618072D01*
X151644250Y-90615000D01*
X151803000Y-90456250D01*
X151803000Y-89007000D01*
X152057000Y-89007000D01*
X152057000Y-90456250D01*
X152215750Y-90615000D01*
X152530000Y-90618072D01*
X152654482Y-90605812D01*
X152774180Y-90569502D01*
X152884494Y-90510537D01*
X152981185Y-90431185D01*
X153060537Y-90334494D01*
X153119502Y-90224180D01*
X153155812Y-90104482D01*
X153168072Y-89980000D01*
X166191928Y-89980000D01*
X166204188Y-90104482D01*
X166240498Y-90224180D01*
X166299463Y-90334494D01*
X166378815Y-90431185D01*
X166475506Y-90510537D01*
X166585820Y-90569502D01*
X166705518Y-90605812D01*
X166830000Y-90618072D01*
X167144250Y-90615000D01*
X167303000Y-90456250D01*
X167303000Y-89007000D01*
X167557000Y-89007000D01*
X167557000Y-90456250D01*
X167715750Y-90615000D01*
X168030000Y-90618072D01*
X168154482Y-90605812D01*
X168274180Y-90569502D01*
X168384494Y-90510537D01*
X168481185Y-90431185D01*
X168560537Y-90334494D01*
X168619502Y-90224180D01*
X168655812Y-90104482D01*
X168668072Y-89980000D01*
X168665000Y-89165750D01*
X168506250Y-89007000D01*
X167557000Y-89007000D01*
X167303000Y-89007000D01*
X166353750Y-89007000D01*
X166195000Y-89165750D01*
X166191928Y-89980000D01*
X153168072Y-89980000D01*
X153165000Y-89165750D01*
X153006250Y-89007000D01*
X152057000Y-89007000D01*
X151803000Y-89007000D01*
X150853750Y-89007000D01*
X150695000Y-89165750D01*
X150691928Y-89980000D01*
X148245570Y-89980000D01*
X148383125Y-89938274D01*
X148439763Y-89908000D01*
X148706250Y-89908000D01*
X148865000Y-89749250D01*
X148868072Y-89740000D01*
X148855812Y-89615518D01*
X148819502Y-89495820D01*
X148815688Y-89488684D01*
X148852977Y-89365757D01*
X148868072Y-89212500D01*
X148868072Y-88917500D01*
X148852977Y-88764243D01*
X148808274Y-88616875D01*
X148735679Y-88481060D01*
X148637983Y-88362017D01*
X148518940Y-88264321D01*
X148383125Y-88191726D01*
X148235757Y-88147023D01*
X148082500Y-88131928D01*
X147737500Y-88131928D01*
X147584243Y-88147023D01*
X147436875Y-88191726D01*
X147301060Y-88264321D01*
X147251492Y-88305000D01*
X145867002Y-88305000D01*
X145867002Y-88172955D01*
X146041874Y-88299119D01*
X146264976Y-88219276D01*
X146452764Y-88097369D01*
X146613161Y-87941169D01*
X146723968Y-87780000D01*
X150691928Y-87780000D01*
X150695000Y-88594250D01*
X150853750Y-88753000D01*
X151803000Y-88753000D01*
X151803000Y-87303750D01*
X152057000Y-87303750D01*
X152057000Y-88753000D01*
X153006250Y-88753000D01*
X153165000Y-88594250D01*
X153165852Y-88368212D01*
X155495000Y-88368212D01*
X155495000Y-88591788D01*
X155538617Y-88811067D01*
X155624176Y-89017624D01*
X155748388Y-89203520D01*
X155906480Y-89361612D01*
X156092376Y-89485824D01*
X156298933Y-89571383D01*
X156518212Y-89615000D01*
X156741788Y-89615000D01*
X156961067Y-89571383D01*
X157167624Y-89485824D01*
X157353520Y-89361612D01*
X157511612Y-89203520D01*
X157635824Y-89017624D01*
X157721383Y-88811067D01*
X157765000Y-88591788D01*
X157765000Y-88368212D01*
X163475000Y-88368212D01*
X163475000Y-88591788D01*
X163518617Y-88811067D01*
X163604176Y-89017624D01*
X163728388Y-89203520D01*
X163886480Y-89361612D01*
X164072376Y-89485824D01*
X164278933Y-89571383D01*
X164498212Y-89615000D01*
X164721788Y-89615000D01*
X164941067Y-89571383D01*
X165147624Y-89485824D01*
X165333520Y-89361612D01*
X165491612Y-89203520D01*
X165615824Y-89017624D01*
X165701383Y-88811067D01*
X165745000Y-88591788D01*
X165745000Y-88368212D01*
X165701383Y-88148933D01*
X165615824Y-87942376D01*
X165507328Y-87780000D01*
X166191928Y-87780000D01*
X166195000Y-88594250D01*
X166353750Y-88753000D01*
X167303000Y-88753000D01*
X167303000Y-87303750D01*
X167557000Y-87303750D01*
X167557000Y-88753000D01*
X168506250Y-88753000D01*
X168665000Y-88594250D01*
X168668072Y-87780000D01*
X168655812Y-87655518D01*
X168619502Y-87535820D01*
X168560537Y-87425506D01*
X168481185Y-87328815D01*
X168384494Y-87249463D01*
X168274180Y-87190498D01*
X168154482Y-87154188D01*
X168030000Y-87141928D01*
X167715750Y-87145000D01*
X167557000Y-87303750D01*
X167303000Y-87303750D01*
X167144250Y-87145000D01*
X166830000Y-87141928D01*
X166705518Y-87154188D01*
X166585820Y-87190498D01*
X166475506Y-87249463D01*
X166378815Y-87328815D01*
X166299463Y-87425506D01*
X166240498Y-87535820D01*
X166204188Y-87655518D01*
X166191928Y-87780000D01*
X165507328Y-87780000D01*
X165491612Y-87756480D01*
X165333520Y-87598388D01*
X165147624Y-87474176D01*
X164941067Y-87388617D01*
X164721788Y-87345000D01*
X164498212Y-87345000D01*
X164278933Y-87388617D01*
X164072376Y-87474176D01*
X163886480Y-87598388D01*
X163728388Y-87756480D01*
X163604176Y-87942376D01*
X163518617Y-88148933D01*
X163475000Y-88368212D01*
X157765000Y-88368212D01*
X157721383Y-88148933D01*
X157635824Y-87942376D01*
X157511612Y-87756480D01*
X157353520Y-87598388D01*
X157167624Y-87474176D01*
X156961067Y-87388617D01*
X156741788Y-87345000D01*
X156518212Y-87345000D01*
X156298933Y-87388617D01*
X156092376Y-87474176D01*
X155906480Y-87598388D01*
X155748388Y-87756480D01*
X155624176Y-87942376D01*
X155538617Y-88148933D01*
X155495000Y-88368212D01*
X153165852Y-88368212D01*
X153168072Y-87780000D01*
X153155812Y-87655518D01*
X153119502Y-87535820D01*
X153060537Y-87425506D01*
X152981185Y-87328815D01*
X152884494Y-87249463D01*
X152774180Y-87190498D01*
X152654482Y-87154188D01*
X152530000Y-87141928D01*
X152215750Y-87145000D01*
X152057000Y-87303750D01*
X151803000Y-87303750D01*
X151644250Y-87145000D01*
X151330000Y-87141928D01*
X151205518Y-87154188D01*
X151085820Y-87190498D01*
X150975506Y-87249463D01*
X150878815Y-87328815D01*
X150799463Y-87425506D01*
X150740498Y-87535820D01*
X150704188Y-87655518D01*
X150691928Y-87780000D01*
X146723968Y-87780000D01*
X146740003Y-87756678D01*
X146828415Y-87550987D01*
X146875000Y-87332000D01*
X146875000Y-87032000D01*
X145867000Y-87032000D01*
X145867000Y-87052000D01*
X145613000Y-87052000D01*
X145613000Y-87032000D01*
X144605000Y-87032000D01*
X144605000Y-87332000D01*
X144651585Y-87550987D01*
X144739997Y-87756678D01*
X144866839Y-87941169D01*
X145027236Y-88097369D01*
X145215024Y-88219276D01*
X145438126Y-88299119D01*
X145612998Y-88172955D01*
X145612998Y-88305000D01*
X143832322Y-88305000D01*
X143794999Y-88301324D01*
X143757676Y-88305000D01*
X143757667Y-88305000D01*
X143646014Y-88315997D01*
X143502753Y-88359454D01*
X143370724Y-88430026D01*
X143254999Y-88524999D01*
X143231201Y-88553997D01*
X142159002Y-89626196D01*
X142129999Y-89649999D01*
X142084883Y-89704974D01*
X142035026Y-89765724D01*
X142033819Y-89767983D01*
X141964454Y-89897754D01*
X141920997Y-90041015D01*
X141917495Y-90076571D01*
X141882678Y-90080000D01*
X141487325Y-90080000D01*
X141450000Y-90076324D01*
X141412675Y-90080000D01*
X141412667Y-90080000D01*
X141301014Y-90090997D01*
X141157753Y-90134454D01*
X141025724Y-90205026D01*
X140909999Y-90299999D01*
X140886196Y-90329003D01*
X140658998Y-90556201D01*
X140630000Y-90579999D01*
X140606202Y-90608997D01*
X140606201Y-90608998D01*
X140583279Y-90636928D01*
X140520000Y-90636928D01*
X140430000Y-90645792D01*
X140430000Y-90077322D01*
X140433676Y-90039999D01*
X140430000Y-90002676D01*
X140430000Y-90002667D01*
X140419003Y-89891014D01*
X140375546Y-89747753D01*
X140304974Y-89615724D01*
X140210001Y-89499999D01*
X140181004Y-89476202D01*
X139258804Y-88554002D01*
X139235001Y-88524999D01*
X139119276Y-88430026D01*
X138987247Y-88359454D01*
X138843986Y-88315997D01*
X138732333Y-88305000D01*
X138732322Y-88305000D01*
X138695000Y-88301324D01*
X138657678Y-88305000D01*
X137227002Y-88305000D01*
X137227002Y-88172955D01*
X137401874Y-88299119D01*
X137624976Y-88219276D01*
X137812764Y-88097369D01*
X137973161Y-87941169D01*
X138100003Y-87756678D01*
X138188415Y-87550987D01*
X138235000Y-87332000D01*
X138235000Y-87032000D01*
X137227000Y-87032000D01*
X137227000Y-87052000D01*
X136973000Y-87052000D01*
X136973000Y-87032000D01*
X135965000Y-87032000D01*
X135965000Y-87332000D01*
X136011585Y-87550987D01*
X136099997Y-87756678D01*
X136226839Y-87941169D01*
X136387236Y-88097369D01*
X136575024Y-88219276D01*
X136798126Y-88299119D01*
X136972998Y-88172955D01*
X136972998Y-88305000D01*
X135632415Y-88305000D01*
X135588940Y-88269321D01*
X135453125Y-88196726D01*
X135305757Y-88152023D01*
X135152500Y-88136928D01*
X134807500Y-88136928D01*
X134654243Y-88152023D01*
X134506875Y-88196726D01*
X134371060Y-88269321D01*
X134252017Y-88367017D01*
X134154321Y-88486060D01*
X134081726Y-88621875D01*
X134037023Y-88769243D01*
X134021928Y-88922500D01*
X134021928Y-89217500D01*
X134037023Y-89370757D01*
X134074312Y-89493684D01*
X134070498Y-89500820D01*
X134034188Y-89620518D01*
X134021928Y-89745000D01*
X134025000Y-89754250D01*
X134183750Y-89913000D01*
X134450237Y-89913000D01*
X134506875Y-89943274D01*
X134654243Y-89987977D01*
X134807500Y-90003072D01*
X135152500Y-90003072D01*
X135305757Y-89987977D01*
X135453125Y-89943274D01*
X135509763Y-89913000D01*
X135776250Y-89913000D01*
X135864250Y-89825000D01*
X136208847Y-89825000D01*
X136099997Y-89983322D01*
X136011585Y-90189013D01*
X135965000Y-90408000D01*
X135965000Y-90958000D01*
X136973000Y-90958000D01*
X136973000Y-90938000D01*
X137227000Y-90938000D01*
X137227000Y-90958000D01*
X137247000Y-90958000D01*
X137247000Y-91141248D01*
X137244188Y-91150518D01*
X137238133Y-91212000D01*
X137227000Y-91212000D01*
X137227000Y-92602954D01*
X137232753Y-92607104D01*
X137231928Y-92725000D01*
X137244188Y-92849482D01*
X137280498Y-92969180D01*
X137339463Y-93079494D01*
X137418815Y-93176185D01*
X137515506Y-93255537D01*
X137625820Y-93314502D01*
X137745518Y-93350812D01*
X137870000Y-93363072D01*
X137884250Y-93360000D01*
X138035001Y-93209249D01*
X138035001Y-93894058D01*
X138030476Y-93940000D01*
X138048529Y-94123291D01*
X138054676Y-94143554D01*
X138101994Y-94299540D01*
X138188815Y-94461972D01*
X138305657Y-94604344D01*
X138341336Y-94633625D01*
X138632569Y-94924858D01*
X138692795Y-95070256D01*
X138806063Y-95239774D01*
X138950226Y-95383937D01*
X139119744Y-95497205D01*
X139308102Y-95575226D01*
X139309662Y-95575536D01*
X139265878Y-95619321D01*
X139158125Y-95561726D01*
X139010757Y-95517023D01*
X138857500Y-95501928D01*
X138562500Y-95501928D01*
X138409243Y-95517023D01*
X138286316Y-95554312D01*
X138279180Y-95550498D01*
X138159482Y-95514188D01*
X138035000Y-95501928D01*
X138025750Y-95505000D01*
X137867000Y-95663750D01*
X137867000Y-95930237D01*
X137836726Y-95986875D01*
X137792023Y-96134243D01*
X137776928Y-96287500D01*
X137776928Y-96632500D01*
X137792023Y-96785757D01*
X137836726Y-96933125D01*
X137867000Y-96989763D01*
X137867000Y-97256250D01*
X137950000Y-97339250D01*
X137950000Y-97732024D01*
X137897251Y-97667749D01*
X137777829Y-97569742D01*
X137641582Y-97496916D01*
X137493745Y-97452071D01*
X137340000Y-97436928D01*
X135690000Y-97436928D01*
X135536255Y-97452071D01*
X135388418Y-97496916D01*
X135252171Y-97569742D01*
X135132749Y-97667749D01*
X135034742Y-97787171D01*
X134961916Y-97923418D01*
X134917071Y-98071255D01*
X134901928Y-98225000D01*
X134901928Y-98363732D01*
X132417859Y-98348246D01*
X132404482Y-98344188D01*
X132280000Y-98331928D01*
X131380000Y-98331928D01*
X131285963Y-98341190D01*
X131175993Y-98340504D01*
X131150911Y-98342846D01*
X131127059Y-98349980D01*
X131105057Y-98361631D01*
X131085750Y-98377349D01*
X131069881Y-98396533D01*
X131058059Y-98418443D01*
X131056726Y-98422775D01*
X131025506Y-98439463D01*
X130928815Y-98518815D01*
X130849463Y-98615506D01*
X130846845Y-98620404D01*
X130803029Y-98633696D01*
X130778140Y-98641246D01*
X130641767Y-98714138D01*
X130522236Y-98812236D01*
X130497653Y-98842190D01*
X130042190Y-99297653D01*
X130012236Y-99322236D01*
X129914138Y-99441768D01*
X129841246Y-99578141D01*
X129796359Y-99726114D01*
X129785000Y-99841440D01*
X129785000Y-99841447D01*
X129781203Y-99880000D01*
X129230013Y-99880000D01*
X129230015Y-96780000D01*
X136806928Y-96780000D01*
X136819188Y-96904482D01*
X136855498Y-97024180D01*
X136914463Y-97134494D01*
X136993815Y-97231185D01*
X137090506Y-97310537D01*
X137200820Y-97369502D01*
X137320518Y-97405812D01*
X137445000Y-97418072D01*
X137454250Y-97415000D01*
X137613000Y-97256250D01*
X137613000Y-96587000D01*
X136968750Y-96587000D01*
X136810000Y-96745750D01*
X136806928Y-96780000D01*
X129230015Y-96780000D01*
X129230015Y-96140000D01*
X136806928Y-96140000D01*
X136810000Y-96174250D01*
X136968750Y-96333000D01*
X137613000Y-96333000D01*
X137613000Y-95663750D01*
X137454250Y-95505000D01*
X137445000Y-95501928D01*
X137320518Y-95514188D01*
X137200820Y-95550498D01*
X137090506Y-95609463D01*
X136993815Y-95688815D01*
X136914463Y-95785506D01*
X136855498Y-95895820D01*
X136819188Y-96015518D01*
X136806928Y-96140000D01*
X129230015Y-96140000D01*
X129230020Y-91212000D01*
X135965000Y-91212000D01*
X135965000Y-91762000D01*
X136011585Y-91980987D01*
X136099997Y-92186678D01*
X136226839Y-92371169D01*
X136387236Y-92527369D01*
X136575024Y-92649276D01*
X136798126Y-92729119D01*
X136973000Y-92602954D01*
X136973000Y-91212000D01*
X135965000Y-91212000D01*
X129230020Y-91212000D01*
X129230021Y-90335000D01*
X134021928Y-90335000D01*
X134034188Y-90459482D01*
X134070498Y-90579180D01*
X134129463Y-90689494D01*
X134208815Y-90786185D01*
X134305506Y-90865537D01*
X134415820Y-90924502D01*
X134535518Y-90960812D01*
X134660000Y-90973072D01*
X134694250Y-90970000D01*
X134853000Y-90811250D01*
X134853000Y-90167000D01*
X135107000Y-90167000D01*
X135107000Y-90811250D01*
X135265750Y-90970000D01*
X135300000Y-90973072D01*
X135424482Y-90960812D01*
X135544180Y-90924502D01*
X135654494Y-90865537D01*
X135751185Y-90786185D01*
X135830537Y-90689494D01*
X135889502Y-90579180D01*
X135925812Y-90459482D01*
X135938072Y-90335000D01*
X135935000Y-90325750D01*
X135776250Y-90167000D01*
X135107000Y-90167000D01*
X134853000Y-90167000D01*
X134183750Y-90167000D01*
X134025000Y-90325750D01*
X134021928Y-90335000D01*
X129230021Y-90335000D01*
X129230024Y-86478000D01*
X135965000Y-86478000D01*
X135965000Y-86778000D01*
X136973000Y-86778000D01*
X136973000Y-85637046D01*
X137227000Y-85637046D01*
X137227000Y-86778000D01*
X138235000Y-86778000D01*
X138235000Y-86478000D01*
X144605000Y-86478000D01*
X144605000Y-86778000D01*
X145613000Y-86778000D01*
X145613000Y-85637046D01*
X145867000Y-85637046D01*
X145867000Y-86778000D01*
X146875000Y-86778000D01*
X146875000Y-86478000D01*
X146828415Y-86259013D01*
X146740003Y-86053322D01*
X146613161Y-85868831D01*
X146452764Y-85712631D01*
X146264976Y-85590724D01*
X146041874Y-85510881D01*
X145867000Y-85637046D01*
X145613000Y-85637046D01*
X145438126Y-85510881D01*
X145215024Y-85590724D01*
X145027236Y-85712631D01*
X144866839Y-85868831D01*
X144739997Y-86053322D01*
X144651585Y-86259013D01*
X144605000Y-86478000D01*
X138235000Y-86478000D01*
X138188415Y-86259013D01*
X138100003Y-86053322D01*
X137973161Y-85868831D01*
X137812764Y-85712631D01*
X137624976Y-85590724D01*
X137401874Y-85510881D01*
X137227000Y-85637046D01*
X136973000Y-85637046D01*
X136798126Y-85510881D01*
X136575024Y-85590724D01*
X136387236Y-85712631D01*
X136226839Y-85868831D01*
X136099997Y-86053322D01*
X136011585Y-86259013D01*
X135965000Y-86478000D01*
X129230024Y-86478000D01*
X129230025Y-86403937D01*
X129259940Y-86113784D01*
X129336597Y-85864400D01*
X129460236Y-85634647D01*
X129626142Y-85433290D01*
X129828003Y-85267990D01*
X130058127Y-85145045D01*
X130307742Y-85069142D01*
X130599010Y-85040000D01*
X168187721Y-85040000D01*
X168479659Y-85068625D01*
G36*
X161105001Y-105804841D02*
G01*
X156259632Y-110650211D01*
X156107993Y-110569159D01*
X155912895Y-110509976D01*
X155760838Y-110495000D01*
X155375107Y-110495000D01*
X155256632Y-110376525D01*
X155082240Y-110260000D01*
X155256632Y-110143475D01*
X155463475Y-109936632D01*
X155471247Y-109925000D01*
X155944068Y-109925000D01*
X155990000Y-109929524D01*
X156035932Y-109925000D01*
X156173292Y-109911471D01*
X156349540Y-109858007D01*
X156511972Y-109771186D01*
X156654344Y-109654344D01*
X156683630Y-109618659D01*
X161105001Y-105197289D01*
X161105001Y-105804841D01*
G37*
X161105001Y-105804841D02*
X156259632Y-110650211D01*
X156107993Y-110569159D01*
X155912895Y-110509976D01*
X155760838Y-110495000D01*
X155375107Y-110495000D01*
X155256632Y-110376525D01*
X155082240Y-110260000D01*
X155256632Y-110143475D01*
X155463475Y-109936632D01*
X155471247Y-109925000D01*
X155944068Y-109925000D01*
X155990000Y-109929524D01*
X156035932Y-109925000D01*
X156173292Y-109911471D01*
X156349540Y-109858007D01*
X156511972Y-109771186D01*
X156654344Y-109654344D01*
X156683630Y-109618659D01*
X161105001Y-105197289D01*
X161105001Y-105804841D01*
G36*
X131956951Y-107658998D02*
G01*
X131951928Y-107710000D01*
X131955000Y-107744250D01*
X132113750Y-107903000D01*
X132758000Y-107903000D01*
X132758000Y-107883000D01*
X132921928Y-107883000D01*
X132921928Y-108177000D01*
X132758000Y-108177000D01*
X132758000Y-108157000D01*
X132113750Y-108157000D01*
X131955000Y-108315750D01*
X131951928Y-108350000D01*
X131964188Y-108474482D01*
X132000140Y-108593000D01*
X131483157Y-108593000D01*
X131355000Y-108464843D01*
X131355000Y-107657526D01*
X131956951Y-107658998D01*
G37*
X131956951Y-107658998D02*
X131951928Y-107710000D01*
X131955000Y-107744250D01*
X132113750Y-107903000D01*
X132758000Y-107903000D01*
X132758000Y-107883000D01*
X132921928Y-107883000D01*
X132921928Y-108177000D01*
X132758000Y-108177000D01*
X132758000Y-108157000D01*
X132113750Y-108157000D01*
X131955000Y-108315750D01*
X131951928Y-108350000D01*
X131964188Y-108474482D01*
X132000140Y-108593000D01*
X131483157Y-108593000D01*
X131355000Y-108464843D01*
X131355000Y-107657526D01*
X131956951Y-107658998D01*
G36*
X142610000Y-95784802D02*
G01*
X142610000Y-97506761D01*
X142591582Y-97496916D01*
X142443745Y-97452071D01*
X142290000Y-97436928D01*
X140640000Y-97436928D01*
X140486255Y-97452071D01*
X140480000Y-97453968D01*
X140480000Y-96554801D01*
X141181003Y-95853799D01*
X141210001Y-95830001D01*
X141233804Y-95800998D01*
X141930000Y-95104801D01*
X142610000Y-95784802D01*
G37*
X142610000Y-95784802D02*
X142610000Y-97506761D01*
X142591582Y-97496916D01*
X142443745Y-97452071D01*
X142290000Y-97436928D01*
X140640000Y-97436928D01*
X140486255Y-97452071D01*
X140480000Y-97453968D01*
X140480000Y-96554801D01*
X141181003Y-95853799D01*
X141210001Y-95830001D01*
X141233804Y-95800998D01*
X141930000Y-95104801D01*
X142610000Y-95784802D01*
M02*
