M48
; DRILL file {KiCad 5.1.5+dfsg1-2build2} date Thu 02 Dec 2021 03:55:02 PM CET
; FORMAT={-:-/ absolute / metric / decimal}
; #@! TF.CreationDate,2021-12-02T15:55:02+01:00
; #@! TF.GenerationSoftware,Kicad,Pcbnew,5.1.5+dfsg1-2build2
; #@! TF.FileFunction,Plated,1,2,PTH
FMAT,2
METRIC
T1C0.400
T2C0.600
T3C1.000
%
G90
G05
T1
X132.87Y-103.45
X132.89Y-109.02
X134.605Y-109.02
X134.8Y-103.46
X134.91Y-92.05
X135.76Y-93.25
X139.61Y-94.58
X141.79Y-96.63
X143.87Y-94.58
X144.08Y-109.45
X145.03Y-102.39
X145.17Y-98.91
X145.63Y-104.26
X147.27Y-93.05
X147.66Y-104.26
X148.07Y-91.81
X149.69Y-104.26
X150.28Y-98.91
X150.44Y-102.39
X156.1Y-115.38
X156.11Y-110.2
X156.11Y-112.76
X157.58Y-96.14
X158.65Y-96.14
X159.72Y-96.14
X160.79Y-96.14
X161.86Y-96.14
X162.93Y-96.14
X164.0Y-96.14
X165.07Y-96.14
X166.14Y-96.14
T3
X131.38Y-111.5
X133.92Y-111.5
X136.46Y-111.5
X139.0Y-111.5
X141.54Y-111.5
X144.08Y-111.5
X154.31Y-103.91
X154.31Y-106.45
X154.31Y-108.99
X154.31Y-111.53
X154.31Y-114.07
X154.31Y-116.61
T2
X137.1Y-87.205G85X137.1Y-86.605
G05
X137.1Y-91.635G85X137.1Y-90.535
G05
X145.74Y-87.205G85X145.74Y-86.605
G05
X145.74Y-91.635G85X145.74Y-90.535
G05
T0
M30
